<?xml version="1.0" encoding="UTF-8" standalone="no"?>
<!DOCTYPE svg PUBLIC "-//W3C//DTD SVG 1.1//EN" "http://www.w3.org/Graphics/SVG/1.1/DTD/svg11.dtd">
<svg width="100%" height="100%" viewBox="0 0 495 188" version="1.1" xmlns="http://www.w3.org/2000/svg" xmlns:xlink="http://www.w3.org/1999/xlink" xml:space="preserve" xmlns:serif="http://www.serif.com/" style="fill-rule:evenodd;clip-rule:evenodd;stroke-linejoin:round;stroke-miterlimit:1.5;">
    <g transform="matrix(1,0,0,1,-61.5,-53)">
        <g>
            <g transform="matrix(1,0,0,1,2,6)">
                <g transform="matrix(0.916667,0,0,0.916667,35.9167,-30.75)">
                    <path d="M179,90.141C179,88.408 177.592,87 175.859,87L158.141,87C156.408,87 155,88.408 155,90.141L155,107.859C155,109.592 156.408,111 158.141,111L175.859,111C177.592,111 179,109.592 179,107.859L179,90.141Z" style="fill:rgb(218,7,59);"/>
                </g>
                <g transform="matrix(0.916667,0,0,0.916667,66.4722,-30.75)">
                    <path d="M179,90.141C179,88.408 177.592,87 175.859,87L158.141,87C156.408,87 155,88.408 155,90.141L155,107.859C155,109.592 156.408,111 158.141,111L175.859,111C177.592,111 179,109.592 179,107.859L179,90.141Z" style="fill:rgb(218,7,59);"/>
                </g>
                <g transform="matrix(0.916667,0,0,0.916667,97.0278,-30.75)">
                    <path d="M179,90.141C179,88.408 177.592,87 175.859,87L158.141,87C156.408,87 155,88.408 155,90.141L155,107.859C155,109.592 156.408,111 158.141,111L175.859,111C177.592,111 179,109.592 179,107.859L179,90.141Z" style="fill:rgb(218,7,59);"/>
                </g>
                <g transform="matrix(0.916667,0,0,0.916667,127.583,-30.75)">
                    <path d="M179,90.141C179,88.408 177.592,87 175.859,87L158.141,87C156.408,87 155,88.408 155,90.141L155,107.859C155,109.592 156.408,111 158.141,111L175.859,111C177.592,111 179,109.592 179,107.859L179,90.141Z" style="fill:rgb(218,7,59);"/>
                </g>
                <g transform="matrix(0.916667,0,0,0.916667,158.139,-30.75)">
                    <path d="M179,90.141C179,88.408 177.592,87 175.859,87L158.141,87C156.408,87 155,88.408 155,90.141L155,107.859C155,109.592 156.408,111 158.141,111L175.859,111C177.592,111 179,109.592 179,107.859L179,90.141Z" style="fill:rgb(218,7,59);"/>
                </g>
                <g transform="matrix(0.916667,0,0,0.916667,188.694,-30.75)">
                    <path d="M179,90.141C179,88.408 177.592,87 175.859,87L158.141,87C156.408,87 155,88.408 155,90.141L155,107.859C155,109.592 156.408,111 158.141,111L175.859,111C177.592,111 179,109.592 179,107.859L179,90.141Z" style="fill:rgb(218,7,59);"/>
                </g>
                <g transform="matrix(0.916667,0,0,0.916667,219.25,-30.75)">
                    <path d="M179,90.141C179,88.408 177.592,87 175.859,87L158.141,87C156.408,87 155,88.408 155,90.141L155,107.859C155,109.592 156.408,111 158.141,111L175.859,111C177.592,111 179,109.592 179,107.859L179,90.141Z" style="fill:rgb(218,7,59);"/>
                </g>
                <g transform="matrix(0.916667,0,0,0.916667,249.806,-30.75)">
                    <path d="M179,90.141C179,88.408 177.592,87 175.859,87L158.141,87C156.408,87 155,88.408 155,90.141L155,107.859C155,109.592 156.408,111 158.141,111L175.859,111C177.592,111 179,109.592 179,107.859L179,90.141Z" style="fill:rgb(218,7,59);"/>
                </g>
                <g transform="matrix(0.916667,0,0,0.916667,280.361,-30.75)">
                    <path d="M179,90.141C179,88.408 177.592,87 175.859,87L158.141,87C156.408,87 155,88.408 155,90.141L155,107.859C155,109.592 156.408,111 158.141,111L175.859,111C177.592,111 179,109.592 179,107.859L179,90.141Z" style="fill:rgb(218,7,59);"/>
                </g>
                <g transform="matrix(0.916667,0,0,0.916667,310.917,-30.75)">
                    <path d="M179,90.141C179,88.408 177.592,87 175.859,87L158.141,87C156.408,87 155,88.408 155,90.141L155,107.859C155,109.592 156.408,111 158.141,111L175.859,111C177.592,111 179,109.592 179,107.859L179,90.141Z" style="fill:rgb(218,7,59);"/>
                </g>
                <g transform="matrix(0.916667,0,0,0.916667,341.472,-30.75)">
                    <path d="M179,90.141C179,88.408 177.592,87 175.859,87L158.141,87C156.408,87 155,88.408 155,90.141L155,107.859C155,109.592 156.408,111 158.141,111L175.859,111C177.592,111 179,109.592 179,107.859L179,90.141Z" style="fill:rgb(218,7,59);"/>
                </g>
                <g transform="matrix(0.916667,0,0,0.916667,372.028,-30.75)">
                    <path d="M179,90.141C179,88.408 177.592,87 175.859,87L158.141,87C156.408,87 155,88.408 155,90.141L155,107.859C155,109.592 156.408,111 158.141,111L175.859,111C177.592,111 179,109.592 179,107.859L179,90.141Z" style="fill:rgb(218,7,59);"/>
                </g>
                <g transform="matrix(0.458333,0,0,0.916667,472.069,-30.75)">
                    <path d="M179,88.571C179,87.704 177.592,87 175.859,87L158.141,87C156.408,87 155,87.704 155,88.571L155,109.429C155,110.296 156.408,111 158.141,111L175.859,111C177.592,111 179,110.296 179,109.429L179,88.571Z" style="fill:rgb(218,7,59);"/>
                </g>
            </g>
            <g transform="matrix(1,0,0,1,44,7)">
                <text x="18px" y="54.332px" style="font-family:'TimesNewRomanPS-BoldMT', 'Times New Roman', serif;font-weight:700;font-size:12px;">RDC 1-0</text>
                <text x="65.994px" y="54.332px" style="font-family:'TimesNewRomanPSMT', 'Times New Roman', serif;font-size:12px;">Continuous</text>
                <text x="18px" y="71.332px" style="font-family:'TimesNewRomanPSMT', 'Times New Roman', serif;font-size:12px;fill:rgb(0,90,162);">Power ef<tspan x="60.768px " y="71.332px ">ﬁ</tspan>ciency: 0%</text>
            </g>
        </g>
        <g transform="matrix(1,0,0,1,-4.11587,16)">
            <g transform="matrix(1,0,0,1,197.671,164)">
                <text x="18px" y="54.332px" style="font-family:'TimesNewRomanPSMT', 'Times New Roman', serif;font-size:12px;">Scanning cycle</text>
            </g>
            <g transform="matrix(1,0,0,1,314.671,164)">
                <text x="18px" y="54.332px" style="font-family:'TimesNewRomanPSMT', 'Times New Roman', serif;font-size:12px;">Sleeping cycle</text>
            </g>
            <g transform="matrix(0.75,0,0,0.75,74.4214,141.75)">
                <path d="M179,90.106C179,88.392 177.608,87 175.894,87L158.106,87C156.392,87 155,88.392 155,90.106L155,107.894C155,109.608 156.392,111 158.106,111L175.894,111C177.608,111 179,109.608 179,107.894L179,90.106Z" style="fill:rgb(217,22,86);"/>
            </g>
            <g transform="matrix(0.75,0,0,0.75,191.421,141.75)">
                <path d="M179,90.12C179,88.398 177.602,87 175.88,87L158.12,87C156.398,87 155,88.398 155,90.12L155,107.88C155,109.602 156.398,111 158.12,111L175.88,111C177.602,111 179,109.602 179,107.88L179,90.12Z" style="fill:rgb(108,190,199);"/>
            </g>
        </g>
        <g transform="matrix(1.10914,0,0,1,-6.76685,8.75)">
            <path d="M62,89L481.343,89" style="fill:none;stroke:rgb(113,113,113);stroke-width:0.95px;"/>
        </g>
        <g transform="matrix(1.10914,0,0,1,-6.76685,70.25)">
            <path d="M62,89L481.343,89" style="fill:none;stroke:rgb(113,113,113);stroke-width:0.95px;"/>
        </g>
        <g transform="matrix(1,0,0,1,0,61.5)">
            <g transform="matrix(1,0,0,1,2,6)">
                <g transform="matrix(0.916667,0,0,0.916667,35.9167,-30.75)">
                    <path d="M179,90.141C179,88.408 177.592,87 175.859,87L158.141,87C156.408,87 155,88.408 155,90.141L155,107.859C155,109.592 156.408,111 158.141,111L175.859,111C177.592,111 179,109.592 179,107.859L179,90.141Z" style="fill:rgb(218,7,59);"/>
                </g>
                <g transform="matrix(0.916667,0,0,0.916667,66.4722,-30.75)">
                    <path d="M179,90.141C179,88.408 177.592,87 175.859,87L158.141,87C156.408,87 155,88.408 155,90.141L155,107.859C155,109.592 156.408,111 158.141,111L175.859,111C177.592,111 179,109.592 179,107.859L179,90.141Z" style="fill:rgb(108,190,199);"/>
                </g>
                <g transform="matrix(0.916667,0,0,0.916667,97.0278,-30.75)">
                    <path d="M179,90.141C179,88.408 177.592,87 175.859,87L158.141,87C156.408,87 155,88.408 155,90.141L155,107.859C155,109.592 156.408,111 158.141,111L175.859,111C177.592,111 179,109.592 179,107.859L179,90.141Z" style="fill:rgb(218,7,59);"/>
                </g>
                <g transform="matrix(0.916667,0,0,0.916667,127.583,-30.75)">
                    <path d="M179,90.141C179,88.408 177.592,87 175.859,87L158.141,87C156.408,87 155,88.408 155,90.141L155,107.859C155,109.592 156.408,111 158.141,111L175.859,111C177.592,111 179,109.592 179,107.859L179,90.141Z" style="fill:rgb(108,190,199);"/>
                </g>
                <g transform="matrix(0.916667,0,0,0.916667,158.139,-30.75)">
                    <path d="M179,90.141C179,88.408 177.592,87 175.859,87L158.141,87C156.408,87 155,88.408 155,90.141L155,107.859C155,109.592 156.408,111 158.141,111L175.859,111C177.592,111 179,109.592 179,107.859L179,90.141Z" style="fill:rgb(218,7,59);"/>
                </g>
                <g transform="matrix(0.916667,0,0,0.916667,188.694,-30.75)">
                    <path d="M179,90.141C179,88.408 177.592,87 175.859,87L158.141,87C156.408,87 155,88.408 155,90.141L155,107.859C155,109.592 156.408,111 158.141,111L175.859,111C177.592,111 179,109.592 179,107.859L179,90.141Z" style="fill:rgb(108,190,199);"/>
                </g>
                <g transform="matrix(0.916667,0,0,0.916667,219.25,-30.75)">
                    <path d="M179,90.141C179,88.408 177.592,87 175.859,87L158.141,87C156.408,87 155,88.408 155,90.141L155,107.859C155,109.592 156.408,111 158.141,111L175.859,111C177.592,111 179,109.592 179,107.859L179,90.141Z" style="fill:rgb(218,7,59);"/>
                </g>
                <g transform="matrix(0.916667,0,0,0.916667,249.806,-30.75)">
                    <path d="M179,90.141C179,88.408 177.592,87 175.859,87L158.141,87C156.408,87 155,88.408 155,90.141L155,107.859C155,109.592 156.408,111 158.141,111L175.859,111C177.592,111 179,109.592 179,107.859L179,90.141Z" style="fill:rgb(108,190,199);"/>
                </g>
                <g transform="matrix(0.916667,0,0,0.916667,280.361,-30.75)">
                    <path d="M179,90.141C179,88.408 177.592,87 175.859,87L158.141,87C156.408,87 155,88.408 155,90.141L155,107.859C155,109.592 156.408,111 158.141,111L175.859,111C177.592,111 179,109.592 179,107.859L179,90.141Z" style="fill:rgb(218,7,59);"/>
                </g>
                <g transform="matrix(0.916667,0,0,0.916667,310.917,-30.75)">
                    <path d="M179,90.141C179,88.408 177.592,87 175.859,87L158.141,87C156.408,87 155,88.408 155,90.141L155,107.859C155,109.592 156.408,111 158.141,111L175.859,111C177.592,111 179,109.592 179,107.859L179,90.141Z" style="fill:rgb(108,190,199);"/>
                </g>
                <g transform="matrix(0.916667,0,0,0.916667,372.028,-30.75)">
                    <path d="M179,90.141C179,88.408 177.592,87 175.859,87L158.141,87C156.408,87 155,88.408 155,90.141L155,107.859C155,109.592 156.408,111 158.141,111L175.859,111C177.592,111 179,109.592 179,107.859L179,90.141Z" style="fill:rgb(108,190,199);"/>
                </g>
                <g transform="matrix(0.916667,0,0,0.916667,341.472,-30.75)">
                    <path d="M179,90.141C179,88.408 177.592,87 175.859,87L158.141,87C156.408,87 155,88.408 155,90.141L155,107.859C155,109.592 156.408,111 158.141,111L175.859,111C177.592,111 179,109.592 179,107.859L179,90.141Z" style="fill:rgb(218,7,59);"/>
                </g>
                <g transform="matrix(0.458333,0,0,0.916667,472.069,-30.75)">
                    <path d="M179,88.571C179,87.704 177.592,87 175.859,87L158.141,87C156.408,87 155,87.704 155,88.571L155,109.429C155,110.296 156.408,111 158.141,111L175.859,111C177.592,111 179,110.296 179,109.429L179,88.571Z" style="fill:rgb(218,7,59);"/>
                </g>
            </g>
            <g transform="matrix(1,0,0,1,44,7)">
                <text x="18px" y="53.945px" style="font-family:'TimesNewRomanPS-BoldMT', 'Times New Roman', serif;font-weight:700;font-size:12px;">RDC 1-1</text>
                <text x="18px" y="70.945px" style="font-family:'TimesNewRomanPSMT', 'Times New Roman', serif;font-size:12px;fill:rgb(0,90,162);">Power ef<tspan x="60.768px " y="70.945px ">ﬁ</tspan>ciency: 50%</text>
            </g>
        </g>
        <g transform="matrix(1,0,0,1,1.42109e-14,123)">
            <g transform="matrix(1,0,0,1,2,6)">
                <g transform="matrix(0.916667,0,0,0.916667,35.9167,-30.75)">
                    <path d="M179,90.141C179,88.408 177.592,87 175.859,87L158.141,87C156.408,87 155,88.408 155,90.141L155,107.859C155,109.592 156.408,111 158.141,111L175.859,111C177.592,111 179,109.592 179,107.859L179,90.141Z" style="fill:rgb(218,7,59);"/>
                </g>
                <g transform="matrix(0.916667,0,0,0.916667,66.4722,-30.75)">
                    <path d="M179,90.141C179,88.408 177.592,87 175.859,87L158.141,87C156.408,87 155,88.408 155,90.141L155,107.859C155,109.592 156.408,111 158.141,111L175.859,111C177.592,111 179,109.592 179,107.859L179,90.141Z" style="fill:rgb(218,7,59);"/>
                </g>
                <g transform="matrix(0.916667,0,0,0.916667,97.0278,-30.75)">
                    <path d="M179,90.141C179,88.408 177.592,87 175.859,87L158.141,87C156.408,87 155,88.408 155,90.141L155,107.859C155,109.592 156.408,111 158.141,111L175.859,111C177.592,111 179,109.592 179,107.859L179,90.141Z" style="fill:rgb(218,7,59);"/>
                </g>
                <g transform="matrix(0.916667,0,0,0.916667,127.583,-30.75)">
                    <path d="M179,90.141C179,88.408 177.592,87 175.859,87L158.141,87C156.408,87 155,88.408 155,90.141L155,107.859C155,109.592 156.408,111 158.141,111L175.859,111C177.592,111 179,109.592 179,107.859L179,90.141Z" style="fill:rgb(108,190,199);"/>
                </g>
                <g transform="matrix(0.916667,0,0,0.916667,158.139,-30.75)">
                    <path d="M179,90.141C179,88.408 177.592,87 175.859,87L158.141,87C156.408,87 155,88.408 155,90.141L155,107.859C155,109.592 156.408,111 158.141,111L175.859,111C177.592,111 179,109.592 179,107.859L179,90.141Z" style="fill:rgb(108,190,199);"/>
                </g>
                <g transform="matrix(0.916667,0,0,0.916667,188.694,-30.75)">
                    <path d="M179,90.141C179,88.408 177.592,87 175.859,87L158.141,87C156.408,87 155,88.408 155,90.141L155,107.859C155,109.592 156.408,111 158.141,111L175.859,111C177.592,111 179,109.592 179,107.859L179,90.141Z" style="fill:rgb(108,190,199);"/>
                </g>
                <g transform="matrix(0.916667,0,0,0.916667,219.25,-30.75)">
                    <path d="M179,90.141C179,88.408 177.592,87 175.859,87L158.141,87C156.408,87 155,88.408 155,90.141L155,107.859C155,109.592 156.408,111 158.141,111L175.859,111C177.592,111 179,109.592 179,107.859L179,90.141Z" style="fill:rgb(108,190,199);"/>
                </g>
                <g transform="matrix(0.916667,0,0,0.916667,249.806,-30.75)">
                    <path d="M179,90.141C179,88.408 177.592,87 175.859,87L158.141,87C156.408,87 155,88.408 155,90.141L155,107.859C155,109.592 156.408,111 158.141,111L175.859,111C177.592,111 179,109.592 179,107.859L179,90.141Z" style="fill:rgb(108,190,199);"/>
                </g>
                <g transform="matrix(0.916667,0,0,0.916667,280.361,-30.75)">
                    <path d="M179,90.141C179,88.408 177.592,87 175.859,87L158.141,87C156.408,87 155,88.408 155,90.141L155,107.859C155,109.592 156.408,111 158.141,111L175.859,111C177.592,111 179,109.592 179,107.859L179,90.141Z" style="fill:rgb(108,190,199);"/>
                </g>
                <g transform="matrix(0.916667,0,0,0.916667,310.917,-30.75)">
                    <path d="M179,90.141C179,88.408 177.592,87 175.859,87L158.141,87C156.408,87 155,88.408 155,90.141L155,107.859C155,109.592 156.408,111 158.141,111L175.859,111C177.592,111 179,109.592 179,107.859L179,90.141Z" style="fill:rgb(108,190,199);"/>
                </g>
                <g transform="matrix(0.916667,0,0,0.916667,372.028,-30.75)">
                    <path d="M179,90.141C179,88.408 177.592,87 175.859,87L158.141,87C156.408,87 155,88.408 155,90.141L155,107.859C155,109.592 156.408,111 158.141,111L175.859,111C177.592,111 179,109.592 179,107.859L179,90.141Z" style="fill:rgb(108,190,199);"/>
                </g>
                <g transform="matrix(0.916667,0,0,0.916667,341.472,-30.75)">
                    <path d="M179,90.141C179,88.408 177.592,87 175.859,87L158.141,87C156.408,87 155,88.408 155,90.141L155,107.859C155,109.592 156.408,111 158.141,111L175.859,111C177.592,111 179,109.592 179,107.859L179,90.141Z" style="fill:rgb(108,190,199);"/>
                </g>
                <g transform="matrix(0.458333,0,0,0.916667,472.069,-30.75)">
                    <path d="M179,88.571C179,87.704 177.592,87 175.859,87L158.141,87C156.408,87 155,87.704 155,88.571L155,109.429C155,110.296 156.408,111 158.141,111L175.859,111C177.592,111 179,110.296 179,109.429L179,88.571Z" style="fill:rgb(218,7,59);"/>
                </g>
            </g>
            <g transform="matrix(1,0,0,1,44,7)">
                <text x="18px" y="53.945px" style="font-family:'TimesNewRomanPS-BoldMT', 'Times New Roman', serif;font-weight:700;font-size:12px;">RDC 3-12</text>
                <text x="18px" y="70.945px" style="font-family:'TimesNewRomanPSMT', 'Times New Roman', serif;font-size:12px;fill:rgb(0,90,162);">Power ef<tspan x="60.768px " y="70.945px ">ﬁ</tspan>ciency: 80%</text>
            </g>
        </g>
    </g>
</svg>
