<svg class="main-svg" xmlns="http://www.w3.org/2000/svg" xmlns:xlink="http://www.w3.org/1999/xlink" width="625" height="300" style="" viewBox="0 0 625 300"><rect x="0" y="0" width="625" height="300" style="fill: rgb(255, 255, 255); fill-opacity: 1;"/><defs id="defs-73feef"><g class="clips"><clipPath id="clip73feefxyplot" class="plotclip"><rect width="565" height="210"/></clipPath><clipPath class="axesclip" id="clip73feefx"><rect x="50" y="0" width="565" height="300"/></clipPath><clipPath class="axesclip" id="clip73feefy"><rect x="0" y="50" width="625" height="210"/></clipPath><clipPath class="axesclip" id="clip73feefxy"><rect x="50" y="50" width="565" height="210"/></clipPath></g><g class="gradients"/><g class="patterns"/></defs><g class="bglayer"><rect class="bg" x="50" y="50" width="565" height="210" style="fill: rgb(229, 236, 246); fill-opacity: 1; stroke-width: 0;"/></g><g class="layer-below"><g class="imagelayer"/><g class="shapelayer"/></g><g class="cartesianlayer"><g class="subplot xy"><g class="layer-subplot"><g class="shapelayer"/><g class="imagelayer"/></g><g class="minor-gridlayer"><g class="x"/><g class="y"/></g><g class="gridlayer"><g class="x"><path class="xgrid crisp" transform="translate(75.78,0)" d="M0,50v210" style="stroke: rgb(255, 255, 255); stroke-opacity: 1; stroke-width: 1px;"/><path class="xgrid crisp" transform="translate(184.45,0)" d="M0,50v210" style="stroke: rgb(255, 255, 255); stroke-opacity: 1; stroke-width: 1px;"/><path class="xgrid crisp" transform="translate(293.12,0)" d="M0,50v210" style="stroke: rgb(255, 255, 255); stroke-opacity: 1; stroke-width: 1px;"/><path class="xgrid crisp" transform="translate(401.79,0)" d="M0,50v210" style="stroke: rgb(255, 255, 255); stroke-opacity: 1; stroke-width: 1px;"/><path class="xgrid crisp" transform="translate(510.45,0)" d="M0,50v210" style="stroke: rgb(255, 255, 255); stroke-opacity: 1; stroke-width: 1px;"/></g><g class="y"><path class="ygrid crisp" transform="translate(0,237.62)" d="M50,0h565" style="stroke: rgb(255, 255, 255); stroke-opacity: 1; stroke-width: 1px;"/><path class="ygrid crisp" transform="translate(0,211.09)" d="M50,0h565" style="stroke: rgb(255, 255, 255); stroke-opacity: 1; stroke-width: 1px;"/><path class="ygrid crisp" transform="translate(0,176.03)" d="M50,0h565" style="stroke: rgb(255, 255, 255); stroke-opacity: 1; stroke-width: 1px;"/><path class="ygrid crisp" transform="translate(0,149.51)" d="M50,0h565" style="stroke: rgb(255, 255, 255); stroke-opacity: 1; stroke-width: 1px;"/><path class="ygrid crisp" transform="translate(0,122.99)" d="M50,0h565" style="stroke: rgb(255, 255, 255); stroke-opacity: 1; stroke-width: 1px;"/><path class="ygrid crisp" transform="translate(0,87.93)" d="M50,0h565" style="stroke: rgb(255, 255, 255); stroke-opacity: 1; stroke-width: 1px;"/><path class="ygrid crisp" transform="translate(0,61.41)" d="M50,0h565" style="stroke: rgb(255, 255, 255); stroke-opacity: 1; stroke-width: 1px;"/></g></g><g class="zerolinelayer"/><g class="layer-between"><g class="shapelayer"/><g class="imagelayer"/></g><path class="xlines-below"/><path class="ylines-below"/><g class="overlines-below"/><g class="xaxislayer-below"/><g class="yaxislayer-below"/><g class="overaxes-below"/><g class="overplot"><g class="xy" transform="translate(50,50)" clip-path="url(#clip73feefxyplot)"><g class="scatterlayer mlayer"><g class="trace scatter tracebddf44" style="stroke-miterlimit: 2; opacity: 1;"><g class="fills"/><g class="errorbars"/><g class="lines"><path class="js-line" d="M0,10.5L564.85,10.5" style="vector-effect: none; fill: none; stroke: rgb(99, 110, 250); stroke-opacity: 1; stroke-width: 2px; opacity: 1;"/></g><g class="points"/><g class="text"/></g><g class="trace scatter trace54f71c" style="stroke-miterlimit: 2; opacity: 1;"><g class="fills"/><g class="errorbars"/><g class="lines"><path class="js-line" d="M0.01,148.88L1.07,149.15L1.6,149.15L5.86,148.03L6.39,148.26L8.52,147.75L9.06,147.55L11.72,147.23L12.25,147.47L14.38,147.19L14.91,148.14L15.44,147.03L15.97,147.35L16.51,147.47L19.7,147.23L20.23,147.23L25.56,146.99L26.09,147.07L31.41,146.42L31.94,146.62L37.8,146.42L38.33,157.76L39.4,187.39L39.93,187.19L42.06,186.01L42.59,185.22L44.19,184.7L44.72,184.58L48.98,184L49.51,184.06L50.58,183.66L51.11,183.44L54.3,183.38L54.84,183.32L59.09,183.26L59.63,183.32L60.69,183.07L61.23,183.26L63.35,183.04L63.88,183.13L65.48,183.26L66.01,183.35L67.61,183.13L68.14,183.22L75.06,183.19L75.59,183.22L78.79,183.22L79.32,157.45L80.92,150.14L81.45,149.46L82.51,148.65L83.05,147.63L84.11,147.47L84.64,147.35L86.24,147.15L86.77,146.46L92.09,145.79L92.62,144.62L93.69,145.63L94.22,144.42L113.91,143.12L114.44,143.3L116.04,142.85L116.57,155.42L117.64,182.75L118.17,182.81L119.23,182.53L119.77,183.1L120.83,182.4L121.36,182.08L135.74,181.82L136.27,181.26L138.4,181.62L138.93,181.69L146.38,181.62L146.91,181.29L150.11,181.65L150.64,181.49L152.77,181.46L153.3,181.46L155.43,181.62L155.96,156.48L157.56,149.19L158.09,148.14L158.63,148.42L159.16,147.63L161.82,146.33L162.35,146.33L162.89,146L163.42,144.64L163.95,145.67L164.48,144.45L169.27,143.94L169.81,144.19L171.4,143.33L171.93,143.41L174.6,143.1L175.13,142.76L175.66,143.41L176.19,142.94L176.72,142.81L179.39,142.88L179.92,142.63L182.05,142.67L182.58,142.56L186.84,142.45L187.37,142.06L188.97,142.74L189.5,142.42L190.57,142.58L191.1,142.54L192.16,142.33L192.69,142.24L194.82,142.81L195.36,179.74L196.42,183.16L196.95,183L208.13,182.04L208.66,182.27L221.97,182.43L222.51,181.82L223.57,183.51L224.1,182.5L226.23,182.01L226.77,182.75L227.83,182.27L228.36,182.21L233.69,182.5L234.22,157.48L235.82,149.99L236.35,148.92L238.48,146.54L239.01,146.74L240.61,144.62L241.14,145.71L241.68,145.67L242.21,144.01L244.87,143.59L245.4,143.59L247,143.19L247.53,143.28L248.6,142.88L249.13,143.59L251.79,142.76L252.32,142.85L257.11,142.51L257.64,142.1L259.24,142.26L259.77,142.33L265.09,142.1L265.63,142.22L269.89,142.42L270.42,141.8L271.48,142.29L272.01,141.99L272.55,142.03L273.08,156.8L274.15,180.01L274.68,180.46L283.2,179.7L283.73,179.77L286.39,179.91L286.92,179.77L289.05,179.95L289.59,179.88L291.72,180.05L292.25,181.19L293.31,180.05L293.85,179.88L295.44,180.05L295.98,179.81L297.57,180.01L298.1,180.15L301.29,180.15L301.83,180.42L303.43,180.15L303.96,180.29L305.55,180.32L306.09,180.83L307.15,180.12L307.68,180.01L309.28,180.22L309.81,180.01L311.94,180.18L312.48,158.78L314.07,148.18L314.61,147.07L315.14,146.74L315.67,144.58L316.2,146.5L316.74,144.42L322.06,141.96L322.6,142.24L325.26,141.87L325.79,142.81L326.85,140.6L327.39,141.17L328.98,140.74L329.52,140.74L332.18,140.72L332.71,140.53L334.84,139.85L335.37,140.14L335.9,139.75L336.44,140.38L339.63,138.86L340.16,139.33L341.23,139.88L341.76,139.8L343.89,140.24L344.43,140.07L346.56,140.34L347.09,140.09L348.15,141.15L348.68,140.34L350.29,140.74L350.82,140.31L351.88,176.36L352.41,177.36L354.01,177.62L354.55,177.4L359.87,177.62L360.4,177.51L367.85,177.72L368.39,177.54L370.52,177.58L371.05,178.12L372.65,177.69L373.18,177.83L376.37,177.94L376.9,177.32L377.97,177.83L378.5,177.51L379.04,178.55L379.57,177.54L387.02,177.62L387.55,178.44L388.62,177.65L389.15,177.76L393.42,177.76L393.95,157.36L395.54,149.04L396.08,148.07L399.27,143.26L399.8,143.21L400.87,143.12L401.4,142.92L403,142.92L403.53,142.26L404.6,142.54L405.13,142.13L406.19,142.26L406.72,142.49L408.32,142.03L408.85,141.96L409.38,141.64L409.92,142.51L415.77,143.03L416.3,142.51L421.09,142.08L421.63,141.52L424.82,141.99L425.35,141.8L426.95,141.85L427.48,142.22L428.01,141.41L428.55,141.96L429.08,141.66L429.61,143.12L430.68,175.52L431.21,175.87L432.81,176.06L433.34,176.36L436,175.6L436.53,175.9L439.19,175.41L439.72,175.6L441.33,175.87L441.86,175.67L448.25,175.71L448.78,176.13L449.84,176.09L450.38,175.87L451.45,175.83L451.98,175.64L454.11,176.13L454.64,175.9L456.24,176.13L456.77,175.75L460.5,176.17L461.03,176.02L462.09,176.13L462.62,176.28L464.22,176.51L464.76,176.51L468.48,176.32L469.01,155.03L470.61,147.51L471.14,146.25L472.74,143.33L473.27,142.51L474.87,142.24L475.4,141.71L489.24,140.19L489.78,140.7L490.84,139.75L491.38,140.48L492.97,140.09L493.5,139.95L496.7,140.22L497.23,140.17L498.83,139.58L499.36,139.83L504.15,139.75L504.68,139.85L506.81,139.85L507.35,143.83L508.41,146.78L508.94,147.19L511.07,148.14L511.6,148.34L516.4,149.34L516.93,149.27L522.78,149.27L523.32,149.72L525.45,150.06L525.98,149.72L527.58,149.68L528.11,149.65L529.18,149.91L529.71,149.99L533.44,149.61L533.97,150.17L535.56,149.72L536.1,149.95L539.29,150.28L539.83,149.91L546.22,150.06L546.75,149.31L548.35,143.17L548.88,142.15L549.94,142.1L550.48,141.71L556.34,140.55L556.87,140.62L558.47,140.7L559,140.24L560.6,140.41L561.13,140.43L563.79,140.58L564.32,140.41L564.86,140.62" style="vector-effect: none; fill: none; stroke: rgb(239, 85, 59); stroke-opacity: 1; stroke-width: 2px; opacity: 1;"/></g><g class="points"/><g class="text"/></g><g class="trace scatter trace0208fc" style="stroke-miterlimit: 2; opacity: 1;"><g class="fills"/><g class="errorbars"/><g class="lines"><path class="js-line" d="M0.13,27.09L1.2,27.89L1.73,27.6L2.26,27.69L2.8,26.65L3.33,26.02L3.86,26.47L4.39,26.68L5.99,25.45L6.52,25.9L7.06,24.78L7.59,25.48L8.65,25.27L9.18,25.42L11.31,24.56L11.85,24.99L13.44,23.94L13.97,24.25L14.51,24.06L15.04,25.12L15.57,23.94L16.11,24.53L16.64,24.41L18.23,24.34L18.76,24.62L20.89,23.81L21.43,24.03L23.02,23.07L23.56,23.94L25.15,22.98L25.69,23.3L26.75,23.3L27.28,23.3L27.82,24.19L28.35,23.2L30.48,23.27L31.01,22.85L33.67,22.98L34.2,22.42L34.74,23.27L35.27,22.72L35.8,21.96L37.93,23.52L38.46,57.42L39.53,96.22L40.06,95.92L44.32,93.12L44.85,92.96L45.38,92.92L45.91,91.53L46.45,92.58L46.98,91.51L47.51,91.42L48.04,92.58L49.11,91.47L49.64,91.62L54.97,91.1L55.5,90.55L57.1,91.03L57.63,90.94L61.89,90.44L62.42,90.84L71.47,90.88L72,91.05L73.06,91.19L73.59,90.94L75.19,90.77L75.72,91.03L78.92,90.99L79.45,45.26L81.05,31.99L81.58,31.66L83.18,28.96L83.71,29.07L84.24,27.52L84.77,27.95L85.31,27.23L86.37,26.85L86.9,26.23L89.56,25.21L90.09,25.18L94.35,23.52L94.88,22.88L95.41,23.78L95.95,23.3L96.48,23.36L97.54,23.4L98.07,22.94L99.67,22.62L100.21,22.46L101.8,22.06L102.33,22.75L106.06,21.53L106.59,21.59L110.85,21.09L111.38,21.43L112.98,20.75L113.51,20.85L116.17,20.68L116.7,53.34L117.76,88.8L118.3,89.81L119.36,89.17L119.89,89.9L120.43,89.1L120.96,89.56L121.49,88.92L123.09,88.73L123.62,88.64L129.48,88.36L130.01,88.48L131.08,88.5L131.61,88.22L133.74,88.31L134.27,88.01L135.33,88.39L135.87,88.31L137.99,88.69L138.53,88.29L140.12,88.73L140.66,88.46L150.77,88.53L151.3,89.06L151.84,89.08L152.37,88.27L152.9,89.08L153.43,88.73L153.97,88.85L155.03,88.8L155.56,82.85L156.63,35.83L157.16,32.97L158.76,29.89L159.29,28.71L161.95,26.14L162.48,26.05L164.08,24.99L164.61,24.72L167.27,23.4L167.81,23.2L168.34,23.36L168.87,22.65L169.4,22.49L169.93,23.17L170.47,21.93L171,22.59L171.53,22.19L173.66,21.86L174.19,22.16L175.26,21.99L175.79,21.93L177.39,20.88L177.92,21.63L178.45,20.75L178.98,21.39L180.58,20.68L181.11,21.29L183.24,20.09L183.77,20.5L186.43,19.98L186.97,20.3L190.69,19.98L191.23,19.6L192.29,19.53L192.82,19.91L194.42,19.1L194.95,19.74L196.02,89.24L196.55,90.04L200.81,89.79L201.34,89.2L202.41,90.17L202.94,89.56L204.54,89.56L205.07,89.52L207.73,89.97L208.26,89.27L211.46,90.24L211.99,89.79L218.91,89.7L219.44,90.33L220.51,90.28L221.04,90.73L223.17,89.83L223.7,91.55L224.24,89.88L224.77,90.33L225.3,89.99L226.9,90.79L227.43,89.9L229.56,90.26L230.09,90.01L231.69,90.1L232.22,90.26L233.82,90.79L234.35,45.55L235.42,34.34L235.95,32.67L237.54,28.68L238.07,27.98L240.74,24.93L241.27,24.9L242.87,23.46L243.4,24L245,22.82L245.53,22.91L248.72,22.16L249.26,22.49L250.32,21.79L250.85,21.89L252.98,21.09L253.52,21.43L254.05,20.75L254.58,21.79L256.71,20.68L257.24,20.68L257.77,19.84L258.31,20.33L258.84,20.3L259.9,20.09L260.43,19.98L260.97,20.71L261.5,19.95L263.1,19.7L263.63,20.4L264.69,19.1L265.23,19.63L266.29,19.91L266.82,20.05L267.35,19.63L267.88,20.19L268.95,19.81L269.48,19.42L272.14,19.98L272.68,19.21L274.28,84.91L274.81,85.62L276.41,86.09L276.94,85.21L278,85.03L278.54,85.92L279.6,85.24L280.13,85.62L281.2,85.41L281.73,85.31L286.52,85.54L287.06,85.36L288.12,85.74L288.65,85.34L290.25,86.09L290.78,85.77L291.85,85.74L292.38,86.76L293.98,85.82L294.51,86.24L295.57,86.17L296.1,86.27L297.7,85.64L298.23,86.02L299.83,86.41L300.36,85.79L301.96,86.19L302.49,86.34L306.22,87.24L306.75,86.36L308.35,86.12L308.88,86.66L309.94,86.54L310.47,86.49L312.07,86.76L312.61,46.57L314.2,29.62L314.73,27.86L315.27,27.58L315.8,25.33L316.33,26.29L316.86,25.06L318.99,22.29L319.53,22.09L321.12,19.98L321.66,20.5L323.26,20.81L323.79,20.44L325.39,19.63L325.92,20.54L326.98,17.6L327.52,18.88L330.71,17.71L331.24,17.75L332.84,17.67L333.37,16.81L334.43,15.57L334.97,16.08L336.56,17.19L337.1,16.58L339.23,13.18L339.76,13.93L341.35,16.58L341.89,16.7L342.95,16.08L343.49,16.77L344.55,16.47L345.09,16.73L346.15,15.96L346.68,16.54L347.75,15.81L348.28,17.45L349.35,16.85L349.88,16.89L350.95,17L351.48,67.9L352.55,80.53L353.08,81.39L354.67,81.08L355.21,81.13L358.93,81.44L359.47,81.27L360.53,81.42L361.06,81.13L365.32,81.86L365.85,81.13L370.64,81.1L371.18,81.39L374.37,81.3L374.9,81.89L375.44,80.96L375.97,81.5L376.5,81.72L377.57,81.7L378.1,81.61L378.63,81.13L379.16,82.61L380.23,81.33L380.76,81.78L383.42,81.42L383.96,81.3L386.62,81.44L387.15,81.22L388.21,81.67L388.75,81.75L390.35,81.42L390.88,81.58L391.94,81.36L392.48,81.25L393.54,81.56L394.08,43.03L395.67,30.32L396.21,26.68L396.74,26.56L397.27,25.45L399.4,20.23L399.93,20.75L400.46,19.84L400.99,21.93L402.59,20.54L403.13,20.85L403.66,19.35L404.19,19.91L404.72,19.81L405.79,18.67L406.32,19.63L407.38,18.81L407.92,19.49L408.45,18.27L408.98,18.52L409.52,19.7L411.11,20.78L411.64,20.64L413.24,20.05L413.77,20.05L415.37,19.67L415.9,20.26L416.96,19.24L417.5,19.91L419.09,18.52L419.63,19.38L421.22,17.97L421.76,16.2L423.35,18.81L423.88,18.12L424.42,18.7L424.95,17.26L426.01,17.79L426.55,17.3L427.08,17.93L427.61,17.41L428.14,17.64L429.21,17.86L429.74,35.74L430.8,76.89L431.34,77.57L432.94,77.67L433.47,77.95L434.53,77.26L435.06,77.45L436.13,77.36L436.66,77.64L441.98,77.95L442.52,77.45L443.59,78.04L444.12,77.64L446.78,78.07L447.31,77.67L448.38,78.19L448.91,78.13L452.1,78.31L452.64,78.19L453.17,78.01L453.7,79.4L454.77,78.28L455.3,78.28L456.37,78.37L456.9,78.28L459.56,78.59L460.09,78.62L464.35,78.71L464.88,78.5L465.95,78.98L466.48,78.71L467.55,78.74L468.08,78.62L468.61,74.06L469.14,37.86L470.74,26.11L471.27,24.09L473.4,20.54L473.93,20.12L475.53,19.56L476.06,18.59L476.6,18.77L477.13,17.93L477.66,18.52L478.19,18.04L478.72,17.64L479.79,17.04L480.32,17.9L482.45,16.81L482.98,17.26L485.65,15.93L486.18,16.12L487.78,15.65L488.31,15.57L489.37,15.34L489.91,16.39L491.5,15.34L492.04,15.57L493.63,14.5L494.17,15.02L497.36,15.06L497.89,14.3L498.42,15.18L498.96,14.09L500.02,14.94L500.55,13.89L501.62,14.5L502.15,14.82L503.22,13.93L503.75,13.97L504.81,14.82L505.35,14.54L506.41,13.97L506.94,14.26L508.01,26.02L508.54,26.71L510.14,28.17L510.67,28.17L512.8,28.57L513.33,29.01L514.4,28.85L514.93,28.93L515.46,30.1L515.99,29.75L516.53,29.59L519.19,29.81L519.72,30.42L520.79,29.89L521.32,29.91L523.98,30.53L524.51,30.32L525.04,30.16L525.58,30.98L526.64,30.24L527.18,30.45L528.77,30.53L529.31,31.03L530.37,30.64L530.9,30.95L531.97,30.18L532.5,30.79L534.63,30.48L535.16,30.53L537.29,30.53L537.82,29.67L539.42,30.85L539.95,30.5L542.08,30.37L542.62,30.79L544.21,30.87L544.75,30.64L546.35,30.61L546.88,26.35L548.48,18.16L549.01,17.71L549.54,18.16L550.08,17.19L553.27,16.31L553.81,16.27L554.87,15.46L555.4,15.77L558.6,15.73L559.13,14.82L560.2,15.1L560.73,15.02L561.79,15.5L562.33,14.98L562.86,14.5L563.39,15.1L564.99,14.42" style="vector-effect: none; fill: none; stroke: rgb(0, 204, 150); stroke-opacity: 1; stroke-width: 2px; opacity: 1;"/></g><g class="points"/><g class="text"/></g><g class="trace scatter trace17b539" style="stroke-miterlimit: 2; opacity: 1;"><g class="fills"/><g class="errorbars"/><g class="lines"><path class="js-line" d="M0.14,153.46L0.67,153.87L1.21,153.32L5.47,152.87L6,152.28L7.06,152.52L7.59,152.52L10.26,151.78L10.79,151.92L13.45,151.56L13.98,151.78L14.51,151.56L15.05,152.52L16.11,151.6L16.64,151.56L21.43,151.28L21.96,151.02L26.76,151.31L27.29,151.09L29.42,150.91L29.95,150.87L32.08,150.58L32.61,151.02L33.68,150.87L34.21,150.84L36.34,150.62L36.87,150.98L37.94,150.73L38.47,171.68L39.53,192.87L40.07,192.7L42.73,190.63L43.26,190.53L45.92,189.87L46.45,189.39L48.05,189.23L48.58,189.15L50.18,189.13L50.71,189.23L55.5,188.83L56.04,188.88L60.29,188.42L60.83,188.75L68.28,188.34L68.81,188.56L71.47,188.47L72,188.72L74.13,188.28L74.66,188.45L78.39,188.47L78.92,186.19L79.99,157.6L80.52,155.75L82.12,153.25L82.65,152.66L84.24,151.99L84.78,151.64L94.89,150.1L95.42,150.17L97.01,149.84L97.55,149.65L98.08,149.99L98.61,149.38L100.21,149.46L100.74,149.27L105,149.46L105.53,148.85L108.73,148.81L109.26,148.88L110.85,148.88L111.39,148.5L112.45,148.77L112.98,148.34L114.58,148.88L115.11,148.54L116.18,148.46L116.71,167.83L117.77,187.7L118.3,187.73L120.96,187.62L121.5,187.56L124.69,186.79L125.23,187.08L127.35,187.02L127.89,186.62L132.15,187.14L132.68,186.79L141.19,187.02L141.73,186.51L143.85,186.65L144.39,186.76L146.52,186.62L147.05,186.71L148.11,187.22L148.65,186.51L152.37,186.68L152.91,186.91L155.04,186.91L155.57,181.06L156.63,156.42L157.16,154.37L159.29,152.24L159.83,151.71L161.96,150.95L162.49,150.69L171.01,148.73L171.54,149.27L173.13,149.23L173.67,149.19L174.73,148.81L175.27,149.04L176.33,148.54L176.86,148.81L181.12,148.22L181.65,148.5L194.43,147.99L194.96,147.71L196.02,187.95L196.56,188.72L198.68,187.95L199.22,188.03L206.67,187.64L207.2,187.25L208.8,187.56L209.33,187.5L210.4,187.39L210.93,187.67L213.06,187.42L213.59,187.36L226.37,187.33L226.9,188.01L228.5,187.64L229.03,187.59L230.63,187.36L231.16,187.73L232.23,187.53L232.76,187.59L233.29,187.16L233.82,187.81L234.89,157.17L235.42,155.39L237.55,152.17L238.08,151.78L240.21,150.43L240.74,150.14L243.94,149.11L244.47,149.38L246.07,148.61L246.6,148.85L248.73,148.54L249.26,148.85L251.39,148.1L251.92,148.14L253.52,148.65L254.05,148.26L255.12,148.42L255.65,148.14L256.71,148.18L257.25,148.61L258.31,147.91L258.84,148.18L261.5,147.67L262.04,147.87L265.76,147.63L266.29,147.91L269.49,147.63L270.02,147.75L271.09,148.03L271.62,148.07L272.68,147.71L273.22,168.37L274.28,185.19L274.82,185.57L277.48,185.22L278.01,184.98L279.61,185.36L280.14,185.16L282.27,184.67L282.8,184.95L289.72,185.3L290.25,184.77L290.79,185.54L291.32,184.98L296.64,185.04L297.17,185.45L299.3,185.16L299.83,185.69L301.43,185.16L301.96,185.04L304.63,185.36L305.16,185.27L310.48,185.3L311.01,185.51L312.08,185.22L312.61,162.17L314.21,152.66L314.74,151.28L319,148.54L319.53,148.46L321.67,147.11L322.2,147.67L324.86,147.43L325.39,147.31L325.92,147.19L326.46,145.88L326.99,145.71L327.52,146.78L330.18,146.17L330.71,145.83L331.78,145.92L332.31,145.83L332.85,145.83L333.38,144.16L336.04,143.92L336.57,145.71L337.1,145.63L337.64,143.99L339.77,143.1L340.3,143.59L341.89,144.38L342.43,144.32L342.96,145.79L343.49,144.27L345.63,144.45L346.16,145.67L346.69,145.83L347.22,144.47L347.76,144.29L348.29,145.88L349.35,145.75L349.89,144.66L350.95,145.75L351.48,175.1L352.55,182.75L353.08,182.72L369.59,182.97L370.12,183.16L371.72,182.69L372.25,183L373.85,182.62L374.38,182.91L375.44,182.94L375.98,182.5L378.1,182.94L378.64,182.53L379.17,183.22L379.7,182.78L380.24,183.1L383.96,182.81L384.49,182.85L390.88,182.5L391.42,182.88L392.48,182.69L393.02,182.75L393.55,182.65L394.08,160.61L395.15,154.67L395.68,153.73L396.21,151.6L396.74,151.74L397.28,150.69L399.94,148.07L400.47,147.83L401.53,148.34L402.07,148.03L403.67,147.91L404.2,147.95L408.99,147.07L409.52,147.59L411.65,148.26L412.18,148.14L413.78,148.54L414.31,148.26L415.37,148.18L415.91,148.3L418.04,147.95L418.57,147.87L420.7,147.31L421.23,146.62L422.29,147.31L422.82,147.71L423.89,147.03L424.42,147.79L426.02,146.91L426.55,147.19L429.21,147.03L429.74,158.48L430.81,180.69L431.34,180.62L432.94,180.86L433.47,181.29L436.14,180.49L436.67,180.72L438.8,180.89L439.33,180.76L447.32,180.96L447.85,180.72L449.98,180.96L450.51,181.09L458.5,181.06L459.03,181.29L462.76,181.13L463.29,180.89L464.89,181.39L465.42,181.49L468.09,181.39L468.62,176.62L469.68,154.74L470.21,152.91L471.81,149.61L472.34,149.31L474.47,147.71L475,147.31L476.07,146.95L476.6,146.5L483.52,145.71L484.06,144.49L494.7,144.27L495.24,145.63L496.3,144.27L496.83,144.32L498.43,144.1L498.96,143.92L504.29,143.97L504.82,143.55L506.95,144.12L507.48,149.99L509.08,151.99L509.61,152.24L511.21,152.87L511.74,152.8L516.53,153.76L517.06,153.76L521.32,153.97L521.86,154.07L522.92,154.03L523.45,153.97L525.58,154.4L526.12,153.97L529.31,154.4L529.84,154.1L531.97,154.54L532.51,154.2L533.57,154.17L534.1,154.5L537.83,154.44L538.36,154.47L544.75,154.44L545.29,154.14L546.35,154.7L546.89,152.91L548.48,147.67L549.02,147.35L550.08,146.95L550.61,146.7L553.28,146L553.81,145.83L554.34,145.79L554.88,144.49L555.41,144.64L555.94,145.67L557.54,145.67L558.07,144.58L558.6,145.71L559.14,144.34L560.2,144.38L560.74,144.34L561.8,145.63L562.33,144.29L564.46,144.53L564.99,144.4" style="vector-effect: none; fill: none; stroke: rgb(171, 99, 250); stroke-opacity: 1; stroke-width: 2px; opacity: 1;"/></g><g class="points"/><g class="text"/></g><g class="trace scatter trace93f142" style="stroke-miterlimit: 2; opacity: 1;"><g class="fills"/><g class="errorbars"/><g class="lines"><path class="js-line" d="M0.15,88.6L1.21,88.57L1.74,88.36L5.47,87.65L6,87.15L7.07,87.03L7.6,87.05L10.79,86.41L11.32,86.02L13.46,85.84L13.99,85.94L14.52,85.79L15.05,86.78L16.65,86.02L17.18,85.97L19.84,86.09L20.37,85.62L23.04,85.67L23.57,85.57L24.63,85.36L25.16,85.67L26.23,85.77L26.76,85.67L28.36,85.19L28.89,85.67L31.55,84.83L32.08,85.01L37.41,85.14L37.94,84.73L39.54,140.24L40.07,139.75L40.6,139.63L41.14,138.66L43.8,137.15L44.33,136.54L45.39,136.56L45.93,136.72L49.66,135.46L50.19,135.95L52.32,135.59L52.85,135.32L62.43,134.93L62.96,134.49L65.62,134.82L66.16,134.77L67.22,135.02L67.75,134.93L68.82,134.52L69.35,135.1L73.07,134.82L73.6,134.85L78.39,135.02L78.93,130.8L79.99,94.98L80.53,91.9L82.12,89.52L82.66,88.85L84.25,87.07L84.79,87.07L86.91,86.14L87.44,86.22L92.23,85.24L92.76,84.73L94.89,84.47L95.43,84.65L96.49,84.39L97.02,84.88L98.09,83.81L98.62,84.26L100.75,83.39L101.28,83.71L103.41,83.68L103.94,83.01L110.33,82.85L110.86,82.69L111.39,83.2L111.93,82.47L112.99,82.44L113.52,82.88L114.58,82.5L115.12,82.96L116.18,82.19L116.71,109.24L117.78,133.92L118.31,134.09L119.37,133.84L119.91,134.52L120.97,133.89L121.5,133.55L124.7,133L125.23,133.26L128.96,133.49L129.49,132.68L130.55,133.23L131.09,132.76L141.2,132.79L141.73,133.14L143.86,132.65L144.39,132.73L145.46,132.82L145.99,132.7L149.18,133L149.72,132.76L152.91,133.23L153.44,132.88L154.51,133.14L155.04,133.03L155.57,123.76L156.1,97.65L157.7,89.33L158.24,88.46L159.83,87.44L160.37,86.68L161.96,85.57L162.5,85.72L163.03,85.77L163.56,84.93L164.62,85.11L165.16,84.75L169.42,83.68L169.95,83.84L171.54,83.55L172.08,83.52L173.67,82.66L174.2,83.25L176.33,82.8L176.87,82.85L180.06,82.44L180.59,82.11L181.66,82.28L182.19,82.28L183.79,81.95L184.32,82.44L185.38,81.78L185.91,82.25L194.97,81.61L195.5,131.42L196.56,134.82L197.09,134.63L210.4,134.04L210.94,134.26L212,134.09L212.53,133.81L220.52,133.89L221.05,134.57L222.12,133.86L222.65,133.84L223.18,133.84L223.71,134.91L224.78,133.95L225.31,134.06L226.38,133.58L226.91,134.52L227.97,133.66L228.5,134.18L231.17,134.18L231.7,133.84L232.76,133.95L233.3,134.26L233.83,134.06L234.36,99.55L235.96,90.5L236.49,88.69L237.02,88.43L237.56,87.12L245.01,83.17L245.54,83.57L246.61,83.01L247.14,83.23L250.33,82.63L250.87,82.63L252.46,82.17L252.99,82.69L260.45,81.58L260.98,82L263.64,81.42L264.17,81.58L265.77,81.7L266.3,81.75L271.62,81.39L272.16,81.61L272.69,81.72L273.22,110.33L274.29,130.56L274.82,131.24L278.55,130.65L279.08,131.02L280.68,130.49L281.21,130.99L286.53,130.62L287.07,131.05L288.66,130.9L289.2,131.02L291.86,130.87L292.39,131.3L293.45,130.99L293.99,131.33L296.65,131.02L297.18,131.27L298.24,131.17L298.78,131.11L300.37,131.08L300.9,131.08L301.97,131.14L302.5,131.17L305.7,131.27L306.23,131.75L307.29,131.14L307.82,131.51L309.95,131.14L310.49,131.39L312.08,131.02L312.62,101.23L314.22,88.78L314.75,87.68L315.81,85.24L316.34,85.72L316.88,84.83L319.01,83.39L319.54,83.33L321.67,81.72L322.21,81.78L325.93,81.97L326.46,80.16L329.66,80.45L330.19,80.16L332.85,80.04L333.38,79.54L334.45,78.71L334.98,79.16L336.04,78.95L336.58,79.84L339.24,77.04L339.77,77.54L342.43,79.48L342.96,79.01L345.63,79.13L346.16,79.19L347.23,79.31L347.76,79.04L348.83,79.84L349.36,79.45L349.89,80.13L350.43,79.43L350.96,79.51L351.49,117.36L352.56,127.24L353.09,127.65L354.69,127.51L355.22,127.88L357.35,127.51L357.88,128.18L360.54,127.41L361.07,127.61L363.2,127.98L363.74,127.31L365.87,127.38L366.4,127.51L375.45,127.92L375.98,127.28L377.58,127.92L378.11,127.81L378.64,127.31L379.18,128.25L381.3,127.68L381.84,127.51L385.56,128.02L386.1,127.88L387.16,127.65L387.69,127.95L390.89,127.65L391.42,127.88L392.49,127.71L393.02,128.02L393.56,127.81L394.09,98.77L395.68,89.17L396.22,87.27L397.28,85.74L397.82,84.34L399.94,81.89L400.47,81.92L401.01,83.44L401.54,82.82L402.07,82.33L402.61,82.06L403.14,82.9L404.2,81.89L404.74,81.72L405.8,81.44L406.33,81.92L407.93,81.39L408.46,81.16L411.66,82.41L412.19,82.41L415.91,82.41L416.44,81.72L418.04,82L418.57,82.06L419.64,81.5L420.17,82.03L421.23,80.53L421.77,80.22L423.37,81.86L423.9,80.76L424.43,81.58L424.96,80.76L426.03,80.76L426.56,80.76L427.62,80.88L428.15,80.68L429.22,80.82L429.75,97.87L430.82,124.64L431.35,125.19L433.48,125.33L434.01,125.47L435.61,125.08L436.14,125.01L449.45,125.47L449.99,125.65L451.05,125.11L451.59,125.36L452.65,125.04L453.18,125.79L456.38,125.29L456.91,125.86L457.98,125.68L458.51,125.79L461.7,125.9L462.23,125.4L464.9,125.58L465.43,125.44L467.56,125.4L468.09,126.21L468.62,117.53L469.15,95.8L470.75,86.59L471.28,84.91L472.35,83.47L472.88,83.49L473.95,81.89L474.48,81.92L477.67,80.3L478.2,80.16L480.33,80.04L480.87,80.1L481.93,79.63L482.46,80.33L483.53,79.57L484.06,79.81L485.66,78.86L486.19,79.04L489.39,78.62L489.92,79.28L490.45,78.65L490.98,79.22L493.11,78.22L493.65,78.44L497.37,78.8L497.91,78.5L498.44,78.56L498.97,77.7L500.04,78.07L500.57,78.19L501.63,78.5L502.17,78.37L506.96,78.34L507.49,84.54L509.09,87.07L509.62,87.72L517.07,89.4L517.6,89.17L519.73,89.54L520.27,89.83L522.4,89.49L522.93,89.7L528.25,90.08L528.79,90.33L529.32,90.57L529.85,89.97L531.45,90.33L531.98,90.04L533.58,90.33L534.11,90.48L535.18,90.3L535.71,90.37L537.3,90.19L537.84,89.83L538.9,90.5L539.43,89.9L540.5,90.42L541.03,90.42L543.69,90.64L544.23,90.37L545.29,89.88L545.83,90.37L546.36,90.3L546.89,87.53L548.49,81.42L549.02,80.79L550.09,80.1L550.62,79.84L552.22,79.72L552.75,79.48L554.35,79.31L554.88,79.16L558.08,79.13L558.61,79.19L559.14,78.5L559.68,78.98L560.21,78.86L562.87,78.65L563.4,79.01L564.47,78.86L565,79.16" style="vector-effect: none; fill: none; stroke: rgb(255, 161, 90); stroke-opacity: 1; stroke-width: 2px; opacity: 1;"/></g><g class="points"/><g class="text"/></g><g class="trace scatter trace0bc740" style="stroke-miterlimit: 2; opacity: 1;"><g class="fills"/><g class="errorbars"/><g class="lines"><path class="js-line" d="M0.21,97.65L1.8,97.57L2.34,97.28L4.47,96.87L5,96.57L6.06,96.6L6.59,96.07L8.19,96.11L8.73,95.84L15.64,95.41L16.18,95.53L18.84,95.02L19.37,95.06L22.03,94.39L22.56,95.1L23.63,94.63L24.16,94.55L38,93.86L38.53,132.88L39.6,154.64L40.13,154.3L43.86,151.17L44.39,150.91L46.52,150.51L47.05,150.06L48.12,150.32L48.65,150.14L49.18,149.42L49.72,149.99L52.38,149.65L52.91,149.38L55.04,149.68L55.57,149.34L60.36,149.08L60.9,149.08L62.49,149.11L63.02,149.04L64.09,149.11L64.62,149.11L73.67,149.31L74.2,149.04L75.79,149.31L76.33,149.23L78.46,149.08L78.99,137.07L80.06,105.32L80.59,101.99L82.71,98.48L83.25,97.76L84.31,97.61L84.84,96.6L86.97,96.3L87.51,95.96L91.76,94.47L92.29,94.94L96.02,93.94L96.55,93.74L98.15,93.78L98.68,93.41L101.87,93.29L102.4,93.04L104,92.96L104.53,92.96L107.73,93.08L108.26,91.55L108.79,92.62L109.32,92.11L109.86,91.85L110.39,92.58L110.92,91.98L113.05,91.53L113.58,91.51L114.65,91.29L115.18,91.75L116.24,91.12L116.77,128.02L117.84,148.38L118.37,148.42L119.97,148.57L120.5,148.22L121.56,147.99L122.1,147.91L124.23,147.15L124.76,147.47L127.42,146.99L127.95,147.63L129.55,147.27L130.08,147.27L131.15,147.15L131.68,147.15L133.28,147.15L133.81,147.47L135.94,146.66L136.47,147.11L138.6,146.86L139.13,147.07L143.92,146.95L144.45,147.11L148.18,147.27L148.71,146.58L149.78,147.11L150.31,146.82L155.1,147.07L155.63,130.28L156.7,103.38L157.23,100.69L158.83,98.45L159.36,98.09L161.49,95.92L162.02,95.84L164.15,95.18L164.69,94.63L166.81,94.27L167.35,93.86L169.47,93.49L170.01,93.66L172.14,93.29L172.67,92.62L174.8,92.79L175.33,92.11L176.4,91.83L176.93,91.92L177.99,91.73L178.52,91.42L183.85,91.12L184.38,91.42L187.04,91.03L187.57,90.37L188.11,91.27L188.64,90.53L189.7,90.99L190.24,90.73L194.49,90.55L195.03,97.54L196.09,148.81L196.62,149.46L203.54,148.3L204.07,148.38L207.8,148.34L208.33,148.22L216.85,148.22L217.38,148.54L218.45,148.1L218.98,148.38L222.71,148.18L223.24,148.07L223.77,148.92L224.31,148.54L224.84,148.38L226.44,148.03L226.97,148.69L229.1,148.14L229.63,148.65L230.7,148.57L231.23,148.38L233.36,148.54L233.89,140.38L234.96,104.41L235.49,102.15L237.62,97.94L238.15,97.31L239.21,95.84L239.74,95.76L241.35,94.94L241.88,94.94L243.47,93.74L244,93.66L245.07,93.54L245.6,93.17L247.73,93.12L248.26,92.87L249.33,93L249.86,91.98L250.93,91.83L251.46,92.58L251.99,92.75L252.52,91.45L254.12,91.66L254.65,92.71L255.72,91.45L256.25,91.12L258.38,91.27L258.91,91.32L260.51,91.08L261.04,91.1L265.83,90.21L266.36,90.66L269.56,90.42L270.09,90.57L271.68,90.19L272.21,90.59L272.75,90.75L273.28,127.78L274.35,144.1L274.88,144.36L280.74,143.68L281.27,143.77L285.53,143.53L286.06,143.75L287.66,143.33L288.19,143.64L290.85,143.92L291.38,143.75L291.92,143.66L292.45,144.4L294.58,143.66L295.11,143.72L296.71,144.08L297.24,143.57L299.37,144.25L299.9,144.08L305.76,143.97L306.29,144.1L307.35,143.97L307.89,144.29L308.95,143.81L309.48,143.97L312.14,144.34L312.68,110.23L314.27,98.84L314.81,97.43L318.53,93.33L319.07,93.45L320.13,91.85L320.66,90.81L321.73,91.01L322.27,91.53L323.86,90.94L324.39,91.21L325.99,90.53L326.52,89.22L328.65,89.52L329.18,89.29L331.85,88.8L332.38,88.92L333.44,87.91L333.98,87.1L335.57,88.27L336.1,87.58L337.7,87.82L338.23,86.41L339.3,84.96L339.83,86.12L341.43,87.58L341.96,87.8L344.1,88.41L344.63,88.27L351.02,88.8L351.55,132.76L352.62,140.48L353.15,140.72L358.47,140.96L359.01,140.19L360.07,140.84L360.6,140.02L361.13,139.85L361.67,140.55L368.06,140.41L368.59,140.7L371.25,140.29L371.78,140.48L377.64,140.38L378.17,140.48L378.7,140.09L379.24,140.86L380.83,140.34L381.37,140.38L386.69,140.09L387.22,139.95L388.29,140.41L388.82,140.22L389.88,140.81L390.42,140.07L391.49,140.34L392.02,140.12L392.55,139.78L393.09,140.41L393.62,140.67L394.15,107.54L395.75,98.98L396.28,96.53L397.34,95.3L397.87,93.82L398.94,92.75L399.47,91.47L400.54,90.86L401.07,91.36L401.6,91.53L402.13,90.88L403.2,91.21L403.73,89.92L404.8,90.04L405.33,89.9L406.39,90.06L406.92,90.13L407.46,89.38L407.99,90.26L409.05,90.08L409.59,90.33L411.18,91.53L411.71,91.14L417.04,90.55L417.57,90.13L418.1,90.7L418.63,90.17L419.17,89.83L420.23,90.7L420.76,89.24L422.36,88.97L422.89,89.86L423.96,89.92L424.49,89.88L425.55,89.15L426.08,89.31L427.15,89.61L427.68,88.53L428.22,89.47L428.75,89.1L429.28,88.78L430.87,137.59L431.41,137.2L433.01,137.69L433.54,137.77L436.73,137.2L437.27,137.61L440.99,137.56L441.53,137.51L445.79,137.17L446.32,137.56L451.65,137.67L452.18,137.2L455.37,137.85L455.91,137.85L456.97,137.22L457.5,137.43L461.23,137.85L461.76,137.41L463.36,137.72L463.89,137.67L466.55,138.36L467.09,137.87L468.15,137.79L468.68,124.83L469.75,100.17L470.28,98.2L471.88,93.45L472.41,93.41L474.01,90.73L474.54,90.57L475.07,90.81L475.6,90.21L477.73,89.22L478.27,89.29L479.33,88.67L479.86,88.83L480.4,89.43L480.93,88.85L482.53,88.43L483.06,88.36L487.85,87.29L488.38,87.82L489.44,87.34L489.98,87.94L493.71,86.76L494.24,87.17L495.3,87.15L495.83,86.81L497.43,87.34L497.96,86.41L498.5,87.22L499.03,86.44L500.63,86.14L501.16,87.05L502.76,86.88L503.29,86.04L503.82,86.64L504.35,85.94L505.42,86.78L505.95,86.41L507.01,86.61L507.55,94.74L509.15,97.13L509.68,97.17L510.21,97.76L510.74,97.17L512.34,98.38L512.87,98.48L515.53,98.84L516.06,99.16L518.2,99.23L518.73,99.34L522.45,99.76L522.99,99.79L527.25,100.17L527.78,99.83L529.91,100L530.44,100.41L531.51,99.72L532.04,99.9L534.7,99.72L535.23,100.28L535.77,99.72L536.3,100.28L537.9,100.41L538.43,100.28L539.5,99.48L540.03,100.21L540.56,99.86L541.09,100.41L542.16,99.72L542.69,100.24L543.75,100.31L544.29,99.9L545.35,100.45L545.89,99.83L546.42,100.38L546.95,96.22L548.55,90.13L549.08,88.85L550.15,89.47L550.68,88.78L552.28,87.84L552.81,88.67L554.94,87.56L555.47,87.75L559.2,87.2L559.73,87.07L560.8,87.2L561.33,87.27L563.99,86.95L564.53,86.76" style="vector-effect: none; fill: none; stroke: rgb(25, 211, 243); stroke-opacity: 1; stroke-width: 2px; opacity: 1;"/></g><g class="points"/><g class="text"/></g><g class="trace scatter trace9b0d52" style="stroke-miterlimit: 2; opacity: 1;"><g class="fills"/><g class="errorbars"/><g class="lines"><path class="js-line" d="M0.27,102.58L1.33,103.12L1.87,102.54L2.93,102.48L3.47,101.92L5.06,102.22L5.59,101.99L7.19,101.29L7.72,101.73L9.32,100.82L9.85,100.52L10.38,100.21L10.92,100.82L11.98,100.62L12.51,100.21L15.71,100.52L16.24,99.97L17.3,100.28L17.84,100.35L19.43,100.41L19.97,100.58L21.03,99.97L21.56,99.97L29.01,99.55L29.55,99.79L31.68,98.77L32.21,99.27L33.28,99.2L33.81,99.48L35.4,99.16L35.94,98.84L37,99.58L37.53,98.77L38.06,99.48L38.6,143.59L39.66,161.37L40.2,160.76L42.32,159.05L42.86,158.45L43.92,157.91L44.45,157.57L50.31,156.36L50.84,156.73L52.44,156.07L52.97,156.32L53.5,155.75L54.04,156.45L56.17,155.84L56.7,156.1L59.89,155.49L60.43,155.72L62.55,155.62L63.09,155.42L64.15,155.68L64.68,155.55L66.81,155.59L67.34,155.16L68.41,155.65L68.94,155.62L71.6,155.52L72.13,155.72L73.2,155.65L73.73,155.42L78.52,155.55L79.05,139.19L80.12,110.36L80.65,107.77L82.25,104.9L82.78,103.94L88.1,101.26L88.63,101.56L93.95,99.86L94.49,100.1L96.08,99.41L96.61,99.41L113.11,97.35L113.64,97.76L116.3,97.02L116.84,138.48L117.9,155.36L118.43,155.13L120.03,155.42L120.56,154.97L122.16,154.77L122.69,154.44L126.42,153.9L126.95,153.53L128.02,153.97L128.55,153.87L130.15,153.7L130.68,153.59L132.28,153.59L132.81,153.59L134.94,154L135.47,153.46L138.13,153.49L138.66,153.63L139.73,153.25L140.26,153.22L141.86,153.83L142.39,153.93L143.45,153.35L143.99,153.49L146.11,153.73L146.65,153.53L148.24,153.46L148.77,153.15L150.37,153.73L150.91,153.49L155.16,153.46L155.7,132.79L156.76,108.85L157.29,106.21L159.96,102.83L160.49,102.8L162.09,101.06L162.62,101.29L167.94,98.91L168.47,99.72L170.6,98.81L171.13,98.81L175.39,98.38L175.93,97.57L176.99,97.87L177.52,97.43L180.72,97.57L181.25,97.28L182.85,97.35L183.38,97.2L186.57,96.9L187.1,97.24L187.63,96.49L188.17,96.9L188.7,97.17L189.77,96.57L190.3,96.87L191.9,96.57L192.43,96.34L193.49,96.75L194.02,96.49L194.56,96.75L195.09,116.33L196.15,155.72L196.68,156.07L198.28,156.13L198.82,155.65L202.54,155.1L203.08,155.26L204.67,155.07L205.2,155.23L209.46,154.97L209.99,155.26L210.53,155.03L211.06,155.75L212.12,154.67L212.66,154.74L215.85,154.77L216.38,154.6L221.18,155.49L221.71,154.84L223.3,154.64L223.84,155.2L225.43,154.7L225.96,154.67L227.56,154.93L228.09,154.9L233.42,155.1L233.95,141.22L235.02,109.91L235.55,107.71L237.68,103.06L238.21,102.74L239.81,101.46L240.34,100.92L242.47,99.65L243.01,99.51L246.73,98.52L247.26,98.66L248.86,98.27L249.39,98.27L251.52,97.57L252.05,97.61L255.25,97.83L255.78,97.54L265.89,96.87L266.42,96.94L267.49,96.83L268.02,96.94L269.08,96.22L269.62,96.45L272.81,96.41L273.35,137.28L274.41,151.99L274.94,152.45L276.01,151.74L276.54,151.92L278.14,151.38L278.67,151.6L280.8,151.2L281.33,151.17L282.4,151.2L282.93,151.6L284.53,150.76L285.06,150.84L286.12,151.09L286.66,151.06L289.32,151.42L289.85,151.28L294.11,151.31L294.64,150.98L295.71,151.24L296.24,151.28L296.77,151.64L297.3,151.06L299.43,151.35L299.97,151.31L300.5,151.85L301.03,150.91L302.63,151.28L303.16,151.31L304.76,151.24L305.29,151.38L307.95,151.13L308.48,151.49L310.61,151.38L311.14,151.6L311.67,151.49L312.21,148.88L313.27,108.85L313.81,106.07L315.94,100.72L316.47,101.16L319.13,98.48L319.66,98.38L320.73,96.34L321.26,96.79L322.86,97.72L323.39,97.02L324.99,97.09L325.52,96.9L327.12,94.59L327.65,95.18L328.18,95.88L328.72,95.41L329.25,95.1L330.85,95.06L331.38,94.78L332.44,95.34L332.97,94.55L334.04,92.17L334.57,93.17L335.1,94.02L335.64,93.41L337.23,93.74L337.76,93.37L339.36,90.15L339.89,91.55L340.43,92.02L340.96,93.58L341.49,93.17L342.02,93.9L344.16,93.7L344.69,94.31L346.29,94.02L346.82,93.9L351.08,94.63L351.62,141.08L352.68,148.38L353.21,148.34L353.74,148.88L354.28,148.07L356.94,148.1L357.47,148.03L358,148.65L358.54,148.07L360.13,148.18L360.67,147.63L361.73,148.1L362.26,147.87L365.46,148.14L365.99,148.14L367.05,147.99L367.59,147.99L369.18,147.83L369.72,148.03L371.85,147.99L372.38,147.91L372.91,148.38L373.44,147.75L375.04,147.99L375.57,147.95L391.55,147.99L392.08,147.03L392.61,148.07L393.15,147.67L393.68,143.75L394.74,108.19L395.28,106.01L397.41,100.21L397.94,99.27L399.53,96.34L400.07,96.83L400.6,96.34L401.13,96.94L401.66,97.24L402.2,96.26L403.26,96.26L403.79,95.88L405.93,95.53L406.46,96.15L407.52,95.3L408.05,95.45L409.12,95.72L409.65,95.96L410.71,96.98L411.25,97.09L413.38,97.13L413.91,96.98L414.97,96.49L415.5,96.68L416.57,96.72L417.1,96.64L420.29,96.07L420.83,95.22L421.36,94.23L421.89,94.67L422.42,95.06L423.49,96.11L424.02,95.3L424.55,95.99L425.09,94.27L426.15,95.3L426.68,94.82L427.21,95.53L427.74,94.51L428.81,95.18L429.34,94.06L430.41,142.56L430.94,143.97L432.54,144.21L433.07,144.32L433.6,145.67L434.14,144.21L437.33,143.66L437.86,144.03L443.72,143.83L444.25,144.19L445.32,144.12L445.85,144.23L447.45,143.97L447.98,144.25L450.11,143.64L450.64,144.47L452.78,143.64L453.31,144.27L458.1,143.92L458.63,144.1L459.7,143.9L460.23,145.75L461.29,144.4L461.82,143.97L462.36,143.94L462.89,145.71L463.42,143.97L463.96,144.23L464.49,144.25L466.08,143.99L466.62,145.63L467.15,145.71L467.68,144.23L468.21,145.88L468.75,127.88L469.81,105.5L470.34,103.03L473,97.35L473.54,97.17L475.14,96.49L475.67,95.99L479.39,94.78L479.92,94.71L480.46,95.14L480.99,94.14L481.52,94.39L482.06,93.7L483.65,94.14L484.18,93.58L485.78,93.37L486.31,93.25L487.91,93.49L488.44,93.45L489.51,92.87L490.04,93.78L491.11,92.92L491.64,93.33L493.77,91.98L494.3,92.83L495.37,92.58L495.9,91.92L496.43,92.09L496.96,93.17L498.56,91.98L499.09,92.02L499.63,91.75L500.16,93L500.69,91.62L501.22,92.58L501.76,92.67L502.29,91.81L503.89,91.55L504.42,91.14L505.48,92.79L506.01,91.36L507.08,92.17L507.61,100.65L509.21,103.18L509.74,102.96L511.34,103.85L511.87,103.56L515.07,104.59L515.6,104.31L518.26,105.14L518.79,104.9L526.78,105.5L527.31,105.38L528.38,105.74L528.91,105.89L536.36,105.59L536.89,105.23L537.43,105.17L537.96,106.04L539.02,105.47L539.56,106.04L540.09,104.87L540.62,105.92L541.15,105.98L541.69,105.11L542.75,105.26L543.29,104.9L543.82,105.68L544.35,104.93L544.88,105.98L545.41,105.68L545.95,106.36L546.48,105.62L547.01,100.72L548.08,95.41L548.61,95.65L549.14,95.1L551.28,94.55L551.81,93.9L553.94,93.86L554.47,93.58L556.07,93.21L556.6,93.21L557.67,93.29L558.2,93.04L559.8,93.08L560.33,92.96L564.59,92.83" style="vector-effect: none; fill: none; stroke: rgb(255, 102, 146); stroke-opacity: 1; stroke-width: 2px; opacity: 1;"/></g><g class="points"/><g class="text"/></g><g class="trace scatter traceaa497a" style="stroke-miterlimit: 2; opacity: 1;"><g class="fills"/><g class="errorbars"/><g class="lines"><path class="js-line" d="M0.28,158.6L1.87,158.69L2.41,158.63L4,158.24L4.53,158.3L5.6,158.09L6.13,157.7L12.52,156.86L13.05,156.86L15.18,157.36L15.71,156.64L17.84,156.95L18.37,156.73L21.04,156.55L21.57,156.55L24.23,156.7L24.76,156.51L25.83,156.58L26.36,156.26L26.89,156.77L27.42,156.1L30.62,155.72L31.15,156.26L32.21,155.94L32.75,156.01L33.81,156.01L34.34,155.75L35.94,156.01L36.48,155.75L37.54,155.78L38.07,155.78L39.14,199.09L39.67,199.5L42.86,196.92L43.39,196.61L46.59,195.49L47.12,195.33L50.32,195.01L50.85,194.96L52.45,194.98L52.98,194.8L54.58,194.4L55.11,194.5L57.77,194.33L58.3,194.4L62.03,193.88L62.56,194.05L63.63,193.81L64.16,194.07L66.28,194.12L66.82,193.95L68.41,193.74L68.95,194.31L70.01,193.93L70.54,194.03L74.27,193.67L74.8,194.28L77.46,193.6L77.99,193.86L78.53,194.24L79.06,182.17L80.12,161.7L80.66,159.93L83.32,157.45L83.85,157.48L85.98,156.58L86.51,156.29L87.57,156.1L88.11,156.04L90.24,155.65L90.77,155.72L92.9,155.36L93.43,155.68L94.49,155.13L95.02,155.42L96.09,154.7L96.62,155.07L98.75,154.97L99.28,154.74L100.35,154.84L100.88,154.77L106.73,154.14L107.27,153.97L109.93,154.14L110.46,153.9L112.58,153.97L113.12,153.53L114.18,153.76L114.71,153.46L115.78,153.93L116.31,153.76L117.37,193.04L117.91,194.26L119.5,193.62L120.03,193.95L122.16,193.26L122.7,193.26L125.89,192.55L126.43,192.72L134.41,192.35L134.94,192.72L136.54,192.28L137.07,192.5L138.67,191.88L139.2,192.35L141.86,192.3L142.39,192.67L149.85,192.03L150.38,192.3L150.91,192.45L151.44,191.63L152.51,192.06L153.04,191.8L154.11,192.03L154.64,191.8L155.17,191.58L155.7,178.55L156.77,160.81L157.3,159.14L158.9,157.79L159.43,157.51L161.03,156.32L161.56,155.91L177,153.9L177.53,153.9L178.59,153.7L179.12,153.76L185.51,153.29L186.04,153.73L187.64,152.98L188.18,153.15L194.56,153.04L195.09,168.07L196.16,193.93L196.69,194.47L197.76,194.24L198.29,194.17L200.95,193.62L201.48,193.83L203.61,193.33L204.14,193.52L217.99,192.65L218.52,193.16L223.31,192.92L223.84,193.76L225.44,192.85L225.97,192.94L227.57,192.63L228.1,192.94L229.17,192.8L229.7,192.77L231.3,193.09L231.83,192.7L233.43,193.26L233.96,183.35L235.03,161.57L235.56,159.75L238.22,156.26L238.75,156.23L241.41,155L241.95,155.13L243.54,154L244.07,154L245.14,153.97L245.67,154.34L247.8,153.76L248.33,153.9L252.59,153.22L253.12,153.59L254.72,153.46L255.25,153.42L256.32,153.76L256.85,153.01L258.45,153.35L258.98,153.39L261.11,153.11L261.64,153.22L263.77,152.91L264.3,153.01L268.03,152.91L268.56,152.98L269.62,152.94L270.16,153.15L272.82,153.04L273.35,181.22L274.42,191.32L274.95,191.32L276.01,191.15L276.55,191.04L281.87,190.42L282.4,190.58L284.54,190.42L285.07,190.19L287.2,190.74L287.73,190.22L289.86,190.42L290.39,190.45L298.37,190.14L298.9,190.53L301.04,190.58L301.57,190.55L304.23,190.03L304.76,190.48L307.96,190.92L308.49,190.16L310.61,190.71L311.15,190.76L311.68,190.99L312.21,186.76L313.28,161.01L313.81,159.02L315.41,155.52L315.94,154.97L317.01,154.74L317.54,154.6L318.6,153.63L319.13,153.7L321.26,152.06L321.8,152.66L323.93,152.63L324.46,152.56L326.06,151.81L326.59,151.17L328.19,151.49L328.72,151.64L330.85,151.13L331.38,151.2L332.98,151.42L333.51,150.58L334.04,149.84L334.58,150.32L335.11,150.47L337.77,150.54L338.3,149.42L339.37,148.69L339.9,149.5L344.16,150.8L344.7,150.65L346.83,151.13L347.36,150.84L351.09,151.31L351.62,183.63L352.69,188.72L353.22,188.83L354.28,188.53L354.82,188.67L357.48,188.36L358.01,188.36L361.2,188.14L361.74,188.28L364.93,188.25L365.46,188.28L366,187.75L366.53,188.45L368.13,188.06L368.66,188.28L369.72,188.23L370.26,188.2L372.38,187.89L372.92,188.01L374.51,188.12L375.05,188.06L378.24,188.14L378.77,187.87L379.84,188.31L380.37,188.25L382.5,187.89L383.03,187.89L384.1,188.03L384.63,187.89L389.42,188.12L389.95,188.01L393.15,187.89L393.69,184.31L394.75,160.76L395.28,159.32L396.88,156.01L397.41,155.03L400.07,152.7L400.61,152.35L401.67,153.35L402.2,152.49L403.27,152.73L403.8,152.21L406.46,152.56L407,152.03L408.59,152.24L409.12,152.38L410.72,152.91L411.25,153.29L418.17,153.08L418.7,152.38L420.83,151.85L421.37,151.49L423.49,153.15L424.02,152.66L424.56,152.98L425.09,151.96L427.22,152.45L427.75,151.6L428.82,152.28L429.35,151.35L430.94,186.74L431.48,186.51L437.33,185.98L437.87,186.16L438.93,186.1L439.46,185.98L442.13,186.07L442.66,185.66L444.26,186.3L444.79,185.98L446.39,186.1L446.92,186.01L453.31,186.22L453.85,186.91L454.91,186.22L455.44,186.51L458.64,186.19L459.17,186.54L461.83,186.07L462.36,186.85L463.43,186.13L463.96,186.91L465.02,186.39L465.56,186.56L468.22,186.79L468.75,175.37L469.82,159.08L470.35,157.26L471.95,154.4L472.48,154L474.61,152.7L475.14,152.38L477.8,151.6L478.34,151.42L484.19,151.13L484.72,150.65L501.23,150.14L501.76,150.47L504.42,149.95L504.96,150.25L506.55,149.87L507.08,150.73L508.15,156.55L508.68,157.05L511.34,158L511.88,157.85L515.6,158.72L516.13,158.69L517.2,158.57L517.73,159.14L518.8,158.81L519.33,159.17L521.46,158.69L521.99,159.29L523.59,158.93L524.12,159.14L535.3,159.69L535.84,159.2L536.9,159.43L537.43,159.46L539.57,159.78L540.1,159.46L541.16,159.52L541.69,160.1L542.76,159.72L543.29,159.72L544.35,159.64L544.89,159.29L546.49,159.87L547.02,156.16L548.62,152.59L549.15,152.06L550.22,151.67L550.75,151.28L551.28,151.96L551.81,151.38L564.6,150.65" style="vector-effect: none; fill: none; stroke: rgb(182, 232, 128); stroke-opacity: 1; stroke-width: 2px; opacity: 1;"/></g><g class="points"/><g class="text"/></g><g class="trace scatter tracec8feed" style="stroke-miterlimit: 2; opacity: 1;"><g class="fills"/><g class="errorbars"/><g class="lines"><path class="js-line" d="M0.34,147.11L3,146.29L3.53,146.46L5.13,146.58L5.66,146.5L7.26,145.67L7.79,146.29L8.85,144.42L9.38,145.63L10.45,144.42L10.98,144.55L13.64,144.1L14.18,144.32L15.24,144.32L15.78,144.49L17.37,144.16L17.9,144.16L18.97,143.94L19.5,145.75L20.56,143.77L21.1,144.03L22.69,143.97L23.23,143.86L26.95,144.34L27.48,143.86L28.55,143.35L29.08,143.86L31.74,143.15L32.27,143.83L35.47,143.53L36,143.33L37.6,143.1L38.13,143.88L39.2,181.95L39.73,181.95L47.18,178.8L47.71,178.87L51.44,178.34L51.97,177.72L53.57,178.01L54.1,178.12L56.23,177.83L56.77,178.19L57.83,177.54L58.36,177.87L59.96,177.8L60.49,177.87L62.62,177.43L63.15,177.72L65.28,177.69L65.81,177.87L69,177.32L69.54,177.87L72.2,177.51L72.73,177.94L74.33,177.14L74.86,177.29L77.52,177.51L78.05,177.1L78.58,177.43L79.12,157.91L80.18,147.27L80.72,146.54L81.78,144.14L82.31,143.44L83.91,142.45L84.44,142.76L87.1,141.83L87.63,142.17L89.76,141.71L90.29,141.89L91.36,141.05L91.89,141.34L94.02,141.19L94.55,141.05L105.2,140.67L105.73,140.38L109.45,140.74L109.98,140.38L113.71,140.05L114.24,140.58L116.37,139.92L116.9,171.74L117.97,177.36L118.5,177.43L126.49,176.28L127.02,176.21L130.75,175.87L131.28,175.83L135.53,176.02L136.07,175.67L137.66,175.87L138.2,175.9L152.04,175.6L152.57,176.17L153.63,175.83L154.17,175.79L155.23,175.98L155.76,155.55L157.36,144.34L157.89,143.83L162.15,141.15L162.69,141.36L164.28,140.96L164.81,140.36L165.88,140.34L166.41,140.38L170.14,140.46L170.67,140.12L174.93,140.09L175.46,139.73L176.52,139.61L177.06,139.8L181.31,140.09L181.85,139.58L183.97,139.63L184.51,139.73L194.62,139.75L195.15,168.04L196.22,177.36L196.75,177.62L198.88,177.29L199.41,176.88L200.48,176.88L201.01,176.77L205.27,176.62L205.8,176.62L209.53,176.92L210.06,176.47L211.12,176.43L211.66,176.47L213.26,176.51L213.79,176.51L216.98,176.51L217.51,176.36L220.18,176.55L220.71,176.13L221.77,176.62L222.31,176.51L223.9,176.81L224.44,176.55L226.03,176.32L226.56,176.43L228.69,176.88L229.23,176.24L233.49,176.21L234.02,157.97L235.08,147.07L235.61,146.08L237.21,142.17L237.74,142.1L240.41,140.74L240.94,140.67L242.54,140.5L243.07,139.97L245.2,139.88L245.73,139.68L248.4,140.19L248.93,139.95L259.04,139.21L259.57,139.09L261.7,139.38L262.23,139.36L263.83,139.21L264.36,139.16L265.43,139.56L265.96,139.09L267.02,139.48L267.55,139.33L271.81,139.53L272.34,139.75L272.88,139.61L273.41,169.29L274.48,174.63L275.01,174.63L276.61,174.35L277.14,174.39L278.74,174.47L279.27,174.15L280.34,174.19L280.87,174.23L282.46,173.95L282.99,173.95L287.79,174.07L288.32,173.67L289.38,174.11L289.92,174.31L294.18,174.07L294.71,174.59L298.43,174.23L298.97,174.27L299.5,173.83L300.03,174.47L308.55,174.15L309.08,174.27L311.21,174.03L311.74,174.19L313.34,146.91L313.87,144.03L316,141.34L316.53,141.15L318.66,139.78L319.2,139.83L321.32,139.04L321.86,139.11L325.06,138.91L325.59,138.64L326.12,138.64L326.65,137.87L328.78,138.36L329.32,138.23L331.44,138L331.98,138.13L335.17,137.74L335.7,137.3L337.3,137.77L337.83,137.46L339.43,136.7L339.96,137.07L342.09,137.82L342.62,137.85L350.08,138.2L350.62,138.03L351.15,139.09L351.68,168.62L352.75,171.51L353.28,172.01L357.54,171.46L358.07,171.68L362.86,171.27L363.39,171.51L366.59,171.87L367.12,171.23L372.44,171.55L372.98,171.31L376.7,171.44L377.24,171.27L385.75,171.61L386.29,171.08L388.95,171.44L389.48,171.46L393.21,171.42L393.75,158.33L394.81,146.95L395.34,145.88L396.41,142.06L396.94,141.78L399.6,139.31L400.13,139.24L402.79,139.53L403.33,138.99L404.39,139.04L404.92,138.74L406.52,139.31L407.05,138.58L413.44,140.31L413.97,139.73L418.23,139.51L418.76,139.14L420.36,139.36L420.89,138.96L422.49,139.11L423.02,139.24L425.68,138.96L426.21,138.86L428.87,139.48L429.41,138.56L430.47,169.06L431,169.65L432.07,169.58L432.61,169.56L435.26,169.65L435.8,169.65L437.93,169.62L438.46,169.51L462.96,169.8L463.49,170.22L464.55,170.11L465.09,170.18L467.21,169.78L467.75,170.47L468.28,169.85L468.81,154.64L470.41,143.06L470.94,142.17L473.07,139.73L473.6,139.58L476.8,138.58L477.33,138.94L478.93,138.26L479.46,138.15L482.65,138.53L483.19,137.74L484.78,137.82L485.32,137.56L486.38,137.79L486.91,137.69L488.51,138.15L489.04,137.77L494.9,137.38L495.43,138.15L495.97,137.3L496.5,137.95L500.76,137.38L501.29,137.74L501.82,138.03L502.35,137.25L506.61,137.46L507.14,139.78L508.74,142.76L509.27,143.39L509.81,143.21L510.34,143.88L515.13,143.9L515.66,145.63L516.73,144.25L517.26,144.64L517.79,144.45L518.32,145.83L520.45,145.96L520.99,145.83L524.18,145.92L524.71,146.04L525.78,145.83L526.31,146.29L536.43,146.42L536.96,146.33L539.09,146.46L539.62,146.5L546.55,146.5L547.08,142.4L548.68,139.83L549.21,139.73L550.81,139.24L551.34,138.96L552.94,138.86L553.47,138.79L556.14,138.53L556.67,138.51L564.66,138.18" style="vector-effect: none; fill: none; stroke: rgb(255, 151, 255); stroke-opacity: 1; stroke-width: 2px; opacity: 1;"/></g><g class="points"/><g class="text"/></g><g class="trace scatter trace527fbc" style="stroke-miterlimit: 2; opacity: 1;"><g class="fills"/><g class="errorbars"/><g class="lines"><path class="js-line" d="M0.4,143.03L2.53,142.99L3.06,142.72L4.13,142.51L4.66,142.49L8.92,141.83L9.45,141.41L11.05,141.52L11.58,140.89L12.11,141.83L12.64,141.34L13.17,141.43L17.43,141.38L17.97,141.22L19.56,141.08L20.1,141.5L21.16,140.77L21.69,141.22L23.82,141.05L24.35,141.03L29.68,140.79L30.21,141.03L31.27,140.72L31.8,140.93L32.34,140.12L32.87,140.77L37.66,140.34L38.2,140.86L39.26,179.39L39.79,178.97L41.92,178.16L42.45,177.65L48.31,175.83L48.84,176.06L49.91,175.98L50.44,175.87L52.04,175.48L52.57,175.29L54.7,175.17L55.23,175.21L56.83,175.29L57.36,174.98L58.96,175.17L59.49,174.67L61.62,175.02L62.15,174.9L65.88,174.74L66.41,174.98L68.54,174.43L69.07,175.17L70.13,174.78L70.67,174.59L72.79,174.63L73.33,174.47L75.45,175.02L75.99,174.71L77.58,174.9L78.12,174.86L78.65,174.43L79.18,151.46L80.78,142.49L81.31,141.57L86.1,139.24L86.63,139.38L88.23,138.81L88.76,138.96L90.89,138.71L91.42,138.46L93.02,138.43L93.55,138.15L99.94,137.87L100.47,137.64L101.53,137.72L102.07,137.59L106.86,137.69L107.39,137.61L110.05,137.12L110.58,137.28L114.3,137.46L114.84,137.35L116.43,137.3L116.97,171.95L118.03,174.15L118.56,174.27L119.63,174.35L120.16,174.19L121.22,174.19L121.75,174.19L127.62,173.35L128.15,173.75L130.28,173.22L130.81,173.39L134,173.14L134.53,173.35L136.66,172.94L137.19,173.06L138.26,173.39L138.79,173.02L139.32,171.95L139.86,173.18L141.98,173.35L142.52,173.35L152.63,172.81L153.17,171.89L154.23,173.06L154.76,172.94L155.29,172.04L155.83,149.57L156.89,142.42L157.42,141.31L159.02,139.92L159.56,139.65L163.28,137.9L163.81,138.18L169.67,137.51L170.2,137.77L176.59,136.78L177.12,136.62L181.38,136.93L181.91,136.62L188.3,136.62L188.83,136.75L194.15,136.64L194.68,136.48L195.75,174.27L196.28,174.55L198.41,174.86L198.94,174.51L201.07,174.19L201.61,174.39L203.74,174.31L204.27,174.07L206.93,174.03L207.46,173.83L210.66,174.11L211.19,173.67L212.78,174.23L213.32,173.75L217.58,173.55L218.11,173.83L218.64,174.15L219.18,173.47L233.55,173.55L234.08,151.35L235.68,142.08L236.21,141.1L237.81,139.53L238.34,138.89L239.94,138.31L240.47,137.92L242.07,137.72L242.6,137.48L250.59,137.28L251.12,136.59L252.72,136.56L253.25,136.24L254.85,136.48L255.38,136.48L258.04,136.75L258.57,136.56L260.7,136.38L261.23,136.67L264.43,136.54L264.96,136.46L266.55,136.59L267.09,136.64L269.21,136.35L269.75,136.4L272.41,136.64L272.94,137.15L274.01,170.77L274.54,171.31L276.67,171.08L277.2,171.14L281.46,170.42L281.99,170.55L283.06,170.47L283.59,170.4L284.66,170.75L285.19,170.99L287.85,170.42L288.38,170.49L289.98,170.79L290.51,170.69L292.64,170.75L293.18,171.05L297.43,170.53L297.96,171.12L299.56,170.53L300.09,170.73L302.76,170.53L303.29,170.88L304.88,170.84L305.42,170.71L306.48,170.53L307.01,170.92L311.27,170.62L311.8,171.08L312.87,145.79L313.4,142.72L315.53,138.99L316.07,138.66L320.32,136.54L320.85,136.43L323.52,136.4L324.05,136.38L327.25,135.46L327.78,135.81L329.91,135.32L330.44,135.51L333.63,135.29L334.17,134.74L335.23,134.96L335.76,134.82L337.9,135.02L338.43,134.29L340.02,134.37L340.55,135.04L342.15,134.85L342.68,134.96L344.82,135.49L345.35,135.07L350.68,135.62L351.21,156.55L352.28,168.65L352.81,169.2L355.47,168.81L356.01,168.79L358.67,168.92L359.2,168.88L360.8,168.67L361.33,168.81L362.39,169.24L362.93,168.56L365.05,168.95L365.59,168.44L367.72,168.69L368.25,168.46L370.38,168.81L370.91,168.74L371.44,169.17L371.97,168.6L373.57,168.62L374.1,168.62L376.23,168.58L376.77,168.67L389.01,168.6L389.54,168.09L390.08,168.88L390.61,168.18L392.21,168.39L392.74,168.49L393.28,168.58L393.81,150.98L394.87,142.74L395.41,141.5L397.53,138.36L398.07,137.74L401.26,136.43L401.79,137.04L403.39,136.27L403.93,136.3L407.12,136.24L407.65,136.08L410.31,136.86L410.84,136.83L418.3,136.46L418.83,136.38L419.89,136.72L420.42,136.24L422.02,135.95L422.55,136.24L426.28,136.46L426.81,136.3L428.94,136.62L429.47,136.3L430.53,166.66L431.07,166.45L432.67,167.22L433.2,166.54L434.26,166.88L434.8,167.19L436.39,166.81L436.92,166.86L439.06,166.83L439.59,166.69L441.18,166.79L441.72,166.37L442.78,166.69L443.32,166.81L444.92,166.69L445.45,166.91L449.71,166.59L450.24,166.86L451.3,166.4L451.84,166.81L453.44,166.47L453.97,167.1L454.5,166.57L455.03,167.12L456.1,166.91L456.63,167.15L459.29,166.76L459.82,166.93L461.96,166.93L462.49,166.76L464.62,167.27L465.15,166.91L467.81,167.27L468.34,167.05L469.41,143.79L469.94,141.15L472.6,137.48L473.13,136.91L475.26,136.75L475.8,136.19L476.86,135.95L477.39,135.92L478.99,135.18L479.52,135.92L481.12,135.43L481.65,135.43L484.31,135.49L484.85,135.07L487.51,135.02L488.04,134.96L494.43,135.07L494.96,135.29L499.22,135.02L499.75,135.07L501.88,134.93L502.42,135.18L504.01,134.88L504.55,134.74L505.08,135.35L505.61,134.77L506.67,135.02L507.21,137.9L508.27,140L508.8,139.95L510.4,140.26L510.93,140.34L513.59,141.12L514.13,141.38L516.26,141.5L516.79,141.52L518.92,141.99L519.45,140.96L520.52,141.45L521.05,141.78L522.12,141.78L522.65,141.8L524.78,141.92L525.31,142.13L534.89,142.26L535.43,142.58L537.02,142.56L537.56,142.65L538.09,141.96L538.62,142.67L539.69,142.1L540.22,142.67L541.82,142.03L542.35,142.47L543.95,142.74L544.48,142.01L545.55,142.4L546.08,142.33L546.61,142.31L547.15,139.24L548.74,136.99L549.28,136.99L553,136.08L553.54,136.38L555.14,135.68L555.67,136.08L557.26,135.51L557.8,135.76L559.93,135.84L560.46,135.43L561.53,136.03L562.06,135.84L564.72,135.62" style="vector-effect: none; fill: none; stroke: rgb(254, 203, 82); stroke-opacity: 1; stroke-width: 2px; opacity: 1;"/></g><g class="points"/><g class="text"/></g></g></g></g><path class="xlines-above crisp" d="M0,0" style="fill: none;"/><path class="ylines-above crisp" d="M0,0" style="fill: none;"/><g class="overlines-above"/><g class="xaxislayer-above"><g class="xtick"><text text-anchor="middle" x="0" y="273" transform="translate(75.78,0)" style="font-family: 'Times New Roman'; font-size: 12px; fill: rgb(0, 0, 0); fill-opacity: 1; white-space: pre; opacity: 1;">6e+7</text></g><g class="xtick"><text text-anchor="middle" x="0" y="273" style="font-family: 'Times New Roman'; font-size: 12px; fill: rgb(0, 0, 0); fill-opacity: 1; white-space: pre; opacity: 1;" transform="translate(184.45,0)">7e+7</text></g><g class="xtick"><text text-anchor="middle" x="0" y="273" style="font-family: 'Times New Roman'; font-size: 12px; fill: rgb(0, 0, 0); fill-opacity: 1; white-space: pre; opacity: 1;" transform="translate(293.12,0)">7e+7</text></g><g class="xtick"><text text-anchor="middle" x="0" y="273" style="font-family: 'Times New Roman'; font-size: 12px; fill: rgb(0, 0, 0); fill-opacity: 1; white-space: pre; opacity: 1;" transform="translate(401.79,0)">8e+7</text></g><g class="xtick"><text text-anchor="middle" x="0" y="273" style="font-family: 'Times New Roman'; font-size: 12px; fill: rgb(0, 0, 0); fill-opacity: 1; white-space: pre; opacity: 1;" transform="translate(510.45,0)">8e+7</text></g></g><g class="yaxislayer-above"><g class="ytick"><text text-anchor="end" x="49" y="4.199999999999999" transform="translate(0,237.62)" style="font-family: 'Times New Roman'; font-size: 12px; fill: rgb(0, 0, 0); fill-opacity: 1; white-space: pre; opacity: 1;">1e+6</text></g><g class="ytick"><text text-anchor="end" x="49" y="4.199999999999999" style="font-family: 'Times New Roman'; font-size: 12px; fill: rgb(0, 0, 0); fill-opacity: 1; white-space: pre; opacity: 1;" transform="translate(0,211.09)">2e+6</text></g><g class="ytick"><text text-anchor="end" x="49" y="4.199999999999999" style="font-family: 'Times New Roman'; font-size: 12px; fill: rgb(0, 0, 0); fill-opacity: 1; white-space: pre; opacity: 1;" transform="translate(0,176.03)">5e+6</text></g><g class="ytick"><text text-anchor="end" x="49" y="4.199999999999999" style="font-family: 'Times New Roman'; font-size: 12px; fill: rgb(0, 0, 0); fill-opacity: 1; white-space: pre; opacity: 1;" transform="translate(0,149.51)">1e+7</text></g><g class="ytick"><text text-anchor="end" x="49" y="4.199999999999999" style="font-family: 'Times New Roman'; font-size: 12px; fill: rgb(0, 0, 0); fill-opacity: 1; white-space: pre; opacity: 1;" transform="translate(0,122.99)">2e+7</text></g><g class="ytick"><text text-anchor="end" x="49" y="4.199999999999999" style="font-family: 'Times New Roman'; font-size: 12px; fill: rgb(0, 0, 0); fill-opacity: 1; white-space: pre; opacity: 1;" transform="translate(0,87.93)">5e+7</text></g><g class="ytick"><text text-anchor="end" x="49" y="4.199999999999999" style="font-family: 'Times New Roman'; font-size: 12px; fill: rgb(0, 0, 0); fill-opacity: 1; white-space: pre; opacity: 1;" transform="translate(0,61.41)">1e+8</text></g></g><g class="overaxes-above"/></g></g><g class="polarlayer"/><g class="smithlayer"/><g class="ternarylayer"/><g class="geolayer"/><g class="funnelarealayer"/><g class="pielayer"/><g class="iciclelayer"/><g class="treemaplayer"/><g class="sunburstlayer"/><g class="glimages"/><defs id="topdefs-73feef"><g class="clips"/></defs><g class="layer-above"><g class="imagelayer"/><g class="shapelayer"><g class="shape-group" data-index="0" clip-path="url(#clip73feefx)"><path data-index="0" fill-rule="evenodd" d="M93.67,260H123.66V50H93.67Z" style="opacity: 0.4; stroke: rgb(0, 0, 0); stroke-opacity: 0; fill: rgb(50, 125, 23); fill-opacity: 1; stroke-width: 0px;"/></g><g class="shape-group" data-index="1" clip-path="url(#clip73feefx)"><path data-index="1" fill-rule="evenodd" d="M171.9,260H201.89V50H171.9Z" style="opacity: 0.4; stroke: rgb(0, 0, 0); stroke-opacity: 0; fill: rgb(80, 143, 33); fill-opacity: 1; stroke-width: 0px;"/></g><g class="shape-group" data-index="2" clip-path="url(#clip73feefx)"><path data-index="2" fill-rule="evenodd" d="M250.13,260H280.12V50H250.13Z" style="opacity: 0.4; stroke: rgb(0, 0, 0); stroke-opacity: 0; fill: rgb(108, 160, 44); fill-opacity: 1; stroke-width: 0px;"/></g><g class="shape-group" data-index="3" clip-path="url(#clip73feefx)"><path data-index="3" fill-rule="evenodd" d="M328.36,260H358.35V50H328.36Z" style="opacity: 0.4; stroke: rgb(0, 0, 0); stroke-opacity: 0; fill: rgb(136, 178, 55); fill-opacity: 1; stroke-width: 0px;"/></g><g class="shape-group" data-index="4" clip-path="url(#clip73feefx)"><path data-index="4" fill-rule="evenodd" d="M406.6,260H436.59V50H406.6Z" style="opacity: 0.4; stroke: rgb(0, 0, 0); stroke-opacity: 0; fill: rgb(164, 196, 68); fill-opacity: 1; stroke-width: 0px;"/></g><g class="shape-group" data-index="5" clip-path="url(#clip73feefx)"><path data-index="5" fill-rule="evenodd" d="M484.83,260H514.8199999999999V50H484.83Z" style="opacity: 0.4; stroke: rgb(0, 0, 0); stroke-opacity: 0; fill: rgb(194, 213, 81); fill-opacity: 1; stroke-width: 0px;"/></g><g class="shape-group" data-index="6" clip-path="url(#clip73feefx)"><path data-index="6" fill-rule="evenodd" d="M563.06,260H593.05V50H563.06Z" style="opacity: 0.4; stroke: rgb(0, 0, 0); stroke-opacity: 0; fill: rgb(224, 231, 95); fill-opacity: 1; stroke-width: 0px;"/></g></g></g><g class="infolayer"><g class="g-gtitle"><text class="gtitle" x="312.5" y="25" text-anchor="middle" dy="0em" style="opacity: 1; font-family: 'Times New Roman'; font-size: 17px; fill: rgb(0, 0, 0); fill-opacity: 1; white-space: pre;">Matrix 0, Sensor 6</text></g><g class="g-xtitle" transform="translate(0,-2.8000000000000114)"><text class="xtitle" x="332.5" y="299.8" text-anchor="middle" style="opacity: 1; font-family: 'Times New Roman'; font-size: 14px; fill: rgb(0, 0, 0); fill-opacity: 1; white-space: pre;">Time since power on (ms)</text></g><g class="g-ytitle" transform="translate(6.994140625,0)"><text class="ytitle" transform="rotate(-90,5.506250000000001,155)" x="5.506250000000001" y="155" text-anchor="middle" style="opacity: 1; font-family: 'Times New Roman'; font-size: 14px; fill: rgb(0, 0, 0); fill-opacity: 1; white-space: pre;">Resistance (Ohms)</text></g><g class="annotation" data-index="0" style="opacity: 1;"><g class="annotation-text-g" transform="rotate(0,110.67,58.5)"><g class="cursor-pointer" transform="translate(94,50)"><rect class="bg" x="0.5" y="0.5" width="33" height="16" style="stroke-width: 1px; stroke: rgb(0, 0, 0); stroke-opacity: 0; fill: rgb(0, 0, 0); fill-opacity: 0;"/><text class="annotation-text" text-anchor="middle" x="16.84375" y="12.5" style="font-family: 'Times New Roman'; font-size: 12px; fill: rgb(0, 0, 0); fill-opacity: 1; white-space: pre;">O 100</text></g></g></g><g class="annotation" data-index="1" style="opacity: 1;"><g class="annotation-text-g" transform="rotate(0,185.9,58.5)"><g class="cursor-pointer" transform="translate(172,50)"><rect class="bg" x="0.5" y="0.5" width="27" height="16" style="stroke-width: 1px; stroke: rgb(0, 0, 0); stroke-opacity: 0; fill: rgb(0, 0, 0); fill-opacity: 0;"/><text class="annotation-text" text-anchor="middle" x="13.84375" y="12.5" style="font-family: 'Times New Roman'; font-size: 12px; fill: rgb(0, 0, 0); fill-opacity: 1; white-space: pre;">O 95</text></g></g></g><g class="annotation" data-index="2" style="opacity: 1;"><g class="annotation-text-g" transform="rotate(0,264.13,58.5)"><g class="cursor-pointer" transform="translate(250,50)"><rect class="bg" x="0.5" y="0.5" width="27" height="16" style="stroke-width: 1px; stroke: rgb(0, 0, 0); stroke-opacity: 0; fill: rgb(0, 0, 0); fill-opacity: 0;"/><text class="annotation-text" text-anchor="middle" x="13.84375" y="12.5" style="font-family: 'Times New Roman'; font-size: 12px; fill: rgb(0, 0, 0); fill-opacity: 1; white-space: pre;">O 90</text></g></g></g><g class="annotation" data-index="3" style="opacity: 1;"><g class="annotation-text-g" transform="rotate(0,342.36,58.5)"><g class="cursor-pointer" transform="translate(328,50)"><rect class="bg" x="0.5" y="0.5" width="27" height="16" style="stroke-width: 1px; stroke: rgb(0, 0, 0); stroke-opacity: 0; fill: rgb(0, 0, 0); fill-opacity: 0;"/><text class="annotation-text" text-anchor="middle" x="13.84375" y="12.5" style="font-family: 'Times New Roman'; font-size: 12px; fill: rgb(0, 0, 0); fill-opacity: 1; white-space: pre;">O 80</text></g></g></g><g class="annotation" data-index="4" style="opacity: 1;"><g class="annotation-text-g" transform="rotate(0,420.6,58.5)"><g class="cursor-pointer" transform="translate(407,50)"><rect class="bg" x="0.5" y="0.5" width="27" height="16" style="stroke-width: 1px; stroke: rgb(0, 0, 0); stroke-opacity: 0; fill: rgb(0, 0, 0); fill-opacity: 0;"/><text class="annotation-text" text-anchor="middle" x="13.84375" y="12.5" style="font-family: 'Times New Roman'; font-size: 12px; fill: rgb(0, 0, 0); fill-opacity: 1; white-space: pre;">O 70</text></g></g></g><g class="annotation" data-index="5" style="opacity: 1;"><g class="annotation-text-g" transform="rotate(0,498.83,58.5)"><g class="cursor-pointer" transform="translate(485,50)"><rect class="bg" x="0.5" y="0.5" width="27" height="16" style="stroke-width: 1px; stroke: rgb(0, 0, 0); stroke-opacity: 0; fill: rgb(0, 0, 0); fill-opacity: 0;"/><text class="annotation-text" text-anchor="middle" x="13.84375" y="12.5" style="font-family: 'Times New Roman'; font-size: 12px; fill: rgb(0, 0, 0); fill-opacity: 1; white-space: pre;">O 50</text></g></g></g><g class="annotation" data-index="6" style="opacity: 1;"><g class="annotation-text-g" transform="rotate(0,574.06,58.5)"><g class="cursor-pointer" transform="translate(563,50)"><rect class="bg" x="0.5" y="0.5" width="21" height="16" style="stroke-width: 1px; stroke: rgb(0, 0, 0); stroke-opacity: 0; fill: rgb(0, 0, 0); fill-opacity: 0;"/><text class="annotation-text" text-anchor="middle" x="10.84375" y="12.5" style="font-family: 'Times New Roman'; font-size: 12px; fill: rgb(0, 0, 0); fill-opacity: 1; white-space: pre;">O 0</text></g></g></g></g></svg>