<svg class="main-svg" xmlns="http://www.w3.org/2000/svg" xmlns:xlink="http://www.w3.org/1999/xlink" width="625" height="300" style="" viewBox="0 0 625 300"><rect x="0" y="0" width="625" height="300" style="fill: rgb(255, 255, 255); fill-opacity: 1;"/><defs id="defs-8b30f5"><g class="clips"><clipPath id="clip8b30f5xyplot" class="plotclip"><rect width="565" height="210"/></clipPath><clipPath class="axesclip" id="clip8b30f5x"><rect x="50" y="0" width="565" height="300"/></clipPath><clipPath class="axesclip" id="clip8b30f5y"><rect x="0" y="50" width="625" height="210"/></clipPath><clipPath class="axesclip" id="clip8b30f5xy"><rect x="50" y="50" width="565" height="210"/></clipPath></g><g class="gradients"/><g class="patterns"/></defs><g class="bglayer"><rect class="bg" x="50" y="50" width="565" height="210" style="fill: rgb(229, 236, 246); fill-opacity: 1; stroke-width: 0;"/></g><g class="layer-below"><g class="imagelayer"/><g class="shapelayer"/></g><g class="cartesianlayer"><g class="subplot xy"><g class="layer-subplot"><g class="shapelayer"/><g class="imagelayer"/></g><g class="minor-gridlayer"><g class="x"/><g class="y"/></g><g class="gridlayer"><g class="x"><path class="xgrid crisp" transform="translate(162.12,0)" d="M0,50v210" style="stroke: rgb(255, 255, 255); stroke-opacity: 1; stroke-width: 1px;"/><path class="xgrid crisp" transform="translate(274.47,0)" d="M0,50v210" style="stroke: rgb(255, 255, 255); stroke-opacity: 1; stroke-width: 1px;"/><path class="xgrid crisp" transform="translate(386.81,0)" d="M0,50v210" style="stroke: rgb(255, 255, 255); stroke-opacity: 1; stroke-width: 1px;"/><path class="xgrid crisp" transform="translate(499.16,0)" d="M0,50v210" style="stroke: rgb(255, 255, 255); stroke-opacity: 1; stroke-width: 1px;"/><path class="xgrid crisp" transform="translate(611.51,0)" d="M0,50v210" style="stroke: rgb(255, 255, 255); stroke-opacity: 1; stroke-width: 1px;"/></g><g class="y"><path class="ygrid crisp" transform="translate(0,244.35)" d="M50,0h565" style="stroke: rgb(255, 255, 255); stroke-opacity: 1; stroke-width: 1px;"/><path class="ygrid crisp" transform="translate(0,217.34)" d="M50,0h565" style="stroke: rgb(255, 255, 255); stroke-opacity: 1; stroke-width: 1px;"/><path class="ygrid crisp" transform="translate(0,196.92)" d="M50,0h565" style="stroke: rgb(255, 255, 255); stroke-opacity: 1; stroke-width: 1px;"/><path class="ygrid crisp" transform="translate(0,176.49)" d="M50,0h565" style="stroke: rgb(255, 255, 255); stroke-opacity: 1; stroke-width: 1px;"/><path class="ygrid crisp" transform="translate(0,149.49)" d="M50,0h565" style="stroke: rgb(255, 255, 255); stroke-opacity: 1; stroke-width: 1px;"/><path class="ygrid crisp" transform="translate(0,129.06)" d="M50,0h565" style="stroke: rgb(255, 255, 255); stroke-opacity: 1; stroke-width: 1px;"/><path class="ygrid crisp" transform="translate(0,108.63)" d="M50,0h565" style="stroke: rgb(255, 255, 255); stroke-opacity: 1; stroke-width: 1px;"/><path class="ygrid crisp" transform="translate(0,81.63)" d="M50,0h565" style="stroke: rgb(255, 255, 255); stroke-opacity: 1; stroke-width: 1px;"/><path class="ygrid crisp" transform="translate(0,61.2)" d="M50,0h565" style="stroke: rgb(255, 255, 255); stroke-opacity: 1; stroke-width: 1px;"/></g></g><g class="zerolinelayer"/><g class="layer-between"><g class="shapelayer"/><g class="imagelayer"/></g><path class="xlines-below"/><path class="ylines-below"/><g class="overlines-below"/><g class="xaxislayer-below"/><g class="yaxislayer-below"/><g class="overaxes-below"/><g class="overplot"><g class="xy" transform="translate(50,50)" clip-path="url(#clip8b30f5xyplot)"><g class="scatterlayer mlayer"><g class="trace scatter tracef1d017" style="stroke-miterlimit: 2; opacity: 1;"><g class="fills"/><g class="errorbars"/><g class="lines"><path class="js-line" d="M0,171.2L1.2,127.8L1.8,124.55L3.61,120.26L4.21,119.86L6.62,116.64L7.22,117.47L9.04,116.94L9.64,117.35L12.06,115.69L12.66,116L13.87,116.06L14.47,117.29L15.68,117.03L16.28,116.76L16.89,116.15L17.49,117.96L18.1,116L18.7,116.58L19.31,116.85L21.72,116.12L22.33,116.82L24.14,117.47L24.74,117.26L27.16,116.61L27.77,117.09L30.79,115.93L31.39,116.85L32,118.62L32.6,115.81L34.42,116.33L35.02,116.45L38.05,116.67L38.65,116.79L39.86,116.61L40.46,116.79L41.67,116.33L42.28,116.85L43.49,116.82L44.09,116.55L45.3,116.24L45.91,116.06L47.12,115.12L47.72,115.22L49.54,115.34L50.14,116.21L54.98,116.15L55.59,115.75L62.24,116L62.84,115.97L64.66,115.66L65.26,115.97L69.49,115.25L70.1,115.66L71.31,115.66L71.92,115.37L77.36,115.4L77.96,115.75L80.38,115.09L80.99,115.06L82.8,114.93L83.41,115.44L84.01,115.09L84.62,113.67L85.22,114.67L85.83,114L87.04,114.8L87.64,126.45L88.85,140.74L89.45,139.58L91.87,136.73L92.47,136.61L99.72,134.24L100.33,134.24L105.16,133.86L105.77,133.84L114.24,133.47L114.84,133.64L117.26,133.09L117.87,133.32L126.93,133.09L127.54,119.64L128.74,117.53L129.35,117.12L131.77,116.15L132.37,116.52L134.19,116.12L134.79,115.87L138.42,115.59L139.02,115.4L142.65,115.03L143.26,114.64L144.47,114.83L145.07,113.95L146.89,114.61L147.49,114.83L148.7,113.68L149.31,113.62L151.12,113.33L151.73,112.53L152.33,112.28L152.94,113.01L153.54,113.06L154.15,123.35L154.75,127.55L155.36,127.38L155.96,127.28L163.81,127.84L164.42,128.04L182.54,129.13L183.15,128.37L185.57,128.89L186.17,128.91L193.42,129.19L194.03,125.28L195.24,113.3L195.84,112.63L197.05,110.15L197.66,109.94L202.5,109.88L203.1,109.5L204.91,109.17L205.52,109.39L217.62,107.41L218.22,106.53L220.64,105.91L221.24,113.73L222.45,125.64L223.06,125.46L229.7,126.16L230.3,126.21L232.72,126.19L233.33,126.21L246.62,126.73L247.23,126.51L248.43,127.09L249.04,127.15L250.85,127.19L251.45,126.62L253.87,127.21L254.48,127.17L257.5,127.55L258.1,127.3L259.31,127.51L259.92,127.55L261.12,127.34L261.73,116.67L262.94,108.68L263.54,108.1L264.75,106.34L265.36,106.32L266.56,105.47L267.17,105.8L270.8,104.49L271.4,104.4L274.43,103.75L275.03,103.96L281.08,103.11L281.68,103.16L283.49,102.85L284.1,102.73L285.31,102.49L285.91,102.58L287.13,102.53L287.73,102.22L288.34,101.9L288.94,119.15L290.15,124.01L290.75,123.85L295.59,124.08L296.19,124.27L299.21,124.43L299.81,124.69L302.23,124.66L302.83,124.6L311.29,125.12L311.89,124.82L317.33,125.23L317.94,125.03L320.96,125.46L321.56,125.43L323.37,125.5L323.98,125.75L325.79,125.41L326.4,125.59L328.82,125.9L329.42,113.88L330.63,104.8L331.23,104.19L333.65,102.75L334.26,102.75L348.17,99.03L348.77,98.58L349.98,98.94L350.59,98.92L351.8,99.08L352.4,98.89L353.01,99.6L353.61,98.97L355.43,98.3L356.03,106.85L357.24,118.76L357.85,118.56L361.47,118.59L362.08,118.7L366.31,119.04L366.91,119.34L371.14,119.48L371.74,119.51L375.97,120.05L376.57,119.83L388.06,120.42L388.66,120.13L392.89,120.29L393.49,120.13L395.31,120.29L395.91,120.69L397.73,102.02L398.33,100.55L399.54,100.34L400.15,99.92L401.36,99.32L401.96,100.42L403.78,99.08L404.38,99.13L405.59,98.5L406.19,98.5L414.06,96.81L414.66,97.3L416.47,96.18L417.08,96.3L419.5,96.36L420.1,96.18L422.52,96.03L423.13,95.75L428.57,96.15L429.17,95.26L430.38,94.91L430.99,109.9L432.19,113.35L432.8,113.38L437.03,113.62L437.63,114.9L438.24,112.94L438.84,114.74L440.05,113.9L440.65,114.61L444.88,114.96L445.48,114.77L447.3,115.22L447.9,114.99L452.13,115.44L452.74,115.37L456.36,115.25L456.97,115.72L458.78,115.37L459.38,115.59L461.19,115.4L461.8,115.31L463.01,115.62L463.61,115.44L464.82,115.47L465.42,115.66L467.84,115.56L468.45,115.84L470.26,115.4L470.86,108.82L472.07,98.64L472.68,97.91L478.73,95.35L479.33,95.57L483.56,93.96L484.17,94.37L485.98,93.51L486.59,93.46L488.4,93.14L489.01,94.37L490.22,93.32L490.82,93.32L492.64,92.99L493.25,92.87L495.06,92.6L495.67,92.5L497.48,91.8L498.08,96.57L499.29,96.84L499.9,96.86L511.98,98.02L512.58,97.85L518.62,98.3L519.23,98.02L519.83,98.89L520.43,98.39L537.96,98.02L538.56,95.84L539.77,94.6L540.38,94.57L540.98,94.31L541.58,92.82L545.82,88.86L546.42,87.56L550.04,84.31L550.65,83.76L553.06,82.69L553.67,83.58L554.88,82.08L555.48,81.37L556.69,81.81L557.29,80.35L558.5,81.19L559.11,80.66L560.92,82.59L561.52,82.28L564.55,81.14" style="vector-effect: none; fill: none; stroke: rgb(99, 110, 250); stroke-opacity: 1; stroke-width: 2px; opacity: 1;"/></g><g class="points"/><g class="text"/></g><g class="trace scatter tracef7c7c8" style="stroke-miterlimit: 2; opacity: 1;"><g class="fills"/><g class="errorbars"/><g class="lines"><path class="js-line" d="M0.01,199.5L1.21,148.08L1.81,145.21L3.61,141.09L4.22,140.37L6.63,138.04L7.23,138.85L8.44,137.63L9.04,137.93L11.46,136.94L12.06,136.36L15.08,137.69L15.69,137.09L16.9,136.3L17.5,137.57L18.1,136.02L18.71,136.36L19.31,136.67L22.33,136.24L22.94,136.61L25.35,136.45L25.96,135.8L30.8,135.42L31.4,136.05L32,137.36L32.61,134.92L34.42,135.61L35.03,135.71L42.28,135.64L42.89,135.42L44.1,135.42L44.7,135.61L45.92,135.29L46.52,134.41L48.33,134.56L48.94,134.41L50.75,135.36L51.36,135.52L54.99,135.8L55.6,135.48L57.41,135.16L58.01,135.58L65.27,135.42L65.87,134.84L67.08,135.2L67.69,134.95L69.5,134.92L70.11,135.29L77.97,134.92L78.57,134.95L84.02,134.53L84.62,133.99L87.04,134.13L87.65,142.2L88.25,153.66L88.85,153.5L89.46,152.47L92.48,149.77L93.08,149.48L99.73,147.94L100.33,147.91L104.56,147.79L105.17,147.62L106.98,147.6L107.59,147.89L108.79,147.28L109.4,147.54L117.27,147.17L117.87,147.35L122.71,147.45L123.31,147.56L125.12,147.28L125.73,147.3L126.94,147.28L127.54,137.57L128.15,135.71L128.75,136.05L129.35,135.71L132.98,135.36L133.59,135.48L138.43,134.74L139.03,135.23L151.13,133.99L151.73,133.45L153.55,133.84L154.15,140.4L155.36,143.34L155.96,143.24L162.61,143.58L163.22,143.27L164.42,143.75L165.03,143.17L166.24,143.41L166.84,143.54L180.74,144.23L181.34,143.99L193.43,144.72L194.03,141.3L195.25,133.2L195.85,133.13L197.06,131.52L197.66,131.57L212.79,130.71L213.39,130.54L216.41,130.65L217.02,130.71L220.64,129.58L221.25,134.64L222.46,143L223.06,142.63L224.27,142.63L224.88,142.78L228.5,142.35L229.1,142.82L236.35,142.9L236.96,143.17L239.98,143.17L240.58,143.27L243,143.41L243.61,143.34L246.63,143.68L247.23,143.41L249.04,143.63L249.65,143.63L253.27,143.85L253.88,144.04L257.5,143.85L258.11,144.04L260.53,143.85L261.13,144.09L262.94,130.97L263.55,130.52L266.57,129.13L267.18,129.23L268.99,128.85L269.6,128.61L288.34,127.19L288.95,138.13L289.55,142.43L290.16,141.97L290.76,141.82L291.97,141.89L292.57,141.58L295.59,142.12L296.19,141.97L303.44,142.48L304.05,142.22L306.46,142.7L307.07,142.65L312.5,142.73L313.11,142.97L318.54,142.97L319.15,143.07L322.17,142.9L322.78,143.19L326.4,142.8L327.01,143.37L328.22,143.05L328.82,143.37L330.64,128.57L331.24,128.33L334.26,127.51L334.87,127.86L336.68,126.94L337.29,127.13L345.15,126.08L345.76,125.61L346.97,125.55L347.57,125.32L353.01,125.79L353.62,125.32L355.43,125.03L356.04,130.84L356.64,139.22L357.25,138.85L357.85,138.73L362.08,138.62L362.69,138.82L366.92,138.82L367.52,139.02L372.35,139.19L372.96,139.16L375.98,139.33L376.58,139.35L382.02,139.6L382.62,139.74L384.44,139.58L385.04,139.91L388.67,139.96L389.27,139.8L395.92,139.96L396.52,135.96L397.73,127.4L398.34,126.23L402.57,125.77L403.18,125.48L404.99,124.89L405.59,125.05L408.62,124.94L409.22,124.66L415.27,124.48L415.88,123.54L419.5,123.75L420.11,123.42L421.32,123.87L421.92,123.59L424.34,123.42L424.95,123.87L426.16,123.42L426.76,123.4L428.57,123.61L429.18,123.06L430.39,122.99L430.99,133.03L431.6,136.39L432.2,135.93L432.81,136.02L442.47,136.39L443.07,136.3L445.49,136.61L446.09,136.24L447.31,136.36L447.91,136.36L449.72,136.7L450.32,136.91L452.74,136.64L453.35,136.85L458.79,136.7L459.39,136.97L461.2,137.06L461.81,137.06L463.62,137L464.23,137.12L467.85,136.79L468.45,137.18L469.66,137.3L470.26,137.18L472.08,124.96L472.69,124.8L475.71,123.8L476.31,123.75L478.73,123.13L479.34,123.18L485.38,122.2L485.99,122.3L488.41,121.75L489.01,122.52L490.83,122.22L491.44,121.95L496.28,121.57L496.88,121.16L497.49,121.08L498.09,123.92L511.98,124.55L512.59,124.76L515,124.6L515.61,124.87L518.02,125.01L518.63,124.66L520.44,125.05L521.05,124.87L522.86,125.05L523.46,125.1L525.88,124.92L526.49,124.96L530.11,125.19L530.72,124.89L537.96,124.96L538.57,123.18L539.78,122.89L540.38,122.94L540.99,122.57L541.59,121.31L542.2,121.44L542.8,120.79L543.41,120.79L544.01,119.59L544.61,119.81L545.22,119.18L550.05,115.62L550.66,115.28L553.07,113.98L553.68,115.06L554.88,113.32L555.49,113.03L556.09,112.67L556.7,113.48L557.9,112.61L558.51,112.6L559.72,113.08L560.32,113.98L560.93,114.67L561.53,113.7L564.56,112.87" style="vector-effect: none; fill: none; stroke: rgb(239, 85, 59); stroke-opacity: 1; stroke-width: 2px; opacity: 1;"/></g><g class="points"/><g class="text"/></g><g class="trace scatter trace1aafa9" style="stroke-miterlimit: 2; opacity: 1;"><g class="fills"/><g class="errorbars"/><g class="lines"><path class="js-line" d="M0.08,170.08L1.28,139.88L1.88,136.45L3.68,130.61L4.29,129.46L6.7,126.51L7.3,126.66L9.72,125.46L10.32,125.14L13.34,123.37L13.94,123.66L15.15,124.55L15.75,123.75L16.36,123.71L16.97,122.89L17.57,123.28L18.17,122.35L19.99,122.6L20.59,122.5L21.8,121.95L22.4,122.6L24.82,122.57L25.42,122.05L27.24,121.47L27.84,122L30.26,120.95L30.87,120.77L32.07,122.25L32.68,120.61L40.54,120.92L41.14,120.29L43.56,120.95L44.17,120.56L45.38,120.42L45.98,119.86L46.59,119.12L47.19,119.62L47.8,119.89L48.4,119.12L50.22,120.16L50.82,119.94L52.64,120.4L53.24,120.1L55.06,120.13L55.66,120.18L58.69,119.73L59.29,119.81L66.55,119.53L67.15,119.56L70.78,119.34L71.39,119.56L75.02,118.62L75.62,118.98L79.85,119.07L80.46,118.87L83.48,118.9L84.09,118.7L85.3,118.19L85.9,118.62L87.11,118.45L87.71,130.69L88.32,140.53L88.92,139.33L89.53,138.19L92.54,134.95L93.15,134.64L94.96,133.66L95.57,133.4L98.59,132.69L99.19,132.31L115.52,130.82L116.13,130.85L127.01,130.48L127.61,119.94L128.82,118.93L129.42,118.9L133.06,118.42L133.66,118.36L137.89,118.39L138.49,118.08L145.15,117.85L145.75,117.56L148.78,117.35L149.38,117.17L151.2,117.41L151.8,116.73L152.41,116.52L153.01,117.2L153.62,117.12L154.22,124.25L155.43,125.52L156.03,125.43L160.26,125.46L160.87,125.52L163.89,125.32L164.49,125.86L166.31,125.43L166.91,125.55L170.53,125.79L171.14,125.68L175.97,125.9L176.58,125.7L178.99,125.92L179.6,125.81L184.43,126.19L185.04,126.08L189.27,126.08L189.87,126.27L191.08,126.03L191.69,126.14L193.5,126.23L194.1,118.7L194.71,115.56L195.32,115.9L195.92,114.8L197.13,113.4L197.73,112.92L198.94,113.68L199.55,113.8L202.57,113.45L203.18,113.72L204.99,113.62L205.59,113.78L208.01,113.53L208.62,113.7L211.04,113.55L211.64,113.5L213.46,113.08L214.06,113.04L217.09,113.13L217.69,112.42L220.11,111.6L220.71,111.6L221.92,124.78L222.53,124.43L224.94,124.25L225.55,124.5L226.76,124.15L227.36,124.64L232.19,124.73L232.8,124.69L234.61,124.64L235.21,124.73L240.65,125.16L241.26,125.12L257.58,125.68L258.18,125.26L261.2,125.75L261.8,115.4L263.01,112.25L263.62,112.02L266.04,111.13L266.64,111.25L288.41,109.71L289.02,122.22L289.62,124.04L290.22,123.8L290.83,123.87L292.64,123.71L293.24,123.85L294.45,123.71L295.06,123.8L303.51,124.06L304.11,124.27L307.74,124.18L308.34,124.27L311.97,124.25L312.57,124.6L315.6,124.22L316.2,124.48L328.89,124.64L329.49,114.64L330.7,109.88L331.31,109.81L334.94,109.67L335.54,109.46L337.97,109.13L338.57,109.27L340.99,108.58L341.59,108.86L344.61,108.56L345.22,108.68L348.85,107.94L349.45,107.98L351.27,108.14L351.87,108.21L354.29,108.04L354.9,107.94L355.5,107.92L356.11,117.47L357.32,120.87L357.92,120.71L361.55,120.56L362.15,120.66L367.59,120.74L368.19,121L374.23,121.1L374.84,121.23L377.86,121.34L378.47,121.34L388.13,121.49L388.74,121.54L395.99,121.69L396.59,113.68L397.8,108.98L398.41,108.14L400.22,108.21L400.83,107.94L404.46,107.8L405.06,107.74L406.87,107.66L407.48,108L410.5,107.37L411.11,107.45L418.97,106.83L419.57,107.02L421.39,106.89L421.99,106.95L426.22,106.81L426.83,107.08L430.46,106.58L431.06,117.03L432.27,118.62L432.87,118.7L435.29,118.08L435.9,118.51L437.71,118.7L438.31,118.73L441.33,118.68L441.94,118.82L443.14,118.9L443.75,118.76L446.17,118.7L446.77,118.96L448.58,118.62L449.19,118.68L452.21,118.87L452.81,118.82L457.65,119.18L458.25,119.01L469.73,119.15L470.33,119.23L471.54,107.56L472.15,107.16L475.17,106.21L475.78,106.28L497.56,105.69L498.16,106.87L501.79,106.49L502.39,106.91L504.8,106.66L505.41,106.89L507.22,106.89L507.82,106.93L510.84,107.39L511.45,107.02L513.26,107.39L513.86,107.31L519.91,107.56L520.51,107.56L522.92,107.31L523.53,107.58L524.74,107.37L525.34,107.62L527.16,107.82L527.76,107.8L529.58,107.51L530.18,107.68L535.62,107.54L536.22,107.51L538.03,107.45L538.64,105.89L541.06,105.45L541.66,105.19L548.31,101.22L548.91,100.5L550.72,100.13L551.33,100L552.54,99.7L553.14,99.73L554.35,99.49L554.95,99.68L557.37,98.58L557.97,98.78L561.6,99.81L562.21,99.65L564.62,99.19" style="vector-effect: none; fill: none; stroke: rgb(0, 204, 150); stroke-opacity: 1; stroke-width: 2px; opacity: 1;"/></g><g class="points"/><g class="text"/></g><g class="trace scatter trace421b07" style="stroke-miterlimit: 2; opacity: 1;"><g class="fills"/><g class="errorbars"/><g class="lines"><path class="js-line" d="M0.08,195.19L1.28,156.91L1.88,152.13L3.69,143.54L4.29,141.69L6.7,137.15L7.3,136.82L10.33,134.08L10.93,133.79L12.74,132.22L13.34,131.81L15.16,132.41L15.76,131.79L18.18,130.31L18.78,130.35L21.2,129.72L21.8,129.52L25.43,129.42L26.04,128.79L29.06,128.43L29.66,128.02L30.87,127.9L31.48,128.61L32.08,128.83L32.69,127.98L41.76,127.57L42.36,127.67L48.41,126.77L49.01,126.88L52.64,126.94L53.25,126.92L55.06,127.05L55.67,126.92L58.69,126.75L59.3,127.02L79.86,126.05L80.47,126.08L82.88,125.77L83.49,125.94L87.11,125.5L87.72,132.5L88.32,139.69L88.93,139.02L89.53,138.33L92.55,135.83L93.15,135.67L94.97,134.54L95.57,134.46L102.22,133.27L102.83,133.18L112.51,132.55L113.11,132.36L114.32,132.43L114.92,132.34L116.74,132.55L117.34,132.43L127.01,132.18L127.62,125.66L128.83,124.87L129.43,124.94L134.27,124.94L134.87,124.98L141.53,124.98L142.13,124.69L146.36,124.8L146.97,124.73L153.62,124.64L154.23,128.63L155.44,129.54L156.04,129.39L165.1,129.48L165.71,129.52L171.14,129.52L171.75,129.77L177.79,129.72L178.4,130.08L180.21,129.7L180.81,129.93L193.51,130.16L194.11,125.79L194.72,123.42L195.32,123.59L195.93,123.04L197.14,122.62L197.74,122.74L205,123.23L205.6,123.3L218.91,122.3L219.51,122.2L220.72,122.2L221.32,127.53L222.53,129.85L223.14,129.72L226.16,129.48L226.76,129.62L241.87,130.01L242.47,130.23L246.1,130.22L246.7,130.23L249.72,130.31L250.33,130.27L253.35,130.35L253.95,130.29L257.58,130.39L258.18,130.54L260,130.57L260.6,130.76L261.21,130.74L261.81,124.8L263.02,122.6L263.63,122.3L265.44,122.1L266.04,122.02L267.86,122.35L268.46,122.02L274.51,122.02L275.11,122.1L279.95,121.9L280.55,121.97L285.39,121.92L285.99,121.9L288.42,121.95L289.02,128.47L290.23,130.01L290.84,129.93L293.25,129.74L293.86,129.64L299.89,129.93L300.5,130.01L328.9,130.4L329.5,124.87L330.71,121.8L331.31,121.72L340.39,121.62L340.99,121.67L343.41,121.54L344.02,121.64L349.46,121.34L350.06,121.41L355.51,121.16L356.11,126.14L357.32,128.63L357.92,128.37L374.84,128.57L375.45,128.91L381.49,128.85L382.1,129.15L385.12,128.93L385.72,129.05L389.95,128.91L390.55,128.87L392.97,129.27L393.58,129.03L395.99,129.25L396.6,125.39L397.81,121.69L398.41,121.34L402.04,121.62L402.65,121.49L426.23,121.34L426.83,121.39L430.46,121.26L431.07,126.96L432.27,128.35L432.88,128.02L438.32,128.17L438.92,127.9L441.94,128.21L442.55,127.98L446.78,128.15L447.38,128.21L456.45,128.43L457.05,128.41L460.67,128.43L461.28,128.49L469.13,128.65L469.74,128.69L470.34,128.71L470.94,124.39L472.15,121.47L472.76,121.16L480.02,120.9L480.62,121.03L483.64,120.84L484.25,120.87L487.28,120.74L487.88,120.74L495.14,120.87L495.75,120.9L501.79,121.16L502.4,120.87L506.02,121.08L506.62,121.29L510.24,121.34L510.85,121.44L513.87,121.62L514.47,121.49L516.29,121.59L516.89,121.8L521.12,122.02L521.72,121.77L524.74,122.02L525.35,121.82L528.98,121.62L529.58,122.1L538.64,121.57L539.25,121.31L541.06,121.54L541.67,121.08L547.71,118.9L548.31,118.73L551.94,118.14L552.54,118.05L556.17,117.96L556.77,117.82L558.58,117.64L559.19,117.7L560.4,118.42L561,118.53L564.63,117.85" style="vector-effect: none; fill: none; stroke: rgb(171, 99, 250); stroke-opacity: 1; stroke-width: 2px; opacity: 1;"/></g><g class="points"/><g class="text"/></g><g class="trace scatter trace5f65ac" style="stroke-miterlimit: 2; opacity: 1;"><g class="fills"/><g class="errorbars"/><g class="lines"><path class="js-line" d="M0.15,171.26L1.95,145.59L2.55,141.35L4.96,131.24L5.56,129.46L7.98,125.3L8.58,125.14L11,122.57L11.6,122.2L14.02,121.05L14.62,121.08L15.23,121.21L15.83,120.56L16.44,120.05L17.04,121.03L18.25,119.15L18.85,119.32L20.06,119.32L20.67,119.15L21.87,118.68L22.48,118.96L24.29,118.84L24.9,118.51L27.31,117.7L27.92,117.85L30.33,117.12L30.94,117.56L31.55,118.56L32.15,116.94L37.59,116.52L38.19,116.97L40.01,116.21L40.61,116.76L41.83,116.45L42.43,116.24L43.64,116.42L44.24,116.36L45.46,115.93L46.06,115.5L47.27,115.31L47.87,115.78L49.08,115.47L49.69,115.93L53.32,115.62L53.92,115.87L61.78,115.18L62.39,115.18L69.04,114.02L69.65,114.77L76.9,113.68L77.51,113.92L85.98,113.35L86.58,113.26L87.18,112.89L87.79,125.86L88.39,132.47L89,131.35L89.6,130.54L91.41,128.27L92.02,127.8L96.85,124.92L97.45,125.03L99.87,124.15L100.48,124.11L102.9,123.52L103.5,123.4L106.52,122.86L107.13,122.77L121.64,121.8L122.25,121.95L124.06,121.67L124.66,121.72L126.48,121.62L127.08,119.78L127.69,112.58L128.29,112.74L128.89,112.18L137.36,111.99L137.96,111.97L153.69,110.71L154.3,116.76L155.5,117.03L156.11,116.79L176.65,117.35L177.26,117.09L179.07,117.44L179.67,117.44L182.7,117.41L183.3,117.35L193.58,117.44L194.18,110.26L196.6,108.37L197.21,108.27L197.81,107.92L198.41,108.6L203.85,108.56L204.46,108.68L212.32,108.54L212.93,108.27L217.16,108.46L217.77,107.84L220.79,107.27L221.39,116.12L223.21,116.73L223.81,116.55L226.23,116.58L226.83,116.58L229.85,116.76L230.46,116.64L232.87,116.88L233.48,116.85L237.7,116.76L238.31,117.12L240.12,117.12L240.72,117.06L244.35,116.91L244.96,117.26L247.37,116.94L247.98,117.23L261.27,117.29L261.88,108.33L264.3,107.29L264.9,107.25L266.72,107.12L267.32,107.2L269.13,106.85L269.74,106.89L272.16,106.87L272.76,106.83L282.44,106.91L283.04,106.72L288.49,106.58L289.09,116.76L291.51,116.42L292.11,116.45L315.67,116.94L316.27,117.2L318.69,117.03L319.29,117.14L321.11,117.06L321.71,117.12L328.97,117.2L329.57,107.96L330.78,106.74L331.39,106.55L337.43,106.17L338.04,106.38L344.69,106.04L345.3,106.1L348.32,105.58L348.92,105.78L351.34,105.95L351.95,105.89L354.37,105.87L354.97,105.91L355.58,105.89L356.18,113.8L357.39,114.61L357.99,114.7L361.02,114.7L361.62,114.05L363.44,114.8L364.04,114.61L367.66,114.7L368.27,114.77L390.02,115.37L390.62,115.25L393.04,115.31L393.65,115.28L396.06,115.72L396.67,107.64L397.88,106.08L398.48,105.91L401.51,105.93L402.11,105.98L404.53,105.8L405.13,105.82L408.16,105.69L408.76,105.82L415.41,105.69L416.02,105.38L419.65,105.63L420.25,105.5L421.46,105.69L422.07,105.82L426.3,105.38L426.9,105.82L429.93,105.52L430.53,106.08L431.74,113.85L432.34,113.88L438.39,113.93L438.99,113.82L440.8,113.98L441.41,114.64L445.63,114.03L446.24,114.61L448.05,113.8L448.66,114.67L454.7,114.58L455.3,113.87L456.52,114.87L457.12,114.67L458.33,114.77L458.93,114.7L461.95,114.87L462.55,114.74L470.41,114.8L471.01,107.06L472.23,105.76L472.83,105.58L475.25,105.32L475.85,105.27L480.69,105.23L481.29,105.14L483.72,105.19L484.32,105.19L487.34,105.21L487.95,105.21L497.03,105.05L497.63,105.67L501.25,106.04L501.86,105.82L504.88,106.19L505.48,106.02L513.94,106.45L514.54,106.21L516.35,106.74L516.96,106.79L518.77,106.55L519.38,106.77L522.4,106.85L523,106.6L525.42,106.89L526.02,106.85L537.5,106.91L538.11,106.7L539.32,105.87L539.92,105.89L541.74,105.43L542.34,105.19L544.76,104.96L545.36,104.76L546.57,104.26L547.18,104.26L548.99,102.97L549.59,103.23L559.86,102.66L560.47,102.78L562.89,102.78L563.49,102.68L564.7,102.39" style="vector-effect: none; fill: none; stroke: rgb(255, 161, 90); stroke-opacity: 1; stroke-width: 2px; opacity: 1;"/></g><g class="points"/><g class="text"/></g><g class="trace scatter trace6db25a" style="stroke-miterlimit: 2; opacity: 1;"><g class="fills"/><g class="errorbars"/><g class="lines"><path class="js-line" d="M0.23,149.58L2.03,130.23L2.63,127.44L5.04,121.52L5.64,120.4L6.85,119.23L7.45,119.04L8.66,118.22L9.26,118.05L11.07,116.94L11.68,116.33L14.09,116.64L14.7,117.03L15.91,116.58L16.51,115.59L17.11,118.36L17.72,116.18L18.32,115.53L18.93,116L20.14,116.49L20.74,115.75L22.55,116.52L23.16,116.76L25.58,115.47L26.18,115.84L27.39,115.25L27.99,115.78L29.81,115.06L30.41,114.74L31.62,117.91L32.22,113.88L32.83,113.62L33.43,114.99L35.85,115.03L36.46,114.58L37.06,113.42L37.67,114.93L38.87,115.06L39.48,114.77L40.09,113.9L40.69,115.12L41.29,113.98L41.9,115.25L42.5,114.61L43.11,115.31L45.53,113.65L46.14,113.09L49.16,112.98L49.76,113.78L51.58,113.8L52.19,113.88L53.39,113.52L54,114.64L55.21,113.38L55.81,113.45L68.51,112.84L69.12,112.63L70.93,112.82L71.54,112.55L76.37,112.35L76.98,112.39L78.8,112.46L79.4,112.28L83.03,112.14L83.64,112.42L85.45,111.99L86.05,112.2L87.26,111.9L87.86,132.62L88.47,137.9L89.07,136.73L89.68,135.61L92.09,132.29L92.7,131.81L99.95,128.49L100.55,128.67L101.76,128.17L102.36,128.25L105.99,127.24L106.6,127.59L111.44,126.47L112.04,126.73L115.67,126.32L116.28,126.29L126.55,126.16L127.16,116.67L128.36,112.6L128.97,111.79L130.18,111.63L130.78,111.33L134.41,110.91L135.02,111.13L136.83,110.89L137.44,110.89L142.27,110.07L142.88,110.3L145.9,109.86L146.51,109.88L151.35,109.25L151.95,108.41L153.16,109.31L153.77,108.98L154.98,119.2L155.58,118.87L162.22,119.26L162.83,119.51L164.64,119.32L165.25,119.29L167.66,119.67L168.27,119.4L174.31,119.53L174.91,119.67L178.54,119.67L179.14,119.7L182.17,119.53L182.77,119.7L183.98,119.48L184.58,119.51L185.79,119.83L186.4,119.34L187.61,119.86L188.21,119.64L191.23,119.7L191.84,119.81L193.65,119.86L194.25,108.19L196.67,105.01L197.28,104.87L197.88,104.17L198.49,105.14L201.51,104.71L202.12,104.92L205.74,104.65L206.35,104.71L209.37,104.6L209.98,104.42L211.79,104.35L212.4,103.98L214.21,104.12L214.82,104.08L217.24,103.59L217.84,102.56L218.45,102.7L219.05,102.02L220.26,102.46L220.86,101.47L222.07,117.2L222.68,117.35L223.89,117.26L224.49,117.59L228.72,117.47L229.32,117.82L231.74,117.47L232.34,117.56L235.36,117.93L235.97,117.88L239.59,118.16L240.2,117.85L241.41,117.93L242.01,118.02L243.83,117.99L244.43,118.14L246.24,118.02L246.84,118.36L251.08,118.02L251.68,118.19L254.1,118.39L254.7,118.16L260.14,118.31L260.75,118.42L261.35,118.34L261.95,103.18L264.38,101.57L264.98,101.29L266.19,100.57L266.79,101.11L269.21,100.44L269.81,100.47L271.63,100.13L272.23,100.02L287.35,99.08L287.96,98.8L288.56,103.87L289.17,115.97L306.68,116.42L307.29,116.3L308.49,116.36L309.1,116.42L323,116.73L323.6,116.61L327.83,116.58L328.44,116.76L329.04,117.09L329.64,100.75L331.46,98.78L332.06,98.58L333.28,98.22L333.88,98.47L337.51,97.79L338.12,97.82L339.93,97.13L340.54,97.65L347.79,96.3L348.39,96.51L350.21,96.21L350.81,96.45L353.23,96.39L353.84,96.57L354.44,95.81L355.05,96.27L355.65,95.84L356.26,111.07L367.14,111.7L367.74,111.33L369.55,111.6L370.16,111.51L371.97,112.02L372.57,111.72L376.19,112.14L376.8,112.06L381.03,112.16L381.64,112.16L385.86,112.27L386.47,112.09L396.14,112.42L396.74,99.08L398.56,96.63L399.16,96.6L400.98,95.88L401.58,96.12L414.88,94.66L415.49,93.98L419.72,93.74L420.33,94.57L422.14,93.72L422.75,93.62L428.19,93.74L428.79,93.06L430,93.36L430.61,100.75L431.21,108.21L431.82,108.16L432.42,108.35L434.23,108.21L434.84,108.39L439.67,108.5L440.27,108.78L442.09,108.5L442.69,108.72L449.94,108.98L450.55,109.06L454.17,108.88L454.78,108.92L455.98,108.96L456.59,109.04L460.82,109.06L461.42,109.08L463.23,108.74L463.84,109.02L467.46,108.94L468.07,109.21L470.48,108.98L471.09,96.18L472.9,94L473.51,93.83L475.32,93.01L475.93,92.92L486.21,91.91L486.81,91.93L493.47,91.68L494.08,91.49L497.1,91.82L497.71,93.8L498.91,94.57L499.52,94.01L500.72,94.53L501.33,94.08L504.35,94.63L504.95,94.79L508.58,95.01L509.18,95.51L510.39,95.07L510.99,95.01L513.41,95.23L514.01,95.01L515.83,95.38L516.43,95.26L517.64,95.51L518.24,95.07L520.06,95.69L520.66,95.17L524.89,95.32L525.5,95.38L526.71,95.48L527.31,95.69L530.33,95.17L530.94,95.32L537.58,95.17L538.18,92.97L540,92.15L540.6,92.05L542.41,90.81L543.02,90.77L544.23,89.74L544.83,89.83L549.06,86.55L549.67,87.03L550.87,85.5L551.48,86.13L554.5,84.62L555.1,84.76L558.73,84.15L559.33,84.51L559.93,84.22L560.54,84.85L561.14,85.07L561.75,84.26L562.96,84.4L563.56,83.76L564.17,84.26L564.77,83.28" style="vector-effect: none; fill: none; stroke: rgb(25, 211, 243); stroke-opacity: 1; stroke-width: 2px; opacity: 1;"/></g><g class="points"/><g class="text"/></g><g class="trace scatter trace0adf6d" style="stroke-miterlimit: 2; opacity: 1;"><g class="fills"/><g class="errorbars"/><g class="lines"><path class="js-line" d="M0.3,132.61L2.1,113.09L2.7,110.33L3.91,107.74L4.51,107.02L6.32,103.04L6.92,103.56L12.36,101.65L12.96,102.17L13.57,101.47L14.17,102.85L15.98,102.9L16.59,101.95L17.19,104.83L17.8,102.09L18.4,101.9L19,102.73L20.82,102.51L21.42,102.19L23.23,103.68L23.84,103.59L27.46,102.61L28.07,103.02L30.49,102.02L31.09,103.42L31.69,105.5L32.3,101.37L32.9,101.14L33.51,102.27L35.93,102.41L36.53,101.97L37.13,101.42L37.74,102.39L38.95,102.29L39.55,102.24L41.37,101.8L41.97,102.8L42.58,102.12L43.18,102.97L45.6,101.75L46.21,101.04L47.42,100.57L48.02,100.65L54.68,101.9L55.28,101.29L57.7,101.6L58.31,101.24L69.19,100.07L69.8,100.78L75.24,99.78L75.85,100.15L77.66,100.07L78.26,100L81.89,99.68L82.5,99.86L84.31,99.54L84.92,99.51L86.73,99.7L87.34,101.82L88.54,131.64L89.15,130.02L91.56,126.6L92.17,125.99L97,123.13L97.61,123.16L99.42,122.22L100.02,122.42L101.84,121.95L102.44,121.77L104.26,121.21L104.86,121.13L106.67,121.21L107.28,120.82L110.3,120.71L110.91,120.63L114.54,120.08L115.14,120.32L117.56,119.94L118.17,119.97L126.63,119.59L127.23,105.03L128.44,101.62L129.05,100.55L133.88,99.13L134.49,99.08L136.3,98.8L136.91,98.75L143.56,97.48L144.16,97.56L145.98,97.19L146.58,97.07L150.82,96.45L151.42,95.69L152.03,95.17L152.63,95.72L153.24,96.12L153.84,100.42L155.05,110.3L155.66,110.43L159.28,110.58L159.88,110.69L161.69,110.74L162.3,110.74L166.53,111.07L167.14,111.04L169.55,111.09L170.15,110.94L170.76,111.36L171.36,110.82L174.38,110.89L174.99,110.98L176.8,111.25L177.41,111.33L181.64,111.16L182.24,111.52L184.05,111.33L184.66,111.47L187.08,111.24L187.68,111.36L193.73,111.38L194.33,95.84L196.75,91.45L197.35,91.02L197.96,90.2L198.56,91.33L200.38,90.68L200.98,90.99L203.4,89.68L204.01,90.44L212.48,88.84L213.08,88.29L214.89,88.67L215.5,88.86L217.31,88.26L217.92,87.11L218.52,86.98L219.13,85.87L220.34,86.32L220.94,85.46L222.15,106.85L222.75,106.85L225.17,107.12L225.77,107.25L229.4,107.45L230,107.45L239.07,108.21L239.67,108.1L245.71,108.21L246.32,108.48L249.34,108.31L249.94,108.62L252.96,108.37L253.57,108.46L260.82,108.52L261.43,103.47L262.63,88.08L263.24,87.09L266.26,84.47L266.87,84.98L269.89,83.53L270.49,83.67L285.61,81.79L286.22,81.04L287.43,81.52L288.03,81.22L289.24,104.12L289.85,104.31L292.26,104.6L292.87,104.28L294.68,104.69L295.28,104.74L322.47,105.74L323.07,105.12L324.89,105.78L325.49,105.63L328.51,105.63L329.12,100.02L330.33,82.83L330.93,82.2L336.37,79.91L336.98,79.83L346.05,77.9L346.66,77.37L348.47,76.85L349.07,76.96L350.28,77.14L350.89,76.99L353.31,77.11L353.91,76.73L355.73,76.08L356.33,97.39L358.14,97.91L358.75,97.48L360.57,98.08L361.17,98.11L372.04,98.69L372.65,98.92L375.06,98.78L375.67,99.49L376.88,99.11L377.48,99.19L379.3,99.05L379.9,99.22L396.21,99.51L396.82,81.32L398.63,78.18L399.24,77.68L401.66,76.82L402.26,76.85L404.68,75.6L405.29,75.54L407.71,75.26L408.31,74.74L408.91,75.23L409.52,74.58L413.15,73.91L413.75,74.04L414.96,73.98L415.57,73.11L417.38,73.29L417.98,72.81L421.61,72.73L422.22,72.63L425.24,71.98L425.85,72.36L427.66,72.36L428.26,72.1L430.08,71.69L430.68,85.83L431.89,92.53L432.49,92.41L434.91,92.51L435.52,92.51L445.18,93.31L445.79,92.94L451.83,93.34L452.43,93.22L453.64,93.59L454.25,93.54L457.27,93.57L457.87,93.69L463.31,93.22L463.91,93.74L470.56,93.72L471.16,76.76L472.98,73.75L473.58,72.93L476,71.83L476.61,71.57L482.05,70.78L482.66,70.27L485.68,69.92L486.28,69.48L489.31,69.72L489.92,69.2L490.52,69.87L491.13,69.42L497.18,68.66L497.78,72.73L499.59,73.37L500.2,73.18L501.4,73.24L502.01,73.75L505.03,74.23L505.63,74.07L509.86,74.46L510.46,74.2L512.28,74.64L512.88,74.61L523.15,74.74L523.76,74.99L525.57,74.42L526.17,74.33L527.99,74.61L528.59,74.52L532.82,74.17L533.43,74.2L535.24,74.3L535.84,74.14L537.65,74.2L538.26,70.61L540.68,69.4L541.28,67.85L543.09,66.84L543.7,65.59L544.91,65.83L545.51,64.73L546.72,63.36L547.32,63.08L549.14,60.41L549.74,60.69L551.55,59.38L552.16,59.27L553.97,58.03L554.58,58.22L555.78,56.56L556.39,57.62L557.59,56.42L558.2,56.54L560.01,56.94L560.61,58L562.43,57.62L563.04,56.36L563.64,56.45L564.25,57.34L564.85,55.2" style="vector-effect: none; fill: none; stroke: rgb(255, 102, 146); stroke-opacity: 1; stroke-width: 2px; opacity: 1;"/></g><g class="points"/><g class="text"/></g><g class="trace scatter traceffa211" style="stroke-miterlimit: 2; opacity: 1;"><g class="fills"/><g class="errorbars"/><g class="lines"><path class="js-line" d="M0.37,105.98L2.18,82.03L2.78,77.82L6.39,68.53L7,68.91L7.6,69.12L8.2,68.53L9.41,68.89L10.01,67.99L12.43,66.95L13.03,67.79L13.64,66.64L14.24,68.08L16.06,68.3L16.66,67.77L17.27,71.01L17.87,67.71L18.47,67.39L19.08,68.63L20.89,68.49L21.5,68.34L23.31,70.09L23.91,69.78L24.52,69.92L25.12,68.93L27.54,68.72L28.14,69.1L30.56,67.55L31.17,69.42L31.77,72.75L32.38,66.93L32.98,66.58L33.58,68.55L36.61,68.06L37.21,67.51L38.42,69.1L39.03,68.53L40.84,68.68L41.45,68.08L42.05,68.88L42.65,68.06L43.26,69.39L43.86,68.55L45.07,68.49L45.68,67.87L46.89,66.43L47.5,66.45L48.7,66.56L49.31,66.78L50.52,67.55L51.12,67.49L54.75,67.59L55.36,67.07L56.57,67.27L57.17,66.88L58.38,67.31L58.99,67.25L63.22,66.88L63.82,66.18L65.03,66.82L65.64,66.58L67.45,66.41L68.06,66.12L69.27,65.4L69.87,66.41L75.92,65.51L76.53,65.55L80.76,65.25L81.36,65.03L85.6,64.66L86.2,65.03L86.81,64.77L87.41,70.2L88.62,102.58L89.22,101.37L91.64,98.13L92.24,97.33L99.49,93.65L100.1,93.96L101.91,93.26L102.52,93.12L108.56,92.05L109.17,92.05L114.01,91.56L114.61,91.42L124.89,90.79L125.5,90.93L126.7,90.72L127.31,73.82L128.52,68.97L129.12,67.53L132.75,65.29L133.35,65.42L135.77,64.51L136.38,64.46L137.58,64.35L138.19,64.13L141.82,62.94L142.42,63.27L144.84,62.47L145.45,62.54L149.08,61.51L149.68,61.63L150.89,61.24L151.5,60.36L152.71,60.16L153.31,60.56L155.13,79.73L155.73,79.81L158.15,80.33L158.75,80.02L159.96,80.4L160.56,80.46L166,80.92L166.61,80.92L168.42,80.74L169.02,80.86L172.65,80.94L173.25,80.86L174.46,80.97L175.06,80.92L176.88,80.94L177.48,81.09L184.73,81.12L185.34,81.49L187.15,81.27L187.76,81.34L193.2,81.44L193.8,81.59L195.01,60.36L195.61,59.59L196.83,55.86L197.43,55.5L198.03,54.65L198.64,55.86L199.24,54.62L199.85,55.23L200.45,54.71L201.06,55.2L203.47,53.13L204.08,54.31L204.69,53.13L205.29,54.06L205.89,54.12L206.5,53.17L207.1,53.65L207.71,53.11L208.31,53.71L208.92,52.85L212.55,51.83L213.15,51.37L214.97,51.4L215.57,51.57L216.78,51.09L217.39,50.9L218.6,49.2L219.2,47.89L220.41,48.41L221.02,47.44L222.22,75.11L222.83,75.11L226.45,75.87L227.06,75.66L230.68,76.23L231.28,75.99L233.1,76.58L233.7,76.26L235.51,76.58L236.12,76.5L240.95,76.88L241.56,76.93L243.37,76.88L243.97,77.08L251.83,77.08L252.43,77.34L260.89,77.42L261.5,67.79L262.71,51.21L263.31,49.95L266.34,46.52L266.94,46.48L267.55,47.12L268.15,46.38L272.99,45.08L273.59,44.99L276.01,43.92L276.62,43.9L288.11,41.9L288.71,60.94L289.92,71.04L290.53,70.88L291.73,71.29L292.34,71.25L294.75,71.71L295.36,71.71L306.83,72.51L307.43,72.53L309.85,72.88L310.46,72.59L312.27,72.86L312.87,72.91L320.12,73.11L320.73,73.72L321.94,73.13L322.54,73.06L324.96,73.19L325.56,73.18L326.77,73.29L327.38,73.13L328.59,73.09L329.19,63.45L330.4,45.1L331,44.12L334.63,41.3L335.24,41.32L340.08,39.52L340.68,39.63L342.5,38.74L343.1,38.61L344.92,37.88L345.52,37.71L348.55,36.34L349.15,36.08L350.97,36.31L351.57,36.05L353.99,36.11L354.59,35.7L355.8,35.2L356.41,62.16L358.83,62.59L359.43,62.75L362.45,63.2L363.06,63.36L364.26,63.5L364.87,63.45L366.68,63.84L367.28,63.63L369.1,64.08L369.7,63.97L374.53,64.73L375.14,64.66L384.81,64.84L385.41,65.1L387.23,64.97L387.83,65.1L389.64,65.12L390.24,65.29L392.66,65.1L393.27,65.14L396.29,65.12L396.89,43.02L398.71,38.58L399.31,37.91L401.13,36.31L401.73,37.13L404.76,35.02L405.36,35.08L408.99,34.16L409.59,33.19L410.81,33.28L411.41,33.16L421.69,30.94L422.29,31.03L425.31,29.92L425.92,30.4L427.73,30.56L428.34,30.01L430.15,29.71L430.76,47.89L431.97,55.68L432.57,55.68L433.78,55.98L434.39,55.95L436.8,56.24L437.4,56.82L438.61,56.82L439.22,56.91L441.63,57.08L442.24,57.25L446.47,57.62L447.07,57.22L458.55,57.76L459.16,57.98L462.18,57.64L462.78,57.7L464.59,57.98L465.2,57.92L467.01,57.95L467.61,58.22L469.43,57.67L470.03,57.92L470.64,57.76L471.24,36.85L472.45,33.69L473.06,33.12L474.87,31.11L475.47,30.85L476.68,30.26L477.29,30.29L478.5,29.52L479.1,29.34L486.36,27.05L486.96,27.36L489.99,26.83L490.6,27.15L491.81,26.71L492.41,26.67L496.04,26.17L496.65,25.2L497.25,25.68L497.86,31.71L500.27,33.06L500.88,33.06L505.1,33.85L505.71,33.69L506.92,34.22L507.52,34.01L508.12,33.82L508.73,34.47L510.54,34.1L511.14,34.29L517.79,34.65L518.39,34.22L519.6,34.53L520.2,34.59L522.62,34.56L523.23,34.47L525.65,34.56L526.25,34.59L537.73,34.22L538.33,29.4L540.75,27.38L541.36,25.54L541.96,25.76L542.57,24.72L544.98,21.95L545.59,21.31L546.8,19.12L547.4,18.44L548.61,16.34L549.21,16.03L550.42,15.15L551.02,13.58L552.23,13.64L552.84,13.36L554.04,12.53L554.65,12.41L555.86,10.81L556.46,12.01L557.67,10.5L558.27,10.5L560.09,11.15L560.69,12.31L563.71,10.5L564.32,10.71L564.92,10.5" style="vector-effect: none; fill: none; stroke: rgb(182, 232, 128); stroke-opacity: 1; stroke-width: 2px; opacity: 1;"/></g><g class="points"/><g class="text"/></g><g class="trace scatter trace5080b6" style="stroke-miterlimit: 2; opacity: 1;"><g class="fills"/><g class="errorbars"/><g class="lines"><path class="js-line" d="M0.45,71.43L2.25,42.04L2.85,36.88L6.47,23.78L7.07,23.92L8.88,22.8L9.49,23.25L11.3,20.73L11.9,20.28L13.11,21.73L13.71,20.87L14.92,22.48L15.53,22.66L16.74,21.81L17.34,25.47L17.94,21.26L18.55,21.38L19.15,22.73L22.17,23.14L22.78,24.13L23.38,24.31L23.99,23.45L24.59,24.03L25.2,22.98L26.41,22.55L27.01,22.98L30.64,21.78L31.24,20.97L31.85,25.82L32.45,20.6L33.06,20.73L33.66,22.3L35.47,22.5L36.08,21.9L37.29,20.73L37.89,21.11L38.5,22.53L39.1,21.73L40.91,22.36L41.52,21.69L42.13,22.8L42.73,21.66L43.33,23.16L43.94,22.34L45.15,21.83L45.76,21.33L46.96,19.86L47.57,19.45L48.18,19.96L48.78,17.56L49.99,20.75L50.59,20.97L54.83,20.78L55.43,19.83L57.25,19.94L57.85,20.33L59.67,18.94L60.27,19.89L62.09,19.99L62.69,18.26L66.32,19.58L66.92,19.17L69.34,18.26L69.95,19.33L72.37,17.97L72.97,17.83L73.58,17.64L74.18,18.44L76,16.82L76.6,17.97L78.42,18.21L79.02,15.59L79.62,17.78L80.23,17.37L80.84,17.51L83.86,16.4L84.46,17.29L86.88,17.2L87.49,25.7L88.69,61.7L89.3,60.28L91.11,56.71L91.71,57.11L92.32,56.62L94.73,54.78L95.34,54.25L96.55,51.42L97.15,53.06L97.75,53.16L98.36,52.45L98.96,52.43L99.57,50.95L100.17,52.43L100.78,51.93L101.99,51.81L102.59,51.71L108.64,50.24L109.24,50.51L115.29,49.72L115.9,49.53L118.92,49.33L119.52,48.86L120.73,49.09L121.34,48.58L121.94,46.54L122.55,49.01L126.78,48.56L127.38,27.98L128.59,22.62L129.19,20.8L130.41,20.01L131.01,17.29L132.22,18.23L132.83,17.94L133.43,17.61L134.03,15.48L134.64,17.4L135.24,16.31L136.45,16.71L137.06,16.57L144.31,13.61L144.92,14.29L149.16,13.01L149.76,13.14L152.18,10.74L152.78,11.52L153.39,11.92L153.99,23.5L155.2,35.73L155.81,35.64L157.01,35.99L157.62,36.22L160.04,36.65L160.64,36.25L161.85,36.77L162.45,36.63L164.87,37.02L165.47,36.85L166.08,37.22L166.68,36.65L169.1,37.08L169.7,37.16L170.91,37.36L171.51,36.54L172.72,37.36L173.33,36.6L174.54,37.11L175.14,37.38L177.56,37.36L178.16,37.47L188.44,37.74L189.04,37.02L189.64,38.04L190.25,37.47L192.06,38.07L192.67,37.88L193.88,37.91L194.48,14.44L196.3,10.5L196.9,10.5L221.09,10.5L221.69,27.68L222.9,29.71L223.51,29.97L224.11,30.29L224.71,29.74L226.53,30.52L227.13,30.59L240.42,32.02L241.03,30.52L242.84,32.35L243.45,32.09L244.05,33.19L244.66,32.35L246.47,32.31L247.07,32.87L247.68,32.22L248.28,32.87L250.09,33.03L250.7,31.86L251.91,32.9L252.51,31.44L253.72,33.03L254.32,33.06L254.93,31.21L255.53,32.9L256.14,32.39L256.74,33.41L258.55,33.28L259.16,33.31L259.76,33.44L260.37,30.5L260.97,31.76L261.58,21.33L262.78,10.5L263.39,10.5L288.19,10.5L288.79,12.82L290,25.22L290.6,24.78L292.41,25.85L293.02,25.87L293.62,25.74L294.22,26.41L298.45,26.11L299.05,26.81L300.87,27.11L301.47,27.07L303.89,27.64L304.49,27.27L306.3,27.27L306.91,26.95L308.12,27.62L308.72,27.56L309.32,26.59L309.93,27.15L310.53,27.5L311.14,26.95L312.34,27.83L312.95,27.81L314.76,28.3L315.37,27.62L316.57,28.12L317.18,28.15L325.64,28.25L326.25,28.53L328.66,28.27L329.27,16.68L330.47,10.5L331.08,10.5L355.88,10.5L356.48,14.77L358.3,16.73L358.9,16.42L361.32,16.85L361.92,14.16L363.13,17.31L363.73,17.4L364.94,17.34L365.55,16.54L366.15,17.91L366.76,16.65L367.36,17.99L367.97,17.34L369.17,18.18L369.78,18.47L373.4,18.44L374,18.76L376.42,18.15L377.03,18.81L377.63,18.1L378.24,18.94L381.86,19.2L382.47,19.28L383.07,18.6L383.67,19.15L386.69,19.48L387.3,19.38L392.13,19.53L392.74,19.43L395.15,19.63L395.76,19.56L396.36,19.73L396.97,10.5L438.08,10.5L438.69,11.55L439.89,10.5L440.5,11.68L442.91,11.92L443.52,11.01L444.73,12.05L445.33,12.28L447.15,12.05L447.75,12.5L451.37,12.47L451.98,12.7L452.58,12.28L453.19,12.86L456.82,12.89L457.42,12.92L459.23,12.98L459.84,12.08L461.04,12.86L461.65,12.86L464.06,13.01L464.67,12.28L466.48,13.73L467.09,13.08L469.5,13.01L470.1,13.2L471.31,10.5L471.92,10.5L565,10.5" style="vector-effect: none; fill: none; stroke: rgb(255, 151, 255); stroke-opacity: 1; stroke-width: 2px; opacity: 1;"/></g><g class="points"/><g class="text"/></g><g class="trace scatter trace51e76e" style="stroke-miterlimit: 2; opacity: 1;"><g class="fills"/><g class="errorbars"/><g class="lines"><path class="js-line" d="M0.52,108.12L1.73,90.59L2.33,87.64L3.53,84.35L4.13,83.74L6.54,78.71L7.15,79.41L10.77,78.65L11.37,77.68L13.79,77.9L14.4,78.95L16.21,79.33L16.81,78.68L17.42,81.67L18.02,78.87L18.62,78.62L19.23,79.65L22.25,80.25L22.85,80.92L25.27,80.35L25.88,79.94L27.08,80.09L27.69,80.02L29.5,79.51L30.11,79.41L30.71,79.3L31.32,80.33L31.92,82.73L32.52,78.38L33.13,78.18L33.73,79.73L36.15,79.75L36.76,79.41L37.36,78.57L37.97,79.73L39.17,79.96L39.78,79.54L42.2,80.2L42.81,79.44L43.41,80.48L44.01,79.83L45.22,79.94L45.83,79.27L47.04,78.13L47.64,77.96L49.46,78.16L50.06,79.36L51.88,79.19L52.49,79.03L54.9,79.3L55.51,78.73L58.53,78.9L59.14,78.79L61.56,78.9L62.16,78.46L63.37,78.62L63.97,78.21L65.18,78.62L65.79,78.27L67.6,78.49L68.21,77.82L70.02,78.32L70.63,78.29L73.65,76.58L74.26,77.45L76.68,77.08L77.28,77.57L80.3,76.93L80.91,77.34L82.12,76.93L82.73,77.14L83.94,77.02L84.54,76.29L86.96,77.02L87.56,86.96L88.77,112.96L89.37,111.67L92.39,108.64L93,108.41L99.64,105.91L100.25,106.26L103.27,105.34L103.87,105.5L108.11,105.07L108.71,104.96L112.35,104.51L112.95,104.49L126.25,104.08L126.85,103.7L128.06,82.83L128.66,82.47L130.48,80.76L131.09,79.94L133.51,79.01L134.11,78.98L135.32,78.46L135.92,78.29L143.78,76.2L144.39,75.93L146.81,75.84L147.41,75.29L151.04,75.02L151.65,73.91L152.25,72.66L152.86,73.79L153.46,73.08L154.07,85.68L155.28,93.69L155.88,93.85L163.13,94.91L163.73,94.85L167.96,95.32L168.57,95.2L193.95,96.09L194.56,76.29L195.76,74.55L196.37,70.92L198.19,69.01L198.79,70.09L199.39,69.08L200,69.46L200.6,68.7L201.81,68.97L202.42,68.74L203.63,67.35L204.23,68.04L206.05,67.61L206.65,67.65L211.49,66.18L212.1,66.6L213.3,65.44L213.91,65.44L216.33,65.16L216.93,65.12L217.54,64.73L218.14,63.29L219.35,61.99L219.96,62.38L220.56,62.5L221.17,64.84L222.38,89.47L222.98,89.53L226.6,90.13L227.21,90.24L243.52,91.38L244.12,91.58L246.54,91.58L247.15,91.56L250.77,91.94L251.37,91.84L253.79,92.01L254.4,92.1L256.21,91.96L256.82,92.17L261.05,92.22L261.65,80.79L262.86,67.05L263.47,65.49L266.49,61.97L267.09,61.87L267.7,62.04L268.3,61.31L269.51,60.84L270.12,60.23L273.14,59.43L273.74,59.11L275.56,58.9L276.16,58.58L284.02,57L284.63,57.19L287.05,56.3L287.66,56.3L288.26,55.8L288.86,77.25L290.07,85.78L290.68,85.87L303.36,87.45L303.96,87.47L305.17,87.68L305.77,87.6L309.4,88.02L310,87.92L314.23,88.22L314.84,88.02L317.25,88.29L317.86,88.31L324.51,88.47L325.11,88.63L328.74,88.49L329.34,77.17L330.55,61.31L331.16,60.31L333.57,57.22L334.18,57.19L336.6,56.24L337.2,55.86L341.44,53.68L342.04,53.11L345.07,52.7L345.67,52.12L348.69,50.42L349.3,50.74L351.72,50.93L352.32,50.65L354.14,50.47L354.74,49.53L355.35,49.95L355.95,55.2L357.16,78.02L357.77,78.07L361.39,78.68L362,78.92L365.02,79.27L365.62,79.46L376.5,80.46L377.1,80.46L393.42,81.22L394.02,81.09L395.83,81.22L396.44,79.03L397.65,57.48L398.25,55.53L398.86,55.41L399.47,54.43L401.28,51.91L401.88,52.63L403.7,51.21L404.3,51.04L407.33,49.79L407.93,49.57L410.35,48.81L410.95,48.69L416.4,46.64L417,46.76L418.21,46.78L418.81,46.21L422.44,45.71L423.05,45.59L430.3,44.56L430.91,65.36L432.12,72.05L432.72,72.14L446.62,74.46L447.22,74.36L453.87,75.05L454.47,74.61L456.29,74.74L456.89,74.55L459.91,75.17L460.51,74.8L462.93,75.23L463.54,75.02L465.35,74.99L465.95,75.11L467.16,75.11L467.76,75.26L470.18,75.17L470.78,70.74L471.99,51.66L472.6,50.77L475.62,47.62L476.23,47.4L479.25,45.69L479.86,45.63L481.07,44.91L481.67,44.78L483.49,44.19L484.09,44.04L487.72,42.61L488.32,42.49L490.75,42.61L491.35,42.07L493.17,41.85L493.77,41.35L494.98,41.28L495.59,41.23L496.19,41.45L496.8,40.39L497.4,40.54L498,49.35L499.82,50.56L500.42,50.65L502.84,51.28L503.44,51.14L507.07,51.9L507.67,51.91L509.48,52.32L510.09,52.28L513.71,52.5L514.31,52.77L515.52,52.62L516.13,52.85L518.54,52.65L519.15,52.81L520.96,52.75L521.57,52.73L531.84,52.35L532.44,52.6L534.86,52.45L535.46,52.3L537.88,52.55L538.49,48.14L540.9,45.29L541.51,43.36L543.32,41.15L543.93,39.37L544.53,39.47L545.13,38.47L545.74,37.66L546.34,35.4L547.55,34.38L548.16,32.19L552.99,28.38L553.59,28.1L554.8,26.93L555.4,26.45L556.01,25.95L556.61,26.75L557.21,24.76L557.82,25.2L558.42,25.31L559.03,24.86L559.63,25.8L560.24,25.24L560.84,27.29L563.87,24.26L564.47,24.97" style="vector-effect: none; fill: none; stroke: rgb(254, 203, 82); stroke-opacity: 1; stroke-width: 2px; opacity: 1;"/></g><g class="points"/><g class="text"/></g></g></g></g><path class="xlines-above crisp" d="M0,0" style="fill: none;"/><path class="ylines-above crisp" d="M0,0" style="fill: none;"/><g class="overlines-above"/><g class="xaxislayer-above"><g class="xtick"><text text-anchor="middle" x="0" y="273" transform="translate(162.12,0)" style="font-family: 'Times New Roman'; font-size: 12px; fill: rgb(0, 0, 0); fill-opacity: 1; white-space: pre; opacity: 1;">5e+6</text></g><g class="xtick"><text text-anchor="middle" x="0" y="273" style="font-family: 'Times New Roman'; font-size: 12px; fill: rgb(0, 0, 0); fill-opacity: 1; white-space: pre; opacity: 1;" transform="translate(274.47,0)">1e+7</text></g><g class="xtick"><text text-anchor="middle" x="0" y="273" style="font-family: 'Times New Roman'; font-size: 12px; fill: rgb(0, 0, 0); fill-opacity: 1; white-space: pre; opacity: 1;" transform="translate(386.81,0)">2e+7</text></g><g class="xtick"><text text-anchor="middle" x="0" y="273" style="font-family: 'Times New Roman'; font-size: 12px; fill: rgb(0, 0, 0); fill-opacity: 1; white-space: pre; opacity: 1;" transform="translate(499.16,0)">2e+7</text></g><g class="xtick"><text text-anchor="middle" x="0" y="273" style="font-family: 'Times New Roman'; font-size: 12px; fill: rgb(0, 0, 0); fill-opacity: 1; white-space: pre; opacity: 1;" transform="translate(611.51,0)">3e+7</text></g></g><g class="yaxislayer-above"><g class="ytick"><text text-anchor="end" x="49" y="4.199999999999999" transform="translate(0,244.35)" style="font-family: 'Times New Roman'; font-size: 12px; fill: rgb(0, 0, 0); fill-opacity: 1; white-space: pre; opacity: 1;">2e+5</text></g><g class="ytick"><text text-anchor="end" x="49" y="4.199999999999999" style="font-family: 'Times New Roman'; font-size: 12px; fill: rgb(0, 0, 0); fill-opacity: 1; white-space: pre; opacity: 1;" transform="translate(0,217.34)">5e+5</text></g><g class="ytick"><text text-anchor="end" x="49" y="4.199999999999999" style="font-family: 'Times New Roman'; font-size: 12px; fill: rgb(0, 0, 0); fill-opacity: 1; white-space: pre; opacity: 1;" transform="translate(0,196.92)">1e+6</text></g><g class="ytick"><text text-anchor="end" x="49" y="4.199999999999999" style="font-family: 'Times New Roman'; font-size: 12px; fill: rgb(0, 0, 0); fill-opacity: 1; white-space: pre; opacity: 1;" transform="translate(0,176.49)">2e+6</text></g><g class="ytick"><text text-anchor="end" x="49" y="4.199999999999999" style="font-family: 'Times New Roman'; font-size: 12px; fill: rgb(0, 0, 0); fill-opacity: 1; white-space: pre; opacity: 1;" transform="translate(0,149.49)">5e+6</text></g><g class="ytick"><text text-anchor="end" x="49" y="4.199999999999999" style="font-family: 'Times New Roman'; font-size: 12px; fill: rgb(0, 0, 0); fill-opacity: 1; white-space: pre; opacity: 1;" transform="translate(0,129.06)">1e+7</text></g><g class="ytick"><text text-anchor="end" x="49" y="4.199999999999999" style="font-family: 'Times New Roman'; font-size: 12px; fill: rgb(0, 0, 0); fill-opacity: 1; white-space: pre; opacity: 1;" transform="translate(0,108.63)">2e+7</text></g><g class="ytick"><text text-anchor="end" x="49" y="4.199999999999999" style="font-family: 'Times New Roman'; font-size: 12px; fill: rgb(0, 0, 0); fill-opacity: 1; white-space: pre; opacity: 1;" transform="translate(0,81.63)">5e+7</text></g><g class="ytick"><text text-anchor="end" x="49" y="4.199999999999999" style="font-family: 'Times New Roman'; font-size: 12px; fill: rgb(0, 0, 0); fill-opacity: 1; white-space: pre; opacity: 1;" transform="translate(0,61.2)">1e+8</text></g></g><g class="overaxes-above"/></g></g><g class="polarlayer"/><g class="smithlayer"/><g class="ternarylayer"/><g class="geolayer"/><g class="funnelarealayer"/><g class="pielayer"/><g class="iciclelayer"/><g class="treemaplayer"/><g class="sunburstlayer"/><g class="glimages"/><defs id="topdefs-8b30f5"><g class="clips"/></defs><g class="layer-above"><g class="imagelayer"/><g class="shapelayer"><g class="shape-group" data-index="0" clip-path="url(#clip8b30f5x)"><path data-index="0" fill-rule="evenodd" d="M93.97999999999999,260H131.72V50H93.97999999999999Z" style="opacity: 0.2; stroke: rgb(0, 0, 0); stroke-opacity: 0; fill: rgb(44, 115, 210); fill-opacity: 1; stroke-width: 0px;"/></g><g class="shape-group" data-index="1" clip-path="url(#clip8b30f5x)"><path data-index="1" fill-rule="evenodd" d="M141.16,260H172.18V50H141.16Z" style="opacity: 0.2; stroke: rgb(0, 0, 0); stroke-opacity: 0; fill: rgb(50, 125, 23); fill-opacity: 1; stroke-width: 0px;"/></g><g class="shape-group" data-index="2" clip-path="url(#clip8b30f5x)"><path data-index="2" fill-rule="evenodd" d="M208.56,260H239.56V50H208.56Z" style="opacity: 0.2; stroke: rgb(0, 0, 0); stroke-opacity: 0; fill: rgb(80, 143, 33); fill-opacity: 1; stroke-width: 0px;"/></g><g class="shape-group" data-index="3" clip-path="url(#clip8b30f5x)"><path data-index="3" fill-rule="evenodd" d="M275.95,260H306.97V50H275.95Z" style="opacity: 0.2; stroke: rgb(0, 0, 0); stroke-opacity: 0; fill: rgb(108, 160, 44); fill-opacity: 1; stroke-width: 0px;"/></g><g class="shape-group" data-index="4" clip-path="url(#clip8b30f5x)"><path data-index="4" fill-rule="evenodd" d="M343.36,260H374.37V50H343.36Z" style="opacity: 0.2; stroke: rgb(0, 0, 0); stroke-opacity: 0; fill: rgb(136, 178, 55); fill-opacity: 1; stroke-width: 0px;"/></g><g class="shape-group" data-index="5" clip-path="url(#clip8b30f5x)"><path data-index="5" fill-rule="evenodd" d="M410.76,260H441.76V50H410.76Z" style="opacity: 0.2; stroke: rgb(0, 0, 0); stroke-opacity: 0; fill: rgb(164, 196, 68); fill-opacity: 1; stroke-width: 0px;"/></g><g class="shape-group" data-index="6" clip-path="url(#clip8b30f5x)"><path data-index="6" fill-rule="evenodd" d="M484.9,260H515.9V50H484.9Z" style="opacity: 0.2; stroke: rgb(0, 0, 0); stroke-opacity: 0; fill: rgb(194, 213, 81); fill-opacity: 1; stroke-width: 0px;"/></g><g class="shape-group" data-index="7" clip-path="url(#clip8b30f5x)"><path data-index="7" fill-rule="evenodd" d="M552.3,260H583.3V50H552.3Z" style="opacity: 0.2; stroke: rgb(0, 0, 0); stroke-opacity: 0; fill: rgb(224, 231, 95); fill-opacity: 1; stroke-width: 0px;"/></g></g></g><g class="infolayer"><g class="g-gtitle"><text class="gtitle" x="312.5" y="25" text-anchor="middle" dy="0em" style="opacity: 1; font-family: 'Times New Roman'; font-size: 17px; fill: rgb(0, 0, 0); fill-opacity: 1; white-space: pre;">Matrix 0, Sensor 6</text></g><g class="g-xtitle" transform="translate(0,-2.8000000000000114)"><text class="xtitle" x="332.5" y="299.8" text-anchor="middle" style="opacity: 1; font-family: 'Times New Roman'; font-size: 14px; fill: rgb(0, 0, 0); fill-opacity: 1; white-space: pre;">Time since power on (ms)</text></g><g class="g-ytitle" transform="translate(6.994140625,0)"><text class="ytitle" transform="rotate(-90,5.506250000000001,155)" x="5.506250000000001" y="155" text-anchor="middle" style="opacity: 1; font-family: 'Times New Roman'; font-size: 14px; fill: rgb(0, 0, 0); fill-opacity: 1; white-space: pre;">Resistance (Ohms)</text></g><g class="annotation" data-index="0" style="opacity: 1;"><g class="annotation-text-g" transform="rotate(0,103.97999999999999,58.5)"><g class="cursor-pointer" transform="translate(94,50)"><rect class="bg" x="0.5" y="0.5" width="19" height="16" style="stroke-width: 1px; stroke: rgb(0, 0, 0); stroke-opacity: 0; fill: rgb(0, 0, 0); fill-opacity: 0;"/><text class="annotation-text" text-anchor="middle" x="10" y="12.5" style="font-family: 'Times New Roman'; font-size: 12px; fill: rgb(0, 0, 0); fill-opacity: 1; white-space: pre;">Air</text></g></g></g><g class="annotation" data-index="1" style="opacity: 1;"><g class="annotation-text-g" transform="rotate(0,158.16,58.5)"><g class="cursor-pointer" transform="translate(141,50)"><rect class="bg" x="0.5" y="0.5" width="33" height="16" style="stroke-width: 1px; stroke: rgb(0, 0, 0); stroke-opacity: 0; fill: rgb(0, 0, 0); fill-opacity: 0;"/><text class="annotation-text" text-anchor="middle" x="16.84375" y="12.5" style="font-family: 'Times New Roman'; font-size: 12px; fill: rgb(0, 0, 0); fill-opacity: 1; white-space: pre;">O 100</text></g></g></g><g class="annotation" data-index="2" style="opacity: 1;"><g class="annotation-text-g" transform="rotate(0,222.56,58.5)"><g class="cursor-pointer" transform="translate(209,50)"><rect class="bg" x="0.5" y="0.5" width="27" height="16" style="stroke-width: 1px; stroke: rgb(0, 0, 0); stroke-opacity: 0; fill: rgb(0, 0, 0); fill-opacity: 0;"/><text class="annotation-text" text-anchor="middle" x="13.84375" y="12.5" style="font-family: 'Times New Roman'; font-size: 12px; fill: rgb(0, 0, 0); fill-opacity: 1; white-space: pre;">O 95</text></g></g></g><g class="annotation" data-index="3" style="opacity: 1;"><g class="annotation-text-g" transform="rotate(0,289.95,58.5)"><g class="cursor-pointer" transform="translate(276,50)"><rect class="bg" x="0.5" y="0.5" width="27" height="16" style="stroke-width: 1px; stroke: rgb(0, 0, 0); stroke-opacity: 0; fill: rgb(0, 0, 0); fill-opacity: 0;"/><text class="annotation-text" text-anchor="middle" x="13.84375" y="12.5" style="font-family: 'Times New Roman'; font-size: 12px; fill: rgb(0, 0, 0); fill-opacity: 1; white-space: pre;">O 90</text></g></g></g><g class="annotation" data-index="4" style="opacity: 1;"><g class="annotation-text-g" transform="rotate(0,357.36,58.5)"><g class="cursor-pointer" transform="translate(343,50)"><rect class="bg" x="0.5" y="0.5" width="27" height="16" style="stroke-width: 1px; stroke: rgb(0, 0, 0); stroke-opacity: 0; fill: rgb(0, 0, 0); fill-opacity: 0;"/><text class="annotation-text" text-anchor="middle" x="13.84375" y="12.5" style="font-family: 'Times New Roman'; font-size: 12px; fill: rgb(0, 0, 0); fill-opacity: 1; white-space: pre;">O 80</text></g></g></g><g class="annotation" data-index="5" style="opacity: 1;"><g class="annotation-text-g" transform="rotate(0,424.76,58.5)"><g class="cursor-pointer" transform="translate(411,50)"><rect class="bg" x="0.5" y="0.5" width="27" height="16" style="stroke-width: 1px; stroke: rgb(0, 0, 0); stroke-opacity: 0; fill: rgb(0, 0, 0); fill-opacity: 0;"/><text class="annotation-text" text-anchor="middle" x="13.84375" y="12.5" style="font-family: 'Times New Roman'; font-size: 12px; fill: rgb(0, 0, 0); fill-opacity: 1; white-space: pre;">O 70</text></g></g></g><g class="annotation" data-index="6" style="opacity: 1;"><g class="annotation-text-g" transform="rotate(0,498.9,58.5)"><g class="cursor-pointer" transform="translate(485,50)"><rect class="bg" x="0.5" y="0.5" width="27" height="16" style="stroke-width: 1px; stroke: rgb(0, 0, 0); stroke-opacity: 0; fill: rgb(0, 0, 0); fill-opacity: 0;"/><text class="annotation-text" text-anchor="middle" x="13.84375" y="12.5" style="font-family: 'Times New Roman'; font-size: 12px; fill: rgb(0, 0, 0); fill-opacity: 1; white-space: pre;">O 50</text></g></g></g><g class="annotation" data-index="7" style="opacity: 1;"><g class="annotation-text-g" transform="rotate(0,563.3,58.5)"><g class="cursor-pointer" transform="translate(552,50)"><rect class="bg" x="0.5" y="0.5" width="21" height="16" style="stroke-width: 1px; stroke: rgb(0, 0, 0); stroke-opacity: 0; fill: rgb(0, 0, 0); fill-opacity: 0;"/><text class="annotation-text" text-anchor="middle" x="10.84375" y="12.5" style="font-family: 'Times New Roman'; font-size: 12px; fill: rgb(0, 0, 0); fill-opacity: 1; white-space: pre;">O 0</text></g></g></g></g></svg>