<svg class="main-svg" xmlns="http://www.w3.org/2000/svg" xmlns:xlink="http://www.w3.org/1999/xlink" width="625" height="300" style="" viewBox="0 0 625 300"><rect x="0" y="0" width="625" height="300" style="fill: rgb(255, 255, 255); fill-opacity: 1;"/><defs id="defs-4af30b"><g class="clips"><clipPath id="clip4af30bxyplot" class="plotclip"><rect width="565" height="210"/></clipPath><clipPath class="axesclip" id="clip4af30bx"><rect x="50" y="0" width="565" height="300"/></clipPath><clipPath class="axesclip" id="clip4af30by"><rect x="0" y="50" width="625" height="210"/></clipPath><clipPath class="axesclip" id="clip4af30bxy"><rect x="50" y="50" width="565" height="210"/></clipPath></g><g class="gradients"/><g class="patterns"/></defs><g class="bglayer"><rect class="bg" x="50" y="50" width="565" height="210" style="fill: rgb(229, 236, 246); fill-opacity: 1; stroke-width: 0;"/></g><g class="layer-below"><g class="imagelayer"/><g class="shapelayer"/></g><g class="cartesianlayer"><g class="subplot xy"><g class="layer-subplot"><g class="shapelayer"/><g class="imagelayer"/></g><g class="minor-gridlayer"><g class="x"/><g class="y"/></g><g class="gridlayer"><g class="x"><path class="xgrid crisp" transform="translate(66.39,0)" d="M0,50v210" style="stroke: rgb(255, 255, 255); stroke-opacity: 1; stroke-width: 1px;"/><path class="xgrid crisp" transform="translate(176.95999999999998,0)" d="M0,50v210" style="stroke: rgb(255, 255, 255); stroke-opacity: 1; stroke-width: 1px;"/><path class="xgrid crisp" transform="translate(287.52,0)" d="M0,50v210" style="stroke: rgb(255, 255, 255); stroke-opacity: 1; stroke-width: 1px;"/><path class="xgrid crisp" transform="translate(398.08,0)" d="M0,50v210" style="stroke: rgb(255, 255, 255); stroke-opacity: 1; stroke-width: 1px;"/><path class="xgrid crisp" transform="translate(508.65,0)" d="M0,50v210" style="stroke: rgb(255, 255, 255); stroke-opacity: 1; stroke-width: 1px;"/></g><g class="y"><path class="ygrid crisp" transform="translate(0,255.56)" d="M50,0h565" style="stroke: rgb(255, 255, 255); stroke-opacity: 1; stroke-width: 1px;"/><path class="ygrid crisp" transform="translate(0,230.15)" d="M50,0h565" style="stroke: rgb(255, 255, 255); stroke-opacity: 1; stroke-width: 1px;"/><path class="ygrid crisp" transform="translate(0,204.75)" d="M50,0h565" style="stroke: rgb(255, 255, 255); stroke-opacity: 1; stroke-width: 1px;"/><path class="ygrid crisp" transform="translate(0,171.17000000000002)" d="M50,0h565" style="stroke: rgb(255, 255, 255); stroke-opacity: 1; stroke-width: 1px;"/><path class="ygrid crisp" transform="translate(0,145.76)" d="M50,0h565" style="stroke: rgb(255, 255, 255); stroke-opacity: 1; stroke-width: 1px;"/><path class="ygrid crisp" transform="translate(0,120.36)" d="M50,0h565" style="stroke: rgb(255, 255, 255); stroke-opacity: 1; stroke-width: 1px;"/><path class="ygrid crisp" transform="translate(0,86.77000000000001)" d="M50,0h565" style="stroke: rgb(255, 255, 255); stroke-opacity: 1; stroke-width: 1px;"/><path class="ygrid crisp" transform="translate(0,61.37)" d="M50,0h565" style="stroke: rgb(255, 255, 255); stroke-opacity: 1; stroke-width: 1px;"/></g></g><g class="zerolinelayer"/><g class="layer-between"><g class="shapelayer"/><g class="imagelayer"/></g><path class="xlines-below"/><path class="ylines-below"/><g class="overlines-below"/><g class="xaxislayer-below"/><g class="yaxislayer-below"/><g class="overaxes-below"/><g class="overplot"><g class="xy" transform="translate(50,50)" clip-path="url(#clip4af30bxyplot)"><g class="scatterlayer mlayer"><g class="trace scatter trace9950df" style="stroke-miterlimit: 2; opacity: 1;"><g class="fills"/><g class="errorbars"/><g class="lines"><path class="js-line" d="M0,10.5L29.47,10.5L30.02,12.22L30.57,12.83L31.11,12.26L34.39,10.5L34.93,10.5L48.04,10.5L48.59,12.55L49.68,10.5L50.22,10.5L564.99,10.5" style="vector-effect: none; fill: none; stroke: rgb(99, 110, 250); stroke-opacity: 1; stroke-width: 2px; opacity: 1;"/></g><g class="points"/><g class="text"/></g><g class="trace scatter trace447ba4" style="stroke-miterlimit: 2; opacity: 1;"><g class="fills"/><g class="errorbars"/><g class="lines"><path class="js-line" d="M0.01,149.16L1.1,149.6L1.64,149.26L16.38,148.6L16.93,148.4L18.02,148.72L18.57,148.56L23.48,148.15L24.02,148.34L26.21,148.12L26.75,147.83L27.84,148.18L28.39,148.18L28.94,148.12L29.48,185.54L30.03,187.94L30.57,187.54L31.12,187.3L34.94,185.3L35.49,185.09L48.05,184.09L48.59,184.88L49.69,184.26L50.23,184.17L60.61,183.8L61.16,183.78L63.89,184.14L64.44,183.58L69.9,183.8L70.44,183.17L71.53,154.45L72.08,152.45L74.81,149.04L75.36,149.29L80.83,148.31L81.37,148.28L84.65,147.34L85.2,147.57L87.39,147.07L87.94,146.94L91.22,147.11L91.76,146.61L93.4,146.77L93.95,146.61L96.13,146.71L96.68,146.77L97.23,146.34L97.78,146.94L99.96,146.44L100.51,146.71L102.15,146.54L102.7,146.64L108.17,146.2L108.71,152.71L109.81,182.94L110.35,183.14L115.27,182.39L115.81,182.21L120.73,182.27L121.27,182.19L130.01,182.06L130.56,182.32L132.2,182.14L132.74,182.01L139.3,182.16L139.84,181.7L141.48,182.24L142.03,182.14L148.04,182.21L148.58,162.94L149.68,152.36L150.22,151.29L152.41,149.19L152.95,148.88L158.42,147.43L158.97,147.34L160.61,146.67L161.16,147.04L162.25,146.54L162.8,147.2L164.44,146.67L164.99,146.67L172.64,145.59L173.19,146.44L175.37,145.59L175.92,145.96L178.11,145.62L178.66,146.24L180.3,145.27L180.85,145.24L185.77,145.83L186.31,145.52L187.41,145.38L187.96,145.38L188.5,145.27L189.05,180.9L190.14,183.78L190.69,184.17L192.88,183.22L193.42,183.09L205.99,182.77L206.53,183.09L208.17,182.77L208.72,182.62L211.45,182.97L211.99,182.84L213.09,182.44L213.63,182.79L214.73,183.09L215.27,183.31L217.46,182.62L218,182.84L221.28,182.84L221.83,182.77L224.56,182.49L225.11,182.67L227.29,182.52L227.84,182.94L228.93,154.67L229.48,152.51L231.66,149.23L232.21,148.91L233.31,148.18L233.85,148.02L237.68,146.54L238.23,146.67L242.06,145.9L242.6,146.34L244.24,146.2L244.79,146.03L245.88,146.07L246.43,146.3L250.8,145.48L251.35,145.96L259.55,145.76L260.1,145.14L261.74,145.69L262.29,145.55L263.93,145.21L264.47,145.72L266.11,145.38L266.66,146.07L267.76,145.24L268.3,177.68L269.94,181.34L270.49,180.66L272.67,180.26L273.22,180.02L275.41,180.42L275.95,180.15L288.52,180.34L289.06,180.45L292.89,180.42L293.43,180.79L296.71,180.37L297.25,180.61L299.44,180.45L299.99,181.39L301.08,180.95L301.63,181L304.91,180.84L305.45,180.15L307.64,180.79L308.18,158.54L309.82,150.18L310.37,149.26L313.64,146.54L314.19,146.03L315.83,145.31L316.37,144.82L318.01,145.41L318.56,145.14L319.65,144.93L320.19,145.9L322.38,143.78L322.92,143.57L324.01,144.18L324.56,144L326.74,143.82L327.29,144.04L329.48,143.31L330.02,142.91L331.66,143.27L332.2,143.24L333.84,143.2L334.39,142.34L335.48,141.89L336.03,142.68L338.76,143.71L339.3,143.78L340.4,143.46L340.95,143.6L345.86,144.18L346.4,143.75L346.95,143.68L347.5,152.11L348.59,177.68L349.13,177.91L354.05,178.08L354.59,178L360.6,178.22L361.14,178.56L362.78,178.28L363.33,178.28L364.42,177.85L364.97,178.53L369.34,177.94L369.88,178.22L371.52,178.03L372.07,178.11L376.99,178.25L377.53,177.54L378.08,178.31L378.63,177.88L379.17,177.71L380.27,178.03L380.81,177.83L382.45,178.45L383,177.97L385.73,178.05L386.28,178.39L388.46,177.94L389.01,178.34L390.1,178.98L390.65,177.94L391.75,152.93L392.29,151.26L395.03,147.53L395.58,146.94L398.31,146.03L398.85,146.44L399.4,145.76L399.95,146.4L402.14,145.17L402.69,145.59L404.32,145.45L404.87,145.14L405.96,145.27L406.51,145.34L407.61,146.24L408.15,145.66L409.25,146.34L409.79,146.07L413.62,145.38L414.17,145.72L415.81,145.52L416.36,145.48L418,145.34L418.55,145.38L419.64,144.82L420.19,145.07L420.74,145.52L421.28,144.89L422.38,145.45L422.92,144.89L424.57,145L425.11,145.07L426.75,144.93L427.3,150.39L428.39,175.98L428.94,176.28L430.03,176.13L430.58,176.69L432.22,176.49L432.76,176.43L433.86,176.01L434.4,176.01L438.78,176.01L439.32,176.52L439.87,175.49L440.41,176.31L440.96,176.75L441.51,176.07L442.6,176.16L443.15,176.01L444.24,176.28L444.79,176.4L456.81,176.6L457.35,176.99L459.54,176.31L460.09,176.49L461.18,176.49L461.73,176.46L466.1,176.52L466.65,176.75L467.74,152.88L468.29,151.23L469.93,147.4L470.47,146.94L472.11,145.96L472.66,145.21L475.39,144.57L475.94,144.25L478.67,144L479.21,143.71L480.86,143.86L481.4,143.68L484.13,143.35L484.68,143.46L485.77,143.09L486.32,143.75L487.41,143.27L487.96,143.38L489.6,143.05L490.14,143.27L493.97,143.49L494.51,143.05L496.69,143.13L497.24,143.13L498.33,142.79L498.88,143.49L500.52,143.2L501.07,142.87L505.43,143.38L505.98,142.98L507.07,148.47L507.62,148.94L515.26,150.96L515.81,150.63L516.9,151.23L517.45,150.9L518.54,151.08L519.09,151.2L520.72,151.17L521.27,151.82L522.36,151.29L522.91,151.23L525.1,151.26L525.64,151.47L536.03,151.61L536.58,152.11L538.21,151.47L538.76,151.82L542.59,151.55L543.13,151.84L545.87,152.13L546.42,151.2L548.06,145.41L548.61,145.31L550.25,144.71L550.79,144.43L551.89,144.75L552.43,144.68L556.26,143.93L556.8,144.04L558.99,143.49L559.54,143.93L561.18,143.71L561.72,144L563.36,143.93L563.91,144.18L565,143.53" style="vector-effect: none; fill: none; stroke: rgb(239, 85, 59); stroke-opacity: 1; stroke-width: 2px; opacity: 1;"/></g><g class="points"/><g class="text"/></g><g class="trace scatter trace667944" style="stroke-miterlimit: 2; opacity: 1;"><g class="fills"/><g class="errorbars"/><g class="lines"><path class="js-line" d="M0.14,32.85L5.05,31.96L5.6,32.24L6.15,31.96L6.69,32.62L7.24,31.81L7.78,32.6L9.42,32.34L9.96,32.71L11.6,31.84L12.15,32.34L15.42,32.17L15.97,31.72L19.79,31.5L20.34,31.3L22.52,31.26L23.06,31.62L25.8,30.99L26.34,31.16L27.98,31.01L28.52,31.03L29.07,31.38L29.61,97.24L30.71,99.76L31.25,99.52L33.44,97.72L33.98,97.63L36.71,96.76L37.26,96.46L39.44,95.96L39.99,95.9L41.08,95.96L41.63,96.03L43.27,95.22L43.81,95.63L45.45,95.05L45.99,95.73L47.09,95.12L47.63,95.26L48.18,95.29L48.73,96.79L49.82,95.56L50.36,95.56L52.55,94.98L53.09,94.98L54.19,95.15L54.73,95.15L55.83,95.43L56.37,95.29L56.92,95.83L57.47,95.05L58.56,95.49L59.11,95.29L60.74,95.6L61.29,95.19L64.57,95.8L65.11,95.7L66.21,95.56L66.75,95.49L67.84,95.63L68.39,95.83L70.03,95.22L70.57,85.42L71.67,45.59L72.21,41.84L75.49,35.92L76.04,36.32L77.13,35.18L77.68,35.4L79.32,33.98L79.87,34L84.24,32.67L84.78,32.88L86.97,31.91L87.52,32.15L92.99,31.13L93.53,31.3L95.72,30.37L96.27,30.96L100.1,30.04L100.64,30.57L103.92,29.74L104.47,30.14L105.57,29.81L106.11,30.09L107.75,29.35L108.3,29.3L109.94,93.76L110.49,93.44L111.03,93.98L111.58,93.08L112.12,93.51L112.67,92.98L116.49,93.05L117.04,92.36L117.58,93.51L118.13,93.01L118.67,92.72L119.22,93.48L119.77,92.83L120.31,93.3L120.86,92.65L121.41,92.5L121.95,93.16L123.04,92.69L123.59,92.32L130.15,92.83L130.69,92.72L131.78,92.28L132.33,93.26L133.42,92.87L133.97,93.44L136.7,93.08L137.24,93.01L138.88,93.48L139.43,93.19L140.52,92.76L141.07,93.26L145.44,93.76L145.98,93.23L146.53,93.08L147.08,94.12L148.17,93.69L148.72,56.76L149.81,42.63L150.36,40.65L152,36.75L152.54,36.15L153.64,35.55L154.18,34.38L154.73,35.23L155.28,34.34L157.46,32.97L158.01,32.95L159.1,32.34L159.65,32.29L161.84,31.84L162.38,31.4L165.66,30.84L166.21,30.52L167.85,30.52L168.4,29.96L170.04,30.49L170.59,29.99L171.13,30.54L171.68,29.89L174.41,29.53L174.96,30.07L178.24,28.81L178.79,29.38L183.71,28.68L184.26,29.2L186.99,28.63L187.54,28.84L188.09,28.78L188.64,40.12L189.73,94.47L190.28,95.12L190.82,95.6L191.37,94.98L195.2,94.26L195.74,94.12L197.93,94.22L198.47,93.98L199.56,94.08L200.11,93.83L202.29,94.33L202.84,94.29L208.85,94.47L209.4,94.12L211.58,94.57L212.13,94.5L213.22,94.57L213.77,94.88L214.86,94.95L215.41,95.63L216.5,94.64L217.04,95.12L220.32,94.47L220.87,94.98L221.96,94.5L222.51,94.54L224.69,94.57L225.24,94.81L227.43,94.54L227.97,94.91L229.07,45.16L229.61,42.74L231.8,36.54L232.35,35.9L232.89,35.81L233.44,34.85L239.46,31.79L240,31.79L242.19,30.89L242.74,30.81L244.38,30.84L244.92,30.42L248.2,30.24L248.75,30.47L252.58,29.48L253.12,29.64L254.22,29.2L254.76,29.02L256.4,29.53L256.95,28.68L257.5,29.04L258.04,28.47L260.23,28.5L260.78,28.6L264.06,28.39L264.61,28.94L265.15,29.07L265.7,28.42L266.8,29.43L267.34,28.23L267.89,30.39L268.44,86.77L270.08,90.81L270.62,90.35L273.9,89.76L274.44,90.15L280.45,89.96L281,90.12L283.18,90.19L283.73,90.08L285.92,90.47L286.46,89.96L289.19,90.93L289.74,90.54L291.38,90.97L291.92,90.62L292.47,91.42L293.02,90.89L295.75,91.04L296.3,90.47L297.93,91.27L298.48,90.62L300.12,92.28L300.67,91.46L307.77,91.87L308.31,51.76L309.95,36.91L310.5,35.44L311.05,34.81L311.59,32.78L312.68,32.76L313.23,32.1L314.87,29.86L315.41,30.14L316.5,27.13L317.05,28.07L318.14,29.17L318.69,28.36L320.33,29.56L320.87,28.39L321.42,28.26L321.97,26.61L322.51,25.03L323.06,25.91L324.69,26.58L325.24,25.91L326.33,25.28L326.88,25.14L328.52,25.88L329.06,24.88L329.61,24.44L330.15,22.64L331.24,24.71L331.79,24.06L332.88,24.79L333.43,23.91L333.98,23.61L334.52,21.51L335.61,20.58L336.16,22.58L337.25,24.03L337.8,23.97L338.35,25.17L338.89,24.38L341.62,25L342.17,24.97L343.81,24.76L344.35,24.71L345.99,25.48L346.54,24.94L347.08,25.28L347.63,53.29L348.72,85.17L349.27,85.55L352,85.68L352.54,85.51L356.36,85.68L356.91,85.55L360.18,86.01L360.73,85.7L361.28,86.88L361.82,86.32L362.37,86.34L363.46,86.12L364.01,86.49L364.56,86.25L365.1,86.88L366.19,86.4L366.74,86.21L368.38,86.4L368.93,86.49L371.11,86.88L371.66,86.62L372.75,86.88L373.3,86.45L375.48,87.03L376.03,86.43L378.76,86.64L379.31,86.36L380.4,86.56L380.95,86.45L383.13,87.32L383.68,86.62L384.77,86.75L385.32,86.94L387.5,86.84L388.05,87.11L389.69,86.86L390.24,87.81L390.78,79.44L391.33,46.85L393.52,34.98L394.07,34.07L396.8,28.78L397.35,28.13L397.89,29.66L398.44,29.2L398.99,29.84L399.54,28.52L400.08,29.96L401.72,27.56L402.27,27.29L402.82,27.16L403.36,28.36L404.46,27.24L405,27.86L406.65,27.81L407.19,28.65L408.29,28.91L408.83,29.17L410.47,29.33L411.02,28.6L412.66,28.18L413.21,28.13L414.85,28.02L415.4,28.52L415.94,28.21L416.49,26.83L417.59,27.97L418.13,27.27L419.23,25.85L419.78,26.64L420.87,28.1L421.42,26.53L421.96,27.62L422.51,27.29L423.05,26.55L423.6,26.47L424.15,25.63L424.7,27.32L425.24,26.25L425.79,25.48L426.34,26.69L426.89,25.48L427.43,49.4L428.53,82.19L429.07,83.38L431.26,83.07L431.81,82.96L433.44,82.48L433.99,82.88L436.17,82.11L436.72,83.24L438.36,82.79L438.91,82.88L440,82.81L440.55,83.36L441.09,82.72L441.64,83.33L442.73,83.26L443.28,83.36L444.37,83.62L444.92,82.6L446.01,83.22L446.56,83.15L447.11,82.84L447.65,83.55L450.38,84.1L450.93,83.66L452.02,83.57L452.57,83.57L453.12,83.38L453.66,84.03L455.3,83.57L455.85,83.59L456.94,83.71L457.49,83.99L458.58,84.63L459.13,83.69L460.22,84.17L460.77,83.52L461.86,84.24L462.41,83.64L463.5,83.8L464.05,83.69L466.23,83.94L466.78,83.57L467.88,40.46L468.42,37.39L470.61,30.62L471.15,29.51L473.88,26.94L474.43,26.05L476.62,25.66L477.16,25.05L482.08,24.12L482.63,23.85L484.27,23.55L484.81,23.49L485.36,22.97L485.9,23.55L487.55,23.49L488.09,22.76L490.82,23.43L491.37,22.79L495.19,22.58L495.74,24.03L497.37,22.42L497.92,22.17L499.01,22.97L499.56,21.86L501.2,22.67L501.74,21.76L502.29,20.18L502.83,21.83L503.38,21.7L503.93,22.45L504.47,22.79L505.02,22.17L506.11,23.61L506.66,32.69L507.75,34.98L508.3,35.33L509.93,35.77L510.48,36.24L513.75,37.21L514.3,37.66L515.39,37.45L515.94,38.56L518.67,38.91L519.22,38.83L521.95,39.85L522.5,39.73L523.04,38.83L523.59,39.46L533.97,39.7L534.52,39.35L536.16,39.89L536.71,39.66L539.44,39.5L539.99,40.39L541.08,40.31L541.63,40.54L542.72,40.23L543.27,40.35L544.37,40.16L544.91,40.31L546.01,40.12L546.55,34.63L548.19,26.66L548.74,26.16L549.83,26.14L550.38,24.91L550.92,25.68L551.47,24.91L553.66,24.79L554.2,23.79L555.3,24.24L555.84,23.76L559.67,23.28L560.22,22.64L561.85,23.76L562.4,22.73L564.04,23.73L564.59,23.19" style="vector-effect: none; fill: none; stroke: rgb(0, 204, 150); stroke-opacity: 1; stroke-width: 2px; opacity: 1;"/></g><g class="points"/><g class="text"/></g><g class="trace scatter trace6479df" style="stroke-miterlimit: 2; opacity: 1;"><g class="fills"/><g class="errorbars"/><g class="lines"><path class="js-line" d="M0.15,153.69L3.42,153.05L3.97,153.35L11.61,152.99L12.15,153.66L13.24,153.19L13.79,153.49L15.43,152.96L15.98,152.99L29.08,152.71L29.62,191.69L30.17,193.27L30.71,192.81L31.26,192.47L33.44,191.18L33.99,191.34L35.08,190.86L35.63,191.1L37.26,190.65L37.81,190.63L40.54,190.19L41.09,190.11L48.19,189.42L48.73,190.37L49.28,189.47L49.82,189.94L50.37,189.84L52.55,189.3L53.1,189.28L54.2,189.53L54.74,189.42L62.94,189.72L63.48,189.78L69.49,189.28L70.03,189.32L70.58,181.52L71.13,161.9L72.77,155.96L73.31,155.41L76.05,153.74L76.59,153.8L78.78,153.02L79.33,152.9L80.96,152.9L81.51,152.48L82.6,152.68L83.15,152.42L108.31,150.96L108.85,167.18L109.94,188.17L110.49,188.39L112.68,188.3L113.22,188.2L123.6,187.63L124.14,187.98L127.42,187.63L127.96,187.74L131.24,187.46L131.79,187.59L133.43,187.81L133.98,187.67L137.8,187.72L138.34,187.5L139.98,187.65L140.53,187.59L148.17,187.65L148.72,166.09L149.82,156.84L150.36,155.78L153.09,153.58L153.64,153.88L155.28,152.68L155.83,152.99L161.84,151.44L162.39,151.76L165.12,151.17L165.67,150.93L166.76,151.29L167.31,150.99L169.5,150.9L170.05,150.93L178.8,150.33L179.34,150.15L180.98,150.18L181.53,149.97L184.26,150.27L184.81,149.97L185.91,149.94L186.45,150.03L188.1,150.24L188.64,159.74L189.74,188.67L190.28,188.94L191.38,189.13L191.92,188.9L195.2,188.41L195.75,188.52L201.75,187.94L202.3,188.5L203.39,188.15L203.94,188.54L205.58,188.07L206.12,188.58L207.76,188.15L208.31,188.56L209.95,188.2L210.5,188.3L211.59,188.41L212.13,188.32L213.77,188L214.32,188.43L215.96,188.11L216.5,188.13L218.14,188.52L218.69,188.24L219.78,188.37L220.33,188.07L225.25,188.5L225.79,187.91L227.43,188.22L227.98,188.3L229.07,159.05L229.62,157.21L231.8,153.91L232.35,153.49L237.27,151.93L237.82,151.35L240.01,151.67L240.56,151.17L244.38,150.66L244.93,150.87L252.58,150.33L253.13,150.03L254.77,150.63L255.32,150.15L257.5,150.45L258.05,149.72L259.14,150.06L259.69,149.91L265.16,149.91L265.71,149.84L267.35,150.21L267.89,155.02L268.99,185.74L269.53,186.02L270.08,186.61L270.63,186.09L294.12,185.56L294.66,186.22L296.3,186L296.85,186.32L297.94,186.63L298.49,185.84L299.58,185.63L300.13,186.72L301.77,186.16L302.31,186.52L303.95,185.97L304.5,186.18L307.77,186.45L308.32,162.4L309.96,154.64L310.51,153.71L312.14,151.99L312.69,151.79L315.42,150.45L315.97,149.75L317.06,149.47L317.6,149.57L321.43,149.47L321.97,148.94L323.06,148.4L323.61,148.66L329.61,147.79L330.16,146.87L331.25,147.7L331.8,147.63L333.98,147.2L334.53,145.93L335.62,145.76L336.17,146.81L339.45,148.08L339.99,147.83L342.18,147.89L342.72,147.79L347.09,148.28L347.63,164.74L348.72,183.24L349.27,183.29L360.74,183.39L361.28,184.05L362.38,183.17L362.92,183.49L389.7,183.29L390.24,184.29L390.79,177.85L391.34,160.59L392.98,154.78L393.53,153.82L397.35,149.91L397.9,150.63L398.99,150.87L399.54,150.36L400.09,150.93L400.64,150.06L401.73,149.54L402.27,149.97L402.82,149.54L403.37,150.21L405.56,149.84L406.1,149.81L407.2,150.03L407.75,150.36L410.48,150.69L411.03,150.33L414.86,150L415.4,150.81L416.5,149.35L417.05,150L417.59,150.36L418.14,149.57L420.33,149.72L420.88,150.09L421.42,149.23L421.97,149.63L422.52,149.75L424.16,148.97L424.7,149.6L425.25,149.88L425.8,149.07L426.89,148.85L427.44,162.83L428.53,181.42L429.08,181.34L429.62,182.09L430.17,181.5L432.9,181.7L433.45,181.6L434.54,181.39L435.09,181.32L435.63,181.24L436.18,182.01L437.82,181.86L438.37,181.34L442.74,181.78L443.28,181.32L445.47,181.68L446.02,181.5L448.2,182.06L448.75,181.96L449.84,181.81L450.39,182.34L451.48,181.57L452.03,181.81L456.4,181.91L456.95,182.27L459.13,182.57L459.68,181.83L462.96,182.29L463.51,181.86L465.15,182.21L465.7,181.86L466.79,182.04L467.33,161.74L468.43,154.78L468.98,153.49L470.61,150.99L471.16,150.78L472.8,149.29L473.34,149.38L474.99,148.75L475.53,148.31L479.9,148.12L480.45,147.66L481.54,147.79L482.09,147.6L484.27,147.57L484.82,147.4L490.28,147.5L490.83,147.07L493.01,146.84L493.56,147.24L496.29,147.37L496.83,146.81L499.02,147.34L499.56,146.74L505.57,147.07L506.12,147.6L507.21,152.96L507.76,153.66L511.58,154.86L512.12,155.18L514.31,155.39L514.86,155.55L515.95,155.12L516.49,155.26L524.14,155.83L524.69,155.41L526.33,156.35L526.87,156.22L528.51,155.89L529.06,156.2L530.15,156.12L530.7,156.45L533.43,156.22L533.98,156.38L542.73,156.27L543.27,156.61L544.92,156.43L545.47,156.56L546.01,156.3L546.56,154.69L547.65,150.21L548.2,149.81L549.29,149.23L549.84,148.66L551.48,148.44L552.03,148.82L553.66,148.21L554.21,147.86L556.4,148.24L556.94,147.89L559.13,147.57L559.67,147.83L561.86,148.12L562.41,147.11L564.59,147.6" style="vector-effect: none; fill: none; stroke: rgb(171, 99, 250); stroke-opacity: 1; stroke-width: 2px; opacity: 1;"/></g><g class="points"/><g class="text"/></g><g class="trace scatter trace133595" style="stroke-miterlimit: 2; opacity: 1;"><g class="fills"/><g class="errorbars"/><g class="lines"><path class="js-line" d="M0.15,94.19L1.24,94.12L1.79,93.94L2.88,93.59L3.43,93.26L5.61,93.76L6.16,93.48L7.79,93.41L8.34,93.34L11.07,93.37L11.61,93.05L12.16,94.01L12.71,93.62L13.25,93.34L14.89,93.48L15.44,93.16L17.07,93.12L17.62,93.23L18.71,93.41L19.26,93.05L22.53,93.08L23.08,92.87L28.54,92.43L29.08,93.73L30.17,145.21L30.72,144.78L31.81,144.11L32.36,143.31L35.08,142.16L35.63,142L36.72,142.12L37.27,141.93L38.36,141.47L38.91,141.62L42.73,140.92L43.28,141.08L47.65,140.29L48.19,140.49L48.74,141.62L49.28,140.45L50.38,140.77L50.92,140.49L57.48,140.25L58.02,140.37L60.21,139.93L60.75,140.53L62.39,140.13L62.94,140.29L64.03,140.53L64.58,140.21L70.04,140.29L70.59,128.61L71.68,100.69L72.23,98.29L74.96,95.26L75.5,95.02L78.24,93.62L78.78,94.05L79.88,93.48L80.43,93.48L85.34,92.94L85.89,92.32L86.98,92.39L87.53,92.5L90.27,91.61L90.81,91.91L93.55,91.27L94.09,91.61L97.37,91.76L97.92,91.35L98.47,91.76L99.01,91.16L100.11,91.2L100.66,91.61L102.3,90.74L102.84,91.08L103.94,91.08L104.48,90.85L106.67,90.7L107.22,90.97L107.77,90.31L108.31,90.97L109.95,138.01L110.5,138.68L112.14,138.49L112.68,138.43L113.77,137.77L114.32,138.09L115.41,138.01L115.96,138.26L118.69,137.41L119.23,138.05L120.32,137.98L120.87,137.94L121.96,137.52L122.51,137.64L137.26,137.56L137.8,137.67L138.9,137.3L139.44,137.64L141.08,137.49L141.63,137.54L144.36,137.73L144.9,137.71L148.18,137.32L148.73,109.55L149.82,98.7L150.37,96.95L152.01,95.46L152.56,95.15L154.2,93.8L154.74,93.94L156.93,92.9L157.47,92.87L162.94,91.39L163.49,92.17L167.32,91.23L167.86,91.39L168.96,91L169.5,90.93L175.52,90.54L176.07,90.62L180.99,89.88L181.54,90.31L183.72,90.15L184.27,90.35L185.36,89.96L185.91,90.19L187.56,90.31L188.1,89.96L189.74,138.7L190.29,139.97L191.38,139.93L191.93,139.07L195.75,138.51L196.3,138.84L197.94,138.3L198.48,138.36L201.22,138.13L201.76,138.3L204.49,138.13L205.04,138.36L206.13,138.47L206.68,138.2L208.32,138.53L208.86,138.13L209.95,138.28L210.5,137.98L212.69,138.18L213.23,138.15L215.96,138.7L216.51,138.26L217.6,138.51L218.15,138.34L223.62,138.3L224.16,137.84L227.98,138.43L228.53,107.22L230.17,97.08L230.72,96.46L233.45,93.83L234,93.41L234.54,92.72L235.09,93.41L236.73,92.13L237.28,92.21L238.37,91.87L238.92,91.76L241.11,91.12L241.66,91.16L243.29,91.2L243.84,91.2L245.48,90.66L246.03,90.66L254.78,90.5L255.32,90L256.42,90.43L256.96,90.54L260.79,89.88L261.34,89.84L262.43,89.84L262.98,90L267.36,90.04L267.9,98.2L269,135.03L269.54,135.44L270.09,136.18L270.63,135.64L275.55,135.05L276.1,135.19L277.73,134.8L278.28,135.07L279.37,134.96L279.92,134.77L281.56,134.89L282.1,135.26L284.29,134.84L284.83,135.21L290.84,135.21L291.39,135.44L295.21,135.37L295.76,135.26L297.95,135.57L298.49,135.3L299.59,135.64L300.13,136.43L300.68,135.51L301.23,135.91L301.77,135.37L302.32,135.96L302.86,135.37L304.5,135.94L305.05,135.62L306.14,135.69L306.69,135.71L307.78,135.6L308.33,105.49L309.96,95.53L310.51,94.54L311.6,92.47L312.15,92.79L312.7,92.21L315.97,90L316.52,88.67L318.15,90.04L318.7,89.88L321.43,89.52L321.98,88.59L323.07,87.76L323.61,88.1L324.71,88.18L325.25,87.76L326.34,87.51L326.89,87.43L328.53,87.7L329.07,87.15L329.62,87.11L330.17,86.08L331.26,87.32L331.8,86.21L332.89,86.77L333.44,86.27L333.99,86.68L334.53,84.72L335.62,84.29L336.17,85.68L338.36,87.22L338.9,86.68L339.45,87.49L340,86.75L344.36,86.81L344.91,87.72L347.09,87.47L347.64,110.17L348.73,132.01L349.28,132.53L354.74,131.76L355.28,132.63L355.83,131.66L356.38,132.48L358.01,132.03L358.56,132.13L360.74,131.86L361.29,132.65L363.48,132.28L364.02,132.18L367.3,132.6L367.84,132.23L370.03,132.08L370.58,132.99L372.21,132.06L372.76,132.36L374.4,132.68L374.95,132.73L376.04,132.6L376.59,132.23L380.96,132.16L381.51,132.41L383.15,132.63L383.69,132.51L386.97,132.8L387.52,132.21L390.25,133.21L390.8,124.29L391.89,99.64L392.44,97.28L395.17,92.06L395.72,91.65L397.36,90.23L397.91,91.39L399.55,90.35L400.09,91.12L401.73,89.68L402.28,89.6L403.92,89.84L404.47,89.48L411.03,90.66L411.58,90.31L418.69,89.36L419.24,88.01L420.88,90.35L421.43,88.9L422.52,89.52L423.07,89.2L424.16,88.55L424.71,89.52L425.8,88.75L426.35,89.16L426.9,88.65L427.45,107.25L428.54,129.26L429.08,129.45L430.18,129.72L430.72,130.04L432.36,129.4L432.91,129.88L436.19,129.53L436.73,129.82L440.01,129.56L440.56,129.85L443.84,129.74L444.39,130.17L445.48,129.4L446.02,130.04L451.49,129.93L452.03,130.43L453.13,130.11L453.67,130.19L460.78,130.3L461.33,130.14L461.87,130.77L462.42,130.09L463.51,130.43L464.06,130.17L465.7,130.71L466.25,130.01L466.79,130.43L467.34,104.26L468.98,94.05L469.53,92.94L471.71,90.04L472.26,89.48L474.44,88.51L474.99,88.51L475.54,87.49L476.08,88.24L477.72,87.74L478.27,87.72L482.64,86.79L483.19,86.45L484.28,86.51L484.83,86.32L486.46,86.73L487.01,85.99L488.65,86.19L489.2,85.86L490.83,86.06L491.38,86.12L492.47,85.44L493.02,86.21L494.66,85.88L495.2,85.59L496.29,86.14L496.84,85.48L499.03,86.06L499.57,85.57L501.76,85.7L502.3,84.95L503.94,85.86L504.48,86.01L505.03,85.33L505.58,85.84L506.13,87.56L507.22,93.62L507.76,93.91L512.13,96.03L512.68,95.73L513.77,95.76L514.31,96.1L515.95,96.43L516.5,96.56L518.14,96.4L518.68,96.92L521.42,97.6L521.96,97.05L532.89,97.31L533.44,97.18L535.08,97.72L535.63,97.85L536.17,97.11L536.72,97.66L539.45,97.66L540,97.91L544.38,97.98L544.93,98.07L546.02,98.01L546.57,95.22L548.21,88.73L548.75,88.45L549.85,88.28L550.39,87.58L550.94,88.14L551.48,87.51L553.12,87.47L553.67,87.39L554.21,86.53L554.76,87.07L555.31,87.3L555.86,86.62L558.59,86.58L559.13,86.4L560.23,86.4L560.77,86.49L561.87,87.05L562.41,86.12L564.05,86.75L564.6,86.62" style="vector-effect: none; fill: none; stroke: rgb(255, 161, 90); stroke-opacity: 1; stroke-width: 2px; opacity: 1;"/></g><g class="points"/><g class="text"/></g><g class="trace scatter trace623374" style="stroke-miterlimit: 2; opacity: 1;"><g class="fills"/><g class="errorbars"/><g class="lines"><path class="js-line" d="M0.21,101.95L2.4,101.93L2.94,102.1L5.13,101.64L5.67,101.61L6.76,101.61L7.31,101.47L13.86,101.21L14.41,100.98L23.69,100.89L24.23,100.09L25.32,100.3L25.87,100.18L28.05,101.06L28.6,100.15L29.14,113.5L29.69,156.14L30.24,157.89L30.78,157.44L31.33,157.01L34.05,155.2L34.6,154.99L35.69,154.61L36.24,154.4L37.33,154.32L37.88,154.48L38.97,153.96L39.52,154.29L40.61,153.55L41.15,153.58L42.79,153.55L43.34,153.66L47.16,152.76L47.71,153.02L48.8,153.93L49.35,153.02L51.53,152.88L52.08,152.76L57.54,152.85L58.09,152.54L59.18,152.79L59.73,152.79L64.64,152.96L65.19,152.85L65.74,152.45L66.28,153.02L67.37,153.02L67.92,152.68L68.47,153.24L69.01,152.68L70.1,152.82L70.65,134.96L71.74,110.19L72.29,107.76L74.47,104.37L75.02,104.13L77.21,103.37L77.75,102.99L80.48,102.4L81.03,102.29L82.67,101.78L83.22,101.87L84.86,101.38L85.41,101.56L86.5,101.06L87.05,101.24L89.78,100.77L90.33,101.06L91.97,100.24L92.51,100.24L96.89,99.76L97.44,99.67L100.17,99.85L100.72,99.46L102.36,99.76L102.9,99.58L106.18,99.25L106.73,99.13L108.37,99.31L108.92,131.13L110.01,151.84L110.56,152.19L113.29,151.49L113.84,151.35L116.57,151.11L117.11,151.11L119.3,151.41L119.84,151.35L120.93,150.99L121.48,150.96L122.57,150.99L123.12,150.75L124.21,150.96L124.76,150.72L127.49,151.17L128.03,150.42L131.86,150.51L132.4,150.51L134.59,150.78L135.13,150.42L136.23,150.54L136.77,150.87L140.05,150.63L140.6,150.84L142.78,150.69L143.33,151.17L144.42,150.9L144.97,151.11L146.6,150.75L147.15,150.99L148.24,150.87L148.79,118.96L150.43,106.53L150.98,105.57L151.52,105.34L152.07,104.18L153.16,103.78L153.71,103.02L156.44,101.84L156.99,102.26L158.63,101.24L159.18,100.89L160.27,100.86L160.82,100.8L176.68,98.97L177.22,98.42L177.77,99.31L178.32,98.73L179.41,98.85L179.96,98.6L181.05,98.57L181.6,98.67L183.24,98.94L183.79,98.6L188.16,98.29L188.71,125.23L189.8,152.42L190.35,152.9L190.9,153.21L191.44,152.54L200.73,151.73L201.28,151.93L213.29,151.47L213.84,152.05L214.93,151.84L215.48,152.19L217.12,151.93L217.66,152.05L219.31,151.73L219.85,151.76L222.58,151.49L223.13,151.64L224.77,151.55L225.32,151.84L228.05,151.76L228.59,116.83L229.69,108.19L230.23,107.37L231.87,104.02L232.42,103.86L238.43,100.33L238.98,100.15L240.08,100.12L240.62,100.21L241.17,99.79L241.72,100.33L242.81,99.94L243.36,100.03L243.9,100.21L244.45,99.55L248.28,99.16L248.82,99.67L251.01,99.16L251.56,99.4L253.2,98.91L253.74,98.94L257.03,98.85L257.57,98.94L261.4,98.39L261.95,98.79L263.04,98.39L263.59,98.73L265.23,98.7L265.78,98.7L267.42,98.42L267.96,118.24L269.06,148.37L269.6,149.13L271.24,149.01L271.79,148.56L273.97,148.08L274.52,148.82L275.61,148.28L276.16,148.47L278.89,147.83L279.44,148.08L281.62,148.44L282.17,148.4L285.44,148.34L285.99,148.47L290.36,148.63L290.91,148.82L292,148.5L292.54,148.79L294.19,148.53L294.73,148.75L295.82,148.6L296.37,148.63L299.65,148.5L300.2,149.26L301.83,148.79L302.38,149.01L307.3,148.47L307.84,142.68L308.94,109.07L309.48,107.03L311.12,102.82L311.66,102.04L313.3,101.06L313.85,100.3L316.03,98.35L316.58,97.5L320.4,99.19L320.95,98.01L321.49,98.01L322.04,97.11L323.13,96.46L323.68,96.69L325.31,96.33L325.86,95.86L327.5,96.53L328.04,96.66L329.68,95.29L330.23,93.83L331.32,95.63L331.87,94.74L332.96,95.93L333.5,95.26L335.14,91.72L335.69,92.58L337.32,95.73L337.87,95.39L338.42,95.73L338.97,95.02L340.06,95.36L340.6,95.22L341.7,95.96L342.24,95.53L344.97,96.1L345.52,96.26L347.16,95.86L347.7,127.22L348.79,145.38L349.34,145.69L360.81,145.1L361.35,146.17L362.44,145.31L362.99,145.21L365.72,145.48L366.27,145.1L367.91,145.21L368.45,144.96L370.64,145.55L371.18,145.69L375.56,145.38L376.1,145.59L378.83,145L379.38,145.38L380.47,145.24L381.02,145.66L383.21,145.14L383.75,145.45L390.31,145.62L390.86,130.11L391.95,108.26L392.5,106.46L394.69,101.58L395.23,100.48L395.78,100.39L396.33,99.13L397.42,98.26L397.97,99.85L399.61,98.6L400.16,99.61L401.25,98.01L401.8,97.63L403.98,97.76L404.53,97.37L406.72,98.07L407.27,98.7L408.36,98.88L408.91,98.73L411.09,98.94L411.64,98.07L412.74,98.45L413.28,98.07L414.93,98.13L415.47,98.35L416.57,97.47L417.11,98.23L419.3,96.06L419.85,96.79L420.94,98.1L421.49,96.98L422.58,97.66L423.13,97.18L424.22,96.92L424.77,97.63L425.87,96.69L426.41,96.82L426.96,96.46L427.51,123.54L428.6,142.42L429.15,142.68L430.24,142.53L430.79,142.53L431.88,142.98L432.42,142.42L433.52,142.64L434.06,142.31L437.89,142.61L438.43,142.42L440.62,142.76L441.17,142.38L444.45,142.61L444.99,142.76L448.27,142.38L448.82,143.16L449.91,142.68L450.46,142.87L456.47,143.02L457.02,143.24L461.39,143.35L461.94,142.83L464.67,143.2L465.22,142.61L465.76,143.46L466.31,143.05L466.86,142.94L467.95,107.47L468.5,104.63L470.68,99.79L471.23,99.04L473.96,97.24L474.51,97.15L475.6,96.36L476.14,96.63L478.33,95.05L478.87,95.8L480.52,95.36L481.06,95.66L482.7,94.64L483.25,94.98L483.79,94.08L484.34,94.47L484.89,94.22L487.62,94.43L488.16,94.08L490.35,94.57L490.9,94.5L492.53,93.94L493.08,94.5L495.26,93.87L495.81,94.74L497.99,93.48L498.54,93.69L499.63,93.62L500.18,93.66L501.27,93.91L501.82,93.59L502.91,93.41L503.46,93.34L505.09,93.66L505.64,93.48L507.28,102.74L507.82,103.02L509.46,103.91L510.01,103.75L511.65,104.66L512.19,104.81L516.01,105.44L516.56,105.26L518.75,106.1L519.29,105.8L525.85,106.15L526.39,105.85L527.49,106.35L528.03,106.43L530.22,106.25L530.77,106.68L535.14,106L535.69,106.73L537.33,106.43L537.88,106.66L540.61,106.61L541.15,106.9L543.34,106.56L543.89,106.75L545.53,107.25L546.08,106.48L547.72,97.47L548.27,96.98L550.45,95.76L551,95.96L557.56,94.88L558.1,95.19L560.83,94.29L561.38,95.05L562.47,94.26L563.02,94.6L564.66,94.33" style="vector-effect: none; fill: none; stroke: rgb(25, 211, 243); stroke-opacity: 1; stroke-width: 2px; opacity: 1;"/></g><g class="points"/><g class="text"/></g><g class="trace scatter trace890ab0" style="stroke-miterlimit: 2; opacity: 1;"><g class="fills"/><g class="errorbars"/><g class="lines"><path class="js-line" d="M0.28,107.4L4.64,106.35L5.19,106.53L11.2,106.25L11.74,106.13L12.83,106.48L13.38,106.13L13.93,106.58L14.47,106.03L17.2,106.28L17.75,105.93L18.84,105.95L19.38,105.59L20.47,105.67L21.02,105.72L28.66,105.15L29.21,130.84L30.3,164.56L30.84,164.19L33.58,161.87L34.12,161.87L35.21,161.52L35.76,161.38L37.94,160.8L38.49,160.66L39.58,160.64L40.13,160.11L41.77,160.04L42.31,159.92L45.59,159.26L46.13,159.1L48.87,160.06L49.41,159.76L51.59,159.17L52.14,159.12L56.51,159.24L57.06,158.93L58.7,159.41L59.24,158.93L60.88,159.43L61.43,159L64.16,159.85L64.71,159.29L66.89,159.14L67.44,159.1L69.07,159.12L69.62,159.12L70.17,159.07L70.71,137.98L71.81,116.06L72.35,113.27L75.09,109.97L75.63,109.78L80,108.03L80.55,108.22L82.19,107.64L82.74,107.64L84.92,106.88L85.47,107.42L87.66,106.63L88.21,106.61L90.39,105.95L90.94,105.98L92.58,105.72L93.13,106L94.77,105.36L95.31,105.82L97.5,105.23L98.05,105.49L98.6,105.54L99.14,104.81L100.24,105.34L100.78,105.28L104.06,104.97L104.61,104.47L106.8,104.5L107.34,104.87L108.44,104.6L108.99,142.5L110.08,158.69L110.62,158.98L112.81,158.33L113.36,158.23L117.18,157.34L117.72,157.79L118.81,157.44L119.36,157.93L122.64,157.29L123.18,157.36L124.27,157.59L124.82,157.51L130.29,157.16L130.83,157.04L132.47,157.21L133.01,157.51L134.65,157.06L135.2,157.54L136.84,156.86L137.38,157.04L139.57,157.36L140.11,157.04L141.75,157.01L142.3,157.36L144.48,157.64L145.03,157.19L146.67,157.56L147.22,157.34L148.31,156.99L148.86,123.73L150.49,112.52L151.04,111.31L151.59,111.2L152.13,109.87L153.23,109.58L153.78,108.76L157.05,107.44L157.6,107.69L158.15,106.9L158.7,107.47L159.79,106.8L160.34,107.03L161.43,106.4L161.98,106.61L164.16,105.9L164.71,106.1L170.18,105L170.72,105.39L171.82,105.13L172.36,105.13L176.74,104.71L177.29,103.97L178.93,104.47L179.48,104.05L180.57,104.18L181.12,104.13L186.59,104.31L187.13,103.86L188.23,104.13L188.78,137.11L189.87,159.22L190.42,159.55L191.51,159.71L192.05,159.36L193.69,158.91L194.24,158.76L198.06,158.62L198.61,158.86L201.34,158.38L201.89,158.62L204.07,158.08L204.62,158.06L207.35,157.93L207.9,157.93L208.99,158.13L209.53,158.11L211.72,158.4L212.27,158.03L220.46,157.91L221.01,157.79L222.1,158.54L222.65,157.98L227.57,158.06L228.11,154.94L229.21,116.26L229.75,113.83L231.94,109.67L232.49,109.48L236.86,106.73L237.4,106.33L238.5,106.15L239.05,105.95L240.14,106.18L240.69,105.67L243.97,105.7L244.52,105.23L262.56,104.15L263.11,104.23L267.48,103.99L268.03,131.1L269.12,154.94L269.67,155.33L270.76,155.57L271.31,155.47L272.95,154.99L273.49,154.69L277.32,154.67L277.86,154.26L278.95,154.48L279.5,154.4L281.68,154.86L282.23,154.59L284.96,154.56L285.51,154.56L294.25,155.2L294.8,154.56L299.17,154.88L299.71,154.91L300.26,155.83L300.81,154.78L302.45,155.07L302.99,155.2L304.08,155.1L304.63,154.99L306.81,155.07L307.36,154.78L309.55,112.26L310.09,110.28L311.73,107.54L312.28,107.1L314.46,105.21L315.01,105.52L317.19,102.99L317.74,103.81L318.83,104.05L319.37,103.37L320.46,104.71L321.01,104.02L321.56,103.86L322.1,102.12L323.19,101.87L323.74,101.9L324.83,101.87L325.38,101.24L326.47,101.18L327.02,101.35L327.56,100.8L328.11,101.81L330.29,98.94L330.84,100.03L332.47,100.39L333.02,100.36L334.11,98.91L334.66,97.11L335.21,96.56L335.75,97.37L337.39,100.57L337.94,100.21L338.48,101.12L339.03,100.27L339.58,100.8L340.12,100.12L341.22,100.77L341.76,101.33L342.85,100.45L343.4,100.51L344.49,100.8L345.04,101.67L346.67,100.8L347.22,101.01L348.31,151.17L348.86,151.93L349.95,152.08L350.5,152.02L351.04,152.59L351.59,152.08L352.68,151.93L353.23,151.99L354.87,151.87L355.41,151.76L355.95,151.2L356.5,151.9L359.78,151.29L360.32,151.82L362.51,151.38L363.06,151.79L365.24,151.61L365.79,151.67L375.62,151.79L376.17,151.9L378.9,151.52L379.45,151.79L381.09,151.67L381.63,152.11L383.27,151.82L383.82,151.76L386.55,151.44L387.1,151.76L387.64,151.26L388.19,151.84L389.83,151.9L390.38,152.05L392.02,113.38L392.57,111.9L394.2,108.31L394.75,106.68L396.39,103.45L396.94,103.48L397.49,103.21L398.03,104.76L400.22,104.37L400.77,103.23L401.31,103.32L401.86,102.49L406.24,102.88L406.79,103.43L407.88,103.97L408.43,104.05L410.07,104.23L410.61,104.07L413.35,103.26L413.9,103.51L414.44,102.99L414.99,103.89L415.54,103.99L416.08,102.93L416.63,102.49L417.18,103.34L419.91,102.01L420.46,102.99L421.01,103.43L421.56,102.32L422.1,103.23L422.65,102.54L424.84,102.46L425.38,101.58L426.48,101.95L427.03,101.01L428.12,147.73L428.66,149.01L430.85,149.16L431.4,149.29L433.58,148.91L434.13,149.23L436.31,148.97L436.86,149.6L437.95,148.75L438.5,149.01L443.42,148.94L443.97,149.1L445.6,148.75L446.15,149.07L448.88,149.44L449.43,148.88L454.9,149.44L455.44,149.04L459.27,149.23L459.81,149.19L460.91,149.6L461.45,149.32L464.19,149.54L464.74,149.13L465.83,149.44L466.37,149.38L466.92,144.07L467.47,117.61L469.11,107.74L469.65,106.15L471.84,103.48L472.39,102.74L472.93,102.74L473.48,101.9L474.57,101.78L475.12,101.73L477.3,100.54L477.85,100.63L478.94,101.33L479.49,100.6L480.04,99.94L480.58,100.6L482.22,99.79L482.77,99.79L485.5,98.91L486.04,99.67L490.41,99.22L490.96,99.37L491.5,98.42L492.05,99.13L493.15,99.07L493.69,99.49L495.33,98.54L495.87,99.55L498.06,98.29L498.61,98.29L499.7,98.82L500.24,98.67L501.34,98.67L501.88,98.42L502.43,97.88L502.97,98.63L504.07,98.54L504.61,98.82L505.16,97.88L505.71,99.16L507.34,108.36L507.89,108.64L512.8,110.33L513.35,110.15L514.44,110.84L514.99,110.73L519.36,111.26L519.9,111.22L523.18,111.7L523.73,111.33L527.01,111.87L527.55,111.85L529.74,112.11L530.28,111.92L532.47,111.79L533.02,112.22L534.66,111.87L535.21,112.35L536.85,112.2L537.39,112.07L538.48,111.96L539.03,112.05L541.22,112.24L541.77,111.9L543.41,112.5L543.96,112.26L546.15,112.56L546.69,107.47L548.33,102.01L548.88,101.38L549.97,101.5L550.52,100.71L552.16,100.89L552.7,100.77L553.25,101.06L553.8,100.39L554.34,99.73L554.89,100.45L557.62,99.91L558.17,100.21L559.81,99.28L560.36,99.43L561.99,99.67L562.54,98.85L564.18,99.55L564.72,98.6" style="vector-effect: none; fill: none; stroke: rgb(255, 102, 146); stroke-opacity: 1; stroke-width: 2px; opacity: 1;"/></g><g class="points"/><g class="text"/></g><g class="trace scatter trace0c257b" style="stroke-miterlimit: 2; opacity: 1;"><g class="fills"/><g class="errorbars"/><g class="lines"><path class="js-line" d="M0.28,158.93L11.75,158.5L12.29,159.14L13.93,158.4L14.48,158.59L19.94,158.38L20.48,158.54L23.21,157.96L23.76,158.06L28.67,157.98L29.21,176.69L30.31,199.5L30.85,199.21L33.58,197.55L34.12,197.35L35.22,196.74L35.76,196.84L38.49,196.08L39.04,196.15L41.77,195.77L42.32,195.73L43.41,195.56L43.96,195.52L45.6,195.24L46.14,195.31L48.32,195.42L48.87,196.01L50.51,195.28L51.06,195.03L52.15,195.17L52.69,195.06L54.33,194.99L54.88,195.06L57.61,195.1L58.16,194.99L63.07,194.92L63.62,195.17L70.17,194.7L70.72,179.48L71.81,163.54L72.36,161.65L76.19,159.38L76.73,159.29L78.37,158.52L78.92,158.35L81.1,158.06L81.65,158.28L83.84,157.56L84.38,157.61L85.48,157.64L86.02,157.24L92.04,156.94L92.59,156.63L93.68,156.78L94.23,156.76L95.32,156.96L95.87,156.63L96.96,156.61L97.51,156.56L100.79,156.89L101.34,156.3L103.52,156.63L104.07,156.48L108.45,156.07L108.99,182.06L110.08,194.49L110.63,194.81L112.27,194.59L112.81,194.49L115,193.9L115.54,193.94L118.82,193.57L119.37,194.05L121.55,193.45L122.1,193.64L124.83,193.38L125.37,193.53L130.83,193.49L131.38,193.12L137.94,193.27L138.48,193.53L140.67,193.04L141.21,193.15L143.94,193.12L144.49,193.23L148.31,193.34L148.86,169.44L149.95,161.76L150.5,160.84L153.23,158.88L153.78,158.71L154.33,158.88L154.87,158.25L166.36,156.5L166.9,156.78L168.54,156.5L169.09,156.56L170.73,156.5L171.28,156.27L175.65,156.14L176.2,156.09L176.75,156.22L177.29,155.57L178.39,155.86L178.93,155.86L181.67,155.73L182.22,155.94L187.69,155.89L188.24,155.62L189.88,194.99L190.42,195.2L192.61,195.03L193.15,194.85L194.8,194.59L195.34,194.38L198.07,194.34L198.62,194.34L200.8,194.27L201.35,194.12L205.72,194.16L206.26,193.86L209,193.86L209.54,193.97L211.73,193.86L212.27,194.38L214.46,193.71L215,193.71L215.55,194.41L216.1,193.79L220.47,193.9L221.02,193.83L227.57,193.86L228.12,189.9L229.21,163.73L229.76,161.9L231.4,159.5L231.94,159.12L237.41,156.91L237.96,156.91L242.33,156.14L242.88,156.5L248.89,156.02L249.44,155.7L250.54,156.17L251.08,155.62L252.18,155.78L252.72,155.7L254.36,155.91L254.91,155.57L262.02,155.73L262.57,155.52L264.75,155.62L265.3,155.7L267.49,155.52L268.03,174.54L269.13,191.81L269.67,192.12L270.22,192.7L270.77,191.97L280.05,191.18L280.6,191.66L282.24,191.22L282.78,191.46L284.42,191.38L284.97,191.38L287.7,191.38L288.25,191.5L290.98,191.62L291.52,191.66L293.16,191.5L293.71,191.58L298.08,191.18L298.63,191.69L299.72,191.42L300.27,192.16L301.36,191.73L301.91,191.66L303.55,191.42L304.09,191.46L306.28,191.62L306.82,191.54L307.37,191.58L307.91,183.14L309,162.73L309.55,161.09L311.74,157.44L312.28,157.26L317.2,154.56L317.74,154.96L319.38,155.04L319.93,155.12L321.02,155.02L321.56,154.78L322.66,153.58L323.2,154.21L324.29,154.1L324.84,153.74L326.48,153.55L327.02,153.58L328.66,153.74L329.21,152.9L329.75,152.9L330.3,151.9L331.39,153.27L331.94,152.76L333.57,152.85L334.12,152.13L335.21,150.45L335.76,151.23L337.4,153.19L337.94,153.19L345.04,153.82L345.59,154.04L346.68,153.6L347.23,153.69L348.32,188.56L348.86,189.9L353.23,189.72L353.78,189.3L358.69,189.63L359.24,189.15L362.52,189.63L363.06,189.59L367.43,189.4L367.98,189.42L370.71,189.59L371.26,189.51L378.91,189.15L379.45,189.51L380.54,189.32L381.09,189.65L390.38,189.42L390.93,176.49L392.02,161.96L392.57,160.8L394.21,158.23L394.76,157.11L397.49,155.02L398.04,156.07L404.6,154.69L405.15,155.12L406.24,154.51L406.79,155.26L409.53,156.09L410.07,155.55L412.81,155.65L413.36,154.96L415.54,155.44L416.09,155.07L417.18,155.18L417.73,155.36L419.92,154.34L420.47,155.1L423.75,154.53L424.3,154.45L425.39,154.32L425.94,154.37L426.48,154.51L427.03,153.8L428.12,186.45L428.67,187.54L429.76,187.85L430.31,187.72L431.95,187.59L432.49,187.61L440.15,187.32L440.69,187.43L445.06,187.72L445.61,187.56L449.98,187.43L450.53,187.83L452.71,187.63L453.26,187.67L453.81,187.15L454.35,187.87L457.09,187.63L457.63,188.15L460.91,187.63L461.46,187.32L462.55,187.65L463.1,187.91L464.74,187.96L465.29,187.83L466.38,187.63L466.93,182.84L468.02,161.47L468.57,159.55L470.21,156.14L470.75,156.43L472.39,154.83L472.94,154.51L475.67,153.77L476.22,153.88L477.85,153.05L478.4,153.19L480.04,153.16L480.59,152.65L481.68,152.54L482.23,152.62L488.78,152.59L489.33,152.11L490.96,152.16L491.51,151.93L493.15,152.42L493.7,152.25L496.43,152.31L496.97,151.76L498.61,151.93L499.16,151.96L501.34,152.28L501.89,152.02L502.43,151.35L502.98,152.05L504.07,151.84L504.62,152.13L505.71,152.02L506.26,155.1L507.35,158.67L507.89,159.19L509.53,159.64L510.08,159.41L511.17,160.18L511.72,160.2L517.18,160.89L517.72,161.21L519.91,160.87L520.46,161.11L525.37,161.07L525.92,160.77L526.47,161.59L527.01,161.09L527.56,161.59L529.74,161.36L530.29,161.76L531.39,161.36L531.93,161.63L539.59,161.65L540.13,161.85L545.06,161.59L545.61,162.31L546.15,162.03L546.7,158.98L548.34,154.24L548.89,154.1L549.43,154.88L549.98,154.32L551.62,153.35L552.16,153.88L555.99,152.9L556.53,153.46L557.08,153.71L557.63,153.13L559.81,152.76L560.36,152.82L564.73,152.48" style="vector-effect: none; fill: none; stroke: rgb(182, 232, 128); stroke-opacity: 1; stroke-width: 2px; opacity: 1;"/></g><g class="points"/><g class="text"/></g><g class="trace scatter trace2b26f4" style="stroke-miterlimit: 2; opacity: 1;"><g class="fills"/><g class="errorbars"/><g class="lines"><path class="js-line" d="M0.35,147.24L1.44,147.57L1.98,146.94L11.26,146.87L11.81,146.77L16.72,146.87L17.27,146.47L22.73,146.57L23.27,146.34L24.36,146.77L24.91,146.1L26,146.4L26.55,146.03L27.64,146.2L28.19,146.27L28.73,146.4L29.28,174.69L30.37,182.06L30.91,181.76L41.84,178.7L42.38,178.65L42.93,178.9L43.47,178.31L45.11,178.79L45.65,178.14L47.3,178.14L47.84,178.39L49.48,178.48L50.03,178.48L51.66,178.14L52.21,178.48L53.3,177.83L53.85,178.31L55.49,178.25L56.04,178.28L59.31,178.25L59.86,178.05L64.23,178.51L64.77,177.97L65.32,178.65L65.87,178.03L70.24,177.97L70.78,157.98L72.42,147.7L72.97,147.63L75.15,145.69L75.7,145.9L78.43,144.96L78.98,144.93L95.38,143.89L95.93,144.04L99.21,143.64L99.76,143.6L103.04,143.6L103.59,143.6L108.51,143.27L109.05,171.94L110.15,177.63L110.69,177.51L113.97,176.84L114.51,177.34L121.61,176.46L122.16,176.34L123.25,176.78L123.8,176.49L125.44,176.63L125.98,176.46L128.16,176.43L128.71,176.69L130.9,176.49L131.44,176.31L134.72,176.72L135.27,176.34L136.91,176.34L137.45,176.25L140.18,176.4L140.73,175.98L141.82,176.46L142.37,176.46L147.83,176.52L148.38,170.05L149.47,149.35L150.01,147.43L153.3,145L153.84,144.96L159.31,143.75L159.86,143.82L166.42,143.24L166.97,143.2L168.06,143.2L168.61,143.24L170.79,142.91L171.34,143.13L188.3,142.87L188.85,171.09L189.94,177.88L190.48,177.97L198.13,177.16L198.68,177.6L200.32,177.28L200.86,177.16L203.05,177.1L203.59,177.39L204.69,176.87L205.23,177.25L206.87,177.16L207.42,176.99L209.06,176.96L209.6,176.84L211.24,177.1L211.79,176.81L213.43,177.42L213.97,176.93L216.16,176.84L216.71,176.93L223.26,176.69L223.81,177.07L225.99,176.66L226.54,176.6L227.63,176.75L228.18,161.63L229.27,149.44L229.82,147.83L234.19,144.32L234.74,144.11L244.04,143.13L244.58,143.2L256.61,142.61L257.16,142.98L261.53,142.76L262.08,143.02L263.72,143.13L264.27,142.68L265.36,142.61L265.91,143.02L267.55,142.87L268.1,167.6L269.19,174.63L269.74,174.72L271.37,175.34L271.92,175.1L274.65,174.94L275.2,175.03L276.84,174.6L277.38,174.38L277.93,175L278.47,174.38L279.57,174.47L280.11,174.22L281.75,174.47L282.3,174.41L284.48,174.88L285.03,174.1L286.12,174.63L286.67,174.57L303.6,174.88L304.15,174.75L307.43,174.88L307.98,159.38L309.07,148.56L309.61,147.04L311.8,144.07L312.35,144.07L316.17,142.38L316.71,142.04L320.53,142.53L321.08,142.16L322.17,141.51L322.72,141.12L324.36,141.51L324.9,141.43L329.81,140.77L330.36,140.17L332,140.85L332.54,140.89L333.09,141.08L333.63,140.29L334.73,139.93L335.27,138.78L336.37,140.13L336.91,140.57L338.55,141.55L339.1,141L344.01,141.43L344.56,141.28L347.29,142.23L347.84,167.52L348.93,172.61L349.47,172.77L351.11,172.97L351.66,172.77L357.66,173.23L358.21,172.34L359.3,172.84L359.85,172.51L362.03,173.17L362.58,173L364.22,172.81L364.76,172.97L372.96,172.77L373.5,172.67L376.23,172.64L376.78,172.87L378.42,172.61L378.97,172.84L381.15,172.94L381.7,172.74L384.43,172.58L384.98,172.51L386.07,172.87L386.62,172.58L388.26,172.94L388.81,172.51L390.45,172.67L390.99,156.53L392.08,148.44L392.63,146.94L393.73,145.24L394.27,145.07L396.46,142.83L397.01,143.13L398.1,143.09L398.65,143.02L403.02,142.42L403.57,142.46L406.31,142.53L406.85,142.76L410.68,143.13L411.23,142.87L412.87,142.91L413.42,142.72L419.43,142.23L419.98,142.53L427.09,142L427.64,165.7L428.73,170.57L429.28,171.06L432.01,171.27L432.56,170.75L434.2,171.23L434.74,170.75L436.93,171.23L437.47,170.96L451.14,171.13L451.68,170.89L454.42,171.09L454.96,171.23L466.44,171.03L466.99,158.62L468.08,147.79L468.63,146.27L470.81,143.13L471.36,142.83L474.64,141.93L475.18,141.97L477.92,140.89L478.46,141.24L480.1,140.96L480.65,140.85L486.11,140.61L486.66,140.89L489.94,140.77L490.48,140.41L491.57,140.69L492.12,140.45L493.21,140.69L493.76,140.61L496.49,140.41L497.04,140.21L498.67,140.85L499.22,140.69L501.95,140.45L502.5,140.37L504.13,140.69L504.68,140.49L505.77,140.85L506.32,143.78L507.96,146.17L508.5,146.24L514.51,147.4L515.05,146.97L516.69,147.76L517.24,147.47L524.34,147.96L524.89,147.92L525.98,148.15L526.53,148.21L530.35,147.92L530.9,148.66L532.54,148.15L533.09,148.44L535.27,148.47L535.82,148.21L537.46,148.18L538.01,148.53L540.74,148.21L541.29,148.6L546.22,148.34L546.76,145.69L548.95,142.83L549.49,142.53L552.77,142.04L553.32,142.19L554.96,141.97L555.5,141.89L562.61,141.16L563.15,142.08L564.24,141.47L564.79,141.62" style="vector-effect: none; fill: none; stroke: rgb(255, 151, 255); stroke-opacity: 1; stroke-width: 2px; opacity: 1;"/></g><g class="points"/><g class="text"/></g><g class="trace scatter trace32ac8e" style="stroke-miterlimit: 2; opacity: 1;"><g class="fills"/><g class="errorbars"/><g class="lines"><path class="js-line" d="M0.41,144.29L1.5,144.43L2.05,144.43L3.68,144.36L4.23,144.07L5.32,144.32L5.87,144.15L8.05,144L8.6,143.78L12.42,144.11L12.97,143.86L20.06,143.75L20.61,143.42L23.34,143.78L23.88,143.46L26.06,143.64L26.61,143.42L28.79,143.68L29.34,176.43L30.43,179.17L30.98,179.09L32.62,178.2L33.16,178.28L34.8,177.48L35.35,177.22L44.08,175.98L44.63,176.28L46.27,176.01L46.81,175.74L50.09,175.77L50.63,176.16L52.27,175.34L52.82,175.8L56.1,175.65L56.65,175.31L59.38,175.74L59.92,175.03L60.47,175.92L61.02,175.43L61.56,174.91L62.66,175.58L63.2,175.71L64.29,175.62L64.84,175.25L65.93,175.52L66.48,175.34L70.3,175.31L70.85,152.48L72.48,144.93L73.03,144.78L74.67,143.49L75.22,143.35L76.86,142.5L77.4,142.27L77.95,142.68L78.5,142L97.09,141.04L97.64,141.31L99.28,140.69L99.82,141L105.84,140.85L106.38,140.49L106.93,140.96L107.48,140.37L108.57,140.89L109.12,172.21L110.21,174.85L110.76,174.88L112.39,174.63L112.94,174.44L116.22,174.13L116.76,174.38L124.95,174.25L125.5,173.81L132.06,173.78L132.6,173.84L133.69,173.87L134.24,174L140.25,173.68L140.79,173.94L142.98,173.65L143.52,173.33L146.26,173.87L146.8,173.55L147.9,173.55L148.44,157.66L149.53,146.1L150.08,144.64L151.72,142.98L152.27,142.79L152.81,142.87L153.36,142.04L162.11,140.69L162.66,140.81L164.84,140.29L165.39,141.08L167.58,140.33L168.12,140.61L176.33,140.13L176.87,139.15L177.42,139.97L177.97,139.3L179.06,140.29L179.61,140.13L180.7,139.22L181.25,139.97L184.53,140.37L185.08,139.24L186.17,139.97L186.72,139.97L187.82,139.22L188.36,140.17L189.46,174.88L190,175.28L199.84,174.25L200.38,174.79L202.02,174.29L202.57,174.79L204.75,174.32L205.3,174.25L210.22,174.57L210.76,174.06L211.31,174.69L211.85,174.1L212.95,174.35L213.49,174.38L215.13,174.22L215.68,174.1L219.5,174.6L220.05,174.06L222.23,173.94L222.78,174.38L224.42,174.16L224.97,174.38L226.06,173.9L226.61,174.38L227.15,173.84L227.7,174.44L228.79,148.44L229.34,146.24L231.52,142.64L232.07,142.98L233.16,142L233.71,141.78L237.54,140.85L238.08,140.69L244.65,139.97L245.2,140.01L246.83,140.49L247.38,140.25L249.02,140.13L249.57,140.41L251.76,140.13L252.3,140.09L253.4,139.97L253.94,138.95L254.49,139.97L255.04,138.99L256.13,140.29L256.68,140.13L257.22,139.17L257.77,140.05L259.41,139.13L259.96,139.93L261.6,140.17L262.15,139.15L263.24,140.17L263.79,140.05L264.33,139.24L264.88,140.01L265.43,140.17L265.97,138.95L267.61,140.17L268.16,168.68L269.26,172.21L269.8,172.11L271.44,172.08L271.99,172.24L274.17,171.81L274.72,172.31L275.81,171.84L276.35,172.18L288.92,171.61L289.46,171.5L292.2,171.71L292.74,171.74L294.38,172.08L294.93,171.88L298.21,172.24L298.75,171.78L304.76,172.14L305.31,171.88L307.49,171.91L308.04,152.82L309.68,144.22L310.23,143.57L311.86,141.93L312.41,141.7L317.32,138.93L317.87,139.19L318.42,140.05L318.96,138.97L320.05,138.89L320.6,140.05L322.24,138.09L322.78,137.73L323.33,138.62L323.87,138.24L324.42,138.47L327.69,137.79L328.24,138.3L328.79,138.41L329.33,137.69L329.88,137.13L330.42,137.73L332.61,137.6L333.16,137.86L335.34,136.36L335.88,136.93L337.52,137.64L338.07,137.92L342.44,138.15L342.99,137.79L343.53,138.28L344.08,137.58L345.72,138.43L346.26,138.47L346.81,137.98L347.35,139.07L348.45,169.69L348.99,170.44L359.37,170.12L359.91,170.19L363.73,170.26L364.28,170.12L365.37,170.26L365.92,170.44L367.56,170.37L368.11,170.37L370.29,170.12L370.84,170.26L373.57,169.76L374.12,169.98L379.58,169.91L380.13,170.05L381.76,169.84L382.31,169.37L383.4,169.84L383.95,169.84L385.59,170.01L386.14,169.94L389.96,169.94L390.51,170.08L391.6,146.97L392.15,145.48L394.89,141.39L395.43,141.12L397.07,140.37L397.62,140.17L398.71,141.04L399.26,140.13L400.36,140.37L400.9,139.09L401.45,140.09L401.99,138.99L403.09,138.89L403.64,139.97L404.73,138.76L405.28,140.21L405.82,139.3L406.37,140.01L409.11,140.21L409.65,140.61L410.75,140.29L411.29,140.25L411.84,139.05L412.39,139.97L412.93,140.05L413.48,139.03L414.58,139.19L415.12,140.13L415.67,139.93L416.22,138.78L416.77,140.09L417.31,139.03L418.41,139.93L418.95,138.86L420.59,139.01L421.14,138.91L421.69,139.97L422.24,138.95L426.06,139.09L426.61,138.64L427.16,138.82L427.7,164.86L428.8,168.72L429.34,168.31L433.71,168.53L434.26,168.12L435.35,168.09L435.9,168.12L437.54,168.35L438.09,168.16L441.91,168.01L442.46,168.57L444.1,168.05L444.64,168.09L456.67,168.38L457.21,168.24L459.95,168.53L460.49,168.09L461.59,168.35L462.13,168.27L463.77,168.53L464.32,168.12L465.96,168.49L466.51,168.35L467.6,146.77L468.15,145.07L469.79,142.08L470.33,141.35L473.61,138.7L474.16,139.01L476.34,138.2L476.89,138.22L477.98,137.98L478.53,138.55L480.17,137.94L480.72,138.15L481.81,137.94L482.35,137.94L483.45,137.45L483.99,137.77L485.63,137.49L486.18,137.13L487.27,137.49L487.82,137.56L488.91,137.34L489.45,137.71L493.28,137.21L493.82,137.58L497.65,137.15L498.19,137.47L505.84,137.64L506.38,141.16L508.02,143.02L508.57,143.71L510.21,143.64L510.75,143.97L513.48,144.22L514.03,144.54L515.67,144.61L516.21,144.93L517.31,144.78L517.85,144.64L520.04,145.07L520.58,144.54L523.32,145.14L523.86,145.17L525.5,145.14L526.05,145.07L528.78,145.14L529.32,145.07L534.24,145.41L534.79,145.62L535.88,145.45L536.43,145.31L539.17,145.69L539.71,145.62L540.81,145.55L541.35,145.9L542.99,145.59L543.54,145.45L546.28,145.48L546.83,142.53L548.47,140.05L549.01,140.49L550.1,139.97L550.65,138.74L552.29,139.03L552.84,138.82L564.86,138.32" style="vector-effect: none; fill: none; stroke: rgb(254, 203, 82); stroke-opacity: 1; stroke-width: 2px; opacity: 1;"/></g><g class="points"/><g class="text"/></g></g></g></g><path class="xlines-above crisp" d="M0,0" style="fill: none;"/><path class="ylines-above crisp" d="M0,0" style="fill: none;"/><g class="overlines-above"/><g class="xaxislayer-above"><g class="xtick"><text text-anchor="middle" x="0" y="273" transform="translate(66.39,0)" style="font-family: 'Times New Roman'; font-size: 12px; fill: rgb(0, 0, 0); fill-opacity: 1; white-space: pre; opacity: 1;">6e+7</text></g><g class="xtick"><text text-anchor="middle" x="0" y="273" style="font-family: 'Times New Roman'; font-size: 12px; fill: rgb(0, 0, 0); fill-opacity: 1; white-space: pre; opacity: 1;" transform="translate(176.95999999999998,0)">7e+7</text></g><g class="xtick"><text text-anchor="middle" x="0" y="273" style="font-family: 'Times New Roman'; font-size: 12px; fill: rgb(0, 0, 0); fill-opacity: 1; white-space: pre; opacity: 1;" transform="translate(287.52,0)">7e+7</text></g><g class="xtick"><text text-anchor="middle" x="0" y="273" style="font-family: 'Times New Roman'; font-size: 12px; fill: rgb(0, 0, 0); fill-opacity: 1; white-space: pre; opacity: 1;" transform="translate(398.08,0)">8e+7</text></g><g class="xtick"><text text-anchor="middle" x="0" y="273" style="font-family: 'Times New Roman'; font-size: 12px; fill: rgb(0, 0, 0); fill-opacity: 1; white-space: pre; opacity: 1;" transform="translate(508.65,0)">8e+7</text></g></g><g class="yaxislayer-above"><g class="ytick"><text text-anchor="end" x="49" y="4.199999999999999" transform="translate(0,255.56)" style="font-family: 'Times New Roman'; font-size: 12px; fill: rgb(0, 0, 0); fill-opacity: 1; white-space: pre; opacity: 1;">5e+5</text></g><g class="ytick"><text text-anchor="end" x="49" y="4.199999999999999" style="font-family: 'Times New Roman'; font-size: 12px; fill: rgb(0, 0, 0); fill-opacity: 1; white-space: pre; opacity: 1;" transform="translate(0,230.15)">1e+6</text></g><g class="ytick"><text text-anchor="end" x="49" y="4.199999999999999" style="font-family: 'Times New Roman'; font-size: 12px; fill: rgb(0, 0, 0); fill-opacity: 1; white-space: pre; opacity: 1;" transform="translate(0,204.75)">2e+6</text></g><g class="ytick"><text text-anchor="end" x="49" y="4.199999999999999" style="font-family: 'Times New Roman'; font-size: 12px; fill: rgb(0, 0, 0); fill-opacity: 1; white-space: pre; opacity: 1;" transform="translate(0,171.17000000000002)">5e+6</text></g><g class="ytick"><text text-anchor="end" x="49" y="4.199999999999999" style="font-family: 'Times New Roman'; font-size: 12px; fill: rgb(0, 0, 0); fill-opacity: 1; white-space: pre; opacity: 1;" transform="translate(0,145.76)">1e+7</text></g><g class="ytick"><text text-anchor="end" x="49" y="4.199999999999999" style="font-family: 'Times New Roman'; font-size: 12px; fill: rgb(0, 0, 0); fill-opacity: 1; white-space: pre; opacity: 1;" transform="translate(0,120.36)">2e+7</text></g><g class="ytick"><text text-anchor="end" x="49" y="4.199999999999999" style="font-family: 'Times New Roman'; font-size: 12px; fill: rgb(0, 0, 0); fill-opacity: 1; white-space: pre; opacity: 1;" transform="translate(0,86.77000000000001)">5e+7</text></g><g class="ytick"><text text-anchor="end" x="49" y="4.199999999999999" style="font-family: 'Times New Roman'; font-size: 12px; fill: rgb(0, 0, 0); fill-opacity: 1; white-space: pre; opacity: 1;" transform="translate(0,61.37)">1e+8</text></g></g><g class="overaxes-above"/></g></g><g class="polarlayer"/><g class="smithlayer"/><g class="ternarylayer"/><g class="geolayer"/><g class="funnelarealayer"/><g class="pielayer"/><g class="iciclelayer"/><g class="treemaplayer"/><g class="sunburstlayer"/><g class="glimages"/><defs id="topdefs-4af30b"><g class="clips"/></defs><g class="layer-above"><g class="imagelayer"/><g class="shapelayer"/></g><g class="infolayer"><g class="g-gtitle"><text class="gtitle" x="312.5" y="25" text-anchor="middle" dy="0em" style="opacity: 1; font-family: 'Times New Roman'; font-size: 17px; fill: rgb(0, 0, 0); fill-opacity: 1; white-space: pre;">Matrix 0, Sensor 7</text></g><g class="g-xtitle" transform="translate(0,-2.8000000000000114)"><text class="xtitle" x="332.5" y="299.8" text-anchor="middle" style="opacity: 1; font-family: 'Times New Roman'; font-size: 14px; fill: rgb(0, 0, 0); fill-opacity: 1; white-space: pre;">Time since power on (ms)</text></g><g class="g-ytitle" transform="translate(6.994140625,0)"><text class="ytitle" transform="rotate(-90,5.506250000000001,155)" x="5.506250000000001" y="155" text-anchor="middle" style="opacity: 1; font-family: 'Times New Roman'; font-size: 14px; fill: rgb(0, 0, 0); fill-opacity: 1; white-space: pre;">Resistance (Ohms)</text></g></g></svg>