<svg class="main-svg" xmlns="http://www.w3.org/2000/svg" xmlns:xlink="http://www.w3.org/1999/xlink" width="625" height="300" style="" viewBox="0 0 625 300"><rect x="0" y="0" width="625" height="300" style="fill: rgb(255, 255, 255); fill-opacity: 1;"/><defs id="defs-701484"><g class="clips"><clipPath id="clip701484xyplot" class="plotclip"><rect width="565" height="210"/></clipPath><clipPath class="axesclip" id="clip701484x"><rect x="50" y="0" width="565" height="300"/></clipPath><clipPath class="axesclip" id="clip701484y"><rect x="0" y="50" width="625" height="210"/></clipPath><clipPath class="axesclip" id="clip701484xy"><rect x="50" y="50" width="565" height="210"/></clipPath></g><g class="gradients"/><g class="patterns"/></defs><g class="bglayer"><rect class="bg" x="50" y="50" width="565" height="210" style="fill: rgb(229, 236, 246); fill-opacity: 1; stroke-width: 0;"/></g><g class="layer-below"><g class="imagelayer"/><g class="shapelayer"/></g><g class="cartesianlayer"><g class="subplot xy"><g class="layer-subplot"><g class="shapelayer"/><g class="imagelayer"/></g><g class="minor-gridlayer"><g class="x"/><g class="y"/></g><g class="gridlayer"><g class="x"><path class="xgrid crisp" transform="translate(162.12,0)" d="M0,50v210" style="stroke: rgb(255, 255, 255); stroke-opacity: 1; stroke-width: 1px;"/><path class="xgrid crisp" transform="translate(274.47,0)" d="M0,50v210" style="stroke: rgb(255, 255, 255); stroke-opacity: 1; stroke-width: 1px;"/><path class="xgrid crisp" transform="translate(386.82,0)" d="M0,50v210" style="stroke: rgb(255, 255, 255); stroke-opacity: 1; stroke-width: 1px;"/><path class="xgrid crisp" transform="translate(499.17,0)" d="M0,50v210" style="stroke: rgb(255, 255, 255); stroke-opacity: 1; stroke-width: 1px;"/><path class="xgrid crisp" transform="translate(611.52,0)" d="M0,50v210" style="stroke: rgb(255, 255, 255); stroke-opacity: 1; stroke-width: 1px;"/></g><g class="y"><path class="ygrid crisp" transform="translate(0,247.29)" d="M50,0h565" style="stroke: rgb(255, 255, 255); stroke-opacity: 1; stroke-width: 1px;"/><path class="ygrid crisp" transform="translate(0,228.61)" d="M50,0h565" style="stroke: rgb(255, 255, 255); stroke-opacity: 1; stroke-width: 1px;"/><path class="ygrid crisp" transform="translate(0,203.92)" d="M50,0h565" style="stroke: rgb(255, 255, 255); stroke-opacity: 1; stroke-width: 1px;"/><path class="ygrid crisp" transform="translate(0,185.24)" d="M50,0h565" style="stroke: rgb(255, 255, 255); stroke-opacity: 1; stroke-width: 1px;"/><path class="ygrid crisp" transform="translate(0,166.56)" d="M50,0h565" style="stroke: rgb(255, 255, 255); stroke-opacity: 1; stroke-width: 1px;"/><path class="ygrid crisp" transform="translate(0,141.87)" d="M50,0h565" style="stroke: rgb(255, 255, 255); stroke-opacity: 1; stroke-width: 1px;"/><path class="ygrid crisp" transform="translate(0,123.19)" d="M50,0h565" style="stroke: rgb(255, 255, 255); stroke-opacity: 1; stroke-width: 1px;"/><path class="ygrid crisp" transform="translate(0,104.50999999999999)" d="M50,0h565" style="stroke: rgb(255, 255, 255); stroke-opacity: 1; stroke-width: 1px;"/><path class="ygrid crisp" transform="translate(0,79.82)" d="M50,0h565" style="stroke: rgb(255, 255, 255); stroke-opacity: 1; stroke-width: 1px;"/><path class="ygrid crisp" transform="translate(0,61.14)" d="M50,0h565" style="stroke: rgb(255, 255, 255); stroke-opacity: 1; stroke-width: 1px;"/></g></g><g class="zerolinelayer"/><g class="layer-between"><g class="shapelayer"/><g class="imagelayer"/></g><path class="xlines-below"/><path class="ylines-below"/><g class="overlines-below"/><g class="xaxislayer-below"/><g class="yaxislayer-below"/><g class="overaxes-below"/><g class="overplot"><g class="xy" transform="translate(50,50)" clip-path="url(#clip701484xyplot)"><g class="scatterlayer mlayer"><g class="trace scatter traceac611e" style="stroke-miterlimit: 2; opacity: 1;"><g class="fills"/><g class="errorbars"/><g class="lines"><path class="js-line" d="M0,173.3L1.2,127.89L1.8,125.84L3,123.59L3.6,124.13L4.81,123.76L5.41,123.3L6.61,121.94L7.22,122.52L10.83,122.65L11.44,122.17L12.64,122.22L13.25,122.46L16.26,123.88L16.87,123.27L17.47,125.19L18.07,123.36L18.67,123.11L19.28,124.22L21.69,123.83L22.29,123.97L23.5,125.19L24.1,124.93L25.31,124.7L25.92,124.12L27.12,124.25L27.73,124.61L29.54,123.76L30.14,123.83L31.34,124.78L31.95,126.04L33.16,123.53L33.76,124.04L36.17,124.7L36.78,124.15L37.38,123.97L37.98,124.64L39.19,124.87L39.79,124.76L42.81,124.61L43.42,125.13L46.43,123.97L47.03,123.25L48.24,123.3L48.85,123.39L49.45,123.54L50.05,124.73L51.26,124.7L51.87,124.87L56.69,124.55L57.3,124.73L57.9,124.99L58.51,124.27L59.71,124.67L60.31,124.7L63.33,124.9L63.94,124.1L67.56,124.78L68.16,124.19L73.6,123.54L74.2,124.03L77.22,123.7L77.83,123.97L83.87,123.54L84.47,123.13L85.68,122.96L86.29,123.02L86.89,123.51L87.49,128.83L88.7,148.05L89.3,147L92.32,144.38L92.92,144.18L97.74,142.48L98.35,142.48L100.76,141.99L101.36,141.96L103.78,141.93L104.38,141.68L113.43,141.37L114.03,141.21L118.26,141.2L118.86,141.2L122.49,141.17L123.09,141.36L126.71,141.39L127.31,134.64L128.52,127.73L129.12,126.8L130.33,126.75L130.93,126.04L135.16,125.73L135.76,125.22L136.97,125.5L137.57,125.27L149.64,123.19L150.25,123.33L152.66,122.11L153.27,122.61L155.08,134.88L155.68,135.14L159.9,135.04L160.5,135.57L162.31,135.57L162.92,135.63L168.35,135.98L168.95,135.9L189.46,136.81L190.06,136.77L193.68,137.01L194.28,129.62L194.89,123.61L195.49,123.7L196.09,122.14L197.3,120.96L197.9,120.52L200.92,120.33L201.52,119.97L202.73,120.17L203.33,119.69L207.56,119.55L208.16,119.35L212.39,118.68L212.99,118.22L217.22,118.13L217.82,117.36L220.24,116.4L220.84,116.36L222.05,133.4L222.65,133.38L233.5,134.54L234.1,134.25L236.52,134.74L237.12,134.88L245.57,135.02L246.17,135.3L254.62,135.4L255.22,135.9L256.43,135.59L257.03,135.96L258.84,135.67L259.45,135.65L261.25,135.92L261.86,121.67L263.67,118.65L264.28,118.19L266.69,116.7L267.29,116.78L278.16,114.38L278.76,114.47L283.6,113.91L284.2,114.15L286.02,113.49L286.62,113.38L288.43,113L289.04,130.9L290.25,131.86L290.85,132.15L292.06,132.01L292.66,131.92L294.47,132.28L295.08,132.5L306.54,133.15L307.14,133.49L309.55,133.4L310.16,133.53L314.38,133.61L314.98,133.59L319.81,133.55L320.42,133.67L327.06,134.21L327.66,133.78L328.87,133.8L329.47,122.46L330.67,116.14L331.28,115.76L333.09,114.55L333.69,114.1L335.5,113.56L336.11,113.47L346.98,110.82L347.58,110.5L351.2,110.37L351.8,110.42L353.61,110L354.22,110.33L355.43,109.82L356.04,117.32L357.25,127.42L357.85,127.36L359.66,127.42L360.26,127.39L386.8,129.55L387.41,129.35L391.63,129.74L392.23,129.69L395.85,129.62L396.45,125.98L397.66,114.23L398.27,112.91L401.89,111.64L402.49,111.47L404.9,110.72L405.51,110.47L410.34,109.36L410.94,109.41L416.98,108.18L417.58,108.28L424.83,107.61L425.43,107.02L429.06,106.96L429.66,106.88L430.26,106.99L430.87,115.31L432.07,123.11L432.68,122.99L435.69,123.5L436.29,123.54L439.31,124.21L439.91,124.01L452.58,124.87L453.18,125.16L470.08,125.33L470.68,122.9L471.89,111.42L472.49,110.47L473.7,110L474.3,109.21L480.94,106.88L481.54,106.94L486.37,105.75L486.98,105.78L487.58,105.67L488.18,104.67L490.6,105.08L491.2,104.54L494.82,104.14L495.43,104.5L497.24,103.87L497.84,106.25L498.45,108.04L499.05,107.77L499.66,107.82L502.08,108.26L502.68,108.31L506.91,108.84L507.51,108.89L511.73,109.18L512.34,109.08L514.75,109.54L515.36,109.31L518.98,109.82L519.58,109.59L523.2,109.62L523.81,109.47L526.22,109.9L526.82,109.39L529.24,109.64L529.84,109.36L532.25,109.49L532.86,109.41L537.69,109.41L538.29,108.74L539.5,106.96L540.1,106.57L540.71,106.42L541.31,104.96L546.74,98.68L547.35,97.9L550.97,95.08L551.57,95.53L553.38,94.52L553.98,94.7L555.8,93.5L556.4,94.07L557.6,92.86L558.21,93.77L559.42,93.73L560.02,93.98L561.83,94.32L562.43,94.07L563.64,93.15L564.24,94.07L564.85,92.86" style="vector-effect: none; fill: none; stroke: rgb(99, 110, 250); stroke-opacity: 1; stroke-width: 2px; opacity: 1;"/></g><g class="points"/><g class="text"/></g><g class="trace scatter trace5ee8fa" style="stroke-miterlimit: 2; opacity: 1;"><g class="fills"/><g class="errorbars"/><g class="lines"><path class="js-line" d="M0.01,199.5L1.21,146.69L1.81,145.05L3.01,143.11L3.61,143.72L6.62,141.12L7.22,141.65L9.63,140.54L10.24,140.59L10.84,140.82L11.44,139.82L13.86,140.04L14.46,140.54L16.27,140.51L16.87,140.27L17.48,141.51L18.08,140.15L18.68,139.82L19.28,140.96L21.7,140.36L22.3,140.54L23.51,141.33L24.11,141.36L30.15,140.46L30.75,140.61L31.96,142.01L32.56,140.56L33.77,140.78L34.37,140.69L41.01,141.14L41.61,140.93L43.42,141.42L44.03,141.04L46.44,140.85L47.04,140.49L51.87,141.2L52.48,141.25L53.68,141.45L54.28,141.29L57.91,141.53L58.51,141.15L63.34,141.34L63.95,141.04L68.78,141.06L69.38,140.8L71.19,141.2L71.8,141.12L84.48,140.54L85.08,139.92L86.89,140.4L87.5,143.95L88.7,157.96L89.31,157.22L91.72,155.11L92.32,155L97.15,153.58L97.75,153.6L100.77,153.16L101.37,153.03L106.2,152.87L106.8,152.79L109.21,152.77L109.82,152.73L117.66,152.54L118.27,152.56L126.72,152.54L127.32,148.15L128.53,142.81L129.13,142.42L130.34,142.33L130.94,141.93L137.58,141.7L138.18,141.53L153.27,140.35L153.88,142.86L155.08,148.37L155.68,148.37L167.75,149.02L168.35,149.14L170.76,148.95L171.37,149.16L173.18,149.32L173.78,149.18L193.69,149.72L194.29,144.74L195.5,140.27L196.1,139.47L197.31,138.52L197.91,138.31L200.93,138.61L201.53,138.56L208.77,138.05L209.38,138.08L214.81,137.4L215.41,137.44L217.83,136.74L218.43,136.26L220.85,136.25L221.45,143.43L222.05,148.25L222.66,148.13L223.26,147.88L225.07,148.2L225.67,147.95L229.29,148.32L229.89,148.08L232.3,148.44L232.91,148.54L261.26,149.6L261.87,139.6L263.07,138.14L263.68,137.58L266.69,136.4L267.3,136.49L276.96,135.16L277.56,135.04L288.44,134.38L289.04,147.05L290.25,147.66L290.86,147.53L296.29,147.63L296.89,147.81L299.91,147.91L300.51,148.08L308.96,148.13L309.56,148.49L310.77,148.44L311.37,148.54L314.39,148.37L314.99,148.52L321.63,148.61L322.23,148.71L323.44,148.78L324.04,148.9L326.46,148.61L327.06,148.87L328.87,148.61L329.47,140.94L330.68,135.92L331.29,135.88L334.91,134.42L335.51,134.66L344.57,133.38L345.17,133.36L348.79,132.56L349.4,132.59L355.44,132.23L356.05,137.53L357.25,144.82L357.86,144.55L377.75,145.45L378.36,145.88L380.77,145.78L381.37,145.88L383.79,145.94L384.39,145.96L394.65,146.46L395.26,146.15L395.86,146.23L396.46,143.43L397.67,134.88L398.27,134.09L406.72,132.54L407.32,132.63L412.76,132.01L413.36,131.83L416.98,131.52L417.59,131.61L421.82,131.2L422.42,131.27L430.27,130.71L430.87,136.38L432.08,142.38L432.68,142.41L436.3,142.18L436.9,142.38L442.33,142.83L442.93,142.59L445.35,143.14L445.95,143.02L448.36,143.14L448.96,143.08L453.79,143.41L454.39,143.32L470.08,143.72L470.68,141.54L471.89,133L472.5,132.56L476.72,131.34L477.32,131.2L483.36,130.17L483.96,130.17L486.98,129.74L487.58,129.69L491.21,129.69L491.81,129.45L496.04,129.55L496.64,128.93L497.85,130.03L498.46,130.97L501.47,130.67L502.08,130.95L515.97,132.19L516.57,131.79L518.98,132.1L519.59,132.23L521.4,132.01L522,132.63L523.81,132.01L524.41,132.21L532.26,132.19L532.86,132.04L537.69,132.32L538.3,131.56L539.5,130.62L540.11,130.46L540.71,130.57L541.31,129.69L544.34,127.76L544.94,127.44L547.35,124.76L547.96,124.18L550.97,122.74L551.58,123.04L553.39,122.44L553.99,122.36L555.8,121.8L556.4,122.04L557.61,121.22L558.21,121.75L560.63,122.12L561.23,122.87L563.65,121.49L564.25,122.04L564.85,121.32" style="vector-effect: none; fill: none; stroke: rgb(239, 85, 59); stroke-opacity: 1; stroke-width: 2px; opacity: 1;"/></g><g class="points"/><g class="text"/></g><g class="trace scatter trace1de2f5" style="stroke-miterlimit: 2; opacity: 1;"><g class="fills"/><g class="errorbars"/><g class="lines"><path class="js-line" d="M0.08,168.44L1.28,136.64L1.87,134.66L3.08,132.15L3.68,132.67L6.69,129.5L7.29,129.84L9.7,128.27L10.31,127.94L13.32,126.5L13.92,126.69L15.73,127.36L16.34,127.26L18.75,126.37L19.35,126.94L22.37,126.59L22.97,127.18L30.82,126.23L31.42,126.83L32.02,127.78L32.63,126.17L39.27,126.72L39.87,126.23L41.08,126.23L41.68,126.56L44.09,126.64L44.7,126.77L47.11,125.62L47.71,126.01L48.92,125.7L49.53,126.06L51.34,126.56L51.94,126.34L54.96,126.5L55.56,126.23L60.39,126.37L60.99,126.26L68.24,125.87L68.85,125.73L83.95,125.25L84.55,124.73L85.76,124.7L86.36,124.78L86.96,124.99L87.57,131.79L88.77,145.13L89.38,144.43L92.39,141.62L93,141.21L96.01,139.77L96.61,139.59L99.63,138.65L100.23,138.71L107.47,137.64L108.07,137.73L115.32,137.07L115.92,137.09L119.54,136.83L120.14,136.96L121.95,136.83L122.56,137.03L124.97,136.83L125.58,136.77L126.79,136.77L127.39,128.65L128.59,126.23L129.2,126.01L145.49,124.64L146.1,124.27L153.34,123.71L153.94,129.4L155.15,131.47L155.75,131.31L158.16,131.2L158.77,131.22L163.6,131.52L164.2,131.54L167.82,131.5L168.42,131.7L172.64,131.63L173.25,131.99L188.33,131.79L188.93,132.08L193.75,132.04L194.36,125.1L195.57,122.91L196.17,121.7L197.98,121.06L198.58,121.5L201.6,121.21L202.2,121.47L205.22,121.36L205.82,121.37L208.84,121.06L209.45,121.04L218.5,119.69L219.1,119.4L220.92,119.19L221.52,128.9L222.72,130.67L223.33,130.55L226.34,130.55L226.95,130.69L229.35,130.64L229.96,130.78L233.58,131.02L234.18,130.97L236.59,131.18L237.2,131.06L240.22,131.22L240.82,131.06L242.63,131.36L243.23,131.27L252.28,131.52L252.88,131.72L255.9,131.68L256.5,131.79L260.73,131.79L261.33,131.97L262.54,120.69L263.14,120.6L265.56,119.26L266.16,119.15L269.78,118.92L270.39,118.92L272.19,118.7L272.8,118.96L274.61,118.54L275.21,118.5L283.07,118.5L283.67,118.19L286.69,118.11L287.3,117.93L288.51,117.98L289.11,129.79L290.32,130.22L290.92,130L295.15,130.22L295.75,130L321.09,130.81L321.7,130.69L328.94,130.83L329.54,121.67L330.75,118.46L331.35,118.34L337.39,117.51L337.99,117.55L343.43,116.95L344.03,117.15L348.86,116.32L349.46,116.48L351.88,116.48L352.48,116.36L354.9,116.3L355.51,116.16L356.72,127.47L357.32,127.28L393.51,128.43L394.12,128.3L395.93,128.55L396.53,122.22L397.74,117.76L398.34,116.91L401.96,116.72L402.56,116.64L407.39,116.2L408,116.3L420.68,115.39L421.28,115.55L422.49,115.41L423.09,115.64L424.9,115.27L425.51,115.16L427.92,115.08L428.53,115.08L430.34,115.14L430.94,122.68L432.15,125.59L432.75,125.39L453.86,125.95L454.46,125.84L458.08,126.15L458.68,125.9L461.7,126.06L462.31,126.17L465.33,126.17L465.93,126.39L468.95,126.12L469.55,126.26L470.15,126.39L470.75,120.41L471.96,116L472.56,115.88L476.79,115.02L477.39,115.06L483.43,114.51L484.03,114.47L494.9,114.06L495.5,114.21L497.32,113.93L497.92,114.62L499.13,114.76L499.73,114.91L502.75,114.81L503.36,114.79L504.56,114.93L505.17,115.02L506.98,115.31L507.58,115.18L510.6,115.43L511.21,115.41L514.22,115.68L514.83,115.47L517.24,115.88L517.85,115.76L524.48,116L525.09,115.84L528.11,116.04L528.71,115.82L531.12,115.8L531.73,115.74L537.76,115.92L538.36,115.02L539.57,114.45L540.18,114.53L541.38,113.97L541.99,113.69L544.41,112.91L545.01,112.45L551.64,109.21L552.25,109.03L554.66,108.58L555.27,108.63L555.87,108.01L556.47,108.68L557.68,107.93L558.28,108.52L560.09,108.74L560.7,108.92L562.51,109L563.11,108.55L564.92,108.26" style="vector-effect: none; fill: none; stroke: rgb(0, 204, 150); stroke-opacity: 1; stroke-width: 2px; opacity: 1;"/></g><g class="points"/><g class="text"/></g><g class="trace scatter trace52b4aa" style="stroke-miterlimit: 2; opacity: 1;"><g class="fills"/><g class="errorbars"/><g class="lines"><path class="js-line" d="M0.08,192.49L1.28,150.18L1.88,146.57L4.29,140.28L4.89,139.75L8.5,134.94L9.1,134.64L10.91,133.65L11.52,133.19L13.93,132.21L14.53,132.37L15.74,132.26L16.34,132.04L18.76,131.41L19.36,131.79L21.77,131.11L22.38,131.31L24.19,131.68L24.79,131.47L27.21,130.83L27.81,131.43L30.22,130.6L30.83,130.64L32.03,131.56L32.63,130.78L35.05,130.64L35.65,130.92L37.46,130.6L38.07,130.99L45.31,130.76L45.91,130.5L47.12,130.27L47.72,130.57L48.93,130.41L49.53,130.53L51.34,130.85L51.94,130.78L56.17,130.88L56.77,130.22L59.79,130.92L60.4,130.62L62.21,130.71L62.81,130.36L64.62,130.46L65.23,130.2L66.44,130.15L67.04,130.43L82.75,129.81L83.35,129.59L84.56,129.52L85.16,129.25L86.97,129.35L87.57,133.49L88.78,142.31L89.38,141.89L92.4,139.8L93,139.26L98.43,137.65L99.03,137.38L103.25,136.72L103.86,136.88L111.7,136.38L112.31,136.53L114.72,136.23L115.32,136.09L117.74,136.28L118.34,136.04L122.57,136.25L123.17,136.09L126.79,135.94L127.39,131.06L128.6,129.23L129.2,129.3L131.02,129.03L131.62,129.45L136.45,129.15L137.05,129.1L141.88,128.58L142.48,128.8L144.29,129.15L144.9,128.7L147.91,128.68L148.52,128.68L150.93,128.6L151.54,128.32L153.35,128.6L153.95,131.66L155.16,132.95L155.76,132.93L158.17,132.76L158.77,132.78L168.43,133.19L169.03,133L171.44,133.17L172.05,133.23L179.29,133.4L179.89,133.23L182.3,133.34L182.9,133.44L187.12,133.4L187.73,133.49L193.76,133.42L194.36,129.52L196.17,127.52L196.78,127.07L197.98,126.64L198.59,127.42L200.4,127.1L201,127.52L208.24,127.44L208.85,127.15L210.06,127.2L210.66,127.31L211.87,127.42L212.47,127.1L216.09,127.7L216.7,127.07L218.51,126.99L219.11,126.37L220.32,126.67L220.92,126.8L222.13,133.25L222.73,133.29L228.76,133.06L229.36,133.27L231.77,133.44L232.38,133.42L234.79,133.42L235.39,133.57L247.46,133.78L248.06,133.94L250.48,133.84L251.08,134.05L254.7,134.07L255.31,133.99L261.34,134.27L261.94,128.3L263.15,126.96L263.75,127.23L265.56,126.59L266.17,126.83L269.18,126.39L269.79,126.53L273.41,126.42L274.01,126.77L275.22,126.59L275.82,126.99L277.03,126.45L277.64,126.42L279.45,126.61L280.06,126.37L284.89,126.64L285.49,126.56L287.31,126.39L287.91,126.15L288.52,126.5L289.12,133.34L290.33,133.65L290.93,133.36L328.95,134.34L329.55,129.18L330.76,126.45L331.36,126.67L334.38,126.17L334.98,126.61L337.4,126.2L338,126.15L339.21,126.23L339.81,126.15L355.52,126.34L356.12,130.22L356.73,132.5L357.33,132.12L357.93,132.23L360.94,132.04L361.55,132.15L368.18,132.34L368.78,132.39L374.21,132.72L374.81,132.52L382.05,132.89L382.66,132.74L386.28,132.8L386.88,132.78L390.5,133L391.1,132.93L395.93,133.15L396.54,129.93L397.74,126.75L398.34,126.34L401.36,126.23L401.96,126.48L403.17,126.53L403.78,126.42L405.59,126.34L406.19,125.76L406.8,126.56L407.4,126.06L409.21,126.2L409.82,126.34L411.02,125.87L411.63,125.92L415.25,125.9L415.85,126.39L418.27,125.9L418.87,125.95L424.31,125.95L424.91,125.81L429.74,125.81L430.34,125.73L431.55,132.32L432.15,132.26L433.96,131.99L434.57,131.97L439.99,131.88L440.6,131.9L449.04,132.15L449.64,132.17L470.16,132.37L470.76,129.35L471.97,126.26L472.57,126.12L476.8,125.73L477.4,125.5L502.76,125.33L503.36,125.27L514.84,126.01L515.44,125.84L518.45,126.15L519.06,126.01L522.68,126.34L523.28,125.98L526.9,126.34L527.51,126.12L531.13,126.42L531.73,126.34L535.35,126.23L535.96,126.34L538.37,126.31L538.97,125.67L540.79,125.9L541.39,125.95L545.62,124.84L546.22,124L551.05,122.91L551.65,123.15L553.46,122.55L554.07,122.88L555.87,122.28L556.48,122.77L558.89,122.69L559.5,122.69L562.51,123.15L563.12,122.99L564.93,122.73" style="vector-effect: none; fill: none; stroke: rgb(171, 99, 250); stroke-opacity: 1; stroke-width: 2px; opacity: 1;"/></g><g class="points"/><g class="text"/></g><g class="trace scatter trace44b2cc" style="stroke-miterlimit: 2; opacity: 1;"><g class="fills"/><g class="errorbars"/><g class="lines"><path class="js-line" d="M0.15,156.02L1.95,137.53L2.55,135.2L4.36,130.48L4.96,129.62L7.97,125.45L8.57,125.1L13.4,122.19L14,122.27L15.81,122.04L16.41,121.62L17.01,122.09L17.62,121.6L18.82,121.29L19.43,121.55L21.84,121.04L22.45,121.31L24.26,121.49L24.86,121.34L26.67,120.74L27.27,120.47L28.48,120.96L29.08,120.26L30.89,120.38L31.5,121.39L32.7,119.76L33.3,120.11L36.32,120.04L36.93,119.84L38.74,120.07L39.34,120.23L41.75,120.11L42.36,120.48L46.58,118.87L47.19,119.33L47.79,119.55L48.39,118.72L50.2,119.72L50.81,119.88L53.22,119.79L53.83,119.51L57.45,119.48L58.05,119.39L59.86,119.63L60.47,119.72L62.28,119.17L62.88,119.23L63.48,119.69L64.09,119.05L65.9,119.3L66.5,119.1L74.36,118.92L74.96,118.37L76.77,118.85L77.38,118.81L85.83,118.04L86.43,118.57L87.04,118.04L87.64,124.81L88.25,135.9L88.85,135.67L89.45,134.92L95.48,130.48L96.09,130.17L103.32,128.02L103.93,128.14L120.82,126.56L121.43,126.67L124.45,126.48L125.05,126.34L126.86,126.31L127.46,118.78L129.27,118.13L129.87,118.11L131.08,117.64L131.69,118.04L132.89,117.79L133.5,117.64L151,116.91L151.61,116.16L153.42,116.64L154.02,120.94L156.43,121.29L157.04,121.32L160.65,121.29L161.26,121.37L172.12,121.5L172.72,121.55L192.02,121.9L192.62,121.91L193.83,121.85L194.43,115.84L195.64,115.22L196.24,114.12L198.05,113.89L198.66,114.76L201.07,114.34L201.67,114.51L204.09,114.64L204.69,114.36L208.31,114.38L208.92,114.49L213.74,114.23L214.35,114.32L217.97,114.02L218.58,113.18L220.99,113.27L221.59,120.7L223.4,121.07L224,120.87L230.04,121.06L230.64,121.07L234.25,121.21L234.86,121.22L246.93,121.52L247.53,121.47L260.8,121.9L261.4,117.6L262.61,114.08L263.22,113.58L270.46,112.93L271.06,113.16L274.08,112.86L274.69,112.89L283.75,112.84L284.35,113.02L287.38,112.89L287.98,112.95L289.19,121.06L289.79,120.99L302.46,121.07L303.07,121.16L305.48,121.12L306.08,121.09L309.1,121.16L309.7,121.07L317.55,121.26L318.15,121.26L324.79,121.49L325.4,121.21L329.02,121.5L329.62,113.6L331.43,112.77L332.03,112.73L335.05,112.36L335.65,112.57L337.46,112.45L338.07,112.57L340.49,112.18L341.09,112.57L343.51,112.2L344.11,112.06L346.52,112.01L347.13,112.01L349.54,111.99L350.14,112.04L355.58,111.9L356.19,119.15L359.2,119.33L359.81,119.39L365.23,119.42L365.84,119.67L367.04,119.4L367.64,119.74L371.27,119.65L371.87,119.76L379.71,119.84L380.31,119.98L382.72,120L383.33,120.04L389.37,120.16L389.97,120.24L391.78,120.04L392.38,120.16L396,120.17L396.6,114.08L397.81,112.7L398.41,112.38L400.83,112.24L401.43,112.11L430.41,111.71L431.01,119.08L436.44,119.19L437.05,119.15L455.74,119.49L456.35,119.69L458.76,119.28L459.36,119.58L464.8,119.55L465.4,119.69L470.22,119.65L470.83,113.51L472.64,111.92L473.24,111.9L475.66,111.52L476.26,111.92L478.07,111.4L478.67,111.25L481.69,111.56L482.3,111.25L484.71,111.35L485.31,111.42L491.35,111.11L491.96,111.59L494.37,111.45L494.98,111.35L496.18,111.4L496.79,111.23L498.6,112.01L499.2,111.9L502.83,112.04L503.43,111.94L507.66,112.29L508.26,112.27L511.88,112.48L512.49,112.38L514.9,112.36L515.51,112.64L517.32,112.57L517.92,112.61L528.18,112.86L528.78,112.64L531.8,112.75L532.4,112.64L537.84,112.68L538.44,112.06L539.65,112.01L540.25,112.06L543.28,111.54L543.88,111.75L549.91,109.36L550.51,109.57L553.53,109.26L554.13,109.18L561.37,109.39L561.98,109.57L565,109.16" style="vector-effect: none; fill: none; stroke: rgb(255, 161, 90); stroke-opacity: 1; stroke-width: 2px; opacity: 1;"/></g><g class="points"/><g class="text"/></g><g class="trace scatter trace939db7" style="stroke-miterlimit: 2; opacity: 1;"><g class="fills"/><g class="errorbars"/><g class="lines"><path class="js-line" d="M0.23,139.74L1.42,129.55L2.03,127.28L3.83,124.87L4.43,124.09L6.84,121.6L7.44,122.01L9.25,121.17L9.85,121.16L10.45,121.09L11.06,120.05L14.68,120.92L15.28,121.85L16.49,120.47L17.09,123.24L18.3,120.26L18.9,120.79L20.71,120.89L21.31,120.72L23.12,121.91L23.73,121.55L27.35,120.81L27.95,121.37L29.76,120.74L30.36,120.57L30.97,121.22L31.57,122.98L32.78,120.4L33.38,120.72L35.8,120.81L36.4,120.4L37.6,120.59L38.21,121.22L40.02,120.53L40.62,121.07L41.23,120.36L41.83,120.96L45.45,120.67L46.05,119.83L46.66,119.12L47.26,119.83L47.86,120.11L48.47,119.08L50.28,120.47L50.88,120.52L52.69,120.65L53.3,120.47L55.71,120.47L56.32,120.19L58.13,120.41L58.73,120.12L62.35,120.21L62.96,120.19L65.37,120.17L65.98,120.05L69.6,119.9L70.2,120L84.1,119.08L84.7,118.79L87.11,119.06L87.72,131.75L88.32,143.64L88.92,143.11L89.53,142.06L95.56,137.11L96.16,136.83L102.8,134.94L103.4,134.68L112.45,133.27L113.05,133.38L122.11,133.04L122.71,132.59L125.13,132.8L125.73,132.56L126.93,132.59L127.54,121.57L129.35,120.19L129.95,120L131.16,119.08L131.76,119.28L134.78,118.94L135.38,118.78L139,118.57L139.61,118.37L148.06,117.53L148.66,117.49L151.08,117.2L151.68,116.3L153.49,116.87L154.09,124.73L155.9,125.45L156.51,125.19L157.71,125.39L158.32,125.25L160.73,125.7L161.34,125.67L164.35,125.59L164.95,125.9L167.97,125.95L168.57,125.84L170.38,125.9L170.98,125.9L193.91,126.28L194.51,116.12L195.71,115.33L196.32,113.56L198.13,112.84L198.73,113.6L201.14,112.93L201.75,113.31L217.44,111.97L218.05,111.04L221.07,110.35L221.67,123.24L223.48,123.64L224.08,123.58L233.73,124.04L234.33,123.97L237.95,124.13L238.56,124.13L247,124.67L247.6,124.27L248.81,124.67L249.41,124.76L260.88,125.05L261.48,114.7L262.69,111.8L263.29,111.11L264.5,110.55L265.1,110.02L269.33,109.26L269.93,109.29L273.55,108.84L274.16,108.76L284.43,108.12L285.03,107.99L287.45,107.85L288.06,107.91L289.26,122.36L289.87,122.33L303.14,122.71L303.74,122.68L306.16,122.82L306.76,122.68L310.38,122.96L310.99,122.88L314.61,123.01L315.21,123.02L317.02,123.08L317.62,123.07L320.04,122.96L320.64,123.24L323.05,122.99L323.66,123.18L326.68,123.3L327.28,123.1L328.49,123.02L329.09,119.74L330.3,108.74L330.9,108.36L335.73,106.91L336.33,106.85L342.37,106.31L342.98,105.99L346,105.81L346.6,104.8L347.8,104.77L348.41,104.54L350.82,104.68L351.43,104.62L353.84,104.51L354.45,104.42L355.66,104.14L356.26,118.24L358.08,118.72L358.68,118.7L396.08,120.02L396.68,108.58L398.49,105.9L399.09,105.7L400.3,104.48L400.9,104.65L411.17,103.23L411.77,103.47L413.58,102.97L414.19,103.15L430.49,101.87L431.09,115.68L432.9,116.2L433.5,116.26L441.95,116.54L442.55,116.34L444.96,116.78L445.57,116.7L470.3,117.03L470.91,105.67L472.11,103.09L472.71,103.1L476.34,102.04L476.94,101.96L480.56,101.36L481.16,101.37L486.6,100.76L487.2,101.08L489.01,100.69L489.61,100.73L492.63,100.6L493.24,100.65L497.47,100.1L498.07,102.48L499.28,102.53L499.88,102.73L504.11,102.74L504.71,103.04L537.91,103.43L538.52,101.08L540.33,101.06L540.93,100.4L545.16,98.19L545.76,97.3L546.37,97.46L546.97,96.67L553,94.07L553.6,94.3L554.81,93.7L555.41,93.8L557.23,93.1L557.83,93.29L559.64,93.59L560.24,92.86L561.45,93.75L562.05,93.77L563.87,93.4L564.47,93.1" style="vector-effect: none; fill: none; stroke: rgb(25, 211, 243); stroke-opacity: 1; stroke-width: 2px; opacity: 1;"/></g><g class="points"/><g class="text"/></g><g class="trace scatter trace16817f" style="stroke-miterlimit: 2; opacity: 1;"><g class="fills"/><g class="errorbars"/><g class="lines"><path class="js-line" d="M0.3,126.56L1.5,114.89L2.1,113L3.3,111.11L3.9,111.16L5.71,110.08L6.31,109.08L8.72,110.13L9.32,110.28L9.93,109.77L10.53,110.25L11.73,109.26L12.34,109.54L12.94,110.35L13.55,109.47L15.36,111.52L15.96,110.7L16.56,110.28L17.17,113.2L18.37,110.28L18.97,110.87L20.18,111.33L20.79,111.18L21.99,111.59L22.59,112.11L23.8,112.29L24.41,112.18L26.22,111.35L26.82,111.49L27.42,111.06L28.03,111.9L30.44,110.99L31.04,111.85L31.65,114.42L32.25,110.79L34.06,111.3L34.66,111.68L35.87,111.61L36.47,111.13L37.08,110.45L37.68,111.35L38.89,111.56L39.49,111.59L40.09,111.01L40.7,111.78L41.3,111.18L41.9,111.8L43.11,111.97L43.72,111.68L45.52,111.01L46.13,110.35L46.73,109.59L47.33,110.28L47.94,110.47L48.54,109.64L50.96,111.25L51.56,111.35L53.37,110.96L53.97,111.33L56.39,110.72L56.99,110.7L58.2,110.72L58.81,110.42L60.01,111.04L60.61,110.77L66.66,110.15L67.26,110.23L70.28,110.23L70.88,110.02L76.32,109.75L76.92,109.82L82.36,109.16L82.96,109.21L85.38,109.08L85.98,109.05L87.19,108.89L87.79,128.48L88.39,139.42L89,138.56L89.6,137.73L92.62,134.36L93.22,134.01L96.23,132.37L96.84,132.15L109.51,129.4L110.11,129.4L127.01,128.5L127.61,113.56L130.03,111.47L130.63,111.13L131.84,110.55L132.44,110.42L139.08,108.76L139.68,108.68L140.89,108.45L141.49,108.23L151.15,106.71L151.75,104.91L153.57,106.19L154.17,117.94L155.37,118.79L155.98,119.12L193.38,120.21L193.98,119.95L194.58,106.08L195.19,106.11L195.79,104.53L197,102.13L197.6,101.5L198.2,100.96L198.81,101.67L203.03,100.64L203.63,100.4L205.44,100.69L206.05,100.71L207.25,100.53L207.86,100.33L212.09,99.45L212.69,98.89L213.9,98.91L214.5,98.89L216.31,98.66L216.92,98.72L218.12,97.6L218.73,96.94L220.54,96.59L221.14,101.32L222.35,115.68L222.95,116.16L241.65,117.49L242.25,117.38L251.9,117.72L252.51,117.51L253.71,117.72L254.31,117.72L260.95,117.93L261.56,102.63L262.76,99.04L263.37,97.92L266.99,95.55L267.59,95.55L276.04,93.43L276.65,93.43L288.13,92.16L288.73,111.42L289.94,113.58L290.55,113.51L294.16,114.04L294.77,114.25L296.58,114.1L297.19,114.23L312.87,114.93L313.47,114.85L317.7,115.06L318.3,115L328.56,115.14L329.16,104.85L330.37,94.36L330.98,93.68L332.79,92.31L333.39,91.94L345.47,89.12L346.07,89.31L347.28,88.09L347.88,88.31L349.09,88.09L349.69,88.2L354.52,87.69L355.13,87.46L355.74,86.89L356.34,107.22L362.37,108.31L362.97,108.31L396.15,109.87L396.75,93.54L398.57,89.5L399.17,89.44L401.58,88.03L402.18,88.4L405.2,86.58L405.81,86.64L407.62,86.38L408.22,86.2L414.26,85.45L414.86,85.1L416.67,84.84L417.28,85.07L419.69,84.18L420.3,84.51L421.51,84.42L422.11,83.98L423.92,84.08L424.52,83.9L429.96,83.5L430.56,83.95L431.77,102.35L432.37,102.38L439.61,103.01L440.21,103.28L447.45,103.3L448.05,103.52L451.67,103.97L452.27,103.7L458.91,103.76L459.51,103.9L462.53,103.9L463.14,103.84L466.15,104.3L466.76,104.14L470.38,104.31L470.98,89.12L472.79,85.74L473.39,85.19L475.81,83.97L476.41,83.77L490.9,81.16L491.5,81.2L497.54,80.87L498.15,83.97L499.35,84.33L499.95,84.46L504.79,84.65L505.4,85.1L507.21,85.02L507.81,85.08L510.83,85.18L511.43,85.26L515.05,85.62L515.66,85.26L517.47,85.57L518.07,85.34L521.09,85.59L521.69,85.29L523.5,85.45L524.11,85.41L528.33,85.37L528.93,85.46L531.95,85.19L532.56,85.38L534.36,85.29L534.97,85.18L537.99,85L538.59,82.19L540.4,81.27L541.01,80.85L542.22,79.63L542.82,79.71L548.25,73.78L548.86,73.51L552.47,70.95L553.08,71.38L554.89,70.49L555.49,70.05L559.11,70.19L559.72,70.49L560.32,69.83L560.92,70.9L563.33,69.64L563.94,69.64L564.54,69.24" style="vector-effect: none; fill: none; stroke: rgb(255, 102, 146); stroke-opacity: 1; stroke-width: 2px; opacity: 1;"/></g><g class="points"/><g class="text"/></g><g class="trace scatter tracea04af3" style="stroke-miterlimit: 2; opacity: 1;"><g class="fills"/><g class="errorbars"/><g class="lines"><path class="js-line" d="M0.37,100.44L1.57,84.34L2.17,81.72L3.38,78.6L3.98,78.64L5.78,77.7L6.39,76.31L8.8,78.46L9.4,78.84L11.81,77.7L12.41,78.16L13.02,79L13.62,77.83L15.43,80.15L16.03,79.24L16.64,78.6L17.24,82.26L18.45,78.9L19.05,79.4L20.26,80.23L20.86,79.98L22.07,80.25L22.67,80.96L23.27,81.54L23.88,80.96L26.29,80.06L26.89,80.25L27.5,79.88L28.1,80.47L30.52,79.59L31.12,80.49L31.72,83.52L32.33,79.08L32.93,78.88L33.53,79.9L35.94,79.94L36.55,79.28L37.15,78.66L37.75,79.63L38.36,80.4L38.96,79.85L40.17,79.3L40.77,80.25L41.38,79.22L41.98,80.06L45,80.06L45.6,79.32L46.81,77.72L47.41,78.16L49.22,78.26L49.82,78.82L51.64,79.4L52.24,79.06L54.65,79.48L55.26,78.94L61.3,78.88L61.9,78.9L64.31,78.2L64.92,78.6L66.73,78.32L67.33,78.42L69.15,77.51L69.75,77.89L72.77,77.66L73.37,76.83L74.58,77.34L75.18,76.98L77.6,77.55L78.2,77.36L87.26,76.35L87.87,101.01L88.47,113.07L89.07,112.18L89.68,111.49L96.31,107.02L96.91,106.74L98.72,106.08L99.32,105.9L105.36,103.95L105.96,103.92L116.82,102.58L117.43,102.59L127.08,101.8L127.69,83.55L130.7,79.88L131.31,79.12L132.52,78.82L133.12,78.58L135.53,77.76L136.14,77.78L138.55,77.07L139.15,76.57L143.98,75.53L144.59,75.1L148.81,74.63L149.41,74.33L151.22,73.85L151.83,72.41L153.64,73.24L154.24,89.25L156.05,90.89L156.66,91.04L157.86,91.09L158.46,91.37L160.27,91.42L160.88,91.55L168.12,92.02L168.72,92.07L185.61,92.45L186.21,92.38L189.83,92.7L190.43,92.67L192.85,92.72L193.45,92.67L194.06,89.15L194.66,74.49L195.26,74.09L195.86,72.67L197.07,69.72L197.68,69.18L198.28,68.66L198.88,69.24L201.9,67.72L202.5,67.57L203.11,67.72L203.71,66.83L204.92,67.25L205.52,67.14L208.54,66.17L209.14,66.31L212.16,65.58L212.76,64.85L214.57,64.58L215.18,64.67L217.59,64L218.2,62.85L220.01,61.7L220.61,61.68L222.42,85.91L223.03,86.16L239.91,88.54L240.51,88.34L243.53,88.68L244.13,88.51L246.55,88.62L247.15,88.65L250.17,88.93L250.77,88.95L254.39,88.87L254.99,89.04L261.02,89.15L261.63,70.66L262.84,65.94L263.44,64.29L265.86,61.55L266.46,61.03L267.67,61.01L268.27,60.72L271.29,59.19L271.89,59.19L282.16,56.83L282.77,56.83L285.18,56.35L285.79,56.28L288.21,55.95L288.81,79.88L290.02,82.61L290.62,82.7L293.64,83.53L294.24,83.13L296.05,83.63L296.66,83.9L300.28,84.13L300.88,84.25L303.29,84.18L303.9,84.36L317.17,84.96L317.78,84.75L326.83,85.12L327.43,84.88L328.64,84.89L329.24,71.95L330.45,60.15L331.05,58.79L332.26,57.74L332.86,56.98L334.07,56.07L334.67,56.02L338.9,54.14L339.5,54.04L344.34,52.86L344.94,52.28L347.96,50.93L348.56,51.07L349.16,50.42L349.76,51.18L352.18,50.9L352.78,50.79L353.99,50.76L354.6,49.54L355.2,50.13L355.81,49.3L357.02,74.93L357.62,75.07L366.06,76.64L366.66,76.7L387.78,77.89L388.38,77.76L392,78.05L392.61,78.24L396.23,78.05L396.83,59.06L398.64,53.99L399.24,53.51L403.47,50.65L404.07,50.7L406.49,49.3L407.09,49.39L409.51,48.18L410.11,48.31L411.92,48.01L412.53,47.74L416.15,46.77L416.75,46.85L420.37,46.12L420.98,46.14L426.41,45.3L427.02,45.44L430.03,44.65L430.64,49.07L431.85,69.04L432.45,69.12L454.76,71.41L455.36,71.25L456.57,71.48L457.17,71.35L458.38,71.51L458.98,71.62L463.82,71.48L464.42,71.62L468.64,71.72L469.24,71.8L470.45,71.75L471.05,53.4L472.87,48.81L473.47,48.43L475.28,46.71L475.88,46.33L478.9,45.01L479.5,44.74L486.14,43.04L486.75,42.74L488.56,42.39L489.16,42.14L490.97,42.12L491.58,42.04L495.81,41.55L496.41,41.37L497.01,41.14L497.62,42.93L498.82,46.94L499.43,47.5L501.24,47.42L501.84,47.6L509.09,48.65L509.69,48.29L511.51,48.71L512.11,48.37L514.52,49.04L515.13,48.81L516.33,49.04L516.94,48.68L522.37,49.09L522.97,48.65L525.99,48.91L526.6,48.58L531.42,48.69L532.03,48.52L534.44,48.66L535.04,48.68L536.86,48.51L537.46,48.31L538.06,48.35L538.66,44.49L541.68,41.41L542.29,40.47L543.5,39.6L544.11,39.13L547.72,33.84L548.33,33.05L549.53,32.28L550.14,31.54L550.74,30.09L551.34,31.01L553.15,28.92L553.76,29.06L555.57,27.85L556.17,28.04L556.77,27.95L557.38,26.81L559.79,27.93L560.39,27.46L561,28.87L561.6,28.19L564.62,26.47" style="vector-effect: none; fill: none; stroke: rgb(182, 232, 128); stroke-opacity: 1; stroke-width: 2px; opacity: 1;"/></g><g class="points"/><g class="text"/></g><g class="trace scatter tracea2c41f" style="stroke-miterlimit: 2; opacity: 1;"><g class="fills"/><g class="errorbars"/><g class="lines"><path class="js-line" d="M0.45,67.63L1.65,47.39L2.25,43.47L3.45,39.73L4.05,39.02L4.66,39.15L5.26,37.76L5.86,37.85L6.46,36.49L7.67,37.85L8.27,35.66L9.47,38.99L10.07,38.19L10.68,38.82L11.28,37.62L11.88,37.83L12.49,37.06L13.09,38.62L13.7,37.06L14.9,39.32L15.51,40.01L16.71,38.6L17.31,42.56L17.92,37.78L18.52,38.55L19.12,39.19L20.33,39.37L20.93,39.54L23.95,40.72L24.56,39.04L25.16,39.92L25.76,39.45L28.18,40.03L28.78,39.13L29.99,39.24L30.59,38.42L31.8,43.45L32.4,38.42L33,37.85L33.61,38.93L35.41,39.75L36.02,38.71L36.62,38.8L37.22,37.88L37.83,39.06L38.43,38.26L39.64,39.19L40.24,38.66L40.85,39.3L41.45,38.6L42.05,39.49L42.66,38.93L45.07,39.3L45.67,38.4L46.88,36.39L47.49,36.78L48.09,37.04L48.69,36.39L50.5,38.13L51.11,37.78L51.71,38.33L52.31,37.76L54.13,38.33L54.73,37.99L55.94,36.87L56.54,37.11L58.95,37.16L59.56,34.62L60.77,37.34L61.37,35.96L61.97,37.34L62.58,36.83L64.39,36.8L64.99,36.92L66.2,36.71L66.8,36.87L69.83,35.61L70.43,36.35L71.64,35.96L72.24,34.72L72.84,35.63L73.45,35.11L74.05,31.85L74.66,35.36L75.26,34.75L75.86,35.26L78.28,35.56L78.88,35.36L80.69,34.9L81.3,34.88L83.72,34.62L84.32,34.52L87.34,34.49L87.94,62.9L88.55,76.33L89.15,75.91L89.75,75.44L93.37,72.36L93.97,71.9L95.78,70.71L96.39,70.52L99.4,69.58L100,69.24L101.21,67.87L101.81,69.01L106.64,67.6L107.24,67.66L111.47,66.92L112.07,66.29L113.28,66.83L113.88,66.58L115.09,66.52L115.69,65.57L116.9,66.39L117.5,66.23L126.56,65.65L127.16,62.97L128.36,42.41L128.97,41.04L130.78,38.66L131.38,37.9L133.19,37.16L133.8,36.66L138.02,35.11L138.63,34.15L139.23,34.67L139.84,34.02L141.04,34.26L141.64,33.78L145.87,32.72L146.47,32.39L147.08,32.17L147.68,30.09L148.89,31.71L149.49,31.71L150.7,31.36L151.3,29.5L152.51,28.45L153.11,29.8L153.71,29.72L154.32,50.39L155.53,52.33L156.13,52.38L157.33,52.54L157.94,51.73L159.14,53.2L159.74,53.33L170,54.04L170.61,52.38L171.81,54.31L172.42,54.26L179.05,54.29L179.65,54.56L181.46,54.39L182.07,54.44L182.67,54.39L183.27,52.94L184.48,54.54L185.08,54.49L186.29,54.41L186.89,51.84L188.1,54.59L188.7,54.56L191.72,54.61L192.32,53.43L193.53,54.46L194.13,48.28L195.34,32.39L195.94,29.97L197.15,25.96L197.75,25.6L200.16,23.91L200.77,24.68L201.37,23.92L201.98,24.36L204.99,23.34L205.6,23.24L207.41,22.63L208.01,22.43L211.63,21.37L212.23,21.18L213.44,19.94L214.05,20.32L215.25,19.72L215.86,19.65L217.07,19.74L217.67,19.08L219.48,16.53L220.08,16.28L220.69,15.66L221.29,29.44L222.5,46.46L223.1,46.01L223.7,45.92L224.3,46.92L224.91,46.51L225.51,47.53L227.92,47.93L228.52,47.05L229.73,48.06L230.33,48.32L235.77,48.77L236.37,48.78L238.78,49.34L239.38,49.25L241.19,49.24L241.8,47.99L243,49.36L243.61,48.74L244.21,49.43L244.81,48.94L247.83,49.54L248.43,50.16L249.64,50.24L250.24,49.04L251.45,50.21L252.05,50.3L252.65,50.27L253.26,49.48L254.46,50.53L255.07,50.59L258.69,50.53L259.29,50.67L261.1,50.62L261.7,28.68L263.52,20.9L264.12,20.07L266.54,16.5L267.14,17.38L270.15,14.32L270.76,14.4L271.36,13.34L271.97,14.16L272.57,14.1L273.17,13.14L274.99,13.32L275.59,12.57L276.8,12.97L277.4,12.57L282.24,11.55L282.84,10.5L288.28,10.5L288.88,38.99L290.09,42.83L290.7,42.51L291.9,43.23L292.51,43.02L294.92,44.15L295.53,44.21L296.13,44.39L296.73,43.47L297.94,44.37L298.54,44.47L299.14,43.4L299.75,44.62L302.16,44.76L302.76,44.6L304.57,44.87L305.18,45.15L318.45,45.77L319.06,44.8L320.26,45.8L320.87,45.87L325.09,45.44L325.7,46.21L328.71,46.04L329.32,30.47L330.52,17.13L331.13,15.84L335.35,10.5L335.95,10.91L337.76,10.5L338.37,10.5L355.89,10.5L356.49,33.27L357.69,34.54L358.3,34.36L358.9,33.27L359.51,34.72L364.33,36.3L364.93,35.81L366.14,36.61L366.74,36.39L370.36,37.2L370.96,37.02L375.18,37.53L375.79,37.67L383.02,37.99L383.63,35.66L384.84,38.22L385.45,38.03L387.86,38.4L388.46,37.97L389.66,38.51L390.27,38.46L390.87,38.55L391.48,37.85L392.08,38.77L392.68,38.35L393.29,38.66L396.3,38.55L396.9,17.57L398.71,10.5L399.32,10.5L430.71,10.5L431.32,27.53L432.52,28.7L433.12,26.03L434.33,29.43L434.93,29.66L437.35,29.97L437.95,29.25L439.76,31.07L440.36,31.07L440.97,31.07L441.57,28.19L442.77,31.27L443.38,31.42L444.59,31.48L445.19,29.47L445.79,31.77L446.39,31.39L447,31.8L448.2,31.88L448.8,31.71L451.82,32.17L452.42,32.22L453.03,32.42L453.63,30.3L454.84,32.31L455.44,32.22L456.65,32.22L457.25,31.01L458.45,32.19L459.06,32.5L468.72,32.89L469.32,30.98L470.53,32.89L471.13,12.68L472.34,10.5L472.94,10.5L564.7,10.5" style="vector-effect: none; fill: none; stroke: rgb(255, 151, 255); stroke-opacity: 1; stroke-width: 2px; opacity: 1;"/></g><g class="points"/><g class="text"/></g><g class="trace scatter trace345633" style="stroke-miterlimit: 2; opacity: 1;"><g class="fills"/><g class="errorbars"/><g class="lines"><path class="js-line" d="M0.52,108.31L1.72,93.1L2.32,90.99L3.53,88.37L4.13,88.82L6.54,86.13L7.14,87.51L9.55,89.28L10.15,88.9L10.75,89.34L11.36,88.48L13.77,89.06L14.37,90.11L16.79,90.06L17.39,93L18.6,89.87L19.2,90.76L22.82,91.82L23.43,92.29L27.65,90.84L28.25,91.22L30.66,90.48L31.27,91.42L31.87,93.75L32.48,89.95L33.08,89.58L33.68,90.66L36.1,90.84L36.7,90.35L37.3,89.9L37.91,90.71L39.11,90.84L39.71,90.86L41.53,90.4L42.13,91.09L43.34,91.19L43.94,91.12L45.75,90.45L46.35,89.31L47.56,88.98L48.17,89.17L49.37,89.09L49.98,90.14L59.03,89.77L59.63,89.98L64.47,89.36L65.07,89.87L66.88,89.42L67.48,89.5L69.3,88.59L69.9,89.12L71.71,88.87L72.32,88.45L74.73,88.57L75.33,88.26L77.75,88.73L78.35,88.06L80.17,88.31L80.77,88.12L85.6,87.69L86.21,87.89L86.81,88.03L87.41,90.86L88.62,122.15L89.22,121.68L93.45,118.88L94.05,118.61L105.51,116.02L106.11,116.14L112.15,115.43L112.75,115.39L126.63,114.87L127.24,111.01L128.44,95.55L129.04,94.3L132.67,91.89L133.27,91.84L135.68,90.74L136.29,90.53L145.34,87.86L145.94,87.95L151.38,86.02L151.98,84.88L153.79,85.32L154.4,102.89L156.2,104.27L156.81,104.47L159.82,104.96L160.42,105.84L161.03,104.96L161.64,105.87L166.46,105.93L167.06,106.28L170.68,106.34L171.28,106.54L173.09,106.57L173.7,106.48L193.6,107.08L194.2,99.8L195.41,88.17L196.01,85.99L197.22,83.13L197.82,82.68L198.43,82.12L199.03,82.73L201.45,81.31L202.05,81.49L205.67,80.42L206.27,80.32L215.33,77.6L215.93,77.78L217.14,77.57L217.74,76.81L219.56,75.14L220.16,74.86L220.76,75.26L221.36,87.92L222.57,100.08L223.18,100.13L228.6,101.25L229.2,101.25L231.61,101.68L232.22,101.7L235.84,102.08L236.44,102.09L238.25,102.54L238.85,102.31L261.18,103.36L261.78,84.57L263.59,78.96L264.2,78.05L269.02,74.49L269.63,74.23L272.04,73.34L272.64,73.09L274.46,72.21L275.06,72.36L281.71,70.63L282.31,70.55L287.15,69.24L287.75,69.07L288.36,69.24L288.96,94.07L290.17,96.65L290.77,97.12L302.24,98.68L302.84,98.72L305.85,98.85L306.46,99.04L308.87,99.17L309.48,99.15L311.29,99.38L311.89,99L313.7,99.42L314.3,99.47L328.79,99.67L329.39,85.7L330.6,75.44L331.2,74.51L334.82,70.79L335.43,70.25L337.23,69.66L337.84,69.32L342.07,67.17L342.67,67.32L345.09,66.02L345.69,65.88L349.31,64.33L349.92,64.43L354.75,63.51L355.36,62.96L355.96,68.43L356.56,88.93L358.37,89.77L358.98,89.93L360.79,90.61L361.39,90.84L363.8,91.37L364.4,91.45L368.62,92.07L369.23,91.94L375.86,92.62L376.46,92.48L378.88,92.86L379.48,92.74L396.38,93.38L396.98,75.1L398.79,69.75L399.39,69.35L401.81,66.92L402.41,66.78L406.03,64.57L406.64,64.26L408.45,63.74L409.05,63.33L410.26,63.05L410.86,62.61L415.09,61.78L415.69,60.97L418.71,60.86L419.32,60.54L424.15,59.44L424.75,59.74L426.56,59.21L427.16,59.39L429.58,58.37L430.18,58.75L431.99,84.21L432.6,84.41L438.03,85.8L438.63,85.9L441.04,85.88L441.64,86.73L442.85,86.46L443.45,86.55L445.87,86.7L446.47,86.63L448.88,86.88L449.48,86.94L450.69,86.94L451.29,87.4L453.1,86.94L453.7,87.51L454.91,86.7L455.51,87.25L457.93,87.43L458.53,87.57L465.17,87.72L465.77,87.95L470,87.75L470.6,88L471.81,68.43L472.41,66.45L476.03,62.06L476.64,61.61L479.05,60.6L479.66,60.21L484.48,58.07L485.09,58.11L489.31,56.74L489.92,56.8L495.95,55.86L496.56,55.12L497.16,55.31L497.77,59.58L498.97,64.14L499.58,64.34L501.39,65.02L502,64.99L512.86,66.39L513.47,66.29L515.88,66.63L516.49,66.44L526.74,66.61L527.35,66.58L531.57,66.33L532.18,66.56L533.99,66.48L534.59,66.36L537.61,66.17L538.21,65.39L539.42,61.63L540.02,60.62L541.23,58.79L541.84,57.87L543.65,55.39L544.25,54.88L549.68,46.11L550.29,45.68L551.49,44.94L552.1,44.49L553.3,43.47L553.91,43.3L555.72,41.84L556.32,42.98L557.53,41.02L558.13,41.71L559.33,42.04L559.94,42.24L560.54,41.8L561.15,43.29L563.56,40.65L564.17,41.16L564.77,39.92" style="vector-effect: none; fill: none; stroke: rgb(254, 203, 82); stroke-opacity: 1; stroke-width: 2px; opacity: 1;"/></g><g class="points"/><g class="text"/></g></g></g></g><path class="xlines-above crisp" d="M0,0" style="fill: none;"/><path class="ylines-above crisp" d="M0,0" style="fill: none;"/><g class="overlines-above"/><g class="xaxislayer-above"><g class="xtick"><text text-anchor="middle" x="0" y="273" transform="translate(162.12,0)" style="font-family: 'Times New Roman'; font-size: 12px; fill: rgb(0, 0, 0); fill-opacity: 1; white-space: pre; opacity: 1;">5e+6</text></g><g class="xtick"><text text-anchor="middle" x="0" y="273" style="font-family: 'Times New Roman'; font-size: 12px; fill: rgb(0, 0, 0); fill-opacity: 1; white-space: pre; opacity: 1;" transform="translate(274.47,0)">1e+7</text></g><g class="xtick"><text text-anchor="middle" x="0" y="273" style="font-family: 'Times New Roman'; font-size: 12px; fill: rgb(0, 0, 0); fill-opacity: 1; white-space: pre; opacity: 1;" transform="translate(386.82,0)">2e+7</text></g><g class="xtick"><text text-anchor="middle" x="0" y="273" style="font-family: 'Times New Roman'; font-size: 12px; fill: rgb(0, 0, 0); fill-opacity: 1; white-space: pre; opacity: 1;" transform="translate(499.17,0)">2e+7</text></g><g class="xtick"><text text-anchor="middle" x="0" y="273" style="font-family: 'Times New Roman'; font-size: 12px; fill: rgb(0, 0, 0); fill-opacity: 1; white-space: pre; opacity: 1;" transform="translate(611.52,0)">3e+7</text></g></g><g class="yaxislayer-above"><g class="ytick"><text text-anchor="end" x="49" y="4.199999999999999" transform="translate(0,247.29)" style="font-family: 'Times New Roman'; font-size: 12px; fill: rgb(0, 0, 0); fill-opacity: 1; white-space: pre; opacity: 1;">1e+5</text></g><g class="ytick"><text text-anchor="end" x="49" y="4.199999999999999" style="font-family: 'Times New Roman'; font-size: 12px; fill: rgb(0, 0, 0); fill-opacity: 1; white-space: pre; opacity: 1;" transform="translate(0,228.61)">2e+5</text></g><g class="ytick"><text text-anchor="end" x="49" y="4.199999999999999" style="font-family: 'Times New Roman'; font-size: 12px; fill: rgb(0, 0, 0); fill-opacity: 1; white-space: pre; opacity: 1;" transform="translate(0,203.92)">5e+5</text></g><g class="ytick"><text text-anchor="end" x="49" y="4.199999999999999" style="font-family: 'Times New Roman'; font-size: 12px; fill: rgb(0, 0, 0); fill-opacity: 1; white-space: pre; opacity: 1;" transform="translate(0,185.24)">1e+6</text></g><g class="ytick"><text text-anchor="end" x="49" y="4.199999999999999" style="font-family: 'Times New Roman'; font-size: 12px; fill: rgb(0, 0, 0); fill-opacity: 1; white-space: pre; opacity: 1;" transform="translate(0,166.56)">2e+6</text></g><g class="ytick"><text text-anchor="end" x="49" y="4.199999999999999" style="font-family: 'Times New Roman'; font-size: 12px; fill: rgb(0, 0, 0); fill-opacity: 1; white-space: pre; opacity: 1;" transform="translate(0,141.87)">5e+6</text></g><g class="ytick"><text text-anchor="end" x="49" y="4.199999999999999" style="font-family: 'Times New Roman'; font-size: 12px; fill: rgb(0, 0, 0); fill-opacity: 1; white-space: pre; opacity: 1;" transform="translate(0,123.19)">1e+7</text></g><g class="ytick"><text text-anchor="end" x="49" y="4.199999999999999" style="font-family: 'Times New Roman'; font-size: 12px; fill: rgb(0, 0, 0); fill-opacity: 1; white-space: pre; opacity: 1;" transform="translate(0,104.50999999999999)">2e+7</text></g><g class="ytick"><text text-anchor="end" x="49" y="4.199999999999999" style="font-family: 'Times New Roman'; font-size: 12px; fill: rgb(0, 0, 0); fill-opacity: 1; white-space: pre; opacity: 1;" transform="translate(0,79.82)">5e+7</text></g><g class="ytick"><text text-anchor="end" x="49" y="4.199999999999999" style="font-family: 'Times New Roman'; font-size: 12px; fill: rgb(0, 0, 0); fill-opacity: 1; white-space: pre; opacity: 1;" transform="translate(0,61.14)">1e+8</text></g></g><g class="overaxes-above"/></g></g><g class="polarlayer"/><g class="smithlayer"/><g class="ternarylayer"/><g class="geolayer"/><g class="funnelarealayer"/><g class="pielayer"/><g class="iciclelayer"/><g class="treemaplayer"/><g class="sunburstlayer"/><g class="glimages"/><defs id="topdefs-701484"><g class="clips"/></defs><g class="layer-above"><g class="imagelayer"/><g class="shapelayer"/></g><g class="infolayer"><g class="g-gtitle"><text class="gtitle" x="312.5" y="25" text-anchor="middle" dy="0em" style="opacity: 1; font-family: 'Times New Roman'; font-size: 17px; fill: rgb(0, 0, 0); fill-opacity: 1; white-space: pre;">Matrix 0, Sensor 7</text></g><g class="g-xtitle" transform="translate(0,-2.8000000000000114)"><text class="xtitle" x="332.5" y="299.8" text-anchor="middle" style="opacity: 1; font-family: 'Times New Roman'; font-size: 14px; fill: rgb(0, 0, 0); fill-opacity: 1; white-space: pre;">Time since power on (ms)</text></g><g class="g-ytitle" transform="translate(6.994140625,0)"><text class="ytitle" transform="rotate(-90,5.506250000000001,155)" x="5.506250000000001" y="155" text-anchor="middle" style="opacity: 1; font-family: 'Times New Roman'; font-size: 14px; fill: rgb(0, 0, 0); fill-opacity: 1; white-space: pre;">Resistance (Ohms)</text></g></g></svg>