<svg class="main-svg" xmlns="http://www.w3.org/2000/svg" xmlns:xlink="http://www.w3.org/1999/xlink" width="625" height="300" style="" viewBox="0 0 625 300"><rect x="0" y="0" width="625" height="300" style="fill: rgb(255, 255, 255); fill-opacity: 1;"/><defs id="defs-a370e2"><g class="clips"><clipPath id="clipa370e2xyplot" class="plotclip"><rect width="562" height="210"/></clipPath><clipPath class="axesclip" id="clipa370e2x"><rect x="53" y="0" width="562" height="300"/></clipPath><clipPath class="axesclip" id="clipa370e2y"><rect x="0" y="50" width="625" height="210"/></clipPath><clipPath class="axesclip" id="clipa370e2xy"><rect x="53" y="50" width="562" height="210"/></clipPath></g><g class="gradients"/><g class="patterns"/></defs><g class="bglayer"><rect class="bg" x="53" y="50" width="562" height="210" style="fill: rgb(229, 236, 246); fill-opacity: 1; stroke-width: 0;"/></g><g class="layer-below"><g class="imagelayer"/><g class="shapelayer"/></g><g class="cartesianlayer"><g class="subplot xy"><g class="layer-subplot"><g class="shapelayer"/><g class="imagelayer"/></g><g class="minor-gridlayer"><g class="x"/><g class="y"/></g><g class="gridlayer"><g class="x"><path class="xgrid crisp" transform="translate(73.91,0)" d="M0,50v210" style="stroke: rgb(255, 255, 255); stroke-opacity: 1; stroke-width: 1px;"/><path class="xgrid crisp" transform="translate(183.06,0)" d="M0,50v210" style="stroke: rgb(255, 255, 255); stroke-opacity: 1; stroke-width: 1px;"/><path class="xgrid crisp" transform="translate(292.2,0)" d="M0,50v210" style="stroke: rgb(255, 255, 255); stroke-opacity: 1; stroke-width: 1px;"/><path class="xgrid crisp" transform="translate(401.35,0)" d="M0,50v210" style="stroke: rgb(255, 255, 255); stroke-opacity: 1; stroke-width: 1px;"/><path class="xgrid crisp" transform="translate(510.49,0)" d="M0,50v210" style="stroke: rgb(255, 255, 255); stroke-opacity: 1; stroke-width: 1px;"/></g><g class="y"><path class="ygrid crisp" transform="translate(0,245.04)" d="M53,0h562" style="stroke: rgb(255, 255, 255); stroke-opacity: 1; stroke-width: 1px;"/><path class="ygrid crisp" transform="translate(0,230)" d="M53,0h562" style="stroke: rgb(255, 255, 255); stroke-opacity: 1; stroke-width: 1px;"/><path class="ygrid crisp" transform="translate(0,218.34)" d="M53,0h562" style="stroke: rgb(255, 255, 255); stroke-opacity: 1; stroke-width: 1px;"/><path class="ygrid crisp" transform="translate(0,208.81)" d="M53,0h562" style="stroke: rgb(255, 255, 255); stroke-opacity: 1; stroke-width: 1px;"/><path class="ygrid crisp" transform="translate(0,200.75)" d="M53,0h562" style="stroke: rgb(255, 255, 255); stroke-opacity: 1; stroke-width: 1px;"/><path class="ygrid crisp" transform="translate(0,193.77)" d="M53,0h562" style="stroke: rgb(255, 255, 255); stroke-opacity: 1; stroke-width: 1px;"/><path class="ygrid crisp" transform="translate(0,187.61)" d="M53,0h562" style="stroke: rgb(255, 255, 255); stroke-opacity: 1; stroke-width: 1px;"/><path class="ygrid crisp" transform="translate(0,182.1)" d="M53,0h562" style="stroke: rgb(255, 255, 255); stroke-opacity: 1; stroke-width: 1px;"/><path class="ygrid crisp" transform="translate(0,145.87)" d="M53,0h562" style="stroke: rgb(255, 255, 255); stroke-opacity: 1; stroke-width: 1px;"/><path class="ygrid crisp" transform="translate(0,124.67)" d="M53,0h562" style="stroke: rgb(255, 255, 255); stroke-opacity: 1; stroke-width: 1px;"/><path class="ygrid crisp" transform="translate(0,109.64)" d="M53,0h562" style="stroke: rgb(255, 255, 255); stroke-opacity: 1; stroke-width: 1px;"/><path class="ygrid crisp" transform="translate(0,97.97)" d="M53,0h562" style="stroke: rgb(255, 255, 255); stroke-opacity: 1; stroke-width: 1px;"/><path class="ygrid crisp" transform="translate(0,88.44)" d="M53,0h562" style="stroke: rgb(255, 255, 255); stroke-opacity: 1; stroke-width: 1px;"/><path class="ygrid crisp" transform="translate(0,80.38)" d="M53,0h562" style="stroke: rgb(255, 255, 255); stroke-opacity: 1; stroke-width: 1px;"/><path class="ygrid crisp" transform="translate(0,73.4)" d="M53,0h562" style="stroke: rgb(255, 255, 255); stroke-opacity: 1; stroke-width: 1px;"/><path class="ygrid crisp" transform="translate(0,67.25)" d="M53,0h562" style="stroke: rgb(255, 255, 255); stroke-opacity: 1; stroke-width: 1px;"/><path class="ygrid crisp" transform="translate(0,61.74)" d="M53,0h562" style="stroke: rgb(255, 255, 255); stroke-opacity: 1; stroke-width: 1px;"/></g></g><g class="zerolinelayer"/><g class="layer-between"><g class="shapelayer"/><g class="imagelayer"/></g><path class="xlines-below"/><path class="ylines-below"/><g class="overlines-below"/><g class="xaxislayer-below"/><g class="yaxislayer-below"/><g class="overaxes-below"/><g class="overplot"><g class="xy" transform="translate(53,50)" clip-path="url(#clipa370e2xyplot)"><g class="scatterlayer mlayer"><g class="trace scatter tracef08479" style="stroke-miterlimit: 2; opacity: 1;"><g class="fills"/><g class="errorbars"/><g class="lines"><path class="js-line" d="M0,10.5L561.85,10.5" style="vector-effect: none; fill: none; stroke: rgb(99, 110, 250); stroke-opacity: 1; stroke-width: 2px; opacity: 1;"/></g><g class="points"/><g class="text"/></g><g class="trace scatter trace6b1d0c" style="stroke-miterlimit: 2; opacity: 1;"><g class="fills"/><g class="errorbars"/><g class="lines"><path class="js-line" d="M0,183.69L1.62,183.01L2.15,184.09L5.38,182.94L5.91,183.66L6.45,183.19L6.99,183.94L8.06,183.3L8.6,183.19L10.21,182.98L10.75,182.69L11.82,183.3L12.36,182.9L15.05,182.76L15.58,182.25L16.66,182.54L17.19,183.01L18.8,182.61L19.34,182.94L19.88,182.39L20.41,183.16L21.49,182.21L22.02,182.69L23.64,182.8L24.18,182.61L24.71,182.1L25.25,182.83L26.33,182.43L26.86,182.65L28.47,182.25L29.01,182.39L30.08,182.14L30.62,182.06L31.16,182.03L31.69,182.83L32.77,182.87L33.3,181.1L34.38,181.25L34.91,181.21L35.99,181.32L36.53,180.87L39.21,181.14L39.75,181.17L41.9,180.99L42.43,181.14L43.5,181.43L44.04,181.58L45.65,180.99L46.19,181.32L47.26,181.25L47.8,181.32L49.41,180.99L49.95,181.66L52.1,181.06L52.63,181.51L53.71,181.1L54.25,181.32L54.79,180.8L55.32,181.4L60.69,181.17L61.23,181.14L62.3,181.66L62.84,181.66L65.53,181.14L66.06,181.95L67.67,181.55L68.21,182.14L69.29,181.21L69.82,181.81L71.44,181.36L71.97,181.88L74.66,181.88L75.2,182.39L76.81,182.76L77.35,182.58L80.58,181.69L81.12,182.17L85.96,182.06L86.49,182.61L87.57,181.73L88.11,182.25L89.18,181.95L89.72,182.14L94.56,181.47L95.1,181.73L97.25,181.84L97.79,182.21L98.86,181.25L99.4,181.21L99.94,181.84L100.48,181.32L101.01,181.77L102.09,181.36L102.63,181.36L105.32,180.99L105.85,180.99L107.47,181.36L108.01,180.72L111.77,181.81L112.31,181.21L113.92,181.29L114.46,180.57L117.15,180.95L117.68,181.21L118.75,180.87L119.29,181.32L119.83,181.95L120.37,181.06L124.13,181.1L124.66,180.87L126.81,181.06L127.35,181.55L128.43,181.25L128.96,181.47L130.04,181.14L130.58,181.1L131.11,181.4L131.65,180.8L133.8,181.88L134.34,181.69L135.95,181.14L136.49,181.4L137.56,181.69L138.1,181.06L138.64,181.95L139.17,181.25L140.25,181.36L140.78,181.32L141.86,181.55L142.4,181.29L144.01,181.58L144.55,181.29L147.23,181.81L147.77,181.36L149.39,181.66L149.92,181.47L152.08,182.39L152.62,181.55L154.77,180.87L155.3,182.06L156.92,180.53L157.46,180.91L158.53,180.8L159.07,180.84L165.52,180.31L166.06,181.17L167.14,180.08L167.68,180.08L171.44,180.42L171.98,179.77L173.05,180.31L173.59,179.62L174.67,180.61L175.2,180.42L176.82,179.77L177.36,180.04L178.97,180.08L179.51,180.95L181.12,180.23L181.66,180.27L183.28,179.54L183.81,180.68L186.5,180L187.04,180.27L189.73,180.19L190.27,180.76L191.34,180.65L191.88,180.46L196.18,180.57L196.71,180.76L197.79,181.4L198.33,180.57L199.4,180.91L199.94,180.91L202.09,180.91L202.63,180.8L204.24,180.57L204.78,181.36L205.31,181.43L205.85,180.68L206.93,181.02L207.46,180.99L209.08,181.17L209.61,181.32L212.3,181.32L212.84,181.62L214.45,181.02L214.99,180.95L222.51,181.25L223.05,181.84L225.73,181.73L226.27,181.95L227.88,181.29L228.42,181.47L231.11,182.36L231.64,180.42L232.18,181.66L232.72,180.91L234.33,180.65L234.87,181.32L235.41,180.31L235.95,181.51L236.48,180.46L237.03,181.1L238.1,180.72L238.64,180.87L241.87,181.25L242.4,181.55L245.09,180.87L245.63,181.69L248.32,180.76L248.87,181.06L249.94,181.25L250.48,181.17L251.02,180.61L251.56,181.29L252.63,180.99L253.17,180.31L253.71,181.32L254.25,180.31L255.32,181.06L255.86,180.76L257.48,181.1L258.02,180.76L261.78,181.58L262.33,180.53L263.94,181.17L264.48,181.17L268.25,180.65L268.79,181.58L273.63,180.46L274.16,180.87L276.85,180.61L277.4,181.43L280.08,180.87L280.62,181.06L283.31,181.02L283.85,180.99L286.53,181.43L287.07,181.21L288.15,181.55L288.68,181.4L294.6,181.55L295.14,181.92L298.9,181.88L299.44,182.21L301.59,181.92L302.13,182.03L303.2,181.92L303.74,182.72L304.28,181.84L304.82,182.21L305.35,182.32L309.12,181.02L309.66,180.19L311.27,178.72L311.81,178.99L312.88,178.52L313.42,178.29L316.11,178.84L316.65,177.13L318.26,178.41L318.8,178.6L319.87,178.21L320.41,178.41L321.49,178.25L322.03,177.89L322.57,177.25L323.1,177.97L323.64,178.45L324.18,177.77L325.25,178.21L325.79,177.49L326.87,178.01L327.4,178.13L329.02,178.25L329.56,177.05L330.09,176.11L330.63,176.88L331.17,177.05L331.7,176.15L332.78,177.45L333.31,176.68L335.46,175.86L336,176.19L337.07,178.09L337.61,177.61L338.15,177.13L343.52,178.45L344.05,178.41L345.13,178.88L345.66,177.97L347.28,178.6L347.81,179.62L348.89,180.72L349.42,181.21L351.04,181.81L351.57,181.88L353.18,181.81L353.72,181.36L356.95,182.14L357.48,181.92L358.56,182.39L359.09,181.62L363.93,182.8L364.47,182.28L368.23,182.36L368.77,182.21L370.38,182.72L370.92,182.25L371.99,182.83L372.53,182.72L379.52,183.08L380.06,183.12L382.75,183.01L383.29,183.16L389.74,183.16L390.28,182.72L392.43,178.52L392.97,179.69L394.59,178.41L395.12,178.96L396.2,178.48L396.74,178.96L397.27,178.05L397.81,178.45L398.35,178.64L400.5,178.25L401.04,179.27L402.12,179.62L402.66,178.41L403.73,179.27L404.27,178.68L404.81,179.46L405.35,179.07L405.89,179.11L407.51,178.88L408.05,179.69L409.12,179.03L409.66,180.08L411.82,179.62L412.36,179.77L412.89,180.23L413.43,179.46L415.59,179.34L416.13,180.23L417.21,178.72L417.75,179.15L418.82,178.99L419.37,179.27L420.44,179.92L420.98,179.23L421.52,178.8L422.06,179.58L423.13,178.99L423.67,179.46L424.75,178.52L425.29,179.5L425.82,179.42L426.36,181.32L427.44,182.28L427.98,182.54L429.59,182.1L430.13,182.32L431.21,182.17L431.75,182.28L438.74,182.9L439.28,182.76L441.97,183.44L442.51,183.34L447.88,183.19L448.42,183.59L450.57,183.26L451.11,183.77L453.81,183.91L454.34,183.59L457.57,183.84L458.11,184.26L461.87,183.66L462.41,184.12L464.03,183.55L464.56,184.09L465.1,183.37L465.64,181.21L466.72,179.81L467.25,179.85L469.94,178.13L470.48,178.25L472.63,177.93L473.16,177.77L475.85,176.97L476.39,177.77L480.15,177.33L480.69,177.69L481.23,177.49L481.76,178.25L482.3,177.33L482.83,177.93L483.91,177.93L484.45,177.49L487.13,177.89L487.67,177.97L488.75,178.6L489.29,178.41L491.43,177.53L491.97,177.93L492.51,177.21L493.05,177.69L493.58,177.53L495.19,178.13L495.73,177.33L496.27,178.09L496.8,177.57L497.34,177.45L497.88,178.09L498.41,177.61L498.95,177.77L501.64,177.01L502.17,177.45L503.79,177.93L504.33,179.65L505.4,181.55L505.94,181.69L508.08,182.54L508.62,182.61L512.92,182.72L513.46,182.98L517.22,183.34L517.76,183.3L519.38,183.48L519.91,183.41L524.21,183.8L524.75,184.01L526.9,183.69L527.44,184.19L529.05,183.69L529.59,184.26L531.2,184.09L531.74,184.09L534.97,184.33L535.51,184.4L537.66,184.75L538.2,184.68L542.51,184.82L543.04,185.03L543.58,184.51L544.12,181.81L546.27,178.72L546.81,178.56L548.96,178.25L549.5,178.13L550.03,178.13L550.57,179.23L551.11,178.52L551.64,179.31L552.72,178.76L553.25,178.99L555.95,178.88L556.48,178.99L557.02,178.52L557.56,179.11L559.17,178.64L559.71,179.19L561.86,178.76" style="vector-effect: none; fill: none; stroke: rgb(239, 85, 59); stroke-opacity: 1; stroke-width: 2px; opacity: 1;"/></g><g class="points"/><g class="text"/></g><g class="trace scatter tracea74228" style="stroke-miterlimit: 2; opacity: 1;"><g class="fills"/><g class="errorbars"/><g class="lines"><path class="js-line" d="M0.13,10.5L561.99,10.5" style="vector-effect: none; fill: none; stroke: rgb(0, 204, 150); stroke-opacity: 1; stroke-width: 2px; opacity: 1;"/></g><g class="points"/><g class="text"/></g><g class="trace scatter trace11cdcc" style="stroke-miterlimit: 2; opacity: 1;"><g class="fills"/><g class="errorbars"/><g class="lines"><path class="js-line" d="M0.14,189.85L2.29,189.21L2.83,189.11L4.44,189.08L4.98,188.69L10.88,188.63L11.42,188.07L12.5,188.98L13.03,188.72L20.55,188.2L21.09,188.07L22.7,188.14L23.24,188.53L24.31,188.46L24.85,187.54L25.92,188.27L26.46,188.24L30.22,188.04L30.76,188.4L32.37,187.68L32.9,187.68L33.44,186.68L33.98,187.18L34.51,186.51L36.13,186.64L36.66,186.44L39.88,186.68L40.42,186.54L41.49,186.84L42.03,186.88L43.64,186.27L44.18,186.78L45.79,186.57L46.33,186.91L47.4,186.68L47.94,186.17L48.48,187.48L49.01,186.94L49.55,186.71L52.77,186.61L53.31,187.05L54.92,187.01L55.46,187.11L57.61,186.64L58.14,187.18L59.22,186.84L59.75,186.91L61.37,187.15L61.9,187.05L67.81,187.21L68.35,187.61L70.5,187.21L71.03,187.35L74.26,187.31L74.8,188.37L75.33,188.14L75.87,188.76L76.41,188.4L76.95,189.02L78.56,187.97L79.1,187.74L80.71,188.5L81.25,187.97L86.63,187.78L87.17,187.45L89.86,187.84L90.4,187.54L92.01,187.25L92.55,187.45L93.62,187.28L94.16,187.88L95.24,187.28L95.77,187.64L97.92,186.94L98.46,187.08L99,187.45L99.54,186.68L100.61,187.01L101.15,187.35L102.76,186.94L103.3,187.25L107.07,186.51L107.61,187.38L108.14,187.71L108.68,186.94L109.76,186.64L110.29,187.25L111.37,186.74L111.91,187.18L112.45,187.18L112.98,186.24L114.06,186.3L114.6,186.64L118.89,186.57L119.43,187.35L121.58,187.01L122.11,187.05L123.19,186.78L123.73,186.94L126.95,186.57L127.49,186.61L130.18,187.11L130.71,186.84L142.53,187.38L143.07,187.61L151.13,187.58L151.67,188.27L152.75,187.31L153.29,187.41L154.91,186.37L155.44,186.41L157.6,186.64L158.13,186L159.75,186.41L160.28,186.27L162.44,186.71L162.97,186.17L163.51,186.37L164.05,185.45L165.12,186.24L165.66,186L166.74,186.34L167.27,185.59L169.42,185.76L169.96,185.59L172.11,186.13L172.65,185.52L173.73,185.59L174.26,185.38L175.88,185.55L176.42,185.21L178.03,185.9L178.57,185.69L180.72,185.69L181.26,186.03L182.34,185.76L182.88,185.45L187.18,185.24L187.72,185.1L189.33,185.52L189.87,185.52L191.48,186.88L192.02,186.27L195.24,186.3L195.78,186.34L201.15,186.68L201.69,186.17L203.3,186.37L203.84,186.47L205.45,187.35L205.99,186.88L208.14,186.88L208.68,187.41L209.75,187.08L210.29,187.08L212.44,186.88L212.97,187.18L223.18,187.38L223.72,187.58L226.41,187.35L226.94,187.38L232.32,187.15L232.86,186.61L237.16,186.2L237.7,186.71L238.24,187.28L238.77,186.68L242.54,186.98L243.08,186.51L244.16,186.68L244.69,186.47L245.77,186.91L246.31,186.64L247.92,186.84L248.46,186.51L249.54,186.64L250.08,186.84L251.69,186.71L252.23,186.78L253.3,186.61L253.85,186.78L256,186.44L256.54,186.68L260.31,186.61L260.85,186.37L262.46,186.64L263,186.34L264.61,186.91L265.15,186.47L267.84,186.64L268.38,186.27L269.46,187.58L270,187.35L271.61,186.13L272.15,186.54L286.67,187.31L287.21,187.74L288.28,187.38L288.82,187.81L290.43,187.35L290.97,187.68L299.04,187.94L299.58,188.33L301.19,188.2L301.73,187.97L303.88,188.17L304.42,187.84L307.64,188.14L308.18,187.64L311.41,183.37L311.95,183.94L312.48,183.98L313.02,183.26L315.18,183.37L315.71,184.16L316.79,182.06L317.32,182.69L319.47,183.26L320.01,182.9L320.55,183.8L321.09,183.34L321.62,183.73L322.7,182.39L323.24,183.12L325.39,182.36L325.93,182.25L328.62,183.48L329.15,182.47L330.23,180.61L330.77,181.51L331.3,181.43L331.84,180.5L332.91,181.84L333.45,182.21L334.52,179.15L335.06,180L336.14,180.87L336.67,183.01L338.28,181.88L338.82,182.36L340.43,182.9L340.97,182.39L343.12,183.62L343.65,182.9L345.27,183.52L345.8,183.59L346.34,183.69L346.87,182.98L347.41,183.62L347.95,186L350.1,187.18L350.63,186.98L351.71,187.21L352.24,187.08L355.47,188.3L356.01,187.48L358.7,187.91L359.23,188.2L360.84,188.17L361.38,188.01L362.99,188.17L363.53,188.14L364.61,188.37L365.14,188.59L366.75,188.5L367.29,188.76L368.37,188.5L368.9,188.43L372.13,188.79L372.67,188.56L373.74,188.89L374.28,188.66L374.82,189.27L375.36,188.59L376.97,189.85L377.51,189.37L379.66,189.18L380.19,189.34L386.65,189.5L387.19,188.89L388.26,189.34L388.8,188.92L389.87,189.11L390.41,187.88L392.03,184.4L392.57,183.73L393.11,184.61L393.64,183.59L394.18,183.37L394.72,184.26L396.33,182.94L396.87,183.26L399.56,184.58L400.1,183.59L401.18,184.16L401.72,184.09L404.41,184.58L404.95,183.84L406.56,184.33L407.1,184.26L411.95,184.89L412.49,184.58L413.57,185.07L414.11,184.47L415.18,184.68L415.72,185.17L416.8,184.37L417.34,184.37L418.96,184.23L419.5,184.82L420.58,185.35L421.12,184.23L423.81,184.19L424.35,184.61L424.89,183.8L425.42,184.72L427.57,188.5L428.11,188.63L429.73,188.07L430.27,188.2L431.35,188.46L431.88,188.27L434.57,188.37L435.11,188.11L436.19,189.05L436.72,188.79L437.8,189.21L438.34,188.92L439.96,189.27L440.49,189.08L442.64,189.14L443.18,189.46L448.56,189.24L449.09,189.46L451.79,189.56L452.33,189.69L455.56,189.37L456.09,189.66L457.71,189.59L458.25,190.19L459.32,189.46L459.86,189.62L461.47,189.91L462.01,190.13L463.62,189.4L464.16,189.75L464.7,189.72L465.24,188.5L466.85,185.38L467.39,184.68L469,183.23L469.54,183.48L470.08,182.9L470.61,183.77L471.69,182.65L472.23,183.12L472.76,182.36L473.3,182.87L473.84,182.32L475.99,181.77L476.52,182.5L482.44,182.25L482.97,182.69L485.12,182.83L485.66,182.8L488.35,183.19L488.88,182.9L490.5,183.62L491.03,182.94L491.57,183.05L492.11,182.25L492.64,182.65L493.18,182.03L495.33,183.23L495.87,182.43L498.02,182.83L498.55,182.65L501.77,182.28L502.31,182.9L503.38,182.5L503.92,183.19L505.54,187.41L506.07,187.74L507.15,188.33L507.68,187.78L508.76,188.2L509.29,188.43L511.44,188.79L511.98,188.98L516.82,189.94L517.36,189.3L520.58,190.13L521.12,189.4L522.2,189.81L522.73,189.72L523.81,190.23L524.35,189.75L528.65,190.48L529.18,189.66L530.8,190.48L531.34,190.38L535.64,190.13L536.18,190.35L539.41,190.6L539.95,190.66L542.11,190.73L542.65,190.38L544.26,187.48L544.79,185.76L546.41,183.98L546.95,184.16L548.56,183.48L549.09,183.69L550.71,183.69L551.24,183.73L553.39,183.77L553.93,184.05L556.62,184.26L557.16,183.62L558.77,184.23L559.31,183.91L561.99,183.87" style="vector-effect: none; fill: none; stroke: rgb(171, 99, 250); stroke-opacity: 1; stroke-width: 2px; opacity: 1;"/></g><g class="points"/><g class="text"/></g><g class="trace scatter tracec52d41" style="stroke-miterlimit: 2; opacity: 1;"><g class="fills"/><g class="errorbars"/><g class="lines"><path class="js-line" d="M0.15,96.96L0.69,96.49L1.22,97.15L2.3,96.06L2.83,96.77L6.06,96.77L6.6,96.68L8.21,96.4L8.74,96.68L10.36,95.97L10.89,96.11L11.96,96.4L12.5,96.21L14.65,95.68L15.19,96.63L16.8,95.92L17.33,96.06L18.95,96.06L19.48,96.02L21.09,95.49L21.63,95.44L22.17,96.21L22.71,95.78L23.24,96.35L24.86,95.25L25.39,95.83L26.47,95.49L27.01,95.68L29.15,94.52L29.69,95.15L31.84,95L32.37,95.05L35.06,93.32L35.59,93.32L36.13,94.37L36.67,93.62L37.74,92.87L38.28,93.77L39.89,93.37L40.43,93.57L41.5,93.72L42.04,94.37L42.57,93.27L43.11,93.67L43.65,93.27L44.19,93.67L44.72,92.97L45.26,94.12L45.8,93.57L46.33,93.67L46.87,93.97L47.4,93.27L49.55,93.97L50.09,93.52L50.63,93.42L51.17,94.22L53.86,93.77L54.39,93.97L58.15,93.97L58.69,94.02L59.22,93.57L59.76,94.22L60.3,93.57L60.83,94.27L61.91,93.62L62.45,94.07L64.06,95L64.6,94.07L72.66,94.22L73.19,94.81L74.8,94.86L75.34,95.1L78.03,95.3L78.57,94.42L80.18,93.87L80.72,94.32L81.8,94.47L82.33,94.17L82.87,94.81L83.41,93.82L83.95,93.92L84.48,95.25L86.1,94.22L86.64,94.56L87.71,94.17L88.25,94.27L89.33,93.52L89.87,94.66L90.94,93.62L91.48,93.57L93.63,93.62L94.17,93.42L94.7,93.87L95.24,93.07L99.01,93.77L99.54,93.02L101.16,93.72L101.69,92.56L103.31,92.97L103.84,93.02L110.3,93.07L110.84,92.41L111.91,94.32L112.45,93.47L113.53,94.12L114.06,92.21L115.14,93.27L115.67,93.52L117.29,93.07L117.82,93.52L119.43,93.27L119.97,93.87L125.35,93.32L125.88,93.92L126.96,93.32L127.49,94.07L128.03,93.82L128.57,94.47L131.25,93.27L131.79,94.37L133.41,94.22L133.94,94.96L134.48,93.52L135.02,94.17L135.55,94.32L137.17,93.87L137.7,94.12L140.93,94.07L141.46,94.27L143.08,94.22L143.61,94.42L145.23,94.27L145.76,94.47L146.84,94.32L147.38,94.22L150.06,95.15L150.6,94.86L153.84,92.77L154.37,93.47L155.98,92.41L156.52,93.47L157.06,93.57L157.6,92.62L158.68,92.67L159.22,93.17L160.83,92.15L161.37,92.15L162.98,92.82L163.52,92L164.59,92.82L165.13,92.62L165.67,92.97L166.2,92.21L167.28,92.67L167.82,91.53L168.89,92.77L169.43,91.53L172.12,91.79L172.66,91.48L173.73,92.62L174.27,92.21L174.81,91.85L175.35,92.97L176.96,91.59L177.5,91.48L178.04,92.26L178.58,91.64L180.19,91.79L180.73,90.75L181.27,92.15L181.81,90.75L182.88,91.33L183.42,91.33L184.5,91.53L185.03,91.59L186.11,91.43L186.65,91.53L187.72,91.38L188.26,91.48L189.87,91.43L190.41,92.72L194.17,93.27L194.71,92.72L196.32,93.12L196.86,93.22L199.54,93.02L200.08,93.47L206.53,93.52L207.07,93.32L209.22,93.87L209.76,93.52L211.37,93.62L211.91,94.12L216.2,93.92L216.74,94.02L221.04,94.12L221.58,93.47L222.65,94.12L223.19,94.17L224.27,93.82L224.8,94.47L226.42,94.32L226.95,94.27L228.03,94.37L228.56,93.92L230.17,94.12L230.71,93.87L231.79,92.72L232.32,93.37L233.4,92.41L233.94,92.72L237.7,92.97L238.24,93.02L239.32,92.87L239.86,93.07L241.47,92.87L242.01,93.42L243.08,91.95L243.62,92.82L246.32,93.02L246.85,91.95L247.93,93.17L248.47,92.72L249.01,93.32L249.55,92.77L251.16,92.72L251.7,92.51L253.31,93.02L253.85,92.62L257.09,93.32L257.62,92.87L261.93,92.72L262.47,93.02L265.16,93.12L265.7,92.62L267.85,93.27L268.39,92.62L268.93,94.27L269.47,93.82L270,94.12L271.62,93.17L272.16,93.72L273.23,93.37L273.77,93.42L275.38,93.42L275.92,93.67L278.07,93.47L278.62,94.07L279.69,93.42L280.23,93.87L281.3,93.72L281.84,93.97L283.45,93.47L283.99,94.12L286.14,93.67L286.68,94.22L287.75,94.42L288.29,94.47L289.37,94.42L289.9,94.07L290.44,93.47L290.98,94.22L292.05,94.71L292.59,93.97L294.21,94.66L294.74,94.66L295.28,94.96L295.82,94.32L297.97,94.42L298.51,94.37L300.12,94.61L300.66,94.61L301.74,94.96L302.27,94.66L303.89,95.39L304.42,94.42L306.04,94.91L306.57,94.86L308.18,94.81L308.72,93.72L309.26,93.52L309.8,91.95L311.41,89.9L311.95,90.59L312.49,90.96L313.02,89.74L314.1,89.79L314.64,89.95L316.25,90.48L316.79,88.1L317.33,88.21L317.86,89.84L320.55,90.27L321.09,89.57L321.63,90.54L322.17,88.04L323.25,88.54L323.78,89.47L324.86,88.7L325.4,88.81L329.16,89.47L329.7,88.37L330.24,85.17L330.77,87.31L331.31,87.93L331.84,86.25L332.92,88.54L333.46,87.82L333.99,87.37L334.53,84.52L336.14,85.93L336.68,87.87L337.22,88.48L337.75,87.87L339.36,88.87L339.9,89.25L341.51,89.09L342.05,89.57L343.12,89.79L343.66,89.84L344.2,89.57L344.73,90.54L346.88,89.41L347.42,90.54L348.49,93.22L349.03,94.02L353.33,94.22L353.86,94.91L355.48,95.44L356.01,93.97L356.55,95.34L357.09,94.76L357.63,94.91L358.7,94.76L359.24,95.1L359.77,94.91L360.31,95.73L361.39,95.15L361.92,95.05L362.46,96.02L363,95.05L366.76,95.78L367.3,95.44L368.91,95.3L369.45,95.63L372.67,95.87L373.21,95.59L374.29,95.68L374.82,95.34L376.97,95.87L377.51,96.4L378.59,96.06L379.13,96.3L382.89,95.92L383.43,96.59L385.58,95.87L386.12,96.25L387.19,96.11L387.73,96.44L389.88,96.21L390.42,94.66L392.04,89.63L392.58,89.47L395.26,89.03L395.8,88.48L399.57,89.41L400.11,89.36L401.72,90L402.26,89.74L402.8,90.11L403.34,89.09L405.49,90L406.03,89.79L406.57,90.11L407.11,89.47L408.19,90.59L408.73,89.95L409.27,89.84L409.8,90.54L411.42,90.8L411.96,90.64L412.5,90.27L413.04,90.91L413.58,90.91L414.11,89.95L415.73,90.85L416.27,90.22L418.43,88.76L418.97,90.22L420.59,91.17L421.13,90.11L423.28,89.9L423.81,89.79L424.35,90.38L424.89,89.47L425.97,91.74L426.5,94.12L427.04,94.17L427.58,95.25L428.66,95.15L429.2,95.15L430.28,95L430.81,95.44L432.43,95.44L432.97,94.81L434.04,95.34L434.58,94.96L436.73,96.25L437.27,96.21L438.35,96.25L438.88,95.68L439.42,95.3L439.96,95.92L441.57,96.44L442.11,96.25L445.87,96.35L446.41,96.16L457.17,96.87L457.71,97.1L458.79,96.35L459.33,97.1L460.94,96.59L461.48,97.06L462.01,96.49L462.55,97.01L463.09,97.15L464.71,96.87L465.24,95.3L466.32,92.1L466.86,92.1L467.93,90.38L468.47,90.43L470.08,89.36L470.62,89.57L472.77,88.87L473.31,88.87L474.92,87.93L475.46,87.87L476.53,89.2L477.07,88.21L478.14,88.92L478.68,88.98L480.3,88.65L480.83,88.92L482.44,88.54L482.98,89.2L484.06,88.92L484.59,89.09L486.2,89.09L486.74,89.2L489.43,89.36L489.97,88.98L491.04,89.2L491.58,88.76L492.11,88.1L492.65,88.87L494.26,88.81L494.8,89.68L495.87,88.87L496.41,88.26L496.95,89.36L497.48,89.09L498.02,88.98L501.78,88.54L502.32,89.25L502.85,88.59L503.39,89.03L503.93,88.98L505.01,94.12L505.54,94.71L506.08,94.86L506.62,95.92L507.69,95.05L508.23,96.02L509.84,95.49L510.38,95.63L511.45,95.78L511.99,95.54L513.6,96.11L514.14,96.02L518.98,96.77L519.52,95.83L521.67,97.43L522.2,96.87L524.89,96.82L525.43,97.34L526.5,96.25L527.04,97.06L530.27,97.2L530.81,96.68L531.88,97.01L532.42,97.1L532.96,97.29L533.5,96.68L535.11,97.15L535.65,97.24L536.72,97.61L537.26,97.48L537.8,98.26L538.34,97.29L540.5,97.34L541.03,97.24L542.65,97.94L543.19,97.94L544.8,91.64L545.34,91.43L546.42,90.32L546.95,90.48L549.1,89.79L549.64,90.16L550.18,89.57L550.71,90.85L551.79,90.11L552.32,90.43L552.86,90.85L553.4,90.16L555.01,90.06L555.55,90.64L556.09,90.54L556.63,91.59L557.16,90.27L557.7,90.54L558.24,90.27L559.85,90.59L560.39,90.27L561.46,90.16L562,90.22" style="vector-effect: none; fill: none; stroke: rgb(255, 161, 90); stroke-opacity: 1; stroke-width: 2px; opacity: 1;"/></g><g class="points"/><g class="text"/></g><g class="trace scatter trace303aac" style="stroke-miterlimit: 2; opacity: 1;"><g class="fills"/><g class="errorbars"/><g class="lines"><path class="js-line" d="M0.21,107.5L3.97,107.5L4.51,107.23L7.19,107.23L7.73,106.84L9.34,106.72L9.88,107.11L11.49,107L12.03,106.33L14.17,107.03L14.71,106.84L15.79,106.45L16.32,106.53L20.08,106.37L20.62,106.65L21.16,106.8L21.69,106.06L22.77,106.1L23.3,106.41L24.92,106.02L25.45,106.88L25.99,105.82L26.53,106.33L27.07,106.02L29.21,105.7L29.75,106.18L30.82,104.98L31.36,105.78L32.43,106.1L32.97,105.14L34.58,103.93L35.12,103.97L36.19,103.64L36.73,104.13L37.8,104.26L38.34,103.23L39.41,104.38L39.95,104.21L42.1,104.42L42.63,104.13L43.71,104.34L44.24,104.66L46.93,104.09L47.47,104.13L48.54,104.9L49.08,104.34L56.6,104.5L57.14,104.09L58.75,104.46L59.28,104.66L65.19,104.54L65.73,105.31L68.41,105.1L68.95,105.31L70.03,104.34L70.56,105.34L71.1,104.66L71.64,105.19L72.72,105.19L73.25,105.1L75.94,106.06L76.48,106.18L77.02,104.74L77.55,105.06L78.09,105.5L78.63,104.17L79.17,105.27L80.78,105.23L81.32,104.94L82.93,105.58L83.47,104.66L84.54,104.98L85.08,105.27L87.24,104.74L87.77,104.3L88.85,104.21L89.39,104.21L90.46,104.42L91,103.76L92.08,104.3L92.61,104.34L93.69,104.21L94.23,104.58L95.84,104.17L96.38,104.05L101.22,104.21L101.76,103.35L102.83,103.97L103.37,103.31L104.45,104.01L104.98,103.14L106.59,103.1L107.13,103.72L108.21,103.6L108.75,103.68L110.9,103.81L111.44,104.62L112.51,103.76L113.05,104.09L116.81,103.93L117.35,104.01L120.03,104.17L120.57,104.78L122.18,104.34L122.72,104.7L128.09,104.21L128.63,104.7L130.24,104.86L130.78,104.13L131.85,104.74L132.39,104.74L134,104.94L134.54,105.14L135.62,104.78L136.15,104.86L137.23,105.58L137.76,104.66L140.45,105.27L140.99,104.86L144.22,105.1L144.75,104.94L146.36,105.02L146.9,105.23L147.44,104.42L147.97,105.1L150.13,105.1L150.66,105.78L151.2,106.06L151.74,105.02L152.82,105.14L153.36,104.01L154.43,103.52L154.97,103.35L157.12,102.98L157.66,102.6L158.74,104.5L159.28,103.35L160.35,103.89L160.89,103.35L161.43,102.35L161.96,103.02L163.58,103.43L164.11,103.64L165.19,102.47L165.73,103.31L166.26,102.47L166.8,103.31L167.34,103.27L167.88,102.13L171.1,103.14L171.64,102.43L174.33,102.09L174.87,102.05L176.48,102.52L177.02,102.22L178.1,101.92L178.64,103.1L179.71,101.84L180.25,102.35L182.4,101.92L182.94,102.05L185.09,102.18L185.63,101.75L186.71,102.3L187.25,101.88L188.86,101.88L189.4,101.62L192.08,103.93L192.62,103.35L194.23,103.1L194.77,103.1L195.84,104.01L196.38,103.89L198.53,103.97L199.07,103.43L200.68,104.26L201.22,103.93L201.76,104.3L202.29,103.64L202.83,104.42L203.37,103.48L204.98,104.34L205.52,103.81L206.59,104.3L207.13,104.34L207.67,103.68L208.2,104.3L211.97,104.78L212.5,105.27L214.12,104.38L214.65,104.5L218.41,104.58L218.95,105.58L220.56,104.54L221.1,104.9L221.64,105.1L222.18,104.46L223.25,104.74L223.79,104.78L224.86,104.98L225.4,104.86L227.01,105.31L227.55,104.74L228.62,104.86L229.16,105.14L231.31,104.9L231.85,104.01L234.54,102.77L235.07,103.23L237.23,103.39L237.77,103.1L241,103.14L241.53,103.89L242.61,103.23L243.15,103.23L243.68,103.48L244.22,102.85L246.38,103.48L246.91,102.93L247.99,102.98L248.53,102.73L249.07,103.14L249.61,102.35L250.68,103.1L251.22,103.35L253.91,102.89L254.45,102.93L255.53,102.81L256.07,102.52L257.15,103.14L257.68,102.81L258.76,103.68L259.3,103.23L260.38,103.06L260.91,102.73L264.14,103.43L264.68,103.02L266.83,104.05L267.37,103.1L268.45,103.43L268.99,104.74L271.68,103.72L272.22,104.09L272.76,103.39L273.29,103.89L273.83,104.01L275.98,104.17L276.52,103.85L278.13,104.82L278.68,104.01L285.13,104.7L285.66,104.46L288.89,105.23L289.42,104.94L292.11,105.31L292.65,105.1L294.27,105.38L294.81,104.82L295.88,105.02L296.42,105.38L297.49,105.78L298.03,105.31L301.26,105.38L301.8,105.58L303.41,105.34L303.95,105.74L305.56,105.1L306.09,105.74L307.17,105.34L307.71,105.27L308.78,103.6L309.32,104.42L310.4,100.63L310.94,99.88L312.01,100.67L312.55,100.19L313.09,99.61L313.62,100.54L314.16,99.61L314.7,100.58L315.78,100.36L316.32,98.8L316.85,97.57L317.39,98.76L319,100.19L319.54,99.66L321.69,100.14L322.23,98.44L322.77,97.94L323.31,98.98L323.85,99.3L324.39,98.26L324.92,99.21L325.46,98.67L325.99,98.26L327.07,99.16L327.61,99.75L328.68,99.3L329.22,98.4L330.29,96.25L330.83,96.96L331.91,96.35L332.44,98.03L333.52,97.85L334.05,96.25L334.59,94.32L335.13,95.44L335.67,95.44L336.2,96.82L336.74,98.21L337.28,97.85L337.81,98.3L338.35,97.66L338.89,98.53L339.96,99.03L340.5,98.67L345.33,100.28L345.87,99.75L346.94,99.7L347.48,100.63L348.55,103.48L349.09,104.17L352.31,104.98L352.85,104.94L357.15,105.34L357.69,105.78L358.76,105.14L359.3,105.38L361.99,105.94L362.52,105.42L363.6,105.82L364.14,106.22L364.67,106.41L365.21,105.78L373.27,106.84L373.81,105.98L375.42,106.49L375.96,106.45L377.57,106.84L378.11,106.72L380.26,107.15L380.8,106.49L383.49,107.03L384.02,106.69L386.71,106.72L387.25,106.57L389.4,107.15L389.94,106.92L391.56,100.76L392.1,99.34L393.71,99.34L394.25,98.62L394.79,99.48L395.32,98.4L396.4,97.85L396.94,98.3L397.48,99.16L398.02,98.3L399.63,99.34L400.17,99.57L406.63,99.25L407.17,100.36L409.32,99.48L409.86,100.45L410.95,101.41L411.48,100.06L412.02,101.24L412.56,100.28L413.63,101.24L414.17,99.97L415.79,100.45L416.33,99.83L417.95,98.08L418.49,99.07L419.03,99.25L419.57,100.71L420.65,100.63L421.18,99.16L422.26,99.61L422.8,99.7L424.95,99.61L425.49,100.01L427.1,105.02L427.64,105.02L429.26,105.46L429.8,105.78L431.95,105.54L432.49,105.66L433.56,105.98L434.11,106.33L435.72,105.86L436.25,106.06L438.41,106.76L438.95,106.53L440.02,107.07L440.56,106.37L442.17,106.69L442.71,106.49L443.78,107.07L444.32,106.57L445.4,107.11L445.94,106.92L448.62,107.27L449.16,106.53L450.78,106.8L451.32,106.61L452.39,107.03L452.93,106.65L454.54,107.46L455.08,107.03L456.7,107.23L457.24,107.27L459.92,107.57L460.46,107.03L462.08,107.07L462.61,107.11L463.69,107.8L464.23,107.03L464.77,107.57L465.3,105.27L466.38,102.09L466.92,101.71L467.99,100.63L468.53,100.23L470.15,99.48L470.68,99.57L472.29,98.67L472.83,98.71L474.98,97.66L475.52,98.49L476.05,97.66L476.59,98.67L479.28,98.53L479.82,98.08L481.97,99.16L482.5,98.49L484.65,98.71L485.19,98.21L486.8,99.39L487.34,99.03L490.56,99.48L491.1,99.03L492.17,98.08L492.71,99.21L493.78,98.67L494.32,98.89L494.86,99.48L495.4,98.94L496.47,98.26L497.01,98.62L498.62,98.71L499.16,97.98L500.77,98.17L501.3,98.4L501.84,97.71L502.38,98.3L503.99,98.58L504.53,103.39L506.68,106.1L507.21,105.74L508.82,106.49L509.36,105.98L509.9,106.84L510.43,106.14L517.43,107.03L517.96,107.8L519.58,107.15L520.12,107.3L520.65,106.61L521.19,107.42L522.8,107.42L523.34,107.57L523.88,107.92L524.41,107.23L526.03,107.84L526.57,107.69L527.1,108.14L527.64,107.34L529.79,107.84L530.33,107.19L531.4,108.14L531.95,108.03L533.02,108.22L533.56,108.37L534.09,107.19L534.63,108.14L536.25,108.22L536.79,107.88L537.86,108.03L538.4,108.03L540.02,107.84L540.55,108.29L543.25,108.71L543.79,105.42L545.94,100.06L546.48,100.84L548.62,99.57L549.16,99.83L550.77,101.02L551.31,100.23L552.92,100.76L553.46,100.32L557.76,100.41L558.3,100.28L560.45,100.67L560.99,99.88L561.52,99.83" style="vector-effect: none; fill: none; stroke: rgb(25, 211, 243); stroke-opacity: 1; stroke-width: 2px; opacity: 1;"/></g><g class="points"/><g class="text"/></g><g class="trace scatter traceb3d437" style="stroke-miterlimit: 2; opacity: 1;"><g class="fills"/><g class="errorbars"/><g class="lines"><path class="js-line" d="M0.27,115.57L3.49,115.41L4.03,114.81L5.11,114.88L5.64,115.57L6.72,114.91L7.26,115.11L8.33,114.24L8.87,114.41L12.09,113.94L12.63,114.81L13.7,114.04L14.24,114.34L15.85,114.04L16.39,114.24L17.46,113.7L18,114.14L21.76,114.45L22.29,113.53L23.37,114.04L23.91,113.57L24.98,113.6L25.52,114.11L28.2,113.16L28.74,113.91L30.89,113.02L31.42,113.29L32.5,113.77L33.03,112.84L35.18,111.41L35.72,111.26L36.79,111.26L37.33,111.34L38.4,111.94L38.94,111.44L44.85,112.04L45.38,112.57L46.99,111.8L47.53,112.04L49.68,111.83L50.22,112.74L51.29,111.94L51.83,111.83L53.44,111.55L53.98,111.9L56.13,112.74L56.66,111.83L59.35,112.53L59.89,112.11L60.42,111.83L60.96,112.46L62.57,112.11L63.11,112.67L64.18,111.9L64.72,112.5L65.79,112.57L66.33,112.81L69.02,112.5L69.56,112.46L70.63,112.53L71.17,112.5L73.85,112.98L74.39,113.29L74.93,113.87L75.47,113.36L76,113.36L76.54,113.91L77.08,113.36L78.69,112.5L79.23,113.22L83.53,112.25L84.07,112.95L88.38,112.57L88.91,112.04L89.99,112.36L90.53,111.41L92.14,111.94L92.68,111.69L102.89,111.41L103.43,110.87L104.51,111.26L105.04,110.4L106.12,111.3L106.66,110.73L108.27,110.55L108.81,111.34L109.35,111.09L109.89,111.8L111.5,110.98L112.04,111.73L113.11,111.8L113.65,111.51L115.8,110.94L116.34,111.8L117.95,111.26L118.48,111.9L119.56,111.76L120.1,111.48L123.86,112.53L124.4,111.55L126.01,112.39L126.54,111.94L130.84,112.11L131.38,112.04L135.14,112.64L135.68,112.39L142.66,112.43L143.2,113.09L144.82,113.22L145.35,113.16L146.43,112.57L146.96,113.12L147.5,112.25L148.04,112.78L148.58,112.95L150.73,112.25L151.27,113.19L153.96,111.62L154.5,112.01L156.11,111.09L156.65,111.73L157.73,111.16L158.26,110.69L158.8,110.8L159.34,111.8L159.88,111.76L160.41,110.47L162.03,110.55L162.57,110.22L164.18,109.78L164.72,110.22L165.25,109.97L165.79,110.69L167.41,109.49L167.94,110.22L170.09,109.45L170.63,110.18L171.71,109.67L172.24,109.97L172.78,109.67L173.32,110.51L174.39,109.49L174.93,109.41L176.01,109.45L176.55,109.67L180.31,109.64L180.85,109.89L181.93,109.64L182.47,109.34L183.55,109.56L184.08,109.23L185.69,109.67L186.23,109.67L188.38,109.27L188.92,109.6L190,109.45L190.54,110.66L192.69,110.76L193.22,110.29L194.3,110.98L194.83,110.62L195.91,111.19L196.45,111.87L196.98,111.16L197.52,111.62L198.05,111.05L198.59,111.58L199.13,110.91L200.21,111.69L200.74,111.41L203.43,111.66L203.97,112.04L208.81,111.58L209.34,111.97L210.42,111.55L210.95,112.32L212.57,111.73L213.1,111.94L213.64,112.53L214.18,112.01L214.71,112.15L215.79,112.01L216.33,111.9L219.01,112.53L219.55,111.66L220.63,112.32L221.16,112.71L221.7,112.04L222.24,112.6L223.31,111.97L223.85,112.67L226.54,112.53L227.07,112.88L229.22,112.67L229.76,112.88L230.84,113.05L231.37,111.26L232.45,111.26L232.99,111.12L234.06,110.76L234.6,110.69L237.83,110.76L238.37,110.33L241.59,111.58L242.14,110.44L243.21,110.98L243.75,111.19L245.36,110.62L245.9,111.12L246.98,110.55L247.52,110.55L250.21,110.8L250.74,110.84L251.82,110.55L252.36,110.69L253.44,110.37L253.98,110.11L255.05,110.33L255.59,110.51L261.51,110.15L262.05,110.73L263.13,110.76L263.67,111.48L264.74,110.84L265.28,110.66L268.51,111.37L269.05,111.69L270.66,111.44L271.2,111.09L272.82,111.48L273.36,111.01L274.97,111.44L275.51,111.51L276.05,111.94L276.58,111.23L277.66,111.8L278.2,111.26L278.74,111.94L279.28,110.87L280.35,111.97L280.89,111.66L291.64,112.84L292.18,112.18L293.79,112.81L294.33,112.91L294.87,112.25L295.41,113.43L296.48,112.5L297.02,113.57L298.09,112.84L298.63,113.33L301.86,112.32L302.4,113.09L304.55,112.88L305.09,112.88L307.77,113.26L308.31,113.33L311,107.23L311.54,106.76L312.61,108.37L313.15,106.49L313.69,107.27L314.23,106.72L315.31,107.57L315.84,107.53L316.92,104.38L317.45,105.42L319.06,107.5L319.6,106.02L321.22,107.73L321.75,107.5L322.29,104.66L322.83,105.06L323.37,105.54L323.91,106.49L324.45,106.1L324.99,105.9L326.06,105.46L326.59,105.5L328.21,106.65L328.75,106.26L330.36,102.89L330.9,104.21L331.97,103.6L332.51,105.38L334.12,103.02L334.65,100.63L336.8,105.74L337.34,104.62L338.95,105.31L339.49,105.86L341.1,105.9L341.63,105.46L342.71,107.46L343.25,106.45L343.78,106.14L344.32,107.07L345.93,106.72L346.47,106.69L347.01,105.98L347.54,107.3L348.62,111.58L349.15,111.3L350.76,111.69L351.3,111.9L352.38,112.29L352.91,111.9L355.6,113.5L356.14,112.88L358.29,113.09L358.83,113.22L360.44,112.95L360.98,113.4L362.59,113.02L363.12,114.11L364.74,113.05L365.27,113.5L366.89,113.5L367.42,113.22L378.17,114.04L378.71,113.63L380.33,114.14L380.87,113.97L384.63,114.48L385.16,114.98L386.24,114.38L386.78,114.51L388.39,114.38L388.93,113.7L390.01,114.31L390.54,110.18L392.16,106.1L392.7,106.76L393.24,106.69L393.78,105.58L394.85,105.38L395.39,104.38L397.54,105.31L398.08,105.31L399.7,105.78L400.24,105.9L401.85,106.18L402.39,106.33L403.47,105.7L404.01,106.02L405.62,106.18L406.15,105.98L407.24,106.45L407.77,107.53L409.39,106.29L409.93,107.11L411.01,108.18L411.55,107.3L413.16,108.07L413.7,106.92L416.39,106.88L416.93,106.29L418.01,104.7L418.55,105.5L420.17,107.69L420.71,107.53L421.25,105.42L421.79,107.07L422.32,105.86L422.86,106.61L425.01,105.82L425.55,106.57L427.16,112.74L427.71,112.74L428.25,113.6L428.79,112.67L429.86,112.81L430.4,113.16L432.01,113.36L432.55,112.78L433.09,113.5L433.63,112.95L434.71,113.26L435.24,113.36L439.01,114.21L439.55,113.84L441.16,114.08L441.7,114.11L443.85,114.55L444.39,113.87L446,114.11L446.54,113.94L448.69,114.55L449.23,114.71L450.3,114.14L450.84,114.24L455.69,114.91L456.23,114.11L457.84,115.34L458.38,114.98L459.45,114.81L459.99,114.98L461.6,114.95L462.14,114.88L463.22,114.38L463.76,114.28L464.83,114.65L465.37,111.76L465.9,109.34L466.44,109.6L466.98,109.12L468.6,106.8L469.13,106.37L469.67,106.76L470.21,106.02L471.28,105.9L471.82,105.46L472.89,105.42L473.43,104.94L477.19,104.94L477.73,105.46L479.34,105.42L479.88,105.5L480.96,105.06L481.49,105.66L483.1,105.1L483.64,105.62L485.25,104.98L485.79,105.7L486.86,105.7L487.4,105.66L489.55,106.61L490.09,105.42L490.63,106.49L491.16,105.7L492.24,104.82L492.77,105.78L493.31,104.62L493.85,105.31L494.39,105.06L494.92,105.82L495.46,106.49L496,104.9L498.14,105.82L498.68,106.61L499.22,104.54L499.75,104.82L500.29,105.02L501.9,104.46L502.44,105.27L503.51,105.14L504.05,105.31L505.13,111.48L505.67,112.64L507.28,113.5L507.81,113.53L511.57,113.87L512.11,113.4L512.65,113.4L513.19,114.21L514.8,114.18L515.34,114.85L516.42,114.81L516.95,114.81L523.94,114.55L524.48,115.08L525.55,114.71L526.09,115.05L527.17,115.24L527.7,115.31L528.24,115.38L528.78,114.24L530.39,115.38L530.93,115.18L537.39,115.64L537.92,115.24L539,115.71L539.54,115.77L541.16,115.57L541.7,115.74L542.24,116.19L542.78,115.57L543.31,115.93L543.85,112.74L546,106.72L546.54,107.38L547.08,107.53L547.61,106.29L548.69,106.65L549.22,106.49L549.76,107.42L550.3,107L550.83,107.69L551.91,106.84L552.45,107L553.52,107.11L554.06,107.38L555.14,107.84L555.67,107.11L556.75,107.61L557.29,106.96L558.9,107.53L559.44,107.38L561.59,107.07" style="vector-effect: none; fill: none; stroke: rgb(255, 102, 146); stroke-opacity: 1; stroke-width: 2px; opacity: 1;"/></g><g class="points"/><g class="text"/></g><g class="trace scatter tracebff477" style="stroke-miterlimit: 2; opacity: 1;"><g class="fills"/><g class="errorbars"/><g class="lines"><path class="js-line" d="M0.28,198.27L1.35,198.16L1.89,197.95L2.43,197.73L2.97,198.49L4.58,197.62L5.11,198.06L6.19,198.16L6.73,198.33L7.8,197.29L8.34,197.35L9.41,197.68L9.95,197.62L12.63,197.84L13.17,197.18L14.25,197.46L14.78,197.18L15.85,197.24L16.39,197.84L18,197.13L18.54,197.02L19.08,197.62L19.61,196.96L20.69,197.29L21.22,197.35L23.91,196.74L24.45,197.07L25.52,197.07L26.06,197.07L28.75,196.4L29.28,196.68L29.82,197.18L30.36,196.63L32.5,196.46L33.04,196.35L34.65,195.62L35.19,195.44L40.02,195.44L40.56,194.11L41.63,195.1L42.17,195.33L46.46,195.5L47,196.01L48.61,195.73L49.15,195.96L49.69,195.62L50.22,196.18L52.91,195.79L53.44,195.84L57.21,196.01L57.74,195.9L73.86,196.46L74.4,196.91L75.47,197.4L76.01,197.07L80.31,197.35L80.85,196.63L82.47,196.96L83,196.52L84.62,196.63L85.15,197.46L86.77,196.18L87.31,197.24L87.84,197.46L88.38,196.57L90,196.29L90.53,195.96L92.68,196.35L93.22,195.96L94.83,196.46L95.37,195.96L95.91,196.18L96.45,195.5L98.06,196.29L98.6,196.07L100.76,196.29L101.29,195.39L103.44,196.52L103.98,195.5L108.28,195.73L108.82,195.39L109.89,196.12L110.43,195.39L112.58,196.07L113.12,195.44L115.27,195.27L115.81,193.99L116.88,195.44L117.42,195.79L117.95,194.02L118.49,195.44L119.56,195.33L120.1,195.39L120.64,194.05L121.18,195.27L123.86,195.9L124.4,195.39L127.09,195.73L127.63,195.39L129.78,196.01L130.31,195.96L131.92,195.9L132.46,196.29L138.91,196.18L139.45,196.46L140.52,196.4L141.06,196.68L143.75,196.63L144.29,196.57L145.9,196.52L146.43,196.4L149.66,196.74L150.2,196.85L152.35,196.29L152.89,196.07L153.97,195.56L154.5,196.01L155.04,196.07L155.58,195.33L156.11,195.67L156.65,193.84L157.73,195.79L158.27,195.1L159.88,195.56L160.42,195.1L161.5,193.73L162.03,195.5L162.57,194.05L163.11,195.1L163.65,195.16L164.18,193.7L165.26,193.81L165.8,195.27L166.87,193.52L167.41,193.61L167.95,193.58L168.49,195.27L169.02,195.44L169.56,194.05L171.17,193.67L171.71,195.16L172.25,193.52L172.79,193.93L173.33,193.79L177.09,193.79L177.63,193.87L178.71,193.64L179.24,193.43L179.78,193.1L180.32,193.84L181.94,193.46L182.47,194.2L183.55,193.52L184.09,193.4L185.7,193.49L186.24,193.73L187.32,193.25L187.85,193.81L188.93,193.49L189.47,193.61L190,193.58L190.54,195.56L191.08,195.1L191.62,195.67L192.15,195.5L192.69,194.05L194.3,193.73L194.84,195.39L195.91,194.08L196.45,195.1L203.97,195.33L204.52,195.96L206.66,195.5L207.2,195.73L211.5,195.96L212.04,196.07L229.23,196.57L229.77,196.85L231.92,195.79L232.45,196.18L232.99,195.22L233.53,195.62L234.07,195.56L235.14,195.5L235.68,195.79L237.3,195.39L237.84,195.56L241.06,195.33L241.6,196.29L243.22,195.16L243.76,195.96L245.91,195.33L246.45,195.44L248.06,195.27L248.6,195.16L249.14,195.73L249.68,194.02L250.21,195.56L250.75,195.1L251.29,196.12L251.83,195.39L252.37,195.9L252.9,195.27L255.06,195.67L255.6,195.1L256.68,195.27L257.21,195.1L257.75,195.96L258.29,194.02L259.37,195.73L259.91,195.33L260.98,195.39L261.52,194.08L262.6,195.39L263.14,195.22L264.75,195.79L265.29,195.44L268.52,195.56L269.06,196.35L270.13,195.33L270.67,195.62L273.36,195.16L273.9,195.5L275.51,195.39L276.05,195.27L277.13,195.84L277.67,195.73L280.89,195.62L281.43,196.07L285.19,196.29L285.73,196.07L287.34,196.12L287.88,195.9L291.11,196.74L291.64,196.4L293.26,196.74L293.8,196.63L297.56,196.68L298.1,196.4L299.18,197.07L299.72,196.74L301.33,197.02L301.87,196.4L304.02,196.79L304.55,196.79L307.78,197.24L308.31,196.24L309.39,195.73L309.93,192.81L311.01,191.13L311.54,191.53L312.62,191.78L313.16,190.91L315.85,192.05L316.39,189.69L316.92,189.18L317.46,190.38L318.53,191.01L319.07,191.01L320.15,190.88L320.68,191.04L321.76,191.41L322.3,189.56L328.75,191.1L329.29,190.32L330.36,188.46L330.9,189.56L331.97,188.43L332.51,189.69L334.66,186.64L335.2,187.58L335.74,187.54L336.27,188.63L337.34,189.75L337.88,189.53L341.1,190.26L341.64,190.1L344.86,191.32L345.4,191.47L347.55,191.16L348.08,193.7L349.16,195.16L349.7,195.96L350.77,195.62L351.31,195.73L353.46,196.24L353.99,196.18L356.15,196.63L356.68,196.46L357.76,196.46L358.29,196.74L360.98,196.85L361.52,196.91L365.82,197.51L366.35,197.07L367.43,197.4L367.97,196.68L369.04,197.51L369.58,197.68L371.19,197.13L371.73,197.51L373.88,197.18L374.42,197.84L376.57,197.57L377.11,198L387.86,197.68L388.4,198.22L389.47,197.73L390.01,197.68L391.09,193.49L391.63,192.29L392.17,190.82L392.7,191.35L393.24,192.29L393.78,191.16L394.32,191.5L394.86,191.25L395.93,190.04L396.47,190.76L398.63,191.53L399.17,191.13L401.31,191.56L401.85,191.29L404.55,191.72L405.08,191.5L406.7,191.16L407.24,192.05L411.01,192.78L411.55,192.11L413.17,192.53L413.71,192.08L416.4,191.68L416.94,191.38L418.56,191.16L419.1,191.56L420.18,192.75L420.71,192.84L421.26,191.68L421.79,191.99L422.33,191.59L423.41,191.53L423.94,191.65L425.56,191.99L426.1,193.28L427.17,196.52L427.71,196.57L428.79,196.74L429.33,196.96L440.09,197.4L440.63,197.68L441.17,198.22L441.7,197.68L444.39,197.35L444.93,198.11L446.54,197.29L447.08,197.78L448.69,198.06L449.23,198L450.31,198.27L450.85,198.22L453,197.78L453.54,198.06L455.15,198.22L455.69,198.27L457.31,197.46L457.84,198.38L459.46,198.16L460,198.06L462.15,198.43L462.68,197.84L463.76,197.95L464.3,198.06L464.84,198.22L465.38,196.4L466.45,193.31L466.99,193.04L467.52,191.81L468.06,192.26L468.61,191.38L469.68,190.76L470.21,190.88L471.29,190.07L471.83,190.94L472.9,190.13L473.44,190.13L475.05,189.18L475.59,189.78L478.81,190.41L479.35,190.23L480.42,189.56L480.96,190.29L483.65,189.91L484.19,189.81L486.33,190.04L486.87,190.88L487.95,190.73L488.48,190.7L494.93,190.45L495.46,190.54L497.08,190.16L497.61,190.32L501.91,189.5L502.45,190.51L503.52,190.07L504.06,189.97L505.67,195.9L506.21,196.29L509.43,197.18L509.97,197.18L512.12,197.68L512.66,197.84L513.73,197.84L514.27,197.78L515.35,197.73L515.88,197.78L516.96,198.06L517.49,197.68L519.11,198.22L519.65,198.16L521.26,197.84L521.8,198.33L523.41,197.78L523.95,198.49L525.56,198.22L526.1,198.06L529.86,198.43L530.4,198.22L532.01,198.76L532.55,198.16L533.63,198.43L534.17,198.22L535.24,199.13L535.78,198.49L536.86,198.7L537.39,198.54L538.47,198.54L539.01,198.54L540.09,198.76L540.63,198.76L541.16,199.29L541.7,198.6L542.25,199.5L542.78,198.86L543.32,199.02L543.86,196.85L544.39,195.73L544.93,192.75L546.01,191.41L546.55,192.17L548.69,190.7L549.23,190.91L551.38,191.22L551.91,191.04L552.99,191.59L553.53,191.13L554.6,191.41L555.14,191.99L556.22,191.5L556.76,191.72L559.98,191.35L560.52,191.59L561.59,191.47" style="vector-effect: none; fill: none; stroke: rgb(182, 232, 128); stroke-opacity: 1; stroke-width: 2px; opacity: 1;"/></g><g class="points"/><g class="text"/></g><g class="trace scatter tracec6a6b2" style="stroke-miterlimit: 2; opacity: 1;"><g class="fills"/><g class="errorbars"/><g class="lines"><path class="js-line" d="M0.34,181.62L1.41,182.03L1.95,181.36L4.1,181.81L4.64,181.51L6.25,181.55L6.79,181.4L7.86,181.25L8.4,181.36L9.47,181.14L10.01,181.32L16.99,180.95L17.53,181.06L24.51,180.38L25.05,180.68L25.58,179.96L26.12,180.84L27.73,180.38L28.27,180.27L32.56,180.42L33.1,179.96L35.78,179.15L36.32,179.42L37.4,178.96L37.93,179.42L40.62,179.31L41.15,178.84L41.69,180.08L42.23,179.19L44.38,179.54L44.91,179.46L64.79,179.73L65.32,179.92L69.09,179.65L69.62,179.85L74.46,180.23L74.99,180.72L77.69,180.68L78.22,180.57L81.45,180.11L81.99,180.53L84.14,180.53L84.68,180.04L86.83,180.84L87.37,179.77L88.98,180.65L89.52,180.11L90.05,180.27L90.59,179.62L91.13,180.11L91.67,179.42L93.28,179.77L93.82,179.46L94.89,179.42L95.43,179.69L97.58,179.65L98.12,180.19L101.35,179.62L101.89,180.08L102.42,179.34L102.96,179.92L104.57,179.46L105.11,179.31L105.65,179.73L106.19,179.03L107.8,179.92L108.34,179.96L110.49,179.19L111.03,179.92L117.48,179.07L118.01,179.31L119.63,178.84L120.16,179.34L120.7,178.99L121.24,179.77L122.31,179.23L122.85,179.34L125,179.38L125.54,179.42L126.61,179.34L127.15,179.46L129.3,179.58L129.84,179.62L136.82,179.81L137.36,179.81L138.97,179.31L139.51,180L140.58,179.31L141.12,179.73L143.81,179.92L144.34,179.62L145.96,179.73L146.49,179.38L148.1,179.62L148.64,180.27L150.79,179.62L151.33,180.46L153.49,179.07L154.02,179.42L156.72,179.77L157.25,179.15L161.56,178.8L162.09,179.46L166.39,179.07L166.93,178.48L168.01,178.48L168.55,178.68L170.7,179.15L171.24,178.45L172.85,178.92L173.39,178.8L174.46,178.6L175,178.45L177.15,178.6L177.69,178.64L182.54,177.89L183.07,178.72L189.53,178.25L190.06,178.56L191.14,179.23L191.68,179.11L195.97,178.64L196.51,178.96L197.58,179.15L198.12,178.96L200.27,179.11L200.81,179.15L204.04,179.11L204.58,179.07L222.31,179.62L222.84,180.19L223.92,179.69L224.46,179.27L226.07,179.5L226.6,179.46L230.9,180.15L231.44,179.73L233.59,179.31L234.13,179.38L235.21,179.42L235.74,179.58L238.44,178.56L238.97,179.34L241.13,179.5L241.66,179.58L245.96,179.31L246.51,179.38L249.2,180.11L249.74,179.42L251.89,179.07L252.43,179.58L266.97,179.5L267.5,179.88L268.58,179.77L269.12,180.57L270.2,178.88L270.73,179.15L271.81,178.96L272.35,178.72L274.5,179.42L275.04,179.15L277.19,179.65L277.73,179.15L280.95,179.85L281.49,178.99L282.03,179.85L282.57,179.42L283.11,179.73L286.87,179.65L287.41,179.5L291.17,179.81L291.7,179.54L294.4,179.73L294.93,180.08L296.01,179.62L296.55,179.77L299.24,180.04L299.78,180.34L300.85,180L301.39,179.96L304.08,179.96L304.61,179.62L305.69,179.81L306.23,180.11L307.3,180.31L307.84,179.65L308.38,180.34L308.91,179.62L309.45,179.54L309.99,178.05L312.14,177.57L312.68,177.73L314.83,177.01L315.37,177.61L316.98,175.94L317.52,176.72L318.59,177.41L319.13,176.92L320.74,176.84L321.28,177.17L321.82,176.8L322.36,175.44L323.44,176.64L323.98,176.48L326.13,175.98L326.66,176.8L328.81,177.13L329.35,176.44L329.89,175.19L330.43,175.53L330.96,175.82L332.03,175.65L332.57,176.31L334.72,174.22L335.26,174.9L335.8,174.52L336.33,175.61L336.87,176.44L337.41,175.86L338.48,175.73L339.02,176.84L340.63,176.72L341.17,177.01L342.24,176.19L342.78,177.25L344.39,176.92L344.92,177.09L347.61,177.81L348.15,178.48L349.76,179.62L350.3,179.27L356.21,180.04L356.74,179.73L357.82,180.08L358.35,180.19L359.97,180.19L360.5,180.23L362.12,180.5L362.65,180.11L364.8,180.84L365.34,180.57L367.49,180.46L368.03,180.38L369.1,180.53L369.64,180.61L371.25,180L371.79,180.27L372.86,180.19L373.4,180.57L373.94,180.46L374.48,181.17L376.09,180.31L376.63,181.32L378.24,180.72L378.78,181.02L381.47,180.68L382.01,180.91L384.69,180.91L385.23,180.46L386.84,181.29L387.38,180.5L389,180.87L389.54,180.84L390.07,180.84L390.61,179.31L392.23,177.17L392.77,177.61L395.46,176.72L396,176.8L397.61,176.76L398.15,176.97L399.76,177.17L400.3,177.05L402.99,177.77L403.53,177.17L405.15,177.77L405.68,177.33L406.22,177.85L406.76,177.13L408.38,177.65L408.92,177.65L412.15,178.6L412.69,178.21L416.46,177.49L417,178.13L418.08,176.8L418.62,177.01L419.7,177.85L420.24,178.21L424.01,177.13L424.54,177.13L426.16,179.07L426.7,180.19L439.07,180.61L439.61,180.27L440.69,181.29L441.23,180.34L442.3,180.95L442.84,180.38L444.45,181.21L444.99,180.99L447.14,180.95L447.68,181.32L449.29,180.53L449.83,181.4L453.06,181.1L453.6,181.51L454.67,180.76L455.21,181.06L456.29,181.06L456.83,181.25L458.44,181.1L458.98,181.51L460.59,180.87L461.13,181.51L462.21,181.4L462.75,181.17L464.9,180.95L465.43,179.88L467.05,178.25L467.59,177.69L469.74,176.88L470.27,176.64L473.5,176.39L474.04,176.27L477.26,175.94L477.8,176.68L479.95,176.11L480.48,176.31L487.47,176.56L488.01,177.01L491.23,176.88L491.77,175.86L494.45,176.72L494.99,176.68L496.06,176.15L496.6,176.76L501.43,175.94L501.97,176.52L502.51,176.88L503.04,176.23L504.12,176.72L504.66,178.45L506.81,180.15L507.34,179.92L508.95,180.42L509.49,180.34L511.1,180.95L511.64,180.34L512.18,181.17L512.71,180.76L513.25,181.02L519.71,181.32L520.25,180.87L521.32,181.43L521.86,180.68L522.93,181.43L523.47,181.58L524.55,181.43L525.08,181.32L526.16,181.4L526.7,181.17L528.31,181.95L528.85,181.21L529.92,181.32L530.46,181.43L531,181.1L531.54,181.73L534.76,181.73L535.3,181.69L535.84,181.55L536.38,182.25L536.92,181.43L537.46,182.36L538.53,181.51L539.07,181.55L541.77,181.99L542.31,181.77L543.38,182.25L543.92,180.91L545.53,178.33L546.07,177.81L550.37,177.25L550.9,177.89L551.98,177.29L552.51,177.61L554.66,177.33L555.2,177.57L559.5,177.57L560.04,177.45L561.11,177.41L561.66,177.45" style="vector-effect: none; fill: none; stroke: rgb(255, 151, 255); stroke-opacity: 1; stroke-width: 2px; opacity: 1;"/></g><g class="points"/><g class="text"/></g><g class="trace scatter tracefdff28" style="stroke-miterlimit: 2; opacity: 1;"><g class="fills"/><g class="errorbars"/><g class="lines"><path class="js-line" d="M0.4,177.73L2.02,177.93L2.55,177.57L7.39,177.25L7.92,177.49L10.07,177.21L10.61,177.25L11.68,177.25L12.22,176.72L12.76,177.73L13.29,177.17L13.83,176.68L15.98,177.57L16.52,177.45L17.59,176.92L18.13,176.8L19.74,176.88L20.28,176.48L21.35,177.05L21.89,176.44L25.11,176.72L25.65,176.84L26.72,176.68L27.26,177.01L29.41,176.27L29.94,176.64L31.02,176.52L31.55,176.92L33.16,176.07L33.7,175.82L34.24,176.48L34.78,175.53L36.39,175.57L36.92,175.78L40.14,175.53L40.68,176.11L42.29,175.48L42.83,175.61L48.74,175.82L49.27,175.94L51.42,175.82L51.96,175.94L53.03,175.9L53.57,176.11L57.33,175.94L57.87,175.9L60.02,175.48L60.55,175.94L72.37,176.31L72.91,176.48L73.99,175.9L74.52,176.48L78.29,176.56L78.83,176.11L80.98,176.23L81.51,176.6L82.59,176.31L83.13,176.52L84.2,176.23L84.74,175.57L87.43,176.8L87.97,175.94L88.51,176.52L89.05,175.9L90.66,176.56L91.2,176.19L92.27,175.86L92.81,176.39L95.5,175.61L96.04,175.82L98.18,176.39L98.72,175.57L99.26,176.23L99.8,175.69L100.87,175.69L101.41,175.61L103.03,175.86L103.56,175.57L110.02,175.44L110.56,175.27L111.09,174.77L111.63,176.19L112.17,175.23L112.71,176.02L114.32,175.48L114.86,175.36L118.08,175.69L118.62,175.15L120.23,175.73L120.76,175.57L122.38,175.48L122.91,175.57L125.06,175.53L125.6,175.32L127.21,175.82L127.75,175.69L134.73,175.36L135.27,176.11L137.96,175.61L138.5,176.07L140.64,175.98L141.18,176.11L146.56,175.98L147.09,176.44L149.25,175.94L149.78,176.35L150.86,175.94L151.4,176.48L153.01,175.23L153.55,175.82L154.63,175.32L155.17,174.98L157.86,175.82L158.39,174.98L160.54,174.9L161.08,174.98L162.16,175.19L162.7,174.9L165.38,175.48L165.92,174.52L166.46,174.26L167,174.85L168.07,174.68L168.61,175.02L171.84,174.77L172.37,175.19L173.99,174.6L174.52,174.85L175.06,174.47L175.6,175.27L176.68,174.56L177.22,174.85L182.06,174.77L182.6,174.85L184.21,174.68L184.75,174.68L187.44,174.52L187.98,174.98L190.13,174.6L190.67,174.81L192.28,175.23L192.81,175.23L196.04,175.23L196.58,175.4L198.19,174.98L198.72,175.4L200.34,175.32L200.88,175.4L206.25,175.06L206.79,175.57L208.94,175.48L209.47,175.69L211.09,175.61L211.62,175.94L212.7,175.53L213.24,175.57L217,175.86L217.53,175.11L218.61,175.73L219.14,175.69L222.37,175.53L222.91,175.82L228.28,175.57L228.82,176.11L229.89,175.98L230.43,175.98L232.04,175.94L232.58,175.4L234.19,174.73L234.73,175.53L235.81,175.23L236.35,175.48L238.5,175.4L239.04,175.15L240.65,175.48L241.19,175.61L243.34,175.19L243.88,175.57L244.95,176.23L245.49,175.53L247.65,175.57L248.18,175.82L249.26,175.36L249.8,175.4L250.88,175.53L251.41,175.57L252.49,175.78L253.03,175.53L253.57,175.32L254.11,176.02L257.88,175.65L258.42,175.94L269.18,175.73L269.72,175.4L271.88,175.48L272.41,175.23L276.72,175.27L277.25,175.48L279.95,175.82L280.48,175.4L282.1,176.07L282.63,175.4L285.32,175.9L285.86,175.15L286.93,175.86L287.47,175.4L288.54,176.15L289.08,175.61L293.92,176.31L294.46,175.69L297.69,175.9L298.23,176.31L299.84,175.65L300.38,175.86L301.45,175.94L301.99,175.73L304.68,176.23L305.22,176.19L306.83,176.07L307.36,176.15L308.44,175.98L308.98,176.02L309.52,175.86L310.06,174.56L314.9,173.57L315.44,174.6L317.05,172.83L317.58,173.18L318.66,174L319.19,173.57L321.35,174.17L321.89,173.09L322.96,172.7L323.5,173.01L325.12,173.53L325.65,173.4L326.19,173.09L326.73,173.74L330.49,172.3L331.03,172.83L331.56,171.72L332.1,172.65L333.18,172.39L333.71,172.12L334.79,171.63L335.32,171.5L335.86,171.63L336.4,172.65L337.47,172.92L338.01,172.21L340.69,173.53L341.23,173.7L342.3,173.4L342.84,173.66L343.91,173.83L344.45,174.05L346.6,173.79L347.14,174.05L348.75,175.02L349.28,175.4L350.89,175.94L351.43,175.9L356.27,176.07L356.81,176.56L358.96,176.19L359.49,176.6L365.94,176.31L366.48,176.52L369.17,176.68L369.7,176.84L373.47,176.48L374,176.97L378.31,177.21L378.85,176.56L382.61,177.29L383.14,176.68L384.22,176.8L384.76,176.72L387.45,177.29L387.98,176.27L389.6,176.76L390.13,176.27L392.29,173.35L392.83,174.22L394.45,173.66L394.98,173.66L395.52,172.92L396.06,173.61L396.6,173.7L397.13,172.83L397.67,172.92L398.21,174L399.83,173.14L400.37,174L402.52,174.22L403.06,174.47L404.14,173.48L404.67,174.05L407.37,174.3L407.91,174.43L409.52,173.74L410.06,174.47L411.14,174.39L411.68,174.47L412.75,174.26L413.29,174.56L418.68,174L419.23,174.3L420.84,174.26L421.38,174.39L423.53,174.05L424.07,174.13L425.14,173.87L425.68,173.83L427.3,176.27L427.84,176.31L429.99,177.09L430.53,176.19L435.91,176.76L436.45,177.53L438.06,176.68L438.6,176.97L440.75,176.92L441.29,176.68L443.98,176.97L444.52,176.56L446.67,177.13L447.21,176.6L448.28,176.92L448.82,177.29L449.36,176.44L449.9,177.21L451.51,177.45L452.05,176.56L453.66,177.45L454.2,177.05L456.89,176.48L457.43,176.97L459.04,177.13L459.58,177.09L465.5,176.72L466.04,175.44L466.58,175.36L467.11,174.39L471.41,173.18L471.95,173.7L473.02,172.87L473.56,172.83L474.1,173.57L474.64,172.61L478.4,173.44L478.94,172.79L485.92,173.53L486.46,173.61L493.98,173.14L494.52,173.35L495.05,173.53L495.59,172.87L496.66,173.22L497.2,172.92L498.81,173.09L499.35,172.96L502.57,172.87L503.11,173.05L504.18,174.05L504.72,174.73L505.8,175.98L506.33,176.15L507.41,176.48L507.94,176.27L510.09,176.84L510.63,177.01L511.7,177.09L512.24,176.84L512.78,177.45L513.32,176.88L515.47,177.17L516.01,177.13L518.7,176.84L519.24,177.49L520.31,177.05L520.85,176.88L522.46,177.05L523,177.53L524.61,176.88L525.15,177.29L526.76,177.33L527.3,177.05L528.91,177.65L529.45,177.45L530.52,176.97L531.06,177.41L534.29,177.69L534.83,177.93L536.44,177.37L536.98,178.37L537.52,177.21L538.06,177.85L539.13,177.37L539.67,177.41L542.9,178.25L543.44,177.85L545.06,175.15L545.6,174.73L546.13,173.83L546.67,174.52L548.28,173.92L548.82,173.87L557.42,174.22L557.96,173.96L559.03,174.17L559.57,174.26L560.64,174.3L561.18,174.09L561.72,174.09" style="vector-effect: none; fill: none; stroke: rgb(254, 203, 82); stroke-opacity: 1; stroke-width: 2px; opacity: 1;"/></g><g class="points"/><g class="text"/></g></g></g></g><path class="xlines-above crisp" d="M0,0" style="fill: none;"/><path class="ylines-above crisp" d="M0,0" style="fill: none;"/><g class="overlines-above"/><g class="xaxislayer-above"><g class="xtick"><text text-anchor="middle" x="0" y="273" transform="translate(73.91,0)" style="font-family: 'Times New Roman'; font-size: 12px; fill: rgb(0, 0, 0); fill-opacity: 1; white-space: pre; opacity: 1;">6e+7</text></g><g class="xtick"><text text-anchor="middle" x="0" y="273" style="font-family: 'Times New Roman'; font-size: 12px; fill: rgb(0, 0, 0); fill-opacity: 1; white-space: pre; opacity: 1;" transform="translate(183.06,0)">7e+7</text></g><g class="xtick"><text text-anchor="middle" x="0" y="273" style="font-family: 'Times New Roman'; font-size: 12px; fill: rgb(0, 0, 0); fill-opacity: 1; white-space: pre; opacity: 1;" transform="translate(292.2,0)">7e+7</text></g><g class="xtick"><text text-anchor="middle" x="0" y="273" style="font-family: 'Times New Roman'; font-size: 12px; fill: rgb(0, 0, 0); fill-opacity: 1; white-space: pre; opacity: 1;" transform="translate(401.35,0)">8e+7</text></g><g class="xtick"><text text-anchor="middle" x="0" y="273" style="font-family: 'Times New Roman'; font-size: 12px; fill: rgb(0, 0, 0); fill-opacity: 1; white-space: pre; opacity: 1;" transform="translate(510.49,0)">8e+7</text></g></g><g class="yaxislayer-above"><g class="ytick"><text text-anchor="end" x="52" y="4.199999999999999" transform="translate(0,245.04)" style="font-family: 'Times New Roman'; font-size: 12px; fill: rgb(0, 0, 0); fill-opacity: 1; white-space: pre; opacity: 1;">3e+6</text></g><g class="ytick"><text text-anchor="end" x="52" y="4.199999999999999" style="font-family: 'Times New Roman'; font-size: 12px; fill: rgb(0, 0, 0); fill-opacity: 1; white-space: pre; opacity: 1;" transform="translate(0,230)">4e+6</text></g><g class="ytick"><text text-anchor="end" x="52" y="4.199999999999999" style="font-family: 'Times New Roman'; font-size: 12px; fill: rgb(0, 0, 0); fill-opacity: 1; white-space: pre; opacity: 1;" transform="translate(0,218.34)">5e+6</text></g><g class="ytick"><text text-anchor="end" x="52" y="4.199999999999999" style="font-family: 'Times New Roman'; font-size: 12px; fill: rgb(0, 0, 0); fill-opacity: 1; white-space: pre; opacity: 1;" transform="translate(0,208.81)">6e+6</text></g><g class="ytick"><text text-anchor="end" x="52" y="4.199999999999999" style="font-family: 'Times New Roman'; font-size: 12px; fill: rgb(0, 0, 0); fill-opacity: 1; white-space: pre; opacity: 1;" transform="translate(0,200.75)">7e+6</text></g><g class="ytick"><text text-anchor="end" x="52" y="4.199999999999999" style="font-family: 'Times New Roman'; font-size: 12px; fill: rgb(0, 0, 0); fill-opacity: 1; white-space: pre; opacity: 1;" transform="translate(0,193.77)">8e+6</text></g><g class="ytick"><text text-anchor="end" x="52" y="4.199999999999999" style="font-family: 'Times New Roman'; font-size: 12px; fill: rgb(0, 0, 0); fill-opacity: 1; white-space: pre; opacity: 1;" transform="translate(0,187.61)">9e+6</text></g><g class="ytick"><text text-anchor="end" x="49" y="4.199999999999999" style="font-family: 'Times New Roman'; font-size: 12px; fill: rgb(0, 0, 0); fill-opacity: 1; white-space: pre; opacity: 1;" transform="translate(0,182.1)">1e+7</text></g><g class="ytick"><text text-anchor="end" x="52" y="4.199999999999999" style="font-family: 'Times New Roman'; font-size: 12px; fill: rgb(0, 0, 0); fill-opacity: 1; white-space: pre; opacity: 1;" transform="translate(0,145.87)">2e+7</text></g><g class="ytick"><text text-anchor="end" x="52" y="4.199999999999999" style="font-family: 'Times New Roman'; font-size: 12px; fill: rgb(0, 0, 0); fill-opacity: 1; white-space: pre; opacity: 1;" transform="translate(0,124.67)">3e+7</text></g><g class="ytick"><text text-anchor="end" x="52" y="4.199999999999999" style="font-family: 'Times New Roman'; font-size: 12px; fill: rgb(0, 0, 0); fill-opacity: 1; white-space: pre; opacity: 1;" transform="translate(0,109.64)">4e+7</text></g><g class="ytick"><text text-anchor="end" x="52" y="4.199999999999999" style="font-family: 'Times New Roman'; font-size: 12px; fill: rgb(0, 0, 0); fill-opacity: 1; white-space: pre; opacity: 1;" transform="translate(0,97.97)">5e+7</text></g><g class="ytick"><text text-anchor="end" x="52" y="4.199999999999999" style="font-family: 'Times New Roman'; font-size: 12px; fill: rgb(0, 0, 0); fill-opacity: 1; white-space: pre; opacity: 1;" transform="translate(0,88.44)">6e+7</text></g><g class="ytick"><text text-anchor="end" x="52" y="4.199999999999999" style="font-family: 'Times New Roman'; font-size: 12px; fill: rgb(0, 0, 0); fill-opacity: 1; white-space: pre; opacity: 1;" transform="translate(0,80.38)">7e+7</text></g><g class="ytick"><text text-anchor="end" x="52" y="4.199999999999999" style="font-family: 'Times New Roman'; font-size: 12px; fill: rgb(0, 0, 0); fill-opacity: 1; white-space: pre; opacity: 1;" transform="translate(0,73.4)">8e+7</text></g><g class="ytick"><text text-anchor="end" x="52" y="4.199999999999999" style="font-family: 'Times New Roman'; font-size: 12px; fill: rgb(0, 0, 0); fill-opacity: 1; white-space: pre; opacity: 1;" transform="translate(0,67.25)">9e+7</text></g><g class="ytick"><text text-anchor="end" x="49" y="4.199999999999999" style="font-family: 'Times New Roman'; font-size: 12px; fill: rgb(0, 0, 0); fill-opacity: 1; white-space: pre; opacity: 1;" transform="translate(0,61.74)">1e+8</text></g></g><g class="overaxes-above"/></g></g><g class="polarlayer"/><g class="smithlayer"/><g class="ternarylayer"/><g class="geolayer"/><g class="funnelarealayer"/><g class="pielayer"/><g class="iciclelayer"/><g class="treemaplayer"/><g class="sunburstlayer"/><g class="glimages"/><defs id="topdefs-a370e2"><g class="clips"/></defs><g class="layer-above"><g class="imagelayer"/><g class="shapelayer"><g class="shape-group" data-index="0" clip-path="url(#clipa370e2x)"><path data-index="0" fill-rule="evenodd" d="M91.1,260H121.22V50H91.1Z" style="opacity: 0.4; stroke: rgb(0, 0, 0); stroke-opacity: 0; fill: rgb(44, 115, 210); fill-opacity: 1; stroke-width: 0px;"/></g><g class="shape-group" data-index="1" clip-path="url(#clipa370e2x)"><path data-index="1" fill-rule="evenodd" d="M169.68,260H199.8V50H169.68Z" style="opacity: 0.4; stroke: rgb(0, 0, 0); stroke-opacity: 0; fill: rgb(44, 115, 210); fill-opacity: 1; stroke-width: 0px;"/></g><g class="shape-group" data-index="2" clip-path="url(#clipa370e2x)"><path data-index="2" fill-rule="evenodd" d="M248.26,260H278.37V50H248.26Z" style="opacity: 0.4; stroke: rgb(0, 0, 0); stroke-opacity: 0; fill: rgb(44, 115, 210); fill-opacity: 1; stroke-width: 0px;"/></g><g class="shape-group" data-index="3" clip-path="url(#clipa370e2x)"><path data-index="3" fill-rule="evenodd" d="M326.83,260H356.95V50H326.83Z" style="opacity: 0.4; stroke: rgb(0, 0, 0); stroke-opacity: 0; fill: rgb(44, 115, 210); fill-opacity: 1; stroke-width: 0px;"/></g><g class="shape-group" data-index="4" clip-path="url(#clipa370e2x)"><path data-index="4" fill-rule="evenodd" d="M405.4,260H435.53V50H405.4Z" style="opacity: 0.4; stroke: rgb(0, 0, 0); stroke-opacity: 0; fill: rgb(44, 115, 210); fill-opacity: 1; stroke-width: 0px;"/></g><g class="shape-group" data-index="5" clip-path="url(#clipa370e2x)"><path data-index="5" fill-rule="evenodd" d="M483.98,260H514.1V50H483.98Z" style="opacity: 0.4; stroke: rgb(0, 0, 0); stroke-opacity: 0; fill: rgb(44, 115, 210); fill-opacity: 1; stroke-width: 0px;"/></g><g class="shape-group" data-index="6" clip-path="url(#clipa370e2x)"><path data-index="6" fill-rule="evenodd" d="M562.55,260H592.67V50H562.55Z" style="opacity: 0.4; stroke: rgb(0, 0, 0); stroke-opacity: 0; fill: rgb(44, 115, 210); fill-opacity: 1; stroke-width: 0px;"/></g></g></g><g class="infolayer"><g class="g-gtitle"><text class="gtitle" x="312.5" y="25" text-anchor="middle" dy="0em" style="opacity: 1; font-family: 'Times New Roman'; font-size: 17px; fill: rgb(0, 0, 0); fill-opacity: 1; white-space: pre;">Matrix 1, Sensor 6</text></g><g class="g-xtitle" transform="translate(0,-2.8000000000000114)"><text class="xtitle" x="334" y="299.8" text-anchor="middle" style="opacity: 1; font-family: 'Times New Roman'; font-size: 14px; fill: rgb(0, 0, 0); fill-opacity: 1; white-space: pre;">Time since power on (ms)</text></g><g class="g-ytitle" transform="translate(6.994140625,0)"><text class="ytitle" transform="rotate(-90,5.506250000000001,155)" x="5.506250000000001" y="155" text-anchor="middle" style="opacity: 1; font-family: 'Times New Roman'; font-size: 14px; fill: rgb(0, 0, 0); fill-opacity: 1; white-space: pre;">Resistance (Ohms)</text></g><g class="annotation" data-index="0" style="opacity: 1;"><g class="annotation-text-g" transform="rotate(0,101.1,58.5)"><g class="cursor-pointer" transform="translate(91,50)"><rect class="bg" x="0.5" y="0.5" width="19" height="16" style="stroke-width: 1px; stroke: rgb(0, 0, 0); stroke-opacity: 0; fill: rgb(0, 0, 0); fill-opacity: 0;"/><text class="annotation-text" text-anchor="middle" x="10" y="12.5" style="font-family: 'Times New Roman'; font-size: 12px; fill: rgb(0, 0, 0); fill-opacity: 1; white-space: pre;">Air</text></g></g></g><g class="annotation" data-index="1" style="opacity: 1;"><g class="annotation-text-g" transform="rotate(0,179.68,58.5)"><g class="cursor-pointer" transform="translate(170,50)"><rect class="bg" x="0.5" y="0.5" width="19" height="16" style="stroke-width: 1px; stroke: rgb(0, 0, 0); stroke-opacity: 0; fill: rgb(0, 0, 0); fill-opacity: 0;"/><text class="annotation-text" text-anchor="middle" x="10" y="12.5" style="font-family: 'Times New Roman'; font-size: 12px; fill: rgb(0, 0, 0); fill-opacity: 1; white-space: pre;">Air</text></g></g></g><g class="annotation" data-index="2" style="opacity: 1;"><g class="annotation-text-g" transform="rotate(0,258.26,58.5)"><g class="cursor-pointer" transform="translate(248,50)"><rect class="bg" x="0.5" y="0.5" width="19" height="16" style="stroke-width: 1px; stroke: rgb(0, 0, 0); stroke-opacity: 0; fill: rgb(0, 0, 0); fill-opacity: 0;"/><text class="annotation-text" text-anchor="middle" x="10" y="12.5" style="font-family: 'Times New Roman'; font-size: 12px; fill: rgb(0, 0, 0); fill-opacity: 1; white-space: pre;">Air</text></g></g></g><g class="annotation" data-index="3" style="opacity: 1;"><g class="annotation-text-g" transform="rotate(0,336.83,58.5)"><g class="cursor-pointer" transform="translate(327,50)"><rect class="bg" x="0.5" y="0.5" width="19" height="16" style="stroke-width: 1px; stroke: rgb(0, 0, 0); stroke-opacity: 0; fill: rgb(0, 0, 0); fill-opacity: 0;"/><text class="annotation-text" text-anchor="middle" x="10" y="12.5" style="font-family: 'Times New Roman'; font-size: 12px; fill: rgb(0, 0, 0); fill-opacity: 1; white-space: pre;">Air</text></g></g></g><g class="annotation" data-index="4" style="opacity: 1;"><g class="annotation-text-g" transform="rotate(0,415.4,58.5)"><g class="cursor-pointer" transform="translate(405,50)"><rect class="bg" x="0.5" y="0.5" width="19" height="16" style="stroke-width: 1px; stroke: rgb(0, 0, 0); stroke-opacity: 0; fill: rgb(0, 0, 0); fill-opacity: 0;"/><text class="annotation-text" text-anchor="middle" x="10" y="12.5" style="font-family: 'Times New Roman'; font-size: 12px; fill: rgb(0, 0, 0); fill-opacity: 1; white-space: pre;">Air</text></g></g></g><g class="annotation" data-index="5" style="opacity: 1;"><g class="annotation-text-g" transform="rotate(0,493.98,58.5)"><g class="cursor-pointer" transform="translate(484,50)"><rect class="bg" x="0.5" y="0.5" width="19" height="16" style="stroke-width: 1px; stroke: rgb(0, 0, 0); stroke-opacity: 0; fill: rgb(0, 0, 0); fill-opacity: 0;"/><text class="annotation-text" text-anchor="middle" x="10" y="12.5" style="font-family: 'Times New Roman'; font-size: 12px; fill: rgb(0, 0, 0); fill-opacity: 1; white-space: pre;">Air</text></g></g></g><g class="annotation" data-index="6" style="opacity: 1;"><g class="annotation-text-g" transform="rotate(0,572.55,58.5)"><g class="cursor-pointer" transform="translate(563,50)"><rect class="bg" x="0.5" y="0.5" width="19" height="16" style="stroke-width: 1px; stroke: rgb(0, 0, 0); stroke-opacity: 0; fill: rgb(0, 0, 0); fill-opacity: 0;"/><text class="annotation-text" text-anchor="middle" x="10" y="12.5" style="font-family: 'Times New Roman'; font-size: 12px; fill: rgb(0, 0, 0); fill-opacity: 1; white-space: pre;">Air</text></g></g></g></g></svg>