<svg class="main-svg" xmlns="http://www.w3.org/2000/svg" xmlns:xlink="http://www.w3.org/1999/xlink" width="625" height="500" style="" viewBox="0 0 625 500"><rect x="0" y="0" width="625" height="500" style="fill: rgb(255, 255, 255); fill-opacity: 1;"/><defs id="defs-5df99b"><g class="clips"><clipPath id="clip5df99bxyplot" class="plotclip"><rect width="565" height="163.99999999999997"/></clipPath><clipPath id="clip5df99bx2y2plot" class="plotclip"><rect width="565" height="164"/></clipPath><clipPath class="axesclip" id="clip5df99bx"><rect x="50" y="0" width="565" height="500"/></clipPath><clipPath class="axesclip" id="clip5df99by"><rect x="0" y="50" width="625" height="163.99999999999997"/></clipPath><clipPath class="axesclip" id="clip5df99bxy"><rect x="50" y="50" width="565" height="163.99999999999997"/></clipPath><clipPath class="axesclip" id="clip5df99by2"><rect x="0" y="296" width="625" height="164"/></clipPath><clipPath class="axesclip" id="clip5df99bxy2"><rect x="50" y="296" width="565" height="164"/></clipPath><clipPath class="axesclip" id="clip5df99bx2"><rect x="50" y="0" width="565" height="500"/></clipPath><clipPath class="axesclip" id="clip5df99bx2y"><rect x="50" y="50" width="565" height="163.99999999999997"/></clipPath><clipPath class="axesclip" id="clip5df99bx2y2"><rect x="50" y="296" width="565" height="164"/></clipPath></g><g class="gradients"/><g class="patterns"/></defs><g class="bglayer"><rect class="bg" x="50" y="50" width="565" height="163.99999999999997" style="fill: rgb(229, 236, 246); fill-opacity: 1; stroke-width: 0;"/><rect class="bg" x="50" y="296" width="565" height="164" style="fill: rgb(229, 236, 246); fill-opacity: 1; stroke-width: 0;"/></g><g class="layer-below"><g class="imagelayer"/><g class="shapelayer"/></g><g class="cartesianlayer"><g class="subplot xy"><g class="layer-subplot"><g class="shapelayer"/><g class="imagelayer"/></g><g class="minor-gridlayer"><g class="x"/><g class="y"/></g><g class="gridlayer"><g class="x"><path class="xgrid crisp" transform="translate(92.28,0)" d="M0,50v163.99999999999997" style="stroke: rgb(255, 255, 255); stroke-opacity: 1; stroke-width: 1px;"/><path class="xgrid crisp" transform="translate(223.09,0)" d="M0,50v163.99999999999997" style="stroke: rgb(255, 255, 255); stroke-opacity: 1; stroke-width: 1px;"/><path class="xgrid crisp" transform="translate(353.9,0)" d="M0,50v163.99999999999997" style="stroke: rgb(255, 255, 255); stroke-opacity: 1; stroke-width: 1px;"/><path class="xgrid crisp" transform="translate(484.71,0)" d="M0,50v163.99999999999997" style="stroke: rgb(255, 255, 255); stroke-opacity: 1; stroke-width: 1px;"/></g><g class="y"><path class="ygrid crisp" transform="translate(0,137.55)" d="M50,0h565" style="stroke: rgb(255, 255, 255); stroke-opacity: 1; stroke-width: 1px;"/><path class="ygrid crisp" transform="translate(0,65.41)" d="M50,0h565" style="stroke: rgb(255, 255, 255); stroke-opacity: 1; stroke-width: 1px;"/></g></g><g class="zerolinelayer"><path class="yzl zl crisp" transform="translate(0,209.7)" d="M50,0h565" style="stroke: rgb(255, 255, 255); stroke-opacity: 1; stroke-width: 2px;"/></g><g class="layer-between"><g class="shapelayer"/><g class="imagelayer"/></g><path class="xlines-below"/><path class="ylines-below"/><g class="overlines-below"/><g class="xaxislayer-below"/><g class="yaxislayer-below"/><g class="overaxes-below"/><g class="overplot"><g class="xy" transform="translate(50,50)" clip-path="url(#clip5df99bxyplot)"><g class="scatterlayer mlayer"><g class="trace scatter trace243d02" style="stroke-miterlimit: 2; opacity: 1;"><g class="fills"/><g class="errorbars"/><g class="lines"><path class="js-line" d="M32,11.95L525.67,11.95" style="vector-effect: none; fill: none; stroke: rgb(219, 7, 61); stroke-opacity: 1; stroke-width: 2px; opacity: 1;"/></g><g class="points"><path class="point" transform="translate(32,11.95)" d="M3,0A3,3 0 1,1 0,-3A3,3 0 0,1 3,0Z" style="opacity: 1; stroke-width: 0px; fill: rgb(219, 7, 61); fill-opacity: 1;"/><path class="point" transform="translate(279.7,11.95)" d="M3,0A3,3 0 1,1 0,-3A3,3 0 0,1 3,0Z" style="opacity: 1; stroke-width: 0px; fill: rgb(219, 7, 61); fill-opacity: 1;"/><path class="point" transform="translate(525.67,11.95)" d="M3,0A3,3 0 1,1 0,-3A3,3 0 0,1 3,0Z" style="opacity: 1; stroke-width: 0px; fill: rgb(219, 7, 61); fill-opacity: 1;"/></g><g class="text"/></g><g class="trace scatter trace7e8a03" style="stroke-miterlimit: 2; opacity: 1;"><g class="fills"/><g class="errorbars"/><g class="lines"><path class="js-line" d="M35.66,152.05L529.34,151.98" style="vector-effect: none; fill: none; stroke: rgb(219, 165, 7); stroke-opacity: 1; stroke-width: 2px; opacity: 1;"/></g><g class="points"><path class="point" transform="translate(35.66,152.05)" d="M3,0A3,3 0 1,1 0,-3A3,3 0 0,1 3,0Z" style="opacity: 1; stroke-width: 0px; fill: rgb(219, 165, 7); fill-opacity: 1;"/><path class="point" transform="translate(283.36,152.01)" d="M3,0A3,3 0 1,1 0,-3A3,3 0 0,1 3,0Z" style="opacity: 1; stroke-width: 0px; fill: rgb(219, 165, 7); fill-opacity: 1;"/><path class="point" transform="translate(529.34,151.98)" d="M3,0A3,3 0 1,1 0,-3A3,3 0 0,1 3,0Z" style="opacity: 1; stroke-width: 0px; fill: rgb(219, 165, 7); fill-opacity: 1;"/></g><g class="text"/></g><g class="trace scatter trace54ab14" style="stroke-miterlimit: 2; opacity: 1;"><g class="fills"/><g class="errorbars"/><g class="lines"><path class="js-line" d="M39.33,151.55L533,151.52" style="vector-effect: none; fill: none; stroke: rgb(13, 105, 134); stroke-opacity: 1; stroke-width: 2px; opacity: 1;"/></g><g class="points"><path class="point" transform="translate(39.33,151.55)" d="M3,0A3,3 0 1,1 0,-3A3,3 0 0,1 3,0Z" style="opacity: 1; stroke-width: 0px; fill: rgb(13, 105, 134); fill-opacity: 1;"/><path class="point" transform="translate(287.01,151.54)" d="M3,0A3,3 0 1,1 0,-3A3,3 0 0,1 3,0Z" style="opacity: 1; stroke-width: 0px; fill: rgb(13, 105, 134); fill-opacity: 1;"/><path class="point" transform="translate(533,151.52)" d="M3,0A3,3 0 1,1 0,-3A3,3 0 0,1 3,0Z" style="opacity: 1; stroke-width: 0px; fill: rgb(13, 105, 134); fill-opacity: 1;"/></g><g class="text"/></g></g></g></g><path class="xlines-above crisp" d="M0,0" style="fill: none;"/><path class="ylines-above crisp" d="M0,0" style="fill: none;"/><g class="overlines-above"/><g class="xaxislayer-above"><g class="xtick"><text text-anchor="middle" x="0" y="226.99999999999997" transform="translate(92.28,0)" style="font-family: 'Times New Roman'; font-size: 12px; fill: rgb(0, 0, 0); fill-opacity: 1; white-space: pre; opacity: 1;">4e+5</text></g><g class="xtick"><text text-anchor="middle" x="0" y="226.99999999999997" style="font-family: 'Times New Roman'; font-size: 12px; fill: rgb(0, 0, 0); fill-opacity: 1; white-space: pre; opacity: 1;" transform="translate(223.09,0)">4e+5</text></g><g class="xtick"><text text-anchor="middle" x="0" y="226.99999999999997" style="font-family: 'Times New Roman'; font-size: 12px; fill: rgb(0, 0, 0); fill-opacity: 1; white-space: pre; opacity: 1;" transform="translate(353.9,0)">4e+5</text></g><g class="xtick"><text text-anchor="middle" x="0" y="226.99999999999997" style="font-family: 'Times New Roman'; font-size: 12px; fill: rgb(0, 0, 0); fill-opacity: 1; white-space: pre; opacity: 1;" transform="translate(484.71,0)">4e+5</text></g></g><g class="yaxislayer-above"><g class="ytick"><text text-anchor="end" x="49" y="4.199999999999999" transform="translate(0,209.7)" style="font-family: 'Times New Roman'; font-size: 12px; fill: rgb(0, 0, 0); fill-opacity: 1; white-space: pre; opacity: 1;">0e+0</text></g><g class="ytick"><text text-anchor="end" x="49" y="4.199999999999999" style="font-family: 'Times New Roman'; font-size: 12px; fill: rgb(0, 0, 0); fill-opacity: 1; white-space: pre; opacity: 1;" transform="translate(0,137.55)">5e+7</text></g><g class="ytick"><text text-anchor="end" x="49" y="4.199999999999999" style="font-family: 'Times New Roman'; font-size: 12px; fill: rgb(0, 0, 0); fill-opacity: 1; white-space: pre; opacity: 1;" transform="translate(0,65.41)">1e+8</text></g></g><g class="overaxes-above"/></g><g class="subplot x2y2"><g class="layer-subplot"><g class="shapelayer"/><g class="imagelayer"/></g><g class="minor-gridlayer"><g class="x2"/><g class="y2"/></g><g class="gridlayer"><g class="x2"><path class="x2grid crisp" transform="translate(92.43,0)" d="M0,296v164" style="stroke: rgb(255, 255, 255); stroke-opacity: 1; stroke-width: 1px;"/><path class="x2grid crisp" transform="translate(225.18,0)" d="M0,296v164" style="stroke: rgb(255, 255, 255); stroke-opacity: 1; stroke-width: 1px;"/><path class="x2grid crisp" transform="translate(357.93,0)" d="M0,296v164" style="stroke: rgb(255, 255, 255); stroke-opacity: 1; stroke-width: 1px;"/><path class="x2grid crisp" transform="translate(490.69,0)" d="M0,296v164" style="stroke: rgb(255, 255, 255); stroke-opacity: 1; stroke-width: 1px;"/></g><g class="y2"><path class="y2grid crisp" transform="translate(0,383.55)" d="M50,0h565" style="stroke: rgb(255, 255, 255); stroke-opacity: 1; stroke-width: 1px;"/><path class="y2grid crisp" transform="translate(0,311.41)" d="M50,0h565" style="stroke: rgb(255, 255, 255); stroke-opacity: 1; stroke-width: 1px;"/></g></g><g class="zerolinelayer"><path class="y2zl zl crisp" transform="translate(0,455.69)" d="M50,0h565" style="stroke: rgb(255, 255, 255); stroke-opacity: 1; stroke-width: 2px;"/></g><g class="layer-between"><g class="shapelayer"/><g class="imagelayer"/></g><path class="xlines-below"/><path class="ylines-below"/><g class="overlines-below"/><g class="xaxislayer-below"/><g class="yaxislayer-below"/><g class="overaxes-below"/><g class="overplot"><g class="x2y2" transform="translate(50,296)" clip-path="url(#clip5df99bx2y2plot)"><g class="scatterlayer mlayer"><g class="trace scatter traceca5abe" style="stroke-miterlimit: 2; opacity: 1;"><g class="fills"/><g class="errorbars"/><g class="lines"><path class="js-line" d="M32,11.95L533,11.95" style="vector-effect: none; fill: none; stroke: rgb(219, 7, 61); stroke-opacity: 1; stroke-width: 2px; opacity: 1;"/></g><g class="points"><path class="point" transform="translate(32,11.95)" d="M3,0A3,3 0 1,1 0,-3A3,3 0 0,1 3,0Z" style="opacity: 1; stroke-width: 0px; fill: rgb(219, 7, 61); fill-opacity: 1;"/><path class="point" transform="translate(132.2,11.95)" d="M3,0A3,3 0 1,1 0,-3A3,3 0 0,1 3,0Z" style="opacity: 1; stroke-width: 0px; fill: rgb(219, 7, 61); fill-opacity: 1;"/><path class="point" transform="translate(232.4,11.95)" d="M3,0A3,3 0 1,1 0,-3A3,3 0 0,1 3,0Z" style="opacity: 1; stroke-width: 0px; fill: rgb(219, 7, 61); fill-opacity: 1;"/><path class="point" transform="translate(332.6,11.95)" d="M3,0A3,3 0 1,1 0,-3A3,3 0 0,1 3,0Z" style="opacity: 1; stroke-width: 0px; fill: rgb(219, 7, 61); fill-opacity: 1;"/><path class="point" transform="translate(432.8,11.95)" d="M3,0A3,3 0 1,1 0,-3A3,3 0 0,1 3,0Z" style="opacity: 1; stroke-width: 0px; fill: rgb(219, 7, 61); fill-opacity: 1;"/><path class="point" transform="translate(533,11.95)" d="M3,0A3,3 0 1,1 0,-3A3,3 0 0,1 3,0Z" style="opacity: 1; stroke-width: 0px; fill: rgb(219, 7, 61); fill-opacity: 1;"/></g><g class="text"/></g><g class="trace scatter trace8821a5" style="stroke-miterlimit: 2; opacity: 1;"><g class="fills"/><g class="errorbars"/><g class="lines"><path class="js-line" d="M32,152.05L533,151.98" style="vector-effect: none; fill: none; stroke: rgb(219, 165, 7); stroke-opacity: 1; stroke-width: 2px; opacity: 1;"/></g><g class="points"><path class="point" transform="translate(32,152.05)" d="M3,0A3,3 0 1,1 0,-3A3,3 0 0,1 3,0Z" style="opacity: 1; stroke-width: 0px; fill: rgb(219, 165, 7); fill-opacity: 1;"/><path class="point" transform="translate(132.2,152.04)" d="M3,0A3,3 0 1,1 0,-3A3,3 0 0,1 3,0Z" style="opacity: 1; stroke-width: 0px; fill: rgb(219, 165, 7); fill-opacity: 1;"/><path class="point" transform="translate(232.4,152.02)" d="M3,0A3,3 0 1,1 0,-3A3,3 0 0,1 3,0Z" style="opacity: 1; stroke-width: 0px; fill: rgb(219, 165, 7); fill-opacity: 1;"/><path class="point" transform="translate(332.6,152.01)" d="M3,0A3,3 0 1,1 0,-3A3,3 0 0,1 3,0Z" style="opacity: 1; stroke-width: 0px; fill: rgb(219, 165, 7); fill-opacity: 1;"/><path class="point" transform="translate(432.8,152)" d="M3,0A3,3 0 1,1 0,-3A3,3 0 0,1 3,0Z" style="opacity: 1; stroke-width: 0px; fill: rgb(219, 165, 7); fill-opacity: 1;"/><path class="point" transform="translate(533,151.98)" d="M3,0A3,3 0 1,1 0,-3A3,3 0 0,1 3,0Z" style="opacity: 1; stroke-width: 0px; fill: rgb(219, 165, 7); fill-opacity: 1;"/></g><g class="text"/></g><g class="trace scatter trace736cb3" style="stroke-miterlimit: 2; opacity: 1;"><g class="fills"/><g class="errorbars"/><g class="lines"><path class="js-line" d="M32,151.55L533,151.52" style="vector-effect: none; fill: none; stroke: rgb(13, 105, 134); stroke-opacity: 1; stroke-width: 2px; opacity: 1;"/></g><g class="points"><path class="point" transform="translate(32,151.55)" d="M3,0A3,3 0 1,1 0,-3A3,3 0 0,1 3,0Z" style="opacity: 1; stroke-width: 0px; fill: rgb(13, 105, 134); fill-opacity: 1;"/><path class="point" transform="translate(132.2,151.54)" d="M3,0A3,3 0 1,1 0,-3A3,3 0 0,1 3,0Z" style="opacity: 1; stroke-width: 0px; fill: rgb(13, 105, 134); fill-opacity: 1;"/><path class="point" transform="translate(232.4,151.54)" d="M3,0A3,3 0 1,1 0,-3A3,3 0 0,1 3,0Z" style="opacity: 1; stroke-width: 0px; fill: rgb(13, 105, 134); fill-opacity: 1;"/><path class="point" transform="translate(332.6,151.54)" d="M3,0A3,3 0 1,1 0,-3A3,3 0 0,1 3,0Z" style="opacity: 1; stroke-width: 0px; fill: rgb(13, 105, 134); fill-opacity: 1;"/><path class="point" transform="translate(432.8,151.53)" d="M3,0A3,3 0 1,1 0,-3A3,3 0 0,1 3,0Z" style="opacity: 1; stroke-width: 0px; fill: rgb(13, 105, 134); fill-opacity: 1;"/><path class="point" transform="translate(533,151.52)" d="M3,0A3,3 0 1,1 0,-3A3,3 0 0,1 3,0Z" style="opacity: 1; stroke-width: 0px; fill: rgb(13, 105, 134); fill-opacity: 1;"/></g><g class="text"/></g></g></g></g><path class="xlines-above crisp" d="M0,0" style="fill: none;"/><path class="ylines-above crisp" d="M0,0" style="fill: none;"/><g class="overlines-above"/><g class="xaxislayer-above"><g class="x2tick"><text text-anchor="middle" x="0" y="473" transform="translate(92.43,0)" style="font-family: 'Times New Roman'; font-size: 12px; fill: rgb(0, 0, 0); fill-opacity: 1; white-space: pre; opacity: 1;">4e+5</text></g><g class="x2tick"><text text-anchor="middle" x="0" y="473" style="font-family: 'Times New Roman'; font-size: 12px; fill: rgb(0, 0, 0); fill-opacity: 1; white-space: pre; opacity: 1;" transform="translate(225.18,0)">4e+5</text></g><g class="x2tick"><text text-anchor="middle" x="0" y="473" style="font-family: 'Times New Roman'; font-size: 12px; fill: rgb(0, 0, 0); fill-opacity: 1; white-space: pre; opacity: 1;" transform="translate(357.93,0)">4e+5</text></g><g class="x2tick"><text text-anchor="middle" x="0" y="473" style="font-family: 'Times New Roman'; font-size: 12px; fill: rgb(0, 0, 0); fill-opacity: 1; white-space: pre; opacity: 1;" transform="translate(490.69,0)">4e+5</text></g></g><g class="yaxislayer-above"><g class="y2tick"><text text-anchor="end" x="49" y="4.199999999999999" transform="translate(0,455.69)" style="font-family: 'Times New Roman'; font-size: 12px; fill: rgb(0, 0, 0); fill-opacity: 1; white-space: pre; opacity: 1;">0e+0</text></g><g class="y2tick"><text text-anchor="end" x="49" y="4.199999999999999" style="font-family: 'Times New Roman'; font-size: 12px; fill: rgb(0, 0, 0); fill-opacity: 1; white-space: pre; opacity: 1;" transform="translate(0,383.55)">5e+7</text></g><g class="y2tick"><text text-anchor="end" x="49" y="4.199999999999999" style="font-family: 'Times New Roman'; font-size: 12px; fill: rgb(0, 0, 0); fill-opacity: 1; white-space: pre; opacity: 1;" transform="translate(0,311.41)">1e+8</text></g></g><g class="overaxes-above"/></g></g><g class="polarlayer"/><g class="smithlayer"/><g class="ternarylayer"/><g class="geolayer"/><g class="funnelarealayer"/><g class="pielayer"/><g class="iciclelayer"/><g class="treemaplayer"/><g class="sunburstlayer"/><g class="glimages"/><defs id="topdefs-5df99b"><g class="clips"/></defs><g class="layer-above"><g class="imagelayer"/><g class="shapelayer"/></g><g class="infolayer"><g class="g-gtitle"><text class="gtitle" x="312.5" y="25" text-anchor="middle" dy="0em" style="opacity: 1; font-family: 'Times New Roman'; font-size: 17px; fill: rgb(0, 0, 0); fill-opacity: 1; white-space: pre;">Effects of Interpolation</text></g><g class="g-xtitle"><text class="xtitle" x="332.5" y="253.8" text-anchor="middle" style="opacity: 1; font-family: 'Times New Roman'; font-size: 14px; fill: rgb(0, 0, 0); fill-opacity: 1; white-space: pre;">Time since power on (ms)</text></g><g class="g-x2title" transform="translate(0,-2.8000000000000114)"><text class="x2title" x="332.5" y="499.8" text-anchor="middle" style="opacity: 1; font-family: 'Times New Roman'; font-size: 14px; fill: rgb(0, 0, 0); fill-opacity: 1; white-space: pre;">Time since power on (ms)</text></g><g class="g-ytitle" transform="translate(6.994140625,0)"><text class="ytitle" transform="rotate(-90,5.506250000000001,132)" x="5.506250000000001" y="132" text-anchor="middle" style="opacity: 1; font-family: 'Times New Roman'; font-size: 14px; fill: rgb(0, 0, 0); fill-opacity: 1; white-space: pre;">Resistance (Ohms)</text></g><g class="g-y2title" transform="translate(6.994140625,0)"><text class="y2title" transform="rotate(-90,5.506250000000001,378)" x="5.506250000000001" y="378" text-anchor="middle" style="opacity: 1; font-family: 'Times New Roman'; font-size: 14px; fill: rgb(0, 0, 0); fill-opacity: 1; white-space: pre;">Resistance (Ohms)</text></g><g class="annotation" data-index="0" style="opacity: 1;"><g class="annotation-text-g" transform="rotate(0,332.5,39)"><g class="cursor-pointer" transform="translate(300,28)"><rect class="bg" x="0.5" y="0.5" width="65" height="21" style="stroke-width: 1px; stroke: rgb(0, 0, 0); stroke-opacity: 0; fill: rgb(0, 0, 0); fill-opacity: 0;"/><text class="annotation-text" text-anchor="middle" x="32.890625" y="16.5" style="font-family: 'Times New Roman'; font-size: 16px; fill: rgb(0, 0, 0); fill-opacity: 1; white-space: pre;">LPF Data</text></g></g></g><g class="annotation" data-index="1" style="opacity: 1;"><g class="annotation-text-g" transform="rotate(0,332.5,285)"><g class="cursor-pointer" transform="translate(275,274)"><rect class="bg" x="0.5" y="0.5" width="115" height="21" style="stroke-width: 1px; stroke: rgb(0, 0, 0); stroke-opacity: 0; fill: rgb(0, 0, 0); fill-opacity: 0;"/><text class="annotation-text" text-anchor="middle" x="57.75" y="16.5" style="font-family: 'Times New Roman'; font-size: 16px; fill: rgb(0, 0, 0); fill-opacity: 1; white-space: pre;">Interpolated Data</text></g></g></g></g></svg>