<svg class="main-svg" xmlns="http://www.w3.org/2000/svg" xmlns:xlink="http://www.w3.org/1999/xlink" width="625" height="300" style="" viewBox="0 0 625 300"><rect x="0" y="0" width="625" height="300" style="fill: rgb(255, 255, 255); fill-opacity: 1;"/><defs id="defs-3a9108"><g class="clips"><clipPath id="clip3a9108xyplot" class="plotclip"><rect width="577" height="210"/></clipPath><clipPath class="axesclip" id="clip3a9108x"><rect x="38" y="0" width="577" height="300"/></clipPath><clipPath class="axesclip" id="clip3a9108y"><rect x="0" y="50" width="625" height="210"/></clipPath><clipPath class="axesclip" id="clip3a9108xy"><rect x="38" y="50" width="577" height="210"/></clipPath></g><g class="gradients"/><g class="patterns"/></defs><g class="bglayer"><rect class="bg" x="38" y="50" width="577" height="210" style="fill: rgb(229, 236, 246); fill-opacity: 1; stroke-width: 0;"/></g><g class="layer-below"><g class="imagelayer"/><g class="shapelayer"/></g><g class="cartesianlayer"><g class="subplot xy"><g class="layer-subplot"><g class="shapelayer"/><g class="imagelayer"/></g><g class="minor-gridlayer"><g class="x"/><g class="y"/></g><g class="gridlayer"><g class="x"><path class="xgrid crisp" transform="translate(60.09,0)" d="M0,50v210" style="stroke: rgb(255, 255, 255); stroke-opacity: 1; stroke-width: 1px;"/><path class="xgrid crisp" transform="translate(173.24,0)" d="M0,50v210" style="stroke: rgb(255, 255, 255); stroke-opacity: 1; stroke-width: 1px;"/><path class="xgrid crisp" transform="translate(286.39,0)" d="M0,50v210" style="stroke: rgb(255, 255, 255); stroke-opacity: 1; stroke-width: 1px;"/><path class="xgrid crisp" transform="translate(399.54,0)" d="M0,50v210" style="stroke: rgb(255, 255, 255); stroke-opacity: 1; stroke-width: 1px;"/><path class="xgrid crisp" transform="translate(512.7,0)" d="M0,50v210" style="stroke: rgb(255, 255, 255); stroke-opacity: 1; stroke-width: 1px;"/></g><g class="y"><path class="ygrid crisp" transform="translate(0,224.2)" d="M38,0h577" style="stroke: rgb(255, 255, 255); stroke-opacity: 1; stroke-width: 1px;"/><path class="ygrid crisp" transform="translate(0,187.37)" d="M38,0h577" style="stroke: rgb(255, 255, 255); stroke-opacity: 1; stroke-width: 1px;"/><path class="ygrid crisp" transform="translate(0,150.53)" d="M38,0h577" style="stroke: rgb(255, 255, 255); stroke-opacity: 1; stroke-width: 1px;"/><path class="ygrid crisp" transform="translate(0,113.7)" d="M38,0h577" style="stroke: rgb(255, 255, 255); stroke-opacity: 1; stroke-width: 1px;"/><path class="ygrid crisp" transform="translate(0,76.87)" d="M38,0h577" style="stroke: rgb(255, 255, 255); stroke-opacity: 1; stroke-width: 1px;"/></g></g><g class="zerolinelayer"/><g class="layer-between"><g class="shapelayer"/><g class="imagelayer"/></g><path class="xlines-below"/><path class="ylines-below"/><g class="overlines-below"/><g class="xaxislayer-below"/><g class="yaxislayer-below"/><g class="overaxes-below"/><g class="overplot"><g class="xy" transform="translate(38,50)" clip-path="url(#clip3a9108xyplot)"><g class="scatterlayer mlayer"><g class="trace scatter tracea3bbe6" style="stroke-miterlimit: 2; opacity: 1;"><g class="fills"/><g class="errorbars"/><g class="lines"><path class="js-line" d="M0,10.5L34.71,10.53L36.15,12.02L37.6,11.99L39.05,11.15L41.94,10.5L43.38,10.5L53.51,10.51L54.95,11.34L57.84,10.5L59.29,10.5L577,10.5" style="vector-effect: none; fill: none; stroke: rgb(99, 110, 250); stroke-opacity: 1; stroke-width: 2px; opacity: 1;"/></g><g class="points"/><g class="text"/></g><g class="trace scatter tracee7b588" style="stroke-miterlimit: 2; opacity: 1;"><g class="fills"/><g class="errorbars"/><g class="lines"><path class="js-line" d="M0,150.76L21.69,149.28L23.14,149.37L33.26,148.88L34.71,152.83L36.15,186.25L37.6,187.86L43.38,185.71L44.83,185.46L53.51,184.95L54.95,185.27L62.18,184.73L63.63,184.78L72.31,184.6L73.75,184.77L76.64,183.95L78.09,161.16L79.54,152.66L80.98,150.7L85.32,149.09L86.77,148.87L91.11,148.32L92.55,148.19L98.34,147.56L99.78,147.48L109.9,147.18L111.35,147.25L114.24,146.97L115.69,147.77L118.58,183.78L120.03,183.7L124.37,183.14L125.81,183.16L130.15,183.03L131.6,183.03L148.95,182.91L150.4,183.05L154.73,183.09L156.18,182.25L157.63,161.38L159.07,152.17L161.96,149.55L163.41,148.91L170.64,147.33L172.09,147.57L182.21,146.67L183.66,146.78L190.89,146.03L192.33,146.36L196.67,146.35L198.12,151.42L199.56,182.88L201.01,184.54L205.35,183.77L206.79,183.61L214.03,183.62L215.47,183.55L221.26,183.84L222.7,183.43L228.49,183.61L229.93,183.5L237.16,183.38L238.61,172.74L240.06,154.15L241.5,150.89L244.39,148.82L245.84,148.38L248.73,147.33L250.18,147.27L258.85,146.53L260.3,146.48L274.76,146.1L276.21,146.17L277.65,146.19L279.1,149.61L280.55,178.75L281.99,181.67L284.88,180.98L286.33,181.21L293.56,181.03L295.01,181.15L305.13,181.47L306.58,181.49L310.91,181.37L312.36,181.77L318.15,181.21L319.59,180L321.04,158.07L322.48,150.94L325.38,147.64L326.82,146.86L329.71,145.73L331.16,145.82L334.05,145.56L335.5,144.53L339.84,144.52L341.28,144.55L344.18,144.01L345.62,143.93L348.51,142.84L349.96,143.71L352.85,144.19L354.3,144.25L358.64,144.8L360.08,145.57L361.53,168.4L362.97,178.6L368.76,178.79L370.21,178.8L378.88,179.14L380.33,178.99L403.47,179.06L404.91,174.18L406.36,153.97L407.8,150.23L410.7,147.35L412.14,146.82L415.04,146.63L416.48,146.04L425.16,146.59L426.6,146.42L433.83,145.8L435.28,145.75L441.07,145.69L442.51,152.94L443.96,175.95L445.4,177.08L472.88,177.45L474.33,177.68L477.22,177.4L478.66,177.41L481.56,177.25L483,168.6L484.45,152.5L485.89,148.78L490.23,145.61L491.68,145.28L497.46,144.42L498.91,144.27L506.14,143.81L507.59,143.92L520.6,143.53L522.05,143.8L524.94,149.57L526.39,150.4L535.06,151.86L536.51,151.85L556.75,152.38L558.2,152.26L562.54,152.57L563.98,152.32L565.43,147.88L566.88,146.03L571.22,145.17L572.66,144.85L577,144.42" style="vector-effect: none; fill: none; stroke: rgb(239, 85, 59); stroke-opacity: 1; stroke-width: 2px; opacity: 1;"/></g><g class="points"/><g class="text"/></g><g class="trace scatter trace8918f7" style="stroke-miterlimit: 2; opacity: 1;"><g class="fills"/><g class="errorbars"/><g class="lines"><path class="js-line" d="M0,34.55L11.57,32.29L13.02,32.38L20.25,32.07L21.69,31.93L30.37,31.31L31.81,31.16L33.26,31.1L34.71,34.57L36.15,90.23L37.6,99.52L40.49,97.85L41.94,97.25L50.61,95.82L52.06,95.74L53.51,95.63L54.95,96.3L59.29,95.51L60.74,95.69L70.86,96.24L72.31,95.93L75.2,96.06L76.64,93.78L78.09,56.17L79.54,41.72L82.43,36.43L83.87,35.67L89.66,33.41L91.11,32.98L102.67,30.84L104.12,30.9L112.8,29.84L114.24,29.89L115.69,30.94L117.14,69.35L118.58,93.64L120.03,93.69L134.49,93.08L135.93,93.26L147.5,93.68L148.95,93.27L153.29,94.24L154.73,93.79L156.18,92.89L157.63,57.22L159.07,41.42L160.52,37.82L163.41,34.95L164.86,33.88L172.09,31.53L173.53,31.55L177.87,30.28L179.32,30.38L196.67,28.88L198.12,38.13L199.56,90.45L201.01,95.54L203.9,94.74L205.35,94.61L214.03,94.78L215.47,94.59L225.59,95.51L227.04,95.22L237.16,94.83L238.61,77.69L240.06,44.81L241.5,39.01L244.39,34.97L245.84,33.86L250.18,31.94L251.62,31.52L257.41,30.33L258.85,30.25L261.75,29.91L263.19,29.73L268.98,28.84L270.42,28.52L277.65,28.91L279.1,32.3L280.55,81.79L281.99,90.86L286.33,90.43L287.78,90.47L295.01,90.57L296.45,90.71L303.68,91.3L305.13,91.41L310.91,91.4L312.36,92.14L318.15,91.77L319.59,90.19L321.04,51.92L322.48,37.95L323.93,34.01L325.38,32.65L329.71,28.02L331.16,28.77L332.61,28.91L334.05,28.2L335.5,25.83L336.94,26.42L339.84,25.42L341.28,25.87L342.73,24.1L344.18,24.38L345.62,24.52L347.07,23.22L348.51,21.18L349.96,23.55L351.41,24.59L352.85,24.58L355.74,24.89L357.19,24.72L358.64,25.33L360.08,26.88L362.97,85.65L364.42,86.3L368.76,85.89L370.21,85.99L386.11,87.22L387.56,87.01L391.9,86.97L393.34,86.98L403.47,87.41L404.91,77.63L406.36,43.69L407.8,36.23L410.7,30.03L412.14,28.96L413.59,29.44L415.04,28.97L416.48,27.59L417.93,27.8L420.82,27.76L422.27,28.6L425.16,29.2L426.6,28.46L435.28,27.18L436.73,27.3L441.07,26.25L442.51,38.92L443.96,80.38L445.4,83.59L451.19,83.05L452.63,83.3L458.42,83.56L459.86,83.66L462.76,83.47L464.2,83.93L481.56,84.2L483,69.44L484.45,39.51L485.89,32.6L488.79,28.27L490.23,27.09L494.57,25.03L496.02,24.87L506.14,23.1L507.59,23.25L510.48,22.83L511.92,23.02L517.71,22.57L519.16,21.3L522.05,22.64L523.49,27.56L524.94,34.86L526.39,35.59L535.06,39.04L536.51,39.06L543.74,39.86L545.19,39.81L553.86,39.88L555.31,39.89L562.54,40.26L563.98,38.71L565.43,29.68L566.88,26.53L569.77,25.19L571.22,25.05L574.11,23.98L575.55,24.08L577,23.62" style="vector-effect: none; fill: none; stroke: rgb(0, 204, 150); stroke-opacity: 1; stroke-width: 2px; opacity: 1;"/></g><g class="points"/><g class="text"/></g><g class="trace scatter trace6e1da1" style="stroke-miterlimit: 2; opacity: 1;"><g class="fills"/><g class="errorbars"/><g class="lines"><path class="js-line" d="M0,155.3L11.57,153.99L13.02,153.94L33.26,153.24L34.71,155.78L36.15,189.84L37.6,193.17L40.49,191.96L41.94,191.96L52.06,190.51L53.51,190.6L57.84,190.36L59.29,190.23L65.08,190.36L66.52,190.2L75.2,190.3L76.64,188.91L78.09,166.64L79.54,157.27L82.43,154.94L83.87,154.34L88.21,153.49L89.66,153.37L96.89,152.49L98.34,152.43L114.24,151.53L115.69,152.44L118.58,189.11L120.03,189.3L125.81,188.76L127.26,188.96L131.6,188.52L133.04,188.74L140.27,188.53L141.72,188.7L147.5,188.58L148.95,188.51L156.18,188.22L157.63,167.37L159.07,157.02L160.52,155.34L163.41,153.78L164.86,153.56L170.64,152.38L172.09,152.35L177.87,151.62L179.32,151.62L196.67,150.92L198.12,158.14L199.56,187.69L201.01,190.04L205.35,189.35L206.79,189.39L237.16,189.06L238.61,180.29L240.06,159.37L241.5,155.85L244.39,153.8L245.84,153.08L251.62,151.92L253.07,151.87L257.41,151.48L258.85,151.28L263.19,151.05L264.64,150.98L268.98,150.84L270.42,150.72L274.76,150.65L276.21,150.89L277.65,150.86L279.1,154.76L280.55,183.35L281.99,187.12L286.33,186.66L287.78,186.59L318.15,187.16L319.59,186.43L321.04,164.03L322.48,155.67L323.93,153.28L325.38,152.44L329.71,150.18L331.16,150.39L334.05,150.21L335.5,149.2L341.28,148.96L342.73,148.27L347.07,147.74L348.51,146.66L351.41,148.35L352.85,148.61L358.64,149.06L360.08,150L361.53,173.59L362.97,184.01L365.87,184.28L367.31,184.43L371.65,184.26L373.1,184.39L396.24,184.6L397.68,184.43L403.47,184.4L404.91,179.26L406.36,159.27L407.8,155.06L412.14,151.02L413.59,151.43L419.37,150.42L420.82,150.49L425.16,151.35L426.6,150.96L441.07,150.03L442.51,158.05L443.96,181.06L445.4,182.53L448.3,182.45L449.74,182.4L462.76,182.62L464.2,182.81L481.56,182.86L483,175.72L484.45,156.89L485.89,152.81L488.79,150.38L490.23,149.88L494.57,148.57L496.02,148.68L514.82,147.55L516.26,147.65L522.05,147.59L523.49,150.24L524.94,154.11L526.39,154.76L530.72,155.97L532.17,156.01L536.51,156.17L537.95,156.7L562.54,157.12L563.98,156.65L566.88,149.97L568.32,149.34L575.55,148.54L577,148.35" style="vector-effect: none; fill: none; stroke: rgb(171, 99, 250); stroke-opacity: 1; stroke-width: 2px; opacity: 1;"/></g><g class="points"/><g class="text"/></g><g class="trace scatter tracea77ead" style="stroke-miterlimit: 2; opacity: 1;"><g class="fills"/><g class="errorbars"/><g class="lines"><path class="js-line" d="M0,95.52L8.68,93.85L10.12,93.97L20.25,93.95L21.69,93.46L27.48,93.35L28.92,93.32L33.26,93.17L34.71,96.17L36.15,139.45L37.6,144.9L40.49,143.13L41.94,142.81L53.51,141.06L54.95,141.54L66.52,140.74L67.97,140.96L75.2,140.97L76.64,139.14L78.09,109.85L79.54,98.58L82.43,95.5L83.87,94.87L88.21,93.78L89.66,93.5L101.23,91.89L102.67,92.04L105.57,91.96L107.01,91.55L111.35,91.54L112.8,91.24L114.24,91.2L115.69,92.27L118.58,138.83L120.03,139.04L122.92,138.87L124.37,138.65L127.26,138.37L128.7,138.46L133.04,138.19L134.49,138.07L148.95,138.01L150.4,138.21L154.73,138.34L156.18,137.58L159.07,98.17L160.52,96.2L164.86,93.58L166.3,93.28L183.66,91.04L185.1,90.98L196.67,90.71L198.12,99.77L199.56,137.1L201.01,140.46L203.9,139.44L205.35,139.15L218.36,138.88L219.81,138.95L231.38,138.79L232.82,138.91L237.16,138.88L238.61,127.01L240.06,100.97L241.5,96.82L244.39,94.16L245.84,93.43L250.18,91.99L251.62,91.77L270.42,90.48L271.87,90.28L277.65,90.43L279.1,95.56L280.55,131.35L281.99,136.39L289.22,135.49L290.67,135.71L293.56,135.61L295.01,135.6L318.15,136.16L319.59,135.1L321.04,106.98L322.48,96.51L323.93,93.6L325.38,92.65L329.71,89.7L331.16,90.23L334.05,89.98L335.5,88.31L338.39,88.26L339.84,87.97L341.28,88.16L342.73,87.2L345.62,87.03L347.07,86.43L348.51,85L349.96,86.58L352.85,87.43L354.3,87.46L358.64,87.97L360.08,89.23L361.53,119.05L362.97,132.85L365.87,132.77L367.31,132.74L403.47,132.87L404.91,125.82L406.36,100.99L407.8,96.01L410.7,91.61L412.14,91.05L415.04,90.88L416.48,90.11L426.6,90.77L428.05,90.46L439.62,89.37L441.07,89.43L442.51,99.51L443.96,128.34L445.4,130.43L446.85,130.5L455.53,130.17L456.97,130.37L469.99,130.75L471.43,130.85L475.77,130.99L477.22,130.93L481.56,131.02L483,121.37L484.45,98.13L485.89,93.29L488.79,89.79L490.23,89.18L493.13,88.2L494.57,88.09L506.14,86.42L507.59,86.44L511.92,86.27L513.37,86.32L520.6,85.96L522.05,86.12L524.94,94.25L526.39,95.33L533.62,96.87L535.06,96.93L539.4,97.64L540.85,97.51L559.65,98.41L561.09,98.29L563.98,97.73L565.43,91.96L566.88,89.06L568.32,88.43L577,87.05" style="vector-effect: none; fill: none; stroke: rgb(255, 161, 90); stroke-opacity: 1; stroke-width: 2px; opacity: 1;"/></g><g class="points"/><g class="text"/></g><g class="trace scatter traceba63f0" style="stroke-miterlimit: 2; opacity: 1;"><g class="fills"/><g class="errorbars"/><g class="lines"><path class="js-line" d="M0,103.54L13.02,101.97L14.46,101.92L33.26,101.1L34.71,106.93L36.15,151.89L37.6,157.5L41.94,155.34L43.38,154.98L53.51,153.61L54.95,154.08L60.74,153.54L62.18,153.58L75.2,153.63L76.64,151.34L78.09,120.23L79.54,108.11L82.43,104.57L83.87,104.16L86.77,102.87L88.21,102.66L101.23,100.43L102.67,100.46L114.24,99.65L115.69,100.78L118.58,152.48L120.03,152.64L124.37,151.88L125.81,151.9L131.6,151.62L133.04,151.54L154.73,151.66L156.18,150.88L159.07,107.86L160.52,105.44L164.86,102.73L166.3,102.27L170.64,101.13L172.09,101.02L180.76,99.82L182.21,99.72L190.89,99.13L192.33,99.25L196.67,99.02L198.12,110.36L199.56,150.58L201.01,153.48L206.79,152.57L208.24,152.73L214.03,152.41L215.47,152.53L225.59,152.67L227.04,152.57L237.16,152.25L238.61,140.38L240.06,110.96L241.5,106.4L244.39,103.38L245.84,102.45L250.18,100.75L251.62,100.54L276.21,99.2L277.65,99.23L279.1,106.14L280.55,144.73L281.99,149.62L283.44,149.32L287.78,149.03L289.22,148.78L296.45,148.81L297.9,149.08L308.02,149.24L309.47,149.31L313.81,149.45L315.25,149.62L318.15,149.22L319.59,147.44L321.04,117.29L322.48,106.06L323.93,103.08L325.38,102.07L329.71,98.27L331.16,98.96L332.61,99.18L334.05,98.46L335.5,97.13L336.94,97.13L339.84,96.77L341.28,96.76L342.73,95.36L344.18,95.56L345.62,95.73L347.07,94.8L348.51,92.87L349.96,95.05L351.41,95.92L352.85,95.76L358.64,96.51L360.08,97.75L361.53,131.11L362.97,146.1L367.31,146.06L368.76,145.95L380.33,145.94L381.77,145.85L396.24,145.94L397.68,145.97L403.47,145.81L404.91,136.6L406.36,110.3L407.8,104.86L410.7,100.02L412.14,99.25L415.04,99.18L416.48,98.22L420.82,98.09L422.27,98.92L425.16,99.36L426.6,98.93L435.28,97.59L436.73,97.84L441.07,97.28L442.51,108.49L443.96,141.36L445.4,143.32L448.3,143.33L449.74,143.05L461.31,143.32L462.76,143.38L471.43,143.51L472.88,143.83L477.22,143.84L478.66,143.62L481.56,143.56L483,133.77L484.45,107.38L485.89,101.96L488.79,98.53L490.23,97.68L496.02,95.85L497.46,95.83L501.8,94.75L503.25,95.09L506.14,94.9L507.59,94.84L509.03,94.33L510.48,94.72L516.26,94.23L517.71,94.24L520.6,93.9L522.05,94.26L524.94,103.37L526.39,104.25L533.62,105.87L535.06,106.15L542.29,106.62L543.74,106.58L549.52,107.21L550.97,106.86L562.54,107.37L563.98,106.45L565.43,99.92L566.88,97.19L569.77,96.34L571.22,96.07L577,95.39" style="vector-effect: none; fill: none; stroke: rgb(25, 211, 243); stroke-opacity: 1; stroke-width: 2px; opacity: 1;"/></g><g class="points"/><g class="text"/></g><g class="trace scatter trace6917f8" style="stroke-miterlimit: 2; opacity: 1;"><g class="fills"/><g class="errorbars"/><g class="lines"><path class="js-line" d="M0,108.56L2.89,108.26L4.34,107.74L33.26,105.95L34.71,113.09L36.15,159.28L37.6,164.11L40.49,162.38L41.94,162.05L44.83,161.46L46.28,161.09L53.51,160.2L54.95,160.47L63.63,159.85L65.08,160.01L75.2,160L76.64,157.72L78.09,126.67L79.54,113.97L82.43,110.45L83.87,109.85L86.77,108.66L88.21,108.39L104.12,105.89L105.57,105.87L114.24,105.12L115.69,106.11L118.58,159.25L120.03,159.21L127.26,158.41L128.7,158.44L135.93,158.08L137.38,158.23L140.27,157.85L141.72,158.03L151.84,158.17L153.29,158.17L156.18,157.4L157.63,129.19L159.07,113.98L160.52,111.31L163.41,109.04L164.86,108.53L170.64,106.96L172.09,106.65L193.78,104.5L195.23,104.59L196.67,104.61L198.12,115.64L199.56,157.18L201.01,160.37L203.9,159.56L205.35,159.57L208.24,159.39L209.69,159.19L237.16,158.48L238.61,146.93L240.06,116.92L241.5,112.05L244.39,109.27L245.84,108.28L248.73,106.94L250.18,106.57L258.85,105.56L260.3,105.58L266.09,104.93L267.53,104.74L277.65,104.71L279.1,111.79L280.55,151.41L281.99,156.3L286.33,155.56L287.78,155.43L295.01,155.21L296.45,155.34L318.15,155.75L319.59,153.35L321.04,123.61L322.48,111.62L323.93,108.45L325.38,107.33L329.71,103.67L331.16,104.49L334.05,104.31L335.5,102.41L338.39,101.75L339.84,101.63L341.28,101.77L342.73,100.49L345.62,100.67L347.07,99.42L348.51,97.61L349.96,99.92L351.41,101.02L352.85,100.97L355.74,101.1L357.19,101L360.08,102.42L361.53,136.39L362.97,152.65L364.42,152.96L368.76,152.39L370.21,152.39L387.56,152.35L389.01,152.14L391.9,152.29L393.34,152.32L403.47,152.24L404.91,143.01L406.36,116.11L407.8,110.23L410.7,105L412.14,104.23L413.59,104.69L415.04,104.32L416.48,103.26L417.93,103.28L420.82,103.29L422.27,104.3L425.16,104.63L426.6,104.16L435.28,102.93L436.73,103.3L441.07,102.35L442.51,112.74L443.96,147.73L445.4,149.82L454.08,149.6L455.53,149.44L459.86,149.69L461.31,149.63L464.2,149.83L465.65,149.71L472.88,149.93L474.33,150.36L478.66,149.96L480.11,150.05L481.56,149.97L483,139.33L484.45,112.93L485.89,107.04L488.79,103.38L490.23,102.55L498.91,100.24L500.36,99.87L506.14,99.4L507.59,99.55L511.92,99.09L513.37,99.38L514.82,98.79L516.26,99.16L519.16,98.74L520.6,98.77L522.05,98.99L523.49,104.13L524.94,108.94L526.39,109.69L530.72,110.91L532.17,111.29L561.09,112.76L562.54,112.72L563.98,111.99L565.43,104.96L566.88,102.2L568.32,101.69L574.11,100.5L575.55,100.48L577,100.21" style="vector-effect: none; fill: none; stroke: rgb(255, 102, 146); stroke-opacity: 1; stroke-width: 2px; opacity: 1;"/></g><g class="points"/><g class="text"/></g><g class="trace scatter trace97d152" style="stroke-miterlimit: 2; opacity: 1;"><g class="fills"/><g class="errorbars"/><g class="lines"><path class="js-line" d="M0,160.59L13.02,159.52L14.46,159.43L26.03,159.16L27.48,158.93L33.26,158.72L34.71,164.48L36.15,196.81L37.6,199.5L41.94,197.64L43.38,197.24L53.51,196.19L54.95,196.52L65.08,195.92L66.52,196.01L72.31,195.82L73.75,195.88L75.2,195.75L76.64,194.23L78.09,172.2L79.54,162.63L82.43,160.36L83.87,159.88L88.21,158.87L89.66,158.69L96.89,157.94L98.34,157.78L107.01,157.23L108.46,157.3L115.69,157.59L117.14,182.8L118.58,195.36L120.03,195.42L128.7,194.5L130.15,194.45L140.27,194.07L141.72,194.29L156.18,193.91L157.63,174.25L159.07,162.33L160.52,160.7L164.86,158.68L166.3,158.27L189.44,156.46L190.89,156.45L195.23,156.44L196.67,156.55L198.12,164.97L199.56,194.09L201.01,196.26L202.46,195.94L206.79,195.3L208.24,195.27L237.16,194.59L238.61,186.49L240.06,164.65L241.5,160.98L244.39,158.91L245.84,158.55L250.18,157.29L251.62,157.12L271.87,156.31L273.32,156.35L277.65,156.48L279.1,161.86L280.55,189.95L281.99,193.17L289.22,192.23L290.67,192.22L300.79,192.35L302.24,192.26L308.02,192.59L309.47,192.29L318.15,192.41L319.59,190.87L321.04,169.8L322.48,161.06L325.38,157.73L326.82,157L329.71,155.33L331.16,155.8L334.05,155.59L335.5,154.6L341.28,154.37L342.73,153.44L345.62,153.63L347.07,152.91L348.51,151.67L349.96,153.25L352.85,153.87L354.3,153.99L358.64,154.49L360.08,155.11L361.53,179.46L362.97,190.65L365.87,190.41L367.31,190.33L380.33,190.09L381.77,190.33L403.47,190.26L404.91,184.16L406.36,164.38L407.8,159.95L410.7,156.58L412.14,156.13L415.04,156.01L416.48,155.49L420.82,155.51L422.27,156.22L425.16,156.4L426.6,156.14L441.07,155.21L442.51,162.91L443.96,187.1L445.4,188.62L462.76,188.45L464.2,188.48L471.43,188.45L472.88,188.66L475.77,188.74L477.22,188.47L481.56,188.57L483,181.13L484.45,162.23L485.89,158.16L488.79,155.5L490.23,154.94L498.91,153.31L500.36,153.23L503.25,153.13L504.69,153.18L511.92,152.82L513.37,152.87L520.6,152.56L522.05,152.68L524.94,159.67L526.39,160.34L535.06,161.77L536.51,161.72L555.31,162.53L556.75,162.32L561.09,162.37L562.54,162.36L563.98,162.33L565.43,157.47L566.88,155.11L568.32,154.87L572.66,154L574.11,153.75L577,153.74" style="vector-effect: none; fill: none; stroke: rgb(182, 232, 128); stroke-opacity: 1; stroke-width: 2px; opacity: 1;"/></g><g class="points"/><g class="text"/></g><g class="trace scatter trace637f73" style="stroke-miterlimit: 2; opacity: 1;"><g class="fills"/><g class="errorbars"/><g class="lines"><path class="js-line" d="M0,148.77L5.78,148.01L7.23,147.85L14.46,147.64L15.91,147.83L20.25,147.52L21.69,147.45L27.48,147.3L28.92,147.17L33.26,147.09L34.71,153.23L36.15,181.21L37.6,182.36L40.49,181.16L41.94,180.77L50.61,179.41L52.06,179.22L69.41,178.87L70.86,179.08L75.2,178.94L76.64,177.6L78.09,156.23L79.54,148.7L82.43,146.5L83.87,146.08L94,144.77L95.44,144.79L115.69,144.64L117.14,167.88L118.58,178.17L120.03,178.17L124.37,177.67L125.81,177.68L128.7,177.47L130.15,177.32L137.38,177.49L138.83,177.34L147.5,177.17L148.95,177.05L153.29,177.29L154.73,177.12L156.18,176.33L157.63,158.16L159.07,148.2L160.52,146.48L164.86,145.04L166.3,144.69L186.55,143.68L187.99,143.69L192.33,143.63L193.78,143.74L196.67,143.82L198.12,151.68L199.56,177.28L201.01,178.7L235.72,177.52L237.16,177.25L240.06,150.34L241.5,147.26L244.39,145.34L245.84,144.75L257.41,143.54L258.85,143.76L267.53,143.35L268.98,143.54L273.32,143.59L274.76,143.78L276.21,143.3L277.65,143.63L279.1,148.98L280.55,173.79L281.99,175.8L283.44,175.95L289.22,175.42L290.67,175.38L297.9,175.39L299.35,175.4L305.13,175.36L306.58,175.45L312.36,175.67L313.81,175.72L318.15,175.55L319.59,173.49L321.04,153.95L322.48,147.2L323.93,145.17L325.38,144.62L329.71,142.81L331.16,143.03L334.05,142.84L335.5,142.04L339.84,141.91L341.28,141.89L344.18,141.38L345.62,141.55L348.51,139.87L349.96,141.05L351.41,141.82L352.85,141.72L360.08,142.86L361.53,164.96L362.97,173.53L364.42,173.79L374.54,173.52L375.99,173.78L383.22,173.61L384.67,173.67L393.34,173.67L394.79,173.79L400.57,173.58L402.02,173.64L403.47,173.36L404.91,167.41L406.36,150.37L407.8,146.49L412.14,143.57L413.59,143.6L417.93,143L419.37,142.93L428.05,143.45L429.5,143.37L441.07,142.92L442.51,149.92L443.96,170.6L445.4,171.89L455.53,171.79L456.97,171.84L481.56,171.85L483,162.91L484.45,148.71L485.89,145.43L488.79,143.25L490.23,142.71L498.91,141.43L500.36,141.51L520.6,141.24L522.05,141.23L524.94,146.59L526.39,147.17L536.51,148.4L537.95,148.47L563.98,148.9L565.43,145.37L566.88,143.48L568.32,143.02L577,142.27" style="vector-effect: none; fill: none; stroke: rgb(255, 151, 255); stroke-opacity: 1; stroke-width: 2px; opacity: 1;"/></g><g class="points"/><g class="text"/></g><g class="trace scatter trace622832" style="stroke-miterlimit: 2; opacity: 1;"><g class="fills"/><g class="errorbars"/><g class="lines"><path class="js-line" d="M0,145.82L2.89,145.57L4.34,145.33L14.46,144.57L15.91,144.72L33.26,144.1L34.71,149.81L36.15,178.81L37.6,179.44L44.83,177.42L46.28,177.29L56.4,176.71L57.84,176.61L67.97,176.17L69.41,176.44L75.2,176.14L76.64,174.9L78.09,152.97L79.54,145.88L82.43,143.81L83.87,143.16L96.89,141.78L98.34,141.74L107.01,141.42L108.46,141.6L115.69,141.77L117.14,164.88L118.58,175.46L120.03,175.54L124.37,175.07L125.81,175.06L131.6,174.92L133.04,174.98L135.93,174.62L137.38,174.72L147.5,174.56L148.95,174.6L154.73,174.56L156.18,172.94L157.63,153.36L159.07,145.28L161.96,143.1L163.41,142.37L182.21,140.9L183.66,140.9L190.89,140.51L192.33,140.84L196.67,140.61L198.12,147.95L199.56,175.1L201.01,176.26L211.13,175.25L212.58,175.37L218.36,175.12L219.81,175.29L227.04,175.15L228.49,175.41L234.27,175.01L235.72,174.98L237.16,174.74L238.61,162.89L240.06,147.31L241.5,144.25L245.84,141.99L247.29,141.62L255.96,140.7L257.41,140.93L266.09,140.13L267.53,140.71L270.42,140.32L271.87,140.61L277.65,140.06L279.1,145.72L280.55,171.46L281.99,173.02L296.45,172.54L297.9,172.87L305.13,172.65L306.58,172.77L318.15,172.77L319.59,170.64L321.04,150.37L322.48,144.72L325.38,142.1L326.82,141.48L329.71,139.71L331.16,140.12L338.39,138.78L339.84,138.74L345.62,138.35L347.07,137.8L348.51,137.25L349.96,138.01L354.3,138.91L355.74,138.68L358.64,139.04L360.08,139.45L361.53,161.73L362.97,171.04L365.87,171.24L367.31,171.02L371.65,170.93L373.1,170.95L384.67,170.97L386.11,170.74L396.24,170.58L397.68,170.71L403.47,170.77L404.91,164.64L406.36,147.4L407.8,143.96L410.7,141.51L412.14,141L415.04,140.69L416.48,140.04L419.37,139.89L420.82,140.38L423.71,140.88L425.16,140.86L429.5,139.99L430.94,140.2L441.07,139.57L442.51,146.05L443.96,168.28L445.4,169.09L464.2,168.96L465.65,169.14L474.33,169.19L475.77,169.2L481.56,168.96L483,159.28L484.45,145.88L485.89,142.87L490.23,139.48L491.68,139.19L497.46,138.58L498.91,138.45L506.14,138.18L507.59,138.22L522.05,138.25L523.49,140.92L524.94,143.6L526.39,144.28L536.51,145.44L537.95,145.45L549.52,145.96L550.97,145.97L562.54,146.26L563.98,146.09L566.88,140.93L568.32,140.3L571.22,139.5L572.66,139.23L577,139.23" style="vector-effect: none; fill: none; stroke: rgb(254, 203, 82); stroke-opacity: 1; stroke-width: 2px; opacity: 1;"/></g><g class="points"/><g class="text"/></g></g></g></g><path class="xlines-above crisp" d="M0,0" style="fill: none;"/><path class="ylines-above crisp" d="M0,0" style="fill: none;"/><g class="overlines-above"/><g class="xaxislayer-above"><g class="xtick"><text text-anchor="middle" x="0" y="273" transform="translate(60.09,0)" style="font-family: 'Times New Roman'; font-size: 12px; fill: rgb(0, 0, 0); fill-opacity: 1; white-space: pre; opacity: 1;">6e+7</text></g><g class="xtick"><text text-anchor="middle" x="0" y="273" style="font-family: 'Times New Roman'; font-size: 12px; fill: rgb(0, 0, 0); fill-opacity: 1; white-space: pre; opacity: 1;" transform="translate(173.24,0)">7e+7</text></g><g class="xtick"><text text-anchor="middle" x="0" y="273" style="font-family: 'Times New Roman'; font-size: 12px; fill: rgb(0, 0, 0); fill-opacity: 1; white-space: pre; opacity: 1;" transform="translate(286.39,0)">7e+7</text></g><g class="xtick"><text text-anchor="middle" x="0" y="273" style="font-family: 'Times New Roman'; font-size: 12px; fill: rgb(0, 0, 0); fill-opacity: 1; white-space: pre; opacity: 1;" transform="translate(399.54,0)">8e+7</text></g><g class="xtick"><text text-anchor="middle" x="0" y="273" style="font-family: 'Times New Roman'; font-size: 12px; fill: rgb(0, 0, 0); fill-opacity: 1; white-space: pre; opacity: 1;" transform="translate(512.7,0)">8e+7</text></g></g><g class="yaxislayer-above"><g class="ytick"><text text-anchor="end" x="37" y="4.199999999999999" transform="translate(0,224.2)" style="font-family: 'Times New Roman'; font-size: 12px; fill: rgb(0, 0, 0); fill-opacity: 1; white-space: pre; opacity: 1;">14</text></g><g class="ytick"><text text-anchor="end" x="37" y="4.199999999999999" style="font-family: 'Times New Roman'; font-size: 12px; fill: rgb(0, 0, 0); fill-opacity: 1; white-space: pre; opacity: 1;" transform="translate(0,187.37)">15</text></g><g class="ytick"><text text-anchor="end" x="37" y="4.199999999999999" style="font-family: 'Times New Roman'; font-size: 12px; fill: rgb(0, 0, 0); fill-opacity: 1; white-space: pre; opacity: 1;" transform="translate(0,150.53)">16</text></g><g class="ytick"><text text-anchor="end" x="37" y="4.199999999999999" style="font-family: 'Times New Roman'; font-size: 12px; fill: rgb(0, 0, 0); fill-opacity: 1; white-space: pre; opacity: 1;" transform="translate(0,113.7)">17</text></g><g class="ytick"><text text-anchor="end" x="37" y="4.199999999999999" style="font-family: 'Times New Roman'; font-size: 12px; fill: rgb(0, 0, 0); fill-opacity: 1; white-space: pre; opacity: 1;" transform="translate(0,76.87)">18</text></g></g><g class="overaxes-above"/></g></g><g class="polarlayer"/><g class="smithlayer"/><g class="ternarylayer"/><g class="geolayer"/><g class="funnelarealayer"/><g class="pielayer"/><g class="iciclelayer"/><g class="treemaplayer"/><g class="sunburstlayer"/><g class="glimages"/><defs id="topdefs-3a9108"><g class="clips"/></defs><g class="layer-above"><g class="imagelayer"/><g class="shapelayer"><g class="shape-group" data-index="0" clip-path="url(#clip3a9108x)"><path data-index="0" fill-rule="evenodd" d="M78.72,260H109.95V50H78.72Z" style="opacity: 0.4; stroke: rgb(0, 0, 0); stroke-opacity: 0; fill: rgb(50, 125, 23); fill-opacity: 1; stroke-width: 0px;"/></g><g class="shape-group" data-index="1" clip-path="url(#clip3a9108x)"><path data-index="1" fill-rule="evenodd" d="M160.18,260H191.4V50H160.18Z" style="opacity: 0.4; stroke: rgb(0, 0, 0); stroke-opacity: 0; fill: rgb(80, 143, 33); fill-opacity: 1; stroke-width: 0px;"/></g><g class="shape-group" data-index="2" clip-path="url(#clip3a9108x)"><path data-index="2" fill-rule="evenodd" d="M241.64,260H272.86V50H241.64Z" style="opacity: 0.4; stroke: rgb(0, 0, 0); stroke-opacity: 0; fill: rgb(108, 160, 44); fill-opacity: 1; stroke-width: 0px;"/></g><g class="shape-group" data-index="3" clip-path="url(#clip3a9108x)"><path data-index="3" fill-rule="evenodd" d="M323.09,260H354.32V50H323.09Z" style="opacity: 0.4; stroke: rgb(0, 0, 0); stroke-opacity: 0; fill: rgb(136, 178, 55); fill-opacity: 1; stroke-width: 0px;"/></g><g class="shape-group" data-index="4" clip-path="url(#clip3a9108x)"><path data-index="4" fill-rule="evenodd" d="M404.56,260H435.78V50H404.56Z" style="opacity: 0.4; stroke: rgb(0, 0, 0); stroke-opacity: 0; fill: rgb(164, 196, 68); fill-opacity: 1; stroke-width: 0px;"/></g><g class="shape-group" data-index="5" clip-path="url(#clip3a9108x)"><path data-index="5" fill-rule="evenodd" d="M486.01,260H517.24V50H486.01Z" style="opacity: 0.4; stroke: rgb(0, 0, 0); stroke-opacity: 0; fill: rgb(194, 213, 81); fill-opacity: 1; stroke-width: 0px;"/></g><g class="shape-group" data-index="6" clip-path="url(#clip3a9108x)"><path data-index="6" fill-rule="evenodd" d="M567.47,260H598.7V50H567.47Z" style="opacity: 0.4; stroke: rgb(0, 0, 0); stroke-opacity: 0; fill: rgb(224, 231, 95); fill-opacity: 1; stroke-width: 0px;"/></g></g></g><g class="infolayer"><g class="g-gtitle"><text class="gtitle" x="312.5" y="25" text-anchor="middle" dy="0em" style="opacity: 1; font-family: 'Times New Roman'; font-size: 17px; fill: rgb(0, 0, 0); fill-opacity: 1; white-space: pre;">Matrix 0, Sensor 7</text></g><g class="g-xtitle" transform="translate(0,-2.8000000000000114)"><text class="xtitle" x="326.5" y="299.8" text-anchor="middle" style="opacity: 1; font-family: 'Times New Roman'; font-size: 14px; fill: rgb(0, 0, 0); fill-opacity: 1; white-space: pre;">Time since power on (ms)</text></g><g class="g-ytitle" transform="translate(6.900390625,0)"><text class="ytitle" transform="rotate(-90,5.600000000000001,155)" x="5.600000000000001" y="155" text-anchor="middle" style="opacity: 1; font-family: 'Times New Roman'; font-size: 14px; fill: rgb(0, 0, 0); fill-opacity: 1; white-space: pre;">Resistance (Ohms)</text></g><g class="annotation" data-index="0" style="opacity: 1;"><g class="annotation-text-g" transform="rotate(0,95.72,58.5)"><g class="cursor-pointer" transform="translate(79,50)"><rect class="bg" x="0.5" y="0.5" width="33" height="16" style="stroke-width: 1px; stroke: rgb(0, 0, 0); stroke-opacity: 0; fill: rgb(0, 0, 0); fill-opacity: 0;"/><text class="annotation-text" text-anchor="middle" x="16.84375" y="12.5" style="font-family: 'Times New Roman'; font-size: 12px; fill: rgb(0, 0, 0); fill-opacity: 1; white-space: pre;">O 100</text></g></g></g><g class="annotation" data-index="1" style="opacity: 1;"><g class="annotation-text-g" transform="rotate(0,174.18,58.5)"><g class="cursor-pointer" transform="translate(160,50)"><rect class="bg" x="0.5" y="0.5" width="27" height="16" style="stroke-width: 1px; stroke: rgb(0, 0, 0); stroke-opacity: 0; fill: rgb(0, 0, 0); fill-opacity: 0;"/><text class="annotation-text" text-anchor="middle" x="13.84375" y="12.5" style="font-family: 'Times New Roman'; font-size: 12px; fill: rgb(0, 0, 0); fill-opacity: 1; white-space: pre;">O 95</text></g></g></g><g class="annotation" data-index="2" style="opacity: 1;"><g class="annotation-text-g" transform="rotate(0,255.64,58.5)"><g class="cursor-pointer" transform="translate(242,50)"><rect class="bg" x="0.5" y="0.5" width="27" height="16" style="stroke-width: 1px; stroke: rgb(0, 0, 0); stroke-opacity: 0; fill: rgb(0, 0, 0); fill-opacity: 0;"/><text class="annotation-text" text-anchor="middle" x="13.84375" y="12.5" style="font-family: 'Times New Roman'; font-size: 12px; fill: rgb(0, 0, 0); fill-opacity: 1; white-space: pre;">O 90</text></g></g></g><g class="annotation" data-index="3" style="opacity: 1;"><g class="annotation-text-g" transform="rotate(0,337.09,58.5)"><g class="cursor-pointer" transform="translate(323,50)"><rect class="bg" x="0.5" y="0.5" width="27" height="16" style="stroke-width: 1px; stroke: rgb(0, 0, 0); stroke-opacity: 0; fill: rgb(0, 0, 0); fill-opacity: 0;"/><text class="annotation-text" text-anchor="middle" x="13.84375" y="12.5" style="font-family: 'Times New Roman'; font-size: 12px; fill: rgb(0, 0, 0); fill-opacity: 1; white-space: pre;">O 80</text></g></g></g><g class="annotation" data-index="4" style="opacity: 1;"><g class="annotation-text-g" transform="rotate(0,418.56,58.5)"><g class="cursor-pointer" transform="translate(405,50)"><rect class="bg" x="0.5" y="0.5" width="27" height="16" style="stroke-width: 1px; stroke: rgb(0, 0, 0); stroke-opacity: 0; fill: rgb(0, 0, 0); fill-opacity: 0;"/><text class="annotation-text" text-anchor="middle" x="13.84375" y="12.5" style="font-family: 'Times New Roman'; font-size: 12px; fill: rgb(0, 0, 0); fill-opacity: 1; white-space: pre;">O 70</text></g></g></g><g class="annotation" data-index="5" style="opacity: 1;"><g class="annotation-text-g" transform="rotate(0,500.01,58.5)"><g class="cursor-pointer" transform="translate(486,50)"><rect class="bg" x="0.5" y="0.5" width="27" height="16" style="stroke-width: 1px; stroke: rgb(0, 0, 0); stroke-opacity: 0; fill: rgb(0, 0, 0); fill-opacity: 0;"/><text class="annotation-text" text-anchor="middle" x="13.84375" y="12.5" style="font-family: 'Times New Roman'; font-size: 12px; fill: rgb(0, 0, 0); fill-opacity: 1; white-space: pre;">O 50</text></g></g></g><g class="annotation" data-index="6" style="opacity: 1;"><g class="annotation-text-g" transform="rotate(0,578.47,58.5)"><g class="cursor-pointer" transform="translate(567,50)"><rect class="bg" x="0.5" y="0.5" width="21" height="16" style="stroke-width: 1px; stroke: rgb(0, 0, 0); stroke-opacity: 0; fill: rgb(0, 0, 0); fill-opacity: 0;"/><text class="annotation-text" text-anchor="middle" x="10.84375" y="12.5" style="font-family: 'Times New Roman'; font-size: 12px; fill: rgb(0, 0, 0); fill-opacity: 1; white-space: pre;">O 0</text></g></g></g></g></svg>