<svg class="main-svg" xmlns="http://www.w3.org/2000/svg" xmlns:xlink="http://www.w3.org/1999/xlink" width="625" height="300" style="" viewBox="0 0 625 300"><rect x="0" y="0" width="625" height="300" style="fill: rgb(255, 255, 255); fill-opacity: 1;"/><defs id="defs-20cc96"><g class="clips"><clipPath id="clip20cc96xyplot" class="plotclip"><rect width="577" height="210"/></clipPath><clipPath class="axesclip" id="clip20cc96x"><rect x="38" y="0" width="577" height="300"/></clipPath><clipPath class="axesclip" id="clip20cc96y"><rect x="0" y="50" width="625" height="210"/></clipPath><clipPath class="axesclip" id="clip20cc96xy"><rect x="38" y="50" width="577" height="210"/></clipPath></g><g class="gradients"/><g class="patterns"/></defs><g class="bglayer"><rect class="bg" x="38" y="50" width="577" height="210" style="fill: rgb(229, 236, 246); fill-opacity: 1; stroke-width: 0;"/></g><g class="layer-below"><g class="imagelayer"/><g class="shapelayer"/></g><g class="cartesianlayer"><g class="subplot xy"><g class="layer-subplot"><g class="shapelayer"/><g class="imagelayer"/></g><g class="minor-gridlayer"><g class="x"/><g class="y"/></g><g class="gridlayer"><g class="x"><path class="xgrid crisp" transform="translate(60.9,0)" d="M0,50v210" style="stroke: rgb(255, 255, 255); stroke-opacity: 1; stroke-width: 1px;"/><path class="xgrid crisp" transform="translate(174.05,0)" d="M0,50v210" style="stroke: rgb(255, 255, 255); stroke-opacity: 1; stroke-width: 1px;"/><path class="xgrid crisp" transform="translate(287.2,0)" d="M0,50v210" style="stroke: rgb(255, 255, 255); stroke-opacity: 1; stroke-width: 1px;"/><path class="xgrid crisp" transform="translate(400.35,0)" d="M0,50v210" style="stroke: rgb(255, 255, 255); stroke-opacity: 1; stroke-width: 1px;"/><path class="xgrid crisp" transform="translate(513.5,0)" d="M0,50v210" style="stroke: rgb(255, 255, 255); stroke-opacity: 1; stroke-width: 1px;"/></g><g class="y"><path class="ygrid crisp" transform="translate(0,221.94)" d="M38,0h577" style="stroke: rgb(255, 255, 255); stroke-opacity: 1; stroke-width: 1px;"/><path class="ygrid crisp" transform="translate(0,175.07)" d="M38,0h577" style="stroke: rgb(255, 255, 255); stroke-opacity: 1; stroke-width: 1px;"/><path class="ygrid crisp" transform="translate(0,128.2)" d="M38,0h577" style="stroke: rgb(255, 255, 255); stroke-opacity: 1; stroke-width: 1px;"/><path class="ygrid crisp" transform="translate(0,81.33)" d="M38,0h577" style="stroke: rgb(255, 255, 255); stroke-opacity: 1; stroke-width: 1px;"/></g></g><g class="zerolinelayer"/><g class="layer-between"><g class="shapelayer"/><g class="imagelayer"/></g><path class="xlines-below"/><path class="ylines-below"/><g class="overlines-below"/><g class="xaxislayer-below"/><g class="yaxislayer-below"/><g class="overaxes-below"/><g class="overplot"><g class="xy" transform="translate(38,50)" clip-path="url(#clip20cc96xyplot)"><g class="scatterlayer mlayer"><g class="trace scatter trace34174c" style="stroke-miterlimit: 2; opacity: 1;"><g class="fills"/><g class="errorbars"/><g class="lines"><path class="js-line" d="M0,10.5L577,10.5" style="vector-effect: none; fill: none; stroke: rgb(99, 110, 250); stroke-opacity: 1; stroke-width: 2px; opacity: 1;"/></g><g class="points"/><g class="text"/></g><g class="trace scatter tracec0986c" style="stroke-miterlimit: 2; opacity: 1;"><g class="fills"/><g class="errorbars"/><g class="lines"><path class="js-line" d="M0,186.91L4.34,186.56L5.78,186.59L8.68,186.85L10.12,186.19L21.69,185.42L23.14,185.96L24.58,185.54L26.03,186L28.92,185.54L30.37,185.5L43.38,184.55L44.83,184.59L50.61,184.87L52.06,185.01L56.4,184.96L57.84,185.22L62.18,184.77L63.63,184.84L67.97,184.97L69.41,184.97L82.43,185.33L83.87,185.26L92.55,184.98L94,184.81L105.57,184.66L107.01,184.57L118.58,184.51L120.03,184.43L127.26,184.67L128.7,184.74L144.61,185.09L146.06,185.52L150.4,185.44L151.84,185.27L154.73,185.47L156.18,185.21L157.63,185.42L159.07,184.67L163.41,184.19L164.86,184.03L172.09,183.43L173.53,183.45L180.76,183.38L182.21,183.32L196.67,183.32L198.12,183.57L201.01,184.28L202.46,184.08L227.04,185.04L228.49,184.86L232.82,185.23L234.27,185.27L254.52,184.37L255.96,184.4L274.76,184.47L276.21,184.45L296.45,185.12L297.9,184.78L305.13,185.23L306.58,185.29L321.04,185.12L322.48,183.54L323.93,182.2L325.38,182.08L329.71,180.59L331.16,181.33L334.05,181.54L335.5,180.3L339.84,180.97L341.28,181.05L344.18,179.3L345.62,179.58L347.07,179.58L348.51,178.45L352.85,180.51L354.3,180.57L360.08,181.42L361.53,182.31L362.97,184.18L364.42,184.69L371.65,185.57L373.1,185.61L404.91,186.5L406.36,183.92L407.8,182.04L409.25,181.81L412.14,181.15L413.59,181.48L423.71,182.08L425.16,182.09L429.5,182.46L430.94,182.28L435.28,181.44L436.73,182.35L441.07,181.77L442.51,182.38L445.4,185.23L446.85,185.54L464.2,186.42L465.65,186.2L472.88,186.22L474.33,186.28L481.56,186.66L483,186.18L484.45,183.65L485.89,182.7L488.79,181.31L490.23,181.13L494.57,180.22L496.02,180.37L498.91,180.31L500.36,180.22L510.48,180.64L511.92,180.14L517.71,180.66L519.16,180.29L522.05,180.34L523.49,181.06L524.94,184.1L526.39,185.01L529.28,185.64L530.72,185.82L533.62,186.25L535.06,186.23L539.4,186.78L540.85,186.68L555.31,186.87L556.75,187.13L563.98,186.69L565.43,184.48L566.88,182.64L568.32,182.52L572.66,181.79L574.11,181.59L577,181.94" style="vector-effect: none; fill: none; stroke: rgb(239, 85, 59); stroke-opacity: 1; stroke-width: 2px; opacity: 1;"/></g><g class="points"/><g class="text"/></g><g class="trace scatter tracec36193" style="stroke-miterlimit: 2; opacity: 1;"><g class="fills"/><g class="errorbars"/><g class="lines"><path class="js-line" d="M0,36.09L4.34,35.4L5.78,35.41L8.68,35.25L10.12,35.03L14.46,34.9L15.91,34.89L18.8,34.31L20.25,34.43L33.26,33.56L34.71,33.69L37.6,32.01L39.05,31.93L40.49,31.73L41.94,32.37L78.09,33.22L79.54,33.93L95.44,32.73L96.89,32.7L125.81,31.69L127.26,32.24L138.83,32.78L140.27,32.92L146.06,33.07L147.5,33.23L154.73,33.14L156.18,33.63L157.63,33.79L159.07,33.11L161.96,31.99L163.41,31.83L166.3,31.42L167.75,30.98L183.66,30.45L185.1,30.22L201.01,31.14L202.46,31.5L205.35,31.86L206.79,31.82L214.03,32.42L215.47,32.17L221.26,32.64L222.7,32.27L225.59,32.82L227.04,32.89L240.06,32.91L241.5,32.59L242.95,31.62L244.39,31.75L245.84,31.9L247.29,31.18L254.52,31.73L255.96,31.38L260.3,31L261.75,31.06L273.32,31.15L274.76,31.33L280.55,31.64L281.99,31.89L286.33,31.93L287.78,32.22L293.56,32.46L295.01,32.83L299.35,32.69L300.79,33.06L319.59,33.63L321.04,32.42L323.93,26.46L325.38,26.34L328.27,26.07L329.71,23.17L331.16,25.34L332.61,25.56L334.05,26.1L335.5,23.45L338.39,24L339.84,24.33L341.28,24.89L342.73,22.87L344.18,21.32L345.62,22.1L347.07,21.51L348.51,19.32L349.96,22.03L351.41,22.6L355.74,24.37L357.19,24.83L360.08,25.2L361.53,27.3L362.97,31.09L364.42,32.36L367.31,32.97L368.76,33.04L373.1,33.82L374.54,33.86L375.99,33.74L377.44,34.41L381.77,34.2L383.22,34.32L397.68,34.88L399.13,35.29L404.91,34.59L406.36,30.23L407.8,26.93L409.25,26.26L412.14,24.42L413.59,24.91L416.48,25.52L417.93,25.44L419.37,25.3L420.82,26L428.05,26.56L429.5,26.91L432.39,26.58L433.83,25.01L435.28,25.4L436.73,26.99L439.62,25.85L441.07,25.49L442.51,26.38L443.96,32.01L446.85,33.37L448.3,33.69L459.86,34.98L461.31,35.1L483,35.14L484.45,29.48L488.79,24.74L490.23,24.38L494.57,23.04L496.02,23.69L501.8,23.82L503.25,23.27L506.14,24.44L507.59,24.03L510.48,23.77L511.92,23.12L517.71,23.68L519.16,23L522.05,23.11L523.49,24.89L524.94,31.04L526.39,33.09L532.17,34.69L533.62,34.94L536.51,35.24L537.95,35.24L563.98,36.35L565.43,30.61L566.88,26.96L568.32,26.68L569.77,25.8L571.22,25.95L577,26.57" style="vector-effect: none; fill: none; stroke: rgb(0, 204, 150); stroke-opacity: 1; stroke-width: 2px; opacity: 1;"/></g><g class="points"/><g class="text"/></g><g class="trace scatter trace4db050" style="stroke-miterlimit: 2; opacity: 1;"><g class="fills"/><g class="errorbars"/><g class="lines"><path class="js-line" d="M0,192.04L5.78,191.37L7.23,191.41L13.02,191.1L14.46,190.88L34.71,190.19L36.15,189.25L39.05,189.02L40.49,189.14L43.38,189.64L44.83,189.43L50.61,189.89L52.06,189.88L69.41,190.23L70.86,190.04L82.43,190.94L83.87,190.8L96.89,190.39L98.34,190.1L105.57,190L107.01,190.02L114.24,189.77L115.69,189.83L121.47,189.48L122.92,189.59L135.93,189.87L137.38,190L159.07,190.39L160.52,189.92L198.12,188.76L199.56,189.12L214.03,189.66L215.47,189.69L228.49,190.1L229.93,190.28L238.61,190.5L240.06,190.32L248.73,189.5L250.18,189.73L255.96,189.73L257.41,189.65L264.64,189.55L266.09,189.66L273.32,189.58L274.76,189.82L286.33,189.66L287.78,189.74L299.35,189.98L300.79,190.23L310.91,190.53L312.36,190.8L321.04,190L322.48,187.89L323.93,186.39L325.38,186.32L328.27,186.02L329.71,184.65L331.16,185.44L332.61,185.31L334.05,185.84L335.5,184.61L341.28,185.27L342.73,184.24L344.18,183.33L345.62,183.74L347.07,183.54L348.51,181.94L351.41,184.2L352.85,184.87L355.74,185L357.19,185.58L361.53,186.7L362.97,188.96L367.31,190.06L368.76,190.23L386.11,191.2L387.56,191.22L396.24,191.48L397.68,191.57L403.47,191.33L404.91,191.4L407.8,187.17L409.25,186.65L412.14,185.43L413.59,185.97L426.6,187.08L428.05,187.03L432.39,186.96L433.83,186.06L435.28,186.02L436.73,187.04L439.62,186.06L441.07,186.52L442.51,186.85L443.96,189.55L446.85,190.7L448.3,190.77L455.53,191.28L456.97,191.5L471.43,191.83L472.88,191.65L475.77,191.79L477.22,191.97L483,191.56L484.45,188.58L487.34,186.09L488.79,185.75L496.02,184.58L497.46,184.9L504.69,184.85L506.14,185.12L513.37,184.59L514.82,184.86L519.16,184.38L520.6,184.28L523.49,185.48L524.94,188.93L527.83,190.85L529.28,190.89L535.06,191.47L536.51,191.66L542.29,191.88L543.74,191.98L553.86,192.28L555.31,192.42L563.98,192.3L565.43,189.39L566.88,187.21L568.32,186.46L571.22,186.48L572.66,186.24L577,186.31" style="vector-effect: none; fill: none; stroke: rgb(171, 99, 250); stroke-opacity: 1; stroke-width: 2px; opacity: 1;"/></g><g class="points"/><g class="text"/></g><g class="trace scatter tracebf3ef6" style="stroke-miterlimit: 2; opacity: 1;"><g class="fills"/><g class="errorbars"/><g class="lines"><path class="js-line" d="M0,113.29L8.68,112.54L10.12,112.62L30.37,111.52L31.81,111.73L34.71,111.43L36.15,110.05L39.05,109.34L40.49,109.45L50.61,111.48L52.06,111.53L85.32,111.88L86.77,111.58L94,111.3L95.44,110.66L99.78,110.92L101.23,110.46L108.46,110.09L109.9,110.19L117.14,110.19L118.58,110.74L122.92,110.34L124.37,110.29L127.26,111.01L128.7,110.93L131.6,111.54L133.04,111.21L144.61,111.59L146.06,111.53L150.4,111.9L151.84,111.83L159.07,111.53L160.52,110.19L172.09,109.27L173.53,109.19L186.55,108.52L187.99,108.72L198.12,109.13L199.56,109.63L202.46,110.17L203.9,110.14L215.47,111.26L216.92,110.96L221.26,111.49L222.7,111.47L238.61,112.03L240.06,111.9L242.95,110.02L244.39,110.08L248.73,109.6L250.18,110.03L261.75,109.5L263.19,109.51L268.98,109.44L270.42,109.54L281.99,110.33L283.44,110.86L290.67,110.66L292.12,111.22L299.35,111.57L300.79,111.74L316.7,112.16L318.15,111.97L319.59,112.3L321.04,111.42L323.93,106.61L325.38,106.67L328.27,105.98L329.71,104.31L331.16,105.38L332.61,105.39L334.05,105.84L335.5,104.19L338.39,104.57L339.84,104.74L341.28,105.25L342.73,103.82L344.18,102.6L345.62,102.97L347.07,102.86L348.51,101.15L351.41,103.65L352.85,104.43L360.08,105.64L361.53,106.93L362.97,109.4L364.42,110.23L367.31,111.78L368.76,111.85L389.01,113.1L390.45,112.85L400.57,113.39L402.02,113.21L404.91,113.41L406.36,109.61L407.8,106.56L409.25,106.01L412.14,104.52L413.59,105L428.05,106.52L429.5,106.55L435.28,105.42L436.73,106.63L439.62,106.01L441.07,105.83L442.51,106.38L443.96,110.72L445.4,112.02L446.85,112.26L451.19,112.91L452.63,112.96L481.56,113.99L483,113.36L484.45,108.84L485.89,107.26L488.79,105.8L490.23,105.33L493.13,104.16L494.57,104.05L509.03,105.07L510.48,104.79L511.92,104.07L513.37,104.32L514.82,104.56L516.26,104.02L519.16,104.06L520.6,103.71L522.05,103.93L523.49,105.52L524.94,110L526.39,111.87L535.06,113.56L536.51,113.28L542.29,113.69L543.74,113.88L548.08,114.23L549.52,114.2L553.86,114.28L555.31,113.97L559.65,114.36L561.09,114.27L563.98,113.99L565.43,110L566.88,107.09L568.32,106.69L571.22,106.21L572.66,106.37L577,106.23" style="vector-effect: none; fill: none; stroke: rgb(255, 161, 90); stroke-opacity: 1; stroke-width: 2px; opacity: 1;"/></g><g class="points"/><g class="text"/></g><g class="trace scatter trace2568ca" style="stroke-miterlimit: 2; opacity: 1;"><g class="fills"/><g class="errorbars"/><g class="lines"><path class="js-line" d="M0,122.41L17.35,121.2L18.8,121.34L26.03,120.88L27.48,120.67L31.81,120.72L33.26,120.58L34.71,120.54L36.15,119.4L40.49,119.03L41.94,119.49L53.51,120.54L54.95,120.59L76.64,120.96L78.09,121.07L80.98,121.31L82.43,121L91.11,120.34L92.55,120.43L114.24,119.31L115.69,119.74L138.83,120.5L140.27,120.75L144.61,120.86L146.06,121.17L159.07,120.85L160.52,119.8L186.55,118.08L187.99,118.32L196.67,117.82L198.12,118.21L201.01,119.1L202.46,119.16L205.35,119.57L206.79,119.54L219.81,120.44L221.26,120.35L224.15,120.67L225.59,120.57L240.06,121.02L241.5,120.18L244.39,119.41L245.84,119.41L251.62,119.22L253.07,119.32L264.64,119.02L266.09,118.83L271.87,119L273.32,118.84L276.21,118.96L277.65,119.17L283.44,119.54L284.88,119.8L290.67,119.93L292.12,120.33L296.45,120.42L297.9,120.66L321.04,120.75L322.48,117.92L323.93,115.66L325.38,115.91L326.82,115.23L328.27,115.49L329.71,113.34L331.16,114.75L334.05,114.92L335.5,112.98L339.84,114.19L341.28,114.24L344.18,111.53L345.62,112.13L347.07,111.99L348.51,109.24L351.41,112.69L352.85,113.55L360.08,114.82L361.53,115.97L362.97,118.97L364.42,119.87L374.54,121.34L375.99,121.43L383.22,121.83L384.67,121.77L397.68,122.27L399.13,122.14L404.91,122.09L406.36,118.42L407.8,115.52L409.25,114.78L412.14,113.07L413.59,113.8L417.93,114.42L419.37,114.18L423.71,115.07L425.16,115.12L428.05,115.69L429.5,115.87L433.83,114.14L435.28,114.16L436.73,115.45L438.17,114.82L441.07,114.84L442.51,115.69L443.96,119.57L445.4,120.79L451.19,121.6L452.63,121.53L481.56,122.58L483,121.76L484.45,117.89L485.89,116.44L488.79,114.49L490.23,114.02L494.57,112.87L496.02,113.12L498.91,113.25L500.36,113.39L503.25,113.28L504.69,113.59L510.48,113.38L511.92,113.02L517.71,113.3L519.16,112.67L522.05,112.95L523.49,114.09L524.94,118.99L526.39,120.56L532.17,122.09L533.62,122.03L545.19,122.98L546.63,122.75L559.65,123.28L561.09,123.17L563.98,123.09L565.43,119.13L566.88,115.83L568.32,115.51L571.22,115.19L572.66,115.26L577,115.36" style="vector-effect: none; fill: none; stroke: rgb(25, 211, 243); stroke-opacity: 1; stroke-width: 2px; opacity: 1;"/></g><g class="points"/><g class="text"/></g><g class="trace scatter trace49110c" style="stroke-miterlimit: 2; opacity: 1;"><g class="fills"/><g class="errorbars"/><g class="lines"><path class="js-line" d="M0,129.23L8.68,128.35L10.12,128.36L20.25,127.71L21.69,127.87L27.48,127.39L28.92,127.28L34.71,126.99L36.15,125.78L39.05,125.62L40.49,125.74L46.28,126.45L47.72,126.57L56.4,126.91L57.84,126.48L63.63,127.03L65.08,126.8L67.97,127.2L69.41,127.2L82.43,127.57L83.87,127.35L92.55,126.96L94,126.83L98.34,126.67L99.78,126.53L112.8,125.83L114.24,125.77L128.7,126.3L130.15,126.65L135.93,126.75L137.38,126.91L147.5,127.3L148.95,127.14L157.63,127.46L159.07,127.19L161.96,126.05L163.41,126.04L177.87,124.8L179.32,124.8L198.12,124.77L199.56,125.27L201.01,125.94L202.46,125.73L215.47,126.54L216.92,126.63L235.72,127.4L237.16,127.42L240.06,127.28L241.5,126.56L245.84,125.79L247.29,125.66L254.52,125.73L255.96,125.72L258.85,125.63L260.3,125.74L268.98,125.44L270.42,125.46L279.1,125.4L280.55,125.57L319.59,127.59L321.04,126.95L323.93,121.79L325.38,121.64L328.27,121.63L329.71,119.09L331.16,120.91L332.61,120.76L334.05,121.12L335.5,118.75L336.94,119.59L338.39,119.47L341.28,120.46L342.73,118.45L344.18,117.44L345.62,117.84L347.07,117.74L348.51,115.36L351.41,118.31L352.85,119.32L361.53,121.94L362.97,125.34L368.76,127.2L370.21,127.24L373.1,127.56L374.54,127.48L380.33,128.07L381.77,127.98L391.9,128.26L393.34,128.39L404.91,128.46L406.36,124.35L407.8,121.17L409.25,120.65L412.14,119.11L413.59,119.67L416.48,120.41L417.93,120.33L419.37,119.99L420.82,120.6L422.27,120.42L423.71,121.18L428.05,121.62L429.5,121.63L432.39,121.13L433.83,120.03L435.28,119.96L436.73,121.43L438.17,120.14L439.62,120.32L441.07,120.28L442.51,121.59L443.96,125.79L445.4,126.88L456.97,128.32L458.42,128.27L475.77,128.91L477.22,129.08L481.56,129.13L483,128.12L484.45,123.85L485.89,122.16L490.23,119.78L491.68,119.39L494.57,118.53L496.02,118.82L497.46,119.37L498.91,118.82L507.59,119.44L509.03,119.82L513.37,118.69L514.82,119.13L522.05,118.27L523.49,119.8L524.94,125.22L526.39,126.91L530.72,127.82L532.17,128.35L563.98,129.36L565.43,125.15L566.88,121.71L568.32,121.27L569.77,120.63L571.22,121.07L577,121.14" style="vector-effect: none; fill: none; stroke: rgb(255, 102, 146); stroke-opacity: 1; stroke-width: 2px; opacity: 1;"/></g><g class="points"/><g class="text"/></g><g class="trace scatter trace2f5118" style="stroke-miterlimit: 2; opacity: 1;"><g class="fills"/><g class="errorbars"/><g class="lines"><path class="js-line" d="M0,199.27L4.34,199.01L5.78,198.85L13.02,198.29L14.46,198.3L34.71,197.55L36.15,196.81L41.94,196.57L43.38,196.76L78.09,197.66L79.54,198.25L89.66,198L91.11,197.86L104.12,197.2L105.57,197.35L122.92,196.6L124.37,196.7L131.6,196.8L133.04,197.07L141.72,197.3L143.17,197.14L147.5,197.4L148.95,197.38L160.52,197.32L161.96,197.13L169.2,196.38L170.64,196.68L182.21,196.11L183.66,196.28L187.99,196.01L189.44,195.93L195.23,196.04L196.67,195.97L209.69,196.52L211.13,196.7L216.92,196.85L218.36,197.17L231.38,197.35L232.82,197.5L238.61,197.3L240.06,197.75L247.29,196.78L248.73,196.95L280.55,196.66L281.99,196.36L290.67,196.8L292.12,196.98L303.68,197.25L305.13,197.59L319.59,197.61L321.04,197.19L323.93,193.55L325.38,193.44L328.27,193.08L329.71,191.39L331.16,192.69L332.61,192.6L334.05,192.71L335.5,191.24L338.39,191.82L339.84,191.98L341.28,192.27L342.73,190.87L344.18,190.18L345.62,190.57L347.07,190.41L348.51,188.76L351.41,190.87L352.85,191.57L361.53,193.4L362.97,195.86L365.87,196.87L367.31,196.98L371.65,197.54L373.1,197.75L389.01,198.3L390.45,198.31L396.24,198.3L397.68,198.49L403.47,198.34L404.91,198.26L407.8,193.86L409.25,193.04L412.14,192.03L413.59,192.58L417.93,192.87L419.37,192.64L420.82,193.21L422.27,192.93L426.6,194.1L428.05,194.03L432.39,193.82L433.83,192.9L435.28,192.7L436.73,194.07L438.17,193.21L439.62,193.27L441.07,193.19L442.51,194.08L443.96,196.74L445.4,197.35L454.08,198.17L455.53,198.23L468.54,198.64L469.99,198.54L481.56,198.82L483,198.35L484.45,195.35L485.89,194.12L488.79,192.4L490.23,192.13L494.57,191.11L496.02,191.19L500.36,191.25L501.8,191.29L506.14,191.74L507.59,191.84L522.05,191.1L523.49,191.96L524.94,195.74L526.39,197.01L530.72,198.24L532.17,198.18L542.29,198.9L543.74,198.95L558.2,199.17L559.65,199.28L563.98,199.24L565.43,196.31L566.88,193.88L568.32,193.31L572.66,192.98L574.11,193.19L577,193.14" style="vector-effect: none; fill: none; stroke: rgb(182, 232, 128); stroke-opacity: 1; stroke-width: 2px; opacity: 1;"/></g><g class="points"/><g class="text"/></g><g class="trace scatter tracef9d691" style="stroke-miterlimit: 2; opacity: 1;"><g class="fills"/><g class="errorbars"/><g class="lines"><path class="js-line" d="M0,184.97L36.15,183.04L37.6,182.75L57.84,183.21L59.29,183.12L67.97,183.39L69.41,183.32L78.09,183.65L79.54,184.04L130.15,182.86L131.6,183.12L143.17,183.26L144.61,183.38L151.84,183.45L153.29,183.55L173.53,182.24L174.98,182.56L185.1,182.18L186.55,182.37L198.12,182.33L199.56,182.39L205.35,182.43L206.79,182.42L214.03,182.91L215.47,182.97L221.26,182.86L222.7,183.12L248.73,183.08L250.18,182.86L279.1,183.11L280.55,182.87L290.67,182.85L292.12,182.99L306.58,183.37L308.02,183.4L321.04,183.53L322.48,182.2L323.93,180.77L325.38,180.8L328.27,180.54L329.71,179.37L332.61,180L334.05,180.39L335.5,179.34L336.94,179.3L341.28,179.82L342.73,178.86L348.51,177.24L349.96,178.11L354.3,179.61L355.74,179.63L361.53,180.99L362.97,182.29L368.76,183.37L370.21,183.32L374.54,183.72L375.99,183.67L389.01,184.14L390.45,184.13L403.47,184.32L404.91,184.37L407.8,180.94L409.25,180.69L412.14,179.69L413.59,180.01L417.93,180.77L419.37,180.37L428.05,181.34L429.5,181.13L435.28,180.38L436.73,181.11L439.62,180.67L441.07,180.68L442.51,181.31L443.96,182.99L446.85,183.97L448.3,183.93L480.11,184.67L481.56,184.57L483,184.22L484.45,182.4L488.79,179.97L490.23,179.84L494.57,179.05L496.02,179.08L504.69,179.4L506.14,179.23L509.03,179.88L510.48,179.68L511.92,179.01L513.37,179.2L517.71,179.2L519.16,179.03L523.49,179.63L524.94,182.03L527.83,183.54L529.28,183.9L539.4,184.52L540.85,184.6L562.54,184.9L563.98,184.84L566.88,181.21L568.32,180.82L571.22,180.36L572.66,180.6L577,180.93" style="vector-effect: none; fill: none; stroke: rgb(255, 151, 255); stroke-opacity: 1; stroke-width: 2px; opacity: 1;"/></g><g class="points"/><g class="text"/></g><g class="trace scatter trace20bd4a" style="stroke-miterlimit: 2; opacity: 1;"><g class="fills"/><g class="errorbars"/><g class="lines"><path class="js-line" d="M0,181.83L5.78,181.38L7.23,181.4L10.12,181.14L11.57,181.33L14.46,181.05L15.91,180.65L26.03,180.49L27.48,180.26L30.37,180.26L31.81,180.08L34.71,180.24L36.15,179.59L44.83,179.49L46.28,179.48L91.11,180.11L92.55,179.95L98.34,179.84L99.78,179.91L117.14,179.56L118.58,179.55L125.81,179.28L127.26,179.46L159.07,179.8L160.52,179.6L163.41,179.3L164.86,179.49L176.43,178.56L177.87,178.82L201.01,179.18L202.46,179.3L224.15,179.76L225.59,179.93L229.93,179.58L231.38,179.7L240.06,180.05L241.5,179.9L245.84,179.4L247.29,179.27L251.62,179.65L253.07,179.47L261.75,179.58L263.19,179.64L268.98,179.4L270.42,179.71L279.1,179.66L280.55,179.28L293.56,179.59L295.01,179.55L302.24,179.91L303.68,179.87L309.47,179.83L310.91,179.99L318.15,180.04L319.59,180.12L321.04,180.05L322.48,179.06L325.38,177.44L326.82,177.31L328.27,177.5L329.71,175.88L332.61,177.04L334.05,177.18L335.5,175.67L336.94,176.38L339.84,176.5L341.28,177.13L344.18,174.46L345.62,175.18L348.51,173.62L349.96,174.59L354.3,176.5L355.74,176.68L361.53,177.83L362.97,179.12L370.21,180.09L371.65,180.1L377.44,180.56L378.88,180.37L403.47,180.76L404.91,180.69L409.25,177.49L410.7,176.84L416.48,177.22L417.93,177.3L422.27,177.54L423.71,177.74L426.6,177.82L428.05,177.96L435.28,177.12L436.73,177.86L441.07,177.45L442.51,178.03L443.96,179.62L445.4,179.91L449.74,180.52L451.19,180.64L456.97,180.68L458.42,180.7L481.56,181L483,180.67L485.89,178.16L487.34,177.42L493.13,176.28L494.57,176.3L501.8,176.3L503.25,175.67L506.14,176.46L507.59,176.56L510.48,176.66L511.92,176.04L517.71,176.43L519.16,175.81L520.6,175.34L522.05,176.38L523.49,176.88L524.94,178.92L527.83,180.19L529.28,180.31L537.95,180.96L539.4,180.83L546.63,181.21L548.08,181.23L563.98,181.26L565.43,179.63L568.32,177.8L569.77,177.61L577,177.64" style="vector-effect: none; fill: none; stroke: rgb(254, 203, 82); stroke-opacity: 1; stroke-width: 2px; opacity: 1;"/></g><g class="points"/><g class="text"/></g></g></g></g><path class="xlines-above crisp" d="M0,0" style="fill: none;"/><path class="ylines-above crisp" d="M0,0" style="fill: none;"/><g class="overlines-above"/><g class="xaxislayer-above"><g class="xtick"><text text-anchor="middle" x="0" y="273" transform="translate(60.9,0)" style="font-family: 'Times New Roman'; font-size: 12px; fill: rgb(0, 0, 0); fill-opacity: 1; white-space: pre; opacity: 1;">6e+7</text></g><g class="xtick"><text text-anchor="middle" x="0" y="273" style="font-family: 'Times New Roman'; font-size: 12px; fill: rgb(0, 0, 0); fill-opacity: 1; white-space: pre; opacity: 1;" transform="translate(174.05,0)">7e+7</text></g><g class="xtick"><text text-anchor="middle" x="0" y="273" style="font-family: 'Times New Roman'; font-size: 12px; fill: rgb(0, 0, 0); fill-opacity: 1; white-space: pre; opacity: 1;" transform="translate(287.2,0)">7e+7</text></g><g class="xtick"><text text-anchor="middle" x="0" y="273" style="font-family: 'Times New Roman'; font-size: 12px; fill: rgb(0, 0, 0); fill-opacity: 1; white-space: pre; opacity: 1;" transform="translate(400.35,0)">8e+7</text></g><g class="xtick"><text text-anchor="middle" x="0" y="273" style="font-family: 'Times New Roman'; font-size: 12px; fill: rgb(0, 0, 0); fill-opacity: 1; white-space: pre; opacity: 1;" transform="translate(513.5,0)">8e+7</text></g></g><g class="yaxislayer-above"><g class="ytick"><text text-anchor="end" x="37" y="4.199999999999999" transform="translate(0,221.94)" style="font-family: 'Times New Roman'; font-size: 12px; fill: rgb(0, 0, 0); fill-opacity: 1; white-space: pre; opacity: 1;">15</text></g><g class="ytick"><text text-anchor="end" x="37" y="4.199999999999999" style="font-family: 'Times New Roman'; font-size: 12px; fill: rgb(0, 0, 0); fill-opacity: 1; white-space: pre; opacity: 1;" transform="translate(0,175.07)">16</text></g><g class="ytick"><text text-anchor="end" x="37" y="4.199999999999999" style="font-family: 'Times New Roman'; font-size: 12px; fill: rgb(0, 0, 0); fill-opacity: 1; white-space: pre; opacity: 1;" transform="translate(0,128.2)">17</text></g><g class="ytick"><text text-anchor="end" x="37" y="4.199999999999999" style="font-family: 'Times New Roman'; font-size: 12px; fill: rgb(0, 0, 0); fill-opacity: 1; white-space: pre; opacity: 1;" transform="translate(0,81.33)">18</text></g></g><g class="overaxes-above"/></g></g><g class="polarlayer"/><g class="smithlayer"/><g class="ternarylayer"/><g class="geolayer"/><g class="funnelarealayer"/><g class="pielayer"/><g class="iciclelayer"/><g class="treemaplayer"/><g class="sunburstlayer"/><g class="glimages"/><defs id="topdefs-20cc96"><g class="clips"/></defs><g class="layer-above"><g class="imagelayer"/><g class="shapelayer"><g class="shape-group" data-index="0" clip-path="url(#clip20cc96x)"><path data-index="0" fill-rule="evenodd" d="M78.72,260H109.95V50H78.72Z" style="opacity: 0.4; stroke: rgb(0, 0, 0); stroke-opacity: 0; fill: rgb(44, 115, 210); fill-opacity: 1; stroke-width: 0px;"/></g><g class="shape-group" data-index="1" clip-path="url(#clip20cc96x)"><path data-index="1" fill-rule="evenodd" d="M160.18,260H191.41V50H160.18Z" style="opacity: 0.4; stroke: rgb(0, 0, 0); stroke-opacity: 0; fill: rgb(44, 115, 210); fill-opacity: 1; stroke-width: 0px;"/></g><g class="shape-group" data-index="2" clip-path="url(#clip20cc96x)"><path data-index="2" fill-rule="evenodd" d="M241.64,260H272.86V50H241.64Z" style="opacity: 0.4; stroke: rgb(0, 0, 0); stroke-opacity: 0; fill: rgb(44, 115, 210); fill-opacity: 1; stroke-width: 0px;"/></g><g class="shape-group" data-index="3" clip-path="url(#clip20cc96x)"><path data-index="3" fill-rule="evenodd" d="M323.1,260H354.32V50H323.1Z" style="opacity: 0.4; stroke: rgb(0, 0, 0); stroke-opacity: 0; fill: rgb(44, 115, 210); fill-opacity: 1; stroke-width: 0px;"/></g><g class="shape-group" data-index="4" clip-path="url(#clip20cc96x)"><path data-index="4" fill-rule="evenodd" d="M404.55,260H435.79V50H404.55Z" style="opacity: 0.4; stroke: rgb(0, 0, 0); stroke-opacity: 0; fill: rgb(44, 115, 210); fill-opacity: 1; stroke-width: 0px;"/></g><g class="shape-group" data-index="5" clip-path="url(#clip20cc96x)"><path data-index="5" fill-rule="evenodd" d="M486.02,260H517.25V50H486.02Z" style="opacity: 0.4; stroke: rgb(0, 0, 0); stroke-opacity: 0; fill: rgb(44, 115, 210); fill-opacity: 1; stroke-width: 0px;"/></g><g class="shape-group" data-index="6" clip-path="url(#clip20cc96x)"><path data-index="6" fill-rule="evenodd" d="M567.47,260H598.7V50H567.47Z" style="opacity: 0.4; stroke: rgb(0, 0, 0); stroke-opacity: 0; fill: rgb(44, 115, 210); fill-opacity: 1; stroke-width: 0px;"/></g></g></g><g class="infolayer"><g class="g-gtitle"><text class="gtitle" x="312.5" y="25" text-anchor="middle" dy="0em" style="opacity: 1; font-family: 'Times New Roman'; font-size: 17px; fill: rgb(0, 0, 0); fill-opacity: 1; white-space: pre;">Matrix 1, Sensor 7</text></g><g class="g-xtitle" transform="translate(0,-2.8000000000000114)"><text class="xtitle" x="326.5" y="299.8" text-anchor="middle" style="opacity: 1; font-family: 'Times New Roman'; font-size: 14px; fill: rgb(0, 0, 0); fill-opacity: 1; white-space: pre;">Time since power on (ms)</text></g><g class="g-ytitle" transform="translate(6.900390625,0)"><text class="ytitle" transform="rotate(-90,5.600000000000001,155)" x="5.600000000000001" y="155" text-anchor="middle" style="opacity: 1; font-family: 'Times New Roman'; font-size: 14px; fill: rgb(0, 0, 0); fill-opacity: 1; white-space: pre;">Resistance (Ohms)</text></g><g class="annotation" data-index="0" style="opacity: 1;"><g class="annotation-text-g" transform="rotate(0,88.72,58.5)"><g class="cursor-pointer" transform="translate(79,50)"><rect class="bg" x="0.5" y="0.5" width="19" height="16" style="stroke-width: 1px; stroke: rgb(0, 0, 0); stroke-opacity: 0; fill: rgb(0, 0, 0); fill-opacity: 0;"/><text class="annotation-text" text-anchor="middle" x="10" y="12.5" style="font-family: 'Times New Roman'; font-size: 12px; fill: rgb(0, 0, 0); fill-opacity: 1; white-space: pre;">Air</text></g></g></g><g class="annotation" data-index="1" style="opacity: 1;"><g class="annotation-text-g" transform="rotate(0,170.18,58.5)"><g class="cursor-pointer" transform="translate(160,50)"><rect class="bg" x="0.5" y="0.5" width="19" height="16" style="stroke-width: 1px; stroke: rgb(0, 0, 0); stroke-opacity: 0; fill: rgb(0, 0, 0); fill-opacity: 0;"/><text class="annotation-text" text-anchor="middle" x="10" y="12.5" style="font-family: 'Times New Roman'; font-size: 12px; fill: rgb(0, 0, 0); fill-opacity: 1; white-space: pre;">Air</text></g></g></g><g class="annotation" data-index="2" style="opacity: 1;"><g class="annotation-text-g" transform="rotate(0,251.64,58.5)"><g class="cursor-pointer" transform="translate(242,50)"><rect class="bg" x="0.5" y="0.5" width="19" height="16" style="stroke-width: 1px; stroke: rgb(0, 0, 0); stroke-opacity: 0; fill: rgb(0, 0, 0); fill-opacity: 0;"/><text class="annotation-text" text-anchor="middle" x="10" y="12.5" style="font-family: 'Times New Roman'; font-size: 12px; fill: rgb(0, 0, 0); fill-opacity: 1; white-space: pre;">Air</text></g></g></g><g class="annotation" data-index="3" style="opacity: 1;"><g class="annotation-text-g" transform="rotate(0,333.1,58.5)"><g class="cursor-pointer" transform="translate(323,50)"><rect class="bg" x="0.5" y="0.5" width="19" height="16" style="stroke-width: 1px; stroke: rgb(0, 0, 0); stroke-opacity: 0; fill: rgb(0, 0, 0); fill-opacity: 0;"/><text class="annotation-text" text-anchor="middle" x="10" y="12.5" style="font-family: 'Times New Roman'; font-size: 12px; fill: rgb(0, 0, 0); fill-opacity: 1; white-space: pre;">Air</text></g></g></g><g class="annotation" data-index="4" style="opacity: 1;"><g class="annotation-text-g" transform="rotate(0,414.55,58.5)"><g class="cursor-pointer" transform="translate(405,50)"><rect class="bg" x="0.5" y="0.5" width="19" height="16" style="stroke-width: 1px; stroke: rgb(0, 0, 0); stroke-opacity: 0; fill: rgb(0, 0, 0); fill-opacity: 0;"/><text class="annotation-text" text-anchor="middle" x="10" y="12.5" style="font-family: 'Times New Roman'; font-size: 12px; fill: rgb(0, 0, 0); fill-opacity: 1; white-space: pre;">Air</text></g></g></g><g class="annotation" data-index="5" style="opacity: 1;"><g class="annotation-text-g" transform="rotate(0,496.02,58.5)"><g class="cursor-pointer" transform="translate(486,50)"><rect class="bg" x="0.5" y="0.5" width="19" height="16" style="stroke-width: 1px; stroke: rgb(0, 0, 0); stroke-opacity: 0; fill: rgb(0, 0, 0); fill-opacity: 0;"/><text class="annotation-text" text-anchor="middle" x="10" y="12.5" style="font-family: 'Times New Roman'; font-size: 12px; fill: rgb(0, 0, 0); fill-opacity: 1; white-space: pre;">Air</text></g></g></g><g class="annotation" data-index="6" style="opacity: 1;"><g class="annotation-text-g" transform="rotate(0,577.47,58.5)"><g class="cursor-pointer" transform="translate(567,50)"><rect class="bg" x="0.5" y="0.5" width="19" height="16" style="stroke-width: 1px; stroke: rgb(0, 0, 0); stroke-opacity: 0; fill: rgb(0, 0, 0); fill-opacity: 0;"/><text class="annotation-text" text-anchor="middle" x="10" y="12.5" style="font-family: 'Times New Roman'; font-size: 12px; fill: rgb(0, 0, 0); fill-opacity: 1; white-space: pre;">Air</text></g></g></g></g></svg>