<svg class="main-svg" xmlns="http://www.w3.org/2000/svg" xmlns:xlink="http://www.w3.org/1999/xlink" width="625" height="300" style="" viewBox="0 0 625 300"><rect x="0" y="0" width="625" height="300" style="fill: rgb(255, 255, 255); fill-opacity: 1;"/><defs id="defs-ff3255"><g class="clips"><clipPath id="clipff3255xyplot" class="plotclip"><rect width="567" height="210"/></clipPath><clipPath class="axesclip" id="clipff3255x"><rect x="48" y="0" width="567" height="300"/></clipPath><clipPath class="axesclip" id="clipff3255y"><rect x="0" y="50" width="625" height="210"/></clipPath><clipPath class="axesclip" id="clipff3255xy"><rect x="48" y="50" width="567" height="210"/></clipPath></g><g class="gradients"/><g class="patterns"/></defs><g class="bglayer"><rect class="bg" x="48" y="50" width="567" height="210" style="fill: rgb(229, 236, 246); fill-opacity: 1; stroke-width: 0;"/></g><g class="layer-below"><g class="imagelayer"/><g class="shapelayer"/></g><g class="cartesianlayer"><g class="subplot xy"><g class="layer-subplot"><g class="shapelayer"/><g class="imagelayer"/></g><g class="minor-gridlayer"><g class="x"/><g class="y"/></g><g class="gridlayer"><g class="x"><path class="xgrid crisp" transform="translate(69.71000000000001,0)" d="M0,50v210" style="stroke: rgb(255, 255, 255); stroke-opacity: 1; stroke-width: 1px;"/><path class="xgrid crisp" transform="translate(180.9,0)" d="M0,50v210" style="stroke: rgb(255, 255, 255); stroke-opacity: 1; stroke-width: 1px;"/><path class="xgrid crisp" transform="translate(292.09000000000003,0)" d="M0,50v210" style="stroke: rgb(255, 255, 255); stroke-opacity: 1; stroke-width: 1px;"/><path class="xgrid crisp" transform="translate(403.28,0)" d="M0,50v210" style="stroke: rgb(255, 255, 255); stroke-opacity: 1; stroke-width: 1px;"/><path class="xgrid crisp" transform="translate(514.47,0)" d="M0,50v210" style="stroke: rgb(255, 255, 255); stroke-opacity: 1; stroke-width: 1px;"/></g><g class="y"><path class="ygrid crisp" transform="translate(0,253.39)" d="M48,0h567" style="stroke: rgb(255, 255, 255); stroke-opacity: 1; stroke-width: 1px;"/><path class="ygrid crisp" transform="translate(0,207.21)" d="M48,0h567" style="stroke: rgb(255, 255, 255); stroke-opacity: 1; stroke-width: 1px;"/><path class="ygrid crisp" transform="translate(0,161.01999999999998)" d="M48,0h567" style="stroke: rgb(255, 255, 255); stroke-opacity: 1; stroke-width: 1px;"/><path class="ygrid crisp" transform="translate(0,114.83)" d="M48,0h567" style="stroke: rgb(255, 255, 255); stroke-opacity: 1; stroke-width: 1px;"/></g></g><g class="zerolinelayer"><path class="yzl zl crisp" transform="translate(0,68.65)" d="M48,0h567" style="stroke: rgb(255, 255, 255); stroke-opacity: 1; stroke-width: 2px;"/></g><g class="layer-between"><g class="shapelayer"/><g class="imagelayer"/></g><path class="xlines-below"/><path class="ylines-below"/><g class="overlines-below"/><g class="xaxislayer-below"/><g class="yaxislayer-below"/><g class="overaxes-below"/><g class="overplot"><g class="xy" transform="translate(48,50)" clip-path="url(#clipff3255xyplot)"><g class="scatterlayer mlayer"><g class="trace scatter traceaf265f" style="stroke-miterlimit: 2; opacity: 1;"><g class="fills"/><g class="errorbars"/><g class="lines"><path class="js-line" d="M0,18.65L34.11,18.72L35.53,22.46L36.95,22.38L38.37,20.29L39.79,18.75L41.21,18.65L52.58,18.67L54,20.75L55.42,18.7L56.84,18.65L567,18.65" style="vector-effect: none; fill: none; stroke: rgb(99, 110, 250); stroke-opacity: 1; stroke-width: 2px; opacity: 1;"/></g><g class="points"/><g class="text"/></g><g class="trace scatter trace1d88d8" style="stroke-miterlimit: 2; opacity: 1;"><g class="fills"/><g class="errorbars"/><g class="lines"><path class="js-line" d="M0,22.72L1.42,23.18L2.84,21.88L7.11,21.01L8.53,19.94L9.95,21.35L11.37,21.45L14.21,21.32L15.63,21.54L18.47,21.1L19.89,21.45L21.32,21.96L22.74,21.13L24.16,21.52L25.58,20.69L27,21.43L28.42,20.89L32.68,20.99L34.11,31.17L35.53,115.31L36.95,120.68L39.79,117.44L41.21,116.26L45.47,113.49L46.89,113.6L48.32,113.46L49.74,112.33L52.58,112.53L54,112.85L55.42,112.59L56.84,111.54L58.26,112.24L59.68,111.91L62.53,112.14L63.95,111.42L66.79,111.7L68.21,112.55L71.05,110.77L72.47,111.46L73.89,111.02L75.32,109.14L76.74,51.69L78.16,29.97L81,23.68L82.42,23.04L85.26,21.34L86.68,21.51L95.21,19.35L96.63,19.23L105.16,18.34L106.58,18.53L109.42,18.85L110.84,18.42L112.26,18.2L113.68,20.12L116.53,110.28L117.95,110.22L122.21,108.57L123.63,108.47L125.05,108.81L126.47,108.29L132.16,107.15L133.58,108L139.26,106.84L140.68,107.09L143.53,106.08L144.95,106.72L146.37,106.26L147.79,106.61L150.63,107.12L152.05,106.65L153.47,105.05L154.89,52.31L156.32,30.68L157.74,26.79L162,22.79L163.42,22.25L166.26,22.19L167.68,20.85L169.11,21.59L170.53,21.02L173.37,20.62L174.79,19.53L176.21,19.13L177.63,19.92L181.89,19.44L183.32,19.38L184.74,19.15L186.16,18.1L187.58,18.01L189,18.69L193.26,18.76L194.68,30.98L196.11,108.8L197.53,112.64L203.21,109.88L204.63,109.95L207.47,109.45L208.89,109.19L214.58,109.3L216,109.21L217.42,109.66L218.84,108.47L221.68,109.71L223.11,108.69L224.53,109.18L225.95,108.17L228.79,108.27L230.21,107.72L233.05,107.85L234.47,81.48L235.89,34.73L237.32,27.59L240.16,23.04L241.58,21.63L244.42,19.17L245.84,19.13L251.53,17.43L252.95,17.94L255.79,16.94L257.21,16.98L260.05,16.78L261.47,16.17L262.89,16.79L264.32,16.39L267.16,16.05L268.58,16.54L270,15.86L271.42,16.06L272.84,15.97L274.26,24.79L275.68,97.86L277.11,104.93L279.95,103.02L281.37,103.88L284.21,102.81L285.63,103.03L291.32,102.32L292.74,103.22L295.58,102.7L297,102.77L298.42,102.23L299.84,103.07L305.53,102.3L306.95,103.31L308.37,103.33L309.79,102.08L311.21,102.36L312.63,101.6L314.05,98.94L315.47,44.59L316.89,29.83L318.32,27L321.16,23.26L322.58,21.71L324,22.59L325.42,21.34L326.84,21.5L328.26,20.28L331.11,19.81L332.53,18.95L336.79,19.04L338.21,20.82L341.05,19.22L342.47,19.54L343.89,20.14L345.32,19.89L346.74,18.86L348.16,18.9L349.58,18.86L351,18.06L352.42,18.24L353.84,20.53L355.26,76.06L356.68,97.94L363.79,96.12L365.21,96.07L366.63,95.72L368.05,96.51L370.89,95.9L372.32,96L376.58,95.09L378,95.66L382.26,94.63L383.68,95.2L386.53,94.26L387.95,94.43L390.79,94.22L392.21,94L393.63,94.94L395.05,94.82L396.47,94.69L397.89,82.29L399.32,36.68L400.74,31.01L403.58,25.38L405,24.2L407.84,22.73L409.26,21.06L410.68,21.69L412.11,21.29L413.53,20.57L414.95,21.77L416.37,22.28L417.79,21.79L419.21,20.71L420.63,20.59L424.89,20.08L426.32,20.37L427.74,20.94L429.16,19.33L432,19.69L433.42,20.14L434.84,37.12L436.26,90.73L437.68,92.06L439.11,91.44L443.37,89.98L444.79,90.53L447.63,89.49L449.05,90.54L451.89,90.35L453.32,89.63L454.74,89.29L456.16,89.73L457.58,90.73L459,89.71L463.26,89.99L464.68,91.02L466.11,91.49L467.53,90.2L473.21,89.65L474.63,68.94L476.05,33.54L477.47,26.07L481.74,21.2L483.16,21.36L488.84,19.21L490.26,19.47L500.21,17.28L501.63,17.95L504.47,18.12L505.89,17.55L507.32,18.37L508.74,17.43L513,18.21L514.42,23.12L515.84,25.3L517.26,25.58L518.68,25.24L520.11,25.9L521.53,26.23L522.95,25.78L525.79,26.84L527.21,26.13L534.32,26.18L535.74,26.95L538.58,26.32L540,25.98L545.68,26.65L547.11,26.39L548.53,26.16L549.95,26.94L554.21,27.08L555.63,20.31L558.47,18.14L559.89,18.93L561.32,18.93L562.74,18.02L565.58,17.47L567,16.63" style="vector-effect: none; fill: none; stroke: rgb(239, 85, 59); stroke-opacity: 1; stroke-width: 2px; opacity: 1;"/></g><g class="points"/><g class="text"/></g><g class="trace scatter tracea04283" style="stroke-miterlimit: 2; opacity: 1;"><g class="fills"/><g class="errorbars"/><g class="lines"><path class="js-line" d="M0,28.54L2.84,27.72L4.26,26.7L8.53,24.56L9.95,24.63L12.79,25.75L14.21,25.58L19.89,25.59L21.32,25.56L22.74,25L24.16,25.32L25.58,24.62L27,25.1L32.68,24.87L34.11,33.3L35.53,175.12L36.95,199.5L38.37,196.82L39.79,195.87L41.21,193.12L42.63,192.15L46.89,191.28L48.32,189.76L52.58,188.67L54,190.39L56.84,188.43L58.26,188.23L59.68,188.05L61.11,188.83L62.53,189.58L63.95,188.97L66.79,188.17L68.21,188.86L69.63,189.59L71.05,188.76L73.89,188.88L75.32,183.14L76.74,88.41L78.16,50.76L81,38.42L82.42,36.24L85.26,32.74L86.68,32.16L88.11,30.96L89.53,30.88L90.95,30.36L92.37,28.79L93.79,28.86L95.21,28.14L103.74,26.16L105.16,24.81L106.58,26.43L108,25.81L112.26,24.84L113.68,27.65L116.53,185.73L117.95,185.65L122.21,183.93L123.63,185.01L126.47,183.51L127.89,182.85L129.32,182L130.74,183.01L132.16,182.41L133.58,183.03L136.42,182.1L137.84,181.62L140.68,183.34L142.11,182.53L144.95,182.45L146.37,181.56L149.21,183.01L150.63,183.28L152.05,182.91L153.47,179.7L154.89,89.94L156.32,51.64L159.16,40.3L160.58,37.92L162,35.17L163.42,34.48L164.84,34.27L166.26,32.85L169.11,31.09L170.53,31.3L171.95,29.76L173.37,30.16L174.79,28.33L176.21,28.61L177.63,29L179.05,27.73L181.89,28.24L183.32,26.75L187.58,25.83L189,26.42L193.26,25.46L194.68,48.47L196.11,178.62L197.53,191.23L198.95,188.93L200.37,188.87L201.79,187.51L203.21,187.93L206.05,186.66L207.47,186.96L216,187.03L217.42,186.64L218.84,187.28L220.26,186.92L221.68,187.85L223.11,187L224.53,186.81L225.95,185.77L227.37,186.35L228.79,185.81L230.21,185.52L231.63,186.12L233.05,185.09L234.47,142.32L235.89,60.51L237.32,46.62L240.16,38.14L241.58,35.07L243,34.29L244.42,32.18L248.68,28.45L250.11,28.31L254.37,27.54L255.79,28.04L258.63,26.47L260.05,26.69L264.32,24.12L265.74,23.24L268.58,24.31L270,23.58L272.84,24.13L274.26,32.56L275.68,155.75L277.11,178.02L278.53,177.44L279.95,176.02L281.37,176.86L282.79,176.39L289.89,175.45L291.32,176.09L297,176.47L298.42,176.1L299.84,177.06L301.26,176.7L302.68,176.12L304.11,176.67L305.53,176.25L306.95,177.98L308.37,176.77L309.79,176.71L312.63,177.14L314.05,172.91L315.47,79.33L316.89,51.55L319.74,42.99L321.16,39.74L322.58,35.35L324,37.62L325.42,35.22L326.84,35.14L328.26,32.31L329.68,31.56L331.11,31.73L332.53,30.36L333.95,28.81L335.37,28.83L336.79,28.38L338.21,32.13L342.47,28.05L343.89,28.64L345.32,30.14L346.74,28.38L348.16,28.68L349.58,27.41L351,26.07L352.42,26.56L353.84,30.76L355.26,122.82L356.68,166.54L358.11,165.66L359.53,163.94L360.95,164.08L363.79,162.55L365.21,162.97L366.63,162.39L368.05,163.21L369.47,163.87L370.89,162.32L372.32,163.55L373.74,163.04L376.58,163.44L378,163.81L383.68,162.64L385.11,163.04L389.37,162.5L390.79,163.3L392.21,162.32L393.63,162.35L396.47,163.71L397.89,139.54L399.32,62.99L400.74,50.79L403.58,39.03L405,37.51L406.42,37.75L407.84,35.62L409.26,31.9L410.68,32.57L412.11,32.43L413.53,31.38L414.95,33.49L416.37,34.09L417.79,35.2L419.21,32.25L422.05,30.14L423.47,30.65L424.89,30.32L426.32,30.98L427.74,31.11L429.16,28.28L430.58,29.01L432,28.51L433.42,28.61L434.84,58.63L436.26,151.53L437.68,157.75L440.53,154.92L441.95,154.71L444.79,154.25L446.21,154.12L449.05,154.05L450.47,153.87L451.89,153.88L453.32,153.12L454.74,153.13L456.16,154.6L460.42,153.76L461.84,154.18L463.26,153.82L464.68,154.38L466.11,155.46L467.53,155.07L468.95,153.76L470.37,153.99L471.79,153.54L473.21,154.08L474.63,117.92L476.05,54L477.47,40.54L478.89,37.1L483.16,31.1L484.58,31.59L488.84,27.73L490.26,27.82L493.11,24.69L494.53,26.51L497.37,22.78L498.79,23.96L500.21,22.53L501.63,23.41L503.05,25.19L504.47,24.45L505.89,22.9L507.32,23.71L508.74,22.94L510.16,21.08L513,24.24L514.42,33.07L515.84,39.26L517.26,37.05L522.95,39.21L524.37,41.14L525.79,42.44L527.21,41.5L530.05,43.15L531.47,42.01L534.32,42.49L535.74,42.22L537.16,42.66L538.58,42.1L540,41.39L541.42,41.65L542.84,41.31L544.26,41.94L547.11,41.96L548.53,42.2L549.95,42.72L551.37,42.44L552.79,42.33L554.21,38.45L555.63,27.11L557.05,26.42L558.47,24.92L559.89,25.35L561.32,24.68L562.74,22.76L564.16,21.56L565.58,22.27L567,19.88" style="vector-effect: none; fill: none; stroke: rgb(0, 204, 150); stroke-opacity: 1; stroke-width: 2px; opacity: 1;"/></g><g class="points"/><g class="text"/></g><g class="trace scatter tracef1d5ec" style="stroke-miterlimit: 2; opacity: 1;"><g class="fills"/><g class="errorbars"/><g class="lines"><path class="js-line" d="M0,24.01L1.42,24.13L2.84,23.17L7.11,22.41L8.53,21.66L9.95,21.61L11.37,22.44L15.63,23.09L17.05,23.32L24.16,22.61L25.58,22.57L27,21.82L28.42,22.22L31.26,21.4L32.68,22.12L34.11,28.87L35.53,116.13L36.95,125.17L38.37,123.1L42.63,119.89L44.05,119.55L45.47,118.22L46.89,118.31L52.58,116.68L54,116.83L55.42,117L56.84,115.6L59.68,116.08L61.11,116.27L66.79,115.05L68.21,115.84L69.63,116.25L71.05,115.12L73.89,115.42L75.32,111.23L76.74,55.56L78.16,31.38L81,25.27L82.42,24.04L85.26,22.5L86.68,22.06L92.37,20.68L93.79,20.17L98.05,20.21L99.47,19.86L106.58,18.75L108,19.64L112.26,19.04L113.68,21.18L116.53,113.71L117.95,114.37L122.21,112.94L123.63,112.73L125.05,113.24L126.47,112.47L127.89,111.55L129.32,111.79L130.74,112.64L132.16,111.77L142.11,111.03L143.53,111.11L147.79,110.45L149.21,111.22L152.05,110.87L153.47,109.73L156.32,31.58L157.74,28.29L160.58,24.8L162,24.58L167.68,22.56L169.11,22.54L170.53,21.53L171.95,21.53L179.05,20.78L180.47,20.24L181.89,19.88L183.32,20.33L187.58,19.12L189,19.69L191.84,19.16L193.26,19.67L194.68,37.61L196.11,111L197.53,116.66L198.95,115.25L201.79,114.82L203.21,114.81L204.63,114.56L206.05,113.53L214.58,113.62L216,112.8L217.42,113.77L218.84,112.6L221.68,113.82L223.11,112.72L224.53,113.21L225.95,112.62L227.37,111.98L228.79,112.32L233.05,112.19L234.47,89.72L235.89,37.6L237.32,29.12L238.74,26.1L240.16,25.15L243,22.51L244.42,21.39L247.26,19.8L248.68,20.15L250.11,19.03L251.53,19.02L257.21,18.75L258.63,18.14L265.74,17.44L267.16,16.85L268.58,17.66L270,16.72L272.84,17.5L274.26,27.12L275.68,99.53L277.11,108.59L279.95,107.5L281.37,107.35L288.47,106.2L289.89,106.83L291.32,106.24L292.74,106.92L295.58,105.57L297,106.25L298.42,106.56L299.84,105.73L302.68,106.7L304.11,107.34L305.53,106.17L306.95,106.2L309.79,106.84L311.21,106.24L312.63,106.49L314.05,104.92L315.47,49.93L316.89,33.1L319.74,28.13L321.16,26.37L322.58,24.73L324,25.72L325.42,24.69L326.84,25.21L328.26,23.47L329.68,23.35L335.37,21.44L336.79,21.74L338.21,23.61L339.63,22.98L341.05,21.81L342.47,22.24L345.32,22.03L346.74,21.37L348.16,21.71L349.58,20.97L351,20.36L352.42,20.68L353.84,22.97L355.26,80.4L356.68,102.1L358.11,102.01L359.53,100.67L360.95,100.98L363.79,99.81L365.21,99.91L373.74,99.2L375.16,99.39L380.84,98.91L382.26,98.89L386.53,98.34L387.95,98.8L395.05,98.17L396.47,98.39L397.89,85.38L399.32,39.55L402.16,29.72L403.58,26.89L407.84,24.99L409.26,23.18L412.11,23.46L413.53,22.75L417.79,24.57L419.21,22.91L422.05,22.66L423.47,22.89L424.89,22.44L426.32,22.89L427.74,23.26L429.16,21.2L430.58,22.45L432,22.57L433.42,21.68L434.84,41.14L436.26,93.52L437.68,95.33L439.11,94.18L440.53,94.6L443.37,93.82L444.79,95.02L447.63,92.98L449.05,93.51L453.32,92.87L454.74,93.44L460.42,93.48L461.84,93.37L463.26,93.33L464.68,94.32L467.53,93.74L468.95,93.45L473.21,93.4L474.63,76.17L476.05,34.82L477.47,27.35L481.74,23.3L483.16,22.67L487.42,22.1L488.84,21.18L498.79,19.31L500.21,18.45L503.05,20.23L504.47,19.92L505.89,18.74L507.32,19.71L510.16,19.38L511.58,19.77L513,19.45L514.42,24.25L515.84,27.16L517.26,26.55L518.68,26.53L520.11,27.42L524.37,26.44L525.79,27.35L527.21,26.95L528.63,28.48L532.89,27.25L534.32,28.13L540,27.68L541.42,27.61L545.68,27.88L547.11,27.54L548.53,27.08L549.95,27.54L552.79,27.89L554.21,26.9L555.63,21.21L557.05,20.16L561.32,19.92L562.74,18.91L567,17.86" style="vector-effect: none; fill: none; stroke: rgb(171, 99, 250); stroke-opacity: 1; stroke-width: 2px; opacity: 1;"/></g><g class="points"/><g class="text"/></g><g class="trace scatter trace2086bb" style="stroke-miterlimit: 2; opacity: 1;"><g class="fills"/><g class="errorbars"/><g class="lines"><path class="js-line" d="M0,29.27L9.95,26.73L11.37,27.03L12.79,27.39L14.21,26.64L19.89,27.95L21.32,26.46L24.16,27.66L25.58,26.9L32.68,26.89L34.11,34.58L35.53,145.85L36.95,160.81L39.79,156.25L41.21,154.68L46.89,149.2L48.32,148.77L51.16,147.17L52.58,146.89L54,147.72L55.42,147.54L58.26,145.83L59.68,146.51L65.37,146.02L66.79,146.11L71.05,146.42L72.47,145.6L73.89,146.02L75.32,141.35L76.74,67.66L78.16,39.27L81,31.56L82.42,30.42L83.84,28.95L85.26,28.77L89.53,27.08L90.95,27.49L92.37,26.03L93.79,27.45L98.05,24.65L99.47,25.77L102.32,27.17L103.74,25.86L106.58,26L108,24.87L109.42,25.65L110.84,25.09L112.26,25.02L113.68,27.96L116.53,142.93L117.95,144.23L119.37,143.02L120.79,143.82L122.21,143.36L123.63,141L126.47,141.63L127.89,140.03L135,140.08L136.42,140.01L137.84,139.06L139.26,139.54L146.37,138.48L147.79,139.09L150.63,139.58L152.05,139.32L153.47,137.82L154.89,70.61L156.32,39.4L157.74,37.12L160.58,33.23L162,31.54L164.84,30.48L166.26,29.6L169.11,28.82L170.53,29.01L171.95,27.81L173.37,27.9L191.84,25.91L193.26,26.81L194.68,48.14L196.11,140.8L197.53,148.32L198.95,145.98L203.21,144.35L204.63,143.17L208.89,142.06L210.32,142.37L213.16,142.76L214.58,141.79L217.42,141.53L218.84,141.85L220.26,141.47L221.68,142.95L225.95,141.39L227.37,141.01L233.05,140.49L234.47,110.75L235.89,45.7L237.32,37.88L241.58,30.83L243,29.47L247.26,26.59L248.68,26.76L255.79,25.15L257.21,25.44L258.63,24.84L260.05,25.15L268.58,23.43L270,23.29L272.84,23.68L274.26,36.53L275.68,125.55L277.11,137.63L279.95,135.35L281.37,135.7L284.21,134.72L285.63,135.27L287.05,133.36L288.47,133.48L294.16,133.23L295.58,133.25L298.42,133.72L299.84,134.37L301.26,132.86L302.68,133.55L305.53,132.48L306.95,134.69L308.37,133.56L309.79,133.61L312.63,133.82L314.05,130.51L315.47,61.71L316.89,41.53L319.74,35.14L321.16,34.05L322.58,31.59L324,32.39L325.42,31.6L326.84,31.89L329.68,29.16L331.11,28.73L335.37,26.69L336.79,27.09L338.21,29.51L339.63,28.34L341.05,27.05L342.47,26.83L345.32,28.01L346.74,26.47L349.58,25.52L351,24.35L352.42,24.92L353.84,28.59L355.26,100.84L356.68,130.57L358.11,129.61L359.53,126.43L362.37,125.47L363.79,125.29L368.05,124.46L369.47,125.1L370.89,124.12L372.32,124.87L376.58,124.23L378,124.57L380.84,123.15L382.26,124.04L383.68,124.06L385.11,123.3L390.79,123.7L392.21,122.96L396.47,122.7L397.89,105.05L399.32,50.26L400.74,43.8L403.58,35.5L405,35.38L407.84,33.55L409.26,31.19L412.11,30.77L413.53,30.07L414.95,31.46L416.37,31.4L417.79,31.98L419.21,30.56L422.05,29.44L423.47,30L424.89,28.99L426.32,29.09L427.74,30.21L429.16,28.17L430.58,28.92L432,28.21L433.42,28.71L434.84,52.92L436.26,116.68L437.68,119.35L439.11,119.04L440.53,117.77L443.37,116.58L444.79,117.27L447.63,116.55L449.05,117.14L451.89,117.08L453.32,116.66L457.58,117.06L459,117.02L460.42,116.63L461.84,117.9L464.68,118.51L466.11,117.5L471.79,117.22L473.21,116.92L474.63,93.97L476.05,44.6L477.47,35.59L478.89,32.36L480.32,29.67L481.74,29.08L486,28.86L487.42,27.94L488.84,26.25L490.26,26.14L493.11,24.69L494.53,24.53L497.37,23.2L498.79,23.24L500.21,22.15L501.63,23.63L503.05,24.26L504.47,23.88L505.89,22.92L507.32,24.14L510.16,23.11L511.58,24.19L513,24.17L514.42,30.47L515.84,32.58L517.26,31.63L522.95,32.56L524.37,32.59L525.79,32.29L527.21,33.98L534.32,33.64L535.74,34.2L540,33.32L541.42,32.73L542.84,34.02L544.26,33.41L545.68,34.29L547.11,34L552.79,34.96L554.21,33.45L555.63,26.85L557.05,25.29L558.47,24.51L559.89,24.59L561.32,24.36L562.74,22.35L567,21.97" style="vector-effect: none; fill: none; stroke: rgb(255, 161, 90); stroke-opacity: 1; stroke-width: 2px; opacity: 1;"/></g><g class="points"/><g class="text"/></g><g class="trace scatter trace212d3c" style="stroke-miterlimit: 2; opacity: 1;"><g class="fills"/><g class="errorbars"/><g class="lines"><path class="js-line" d="M0,31.42L1.42,31.16L2.84,29.92L4.26,29.88L5.68,29.06L9.95,29.11L11.37,29.26L14.21,29.41L15.63,29.12L17.05,29.57L18.47,28.94L21.32,28.25L22.74,28.4L27,29.06L28.42,28.45L31.26,27.73L32.68,28.91L34.11,43.63L35.53,158.64L36.95,173.37L38.37,170.77L44.05,164.95L45.47,164.43L48.32,163.19L49.74,161.77L52.58,160.68L54,161.77L58.26,160.41L59.68,160.31L62.53,160.79L63.95,160.26L69.63,160.87L71.05,159.78L73.89,160.53L75.32,154.16L76.74,75.94L78.16,45.07L79.58,39.05L81,36.79L82.42,36.12L83.84,33.7L92.37,30.65L93.79,30.87L96.63,29.66L98.05,29.1L100.89,28.66L102.32,29.22L106.58,28.73L108,28.58L112.26,27.78L113.68,29.77L116.53,159.51L117.95,159.99L120.79,157.95L122.21,157.6L125.05,157.49L126.47,156.58L127.89,156.86L129.32,156.32L137.84,154.32L139.26,155.19L144.95,154.19L146.37,154.57L149.21,154.91L150.63,154.66L152.05,154.69L153.47,152.98L156.32,45.35L157.74,41.33L160.58,36.34L162,35.84L167.68,32.09L169.11,32.3L176.21,31.35L177.63,30.26L180.47,29.78L181.89,30.51L183.32,29.23L184.74,29.22L187.58,28.44L189,29.18L191.84,28.5L193.26,29.15L194.68,56.83L196.11,156.09L197.53,163.2L198.95,162.25L201.79,160.54L203.21,160.05L204.63,160.13L206.05,158.82L207.47,159.47L208.89,158.57L210.32,158.11L211.74,158.76L216,157.98L217.42,158.22L218.84,157.27L220.26,157.62L221.68,158.26L223.11,157.96L230.21,156.33L231.63,157.09L233.05,156.48L234.47,126.76L235.89,52.77L237.32,42.98L240.16,36.94L241.58,34.6L245.84,30.61L247.26,30.18L251.53,28.72L252.95,29.06L254.37,28.35L255.79,28.54L258.63,27.81L260.05,27.69L264.32,27.48L265.74,26.9L270,26.11L271.42,27.34L272.84,27.01L274.26,44.52L275.68,141.09L277.11,152.69L279.95,150.53L281.37,151.15L287.05,149.02L288.47,149.95L291.32,148.87L292.74,149.07L295.58,148.76L297,149.62L299.84,149.31L301.26,149.27L304.11,148.68L305.53,148.64L306.95,149.55L308.37,149.04L309.79,149.4L311.21,148.89L312.63,148.38L314.05,143.83L315.47,69.19L316.89,46.6L322.58,34.74L324,36.1L325.42,35.04L326.84,35.62L328.26,33.46L329.68,33.94L333.95,30.64L335.37,30.54L336.79,30.16L338.21,32.86L339.63,32.1L341.05,30.06L345.32,31.46L346.74,29.37L349.58,29.25L351,27.65L352.42,28.62L353.84,31.87L355.26,113.27L356.68,144.95L360.95,141.88L362.37,141.12L366.63,139.57L368.05,140.17L370.89,139.36L372.32,139.98L375.16,138.86L376.58,138.84L378,139.68L379.42,139.37L382.26,138.43L383.68,139.16L385.11,139.4L386.53,138.7L396.47,137.95L397.89,114.98L399.32,56.26L400.74,48.31L403.58,39.42L405,39.07L407.84,36.7L409.26,33.78L413.53,33.02L414.95,34.92L417.79,35.33L419.21,33.2L422.05,31.42L423.47,32.83L426.32,32.29L427.74,32.76L429.16,30.84L430.58,31.84L432,31.81L433.42,30.66L434.84,57.09L436.26,131.88L437.68,134.4L439.11,134.18L443.37,132L444.79,133.01L450.47,131.55L451.89,131.62L463.26,131.69L464.68,132.92L466.11,132.81L467.53,131.86L470.37,131.21L471.79,131.74L473.21,131.44L474.63,108.52L476.05,49.96L477.47,39.25L480.32,34.48L481.74,33.27L491.68,27.47L493.11,28.04L494.53,28.24L495.95,26.72L498.79,26.62L500.21,25.46L501.63,27.11L503.05,27.12L504.47,27.36L505.89,25.31L508.74,26.07L510.16,26.24L513,26.81L514.42,35.41L515.84,37.76L517.26,36.85L520.11,37.55L521.53,38.32L524.37,38.01L525.79,38.39L530.05,39.39L531.47,38.23L540,39.33L541.42,38.31L544.26,38.67L545.68,38.73L547.11,38.41L548.53,39.03L552.79,39.47L554.21,37.4L555.63,28.82L557.05,28.49L558.47,27.47L559.89,27.93L564.16,25.33L565.58,25.28L567,24.89" style="vector-effect: none; fill: none; stroke: rgb(25, 211, 243); stroke-opacity: 1; stroke-width: 2px; opacity: 1;"/></g><g class="points"/><g class="text"/></g><g class="trace scatter trace637cd9" style="stroke-miterlimit: 2; opacity: 1;"><g class="fills"/><g class="errorbars"/><g class="lines"><path class="js-line" d="M0,30.59L1.42,31.22L2.84,30.62L4.26,29.33L5.68,29.57L7.11,28.52L8.53,28.44L11.37,28.47L12.79,28.62L17.05,28.51L18.47,29.01L21.32,27.89L22.74,28.86L27,28.44L28.42,28.96L31.26,28.3L32.68,28.33L34.11,46.34L35.53,164.59L36.95,177.52L38.37,174.48L42.63,169.28L44.05,169.14L46.89,166.94L48.32,166.3L49.74,165.95L51.16,164.49L54,165.33L55.42,164.91L56.84,165.22L58.26,164.2L61.11,164.8L62.53,163.54L63.95,164.41L65.37,163.52L68.21,164.17L69.63,164.59L73.89,163.53L75.32,157.47L76.74,79.31L78.16,46.27L81,38.58L82.42,37.53L83.84,35.3L85.26,34.63L89.53,32.79L90.95,32.75L92.37,31.88L93.79,32.01L96.63,30.18L98.05,30.17L106.58,29.39L108,29.52L109.42,29.81L110.84,28.31L112.26,28.77L113.68,31.24L116.53,164.27L117.95,163.54L123.63,160.83L125.05,161.15L126.47,161.46L127.89,160.26L130.74,160.41L132.16,159.15L135,159.73L136.42,158.57L137.84,158.32L139.26,159.09L144.95,157.89L146.37,158.08L147.79,157.76L149.21,159.14L152.05,158.94L153.47,157.03L156.32,48.18L157.74,43.46L160.58,38.07L162,37.14L169.11,33.34L170.53,33.66L174.79,32.02L176.21,31.88L180.47,30.9L181.89,30.2L190.42,29.58L191.84,30.11L193.26,30.03L194.68,57.12L196.11,160.32L197.53,167.01L200.37,165.35L201.79,165.13L203.21,164L204.63,163.98L214.58,161.63L216,162.02L220.26,161.14L221.68,162.07L224.53,161.22L225.95,160.41L230.21,160.69L231.63,160.32L233.05,159.35L234.47,130.39L235.89,55.38L237.32,44.58L238.74,40.62L240.16,39.16L243,34.7L244.42,33.23L247.26,31.74L248.68,31.37L250.11,31.28L251.53,30.39L254.37,30.14L255.79,29.98L258.63,29.57L260.05,29.27L271.42,27.78L272.84,28.46L274.26,46.24L275.68,145.26L277.11,157.39L278.53,156.16L281.37,154.66L282.79,154.16L287.05,152.7L288.47,153.62L289.89,152.46L291.32,152.76L294.16,153.14L295.58,152.63L301.26,152.37L302.68,151.78L304.11,152.42L305.53,152.2L306.95,152.9L308.37,152.69L311.21,152.27L312.63,152.28L314.05,146.14L315.47,72.81L316.89,48.46L318.32,44.96L322.58,37.02L324,38.3L325.42,36.76L326.84,36.64L329.68,35.82L331.11,34.15L335.37,30.82L336.79,31.59L338.21,33.51L339.63,33.25L341.05,30.29L342.47,30.45L345.32,33.2L346.74,31.07L348.16,31.25L349.58,30.26L351,28.38L352.42,29.73L353.84,31.64L355.26,114.74L356.68,148.82L358.11,148.29L360.95,145.06L362.37,144.5L365.21,143.75L366.63,143.33L368.05,143.98L369.47,143.43L373.74,142.66L375.16,143L378,143.31L379.42,142.32L382.26,142.01L383.68,142.68L386.53,141.98L387.95,142.17L390.79,142.12L392.21,141.27L396.47,141.25L397.89,118.5L399.32,59.13L400.74,50.66L403.58,40.53L405,39.67L406.42,39.71L407.84,37.62L409.26,34.66L410.68,34.88L412.11,35.29L413.53,34.36L414.95,37.26L416.37,36.67L417.79,36.74L419.21,34.53L422.05,33.76L423.47,34L426.32,33.8L427.74,34.71L429.16,32.76L430.58,34.52L433.42,32.65L434.84,56.12L436.26,135.59L437.68,138.69L439.11,138.3L440.53,136.97L441.95,137.18L443.37,135.89L444.79,136.52L446.21,136.14L447.63,135.27L449.05,135.53L451.89,135.63L453.32,134.6L454.74,135.94L456.16,135.57L459,134.83L460.42,134.77L461.84,135.43L463.26,135.25L464.68,135.05L466.11,135.89L470.37,134.65L471.79,135L473.21,134.63L474.63,109.95L476.05,52.14L477.47,40.69L480.32,35.06L481.74,34.12L483.16,33.65L484.58,33.98L487.42,32.3L488.84,30.24L490.26,30.23L491.68,29.27L493.11,28.16L494.53,29.52L497.37,26.78L498.79,27.26L500.21,25.9L501.63,27.82L504.47,28.32L505.89,25.98L508.74,27.75L510.16,27.39L513,28.18L514.42,38.05L515.84,39.43L517.26,37.99L520.11,39.77L521.53,39.24L524.37,39.28L525.79,40.58L527.21,39.72L528.63,40.28L540,40.26L541.42,40.16L542.84,39.97L544.26,40.99L545.68,40.32L547.11,40.49L548.53,40.88L549.95,39.93L551.37,40.49L552.79,40.12L554.21,38.93L555.63,29.61L561.32,28.41L562.74,26.41L567,25.58" style="vector-effect: none; fill: none; stroke: rgb(255, 102, 146); stroke-opacity: 1; stroke-width: 2px; opacity: 1;"/></g><g class="points"/><g class="text"/></g><g class="trace scatter trace71d40d" style="stroke-miterlimit: 2; opacity: 1;"><g class="fills"/><g class="errorbars"/><g class="lines"><path class="js-line" d="M0,23.02L1.42,23.24L2.84,22.68L5.68,21.61L7.11,22.56L8.53,21.54L9.95,21.7L12.79,22.27L14.21,22.03L18.47,22.5L19.89,21.98L24.16,22.66L25.58,22.31L27,21.61L28.42,21.86L32.68,21.76L34.11,36.18L35.53,118.71L36.95,125.92L41.21,121.28L42.63,119.9L46.89,118.46L48.32,118.25L49.74,116.37L51.16,116.79L52.58,116.65L54,117.67L59.68,115.67L61.11,116.09L68.21,115.52L69.63,115.57L71.05,115.03L72.47,115.32L73.89,114.73L75.32,110.78L76.74,55.32L78.16,30.14L79.58,26.21L81,24.52L82.42,23.71L83.84,21.96L86.68,21.11L88.11,20.77L92.37,19.9L93.79,20.04L106.58,18.47L108,18.83L112.26,18.61L113.68,20.03L116.53,115.26L117.95,115.7L123.63,113.65L125.05,113.43L127.89,112.76L129.32,112.45L132.16,111.91L133.58,112.16L135,112.22L136.42,111.3L137.84,110.81L139.26,111.43L140.68,111.55L142.11,110.58L144.95,111.07L146.37,110.57L149.21,110.85L150.63,110.23L152.05,110.67L153.47,109.89L156.32,30.62L157.74,27.14L160.58,24.57L162,22.95L171.95,20.57L173.37,20.88L176.21,20.04L177.63,20.32L180.47,19.43L181.89,20.26L183.32,19.19L184.74,19.5L189,19.22L190.42,19.52L191.84,18.97L193.26,19.42L194.68,40.52L196.11,113.21L197.53,118.32L198.95,117.89L201.79,116.33L203.21,115.76L213.16,113.75L214.58,113.28L217.42,112.97L218.84,113.83L220.26,113.07L221.68,113.17L225.95,113.02L227.37,112.54L228.79,112.05L230.21,112.77L231.63,112.82L233.05,111.94L234.47,91.88L235.89,36.19L237.32,27.52L238.74,25.04L244.42,20.14L245.84,19.29L257.21,18.27L258.63,18.38L264.32,17.77L265.74,17.69L270,17.29L271.42,17.54L272.84,17.77L274.26,31.44L275.68,101.81L277.11,110.47L279.95,108.39L281.37,108.8L284.21,107.25L285.63,107.23L291.32,106.65L292.74,106.27L295.58,106.65L297,106.14L298.42,106.94L299.84,106.32L301.26,106.06L302.68,106.58L305.53,106.33L306.95,106.59L308.37,106.72L309.79,105.84L312.63,105.75L314.05,102.25L315.47,50.24L316.89,32.17L319.74,27.37L321.16,26.24L322.58,24.23L324,25.36L325.42,24L326.84,24.3L328.26,23.44L329.68,23.83L332.53,21.79L333.95,21.58L335.37,21.22L336.79,21.65L338.21,23.41L339.63,22.71L341.05,21.24L342.47,21.36L345.32,22.8L346.74,21.34L349.58,20.4L351,19.48L352.42,20.49L353.84,22.49L355.26,81.94L356.68,105.13L362.37,101.17L363.79,100.89L365.21,101.47L366.63,100.36L369.47,100.93L370.89,100.32L372.32,100.29L373.74,99.37L379.42,100.11L380.84,99.17L389.37,99.68L390.79,98.63L393.63,98.81L395.05,98.87L396.47,99.26L397.89,84.13L399.32,39.03L400.74,32.09L403.58,26.4L405,26.11L406.42,25.83L407.84,24.08L409.26,22.53L410.68,22.79L412.11,23.39L413.53,22.23L414.95,24.58L416.37,24.23L417.79,23.97L419.21,22.07L424.89,21.93L426.32,22.5L427.74,22.92L429.16,20.62L430.58,21.86L432,21.51L433.42,21.54L434.84,39.09L436.26,94.52L437.68,97.13L443.37,95.28L444.79,95.03L446.21,94.2L447.63,94.24L453.32,94.28L454.74,94.3L464.68,94.52L466.11,95.18L468.95,93.7L470.37,94.01L473.21,94.08L474.63,76.36L476.05,34.86L477.47,27.08L481.74,22.92L483.16,22.98L487.42,21.87L488.84,20.81L491.68,20.38L493.11,19.55L494.53,20.21L495.95,19.59L498.79,18.68L500.21,18.5L503.05,19.45L504.47,19.09L505.89,18.18L507.32,18.74L510.16,19.37L511.58,19.38L513,19.3L514.42,25.94L515.84,27.69L517.26,26.86L522.95,26.83L524.37,27.08L525.79,27.39L527.21,26.86L531.47,27.32L532.89,27.05L534.32,26.9L535.74,27.71L541.42,27.27L542.84,27.61L545.68,28.2L547.11,27.41L548.53,28.09L549.95,27.89L552.79,27.01L554.21,27.45L555.63,21.03L557.05,19.9L558.47,20.43L559.89,19.87L561.32,19.87L562.74,18.91L564.16,17.86L565.58,18.89L567,17.95" style="vector-effect: none; fill: none; stroke: rgb(182, 232, 128); stroke-opacity: 1; stroke-width: 2px; opacity: 1;"/></g><g class="points"/><g class="text"/></g><g class="trace scatter trace8ecf52" style="stroke-miterlimit: 2; opacity: 1;"><g class="fills"/><g class="errorbars"/><g class="lines"><path class="js-line" d="M0,21.55L1.42,21.66L2.84,20.11L12.79,19.93L14.21,20.07L15.63,20.37L17.05,19.57L18.47,20.29L19.89,19.49L32.68,20.21L34.11,35.5L35.53,106.73L36.95,110.18L39.79,106.72L41.21,105.84L48.32,102.35L49.74,102L51.16,101.17L52.58,101.37L58.26,100.94L59.68,100.55L65.37,100.7L66.79,100.14L71.05,101.04L72.47,99.92L73.89,100.01L75.32,97L76.74,42.89L78.16,23.22L81,17.85L82.42,17.18L86.68,15.05L88.11,14.93L93.79,14.29L95.21,14.81L96.63,13.73L98.05,13.75L103.74,13.84L105.16,13.82L110.84,14.14L112.26,13.17L113.68,14.8L115.11,73.46L116.53,99.28L117.95,99.37L119.37,98.73L120.79,99.2L123.63,98.28L125.05,98.95L127.89,97.33L129.32,97.23L139.26,97.01L140.68,96.56L143.53,96.07L144.95,96.02L146.37,95.65L147.79,96.27L152.05,95.76L153.47,93.79L156.32,23.34L157.74,19.43L160.58,17.47L162,16.81L164.84,15.81L166.26,15.17L170.53,15.33L171.95,14.27L174.79,14.33L176.21,13.94L177.63,14.36L179.05,13.72L184.74,14.15L186.16,13.59L187.58,14.43L189,13.62L193.26,14.4L194.68,34.08L196.11,98.15L197.53,101.41L201.79,100.46L203.21,100.17L211.74,98.56L213.16,98.96L214.58,99.14L216,98.45L217.42,98.74L218.84,98.1L220.26,98.33L221.68,97.72L225.95,97.77L227.37,97.26L230.21,97.54L231.63,96.96L233.05,96.47L234.47,69.09L235.89,28.43L237.32,20.89L238.74,17.77L240.16,16.83L241.58,15.03L243,14.75L245.84,13.53L247.26,13.43L250.11,12.85L251.53,13.03L252.95,12.48L254.37,13.24L258.63,12.09L260.05,12.5L262.89,11.93L264.32,12.54L267.16,11.95L268.58,12.26L270,12.53L271.42,11.53L272.84,12.39L274.26,25.75L275.68,88.48L277.11,93.63L278.53,94.25L279.95,93.8L288.47,91.89L289.89,92.06L292.74,92.02L294.16,91.81L297,91.29L298.42,91.79L301.26,91.65L302.68,92.09L305.53,91.6L306.95,92.11L312.63,91.66L314.05,85.76L315.47,37.41L316.89,23.09L319.74,19.37L321.16,18.67L322.58,16.7L324,17.67L328.26,15.73L329.68,15.81L331.11,16.26L332.53,15.92L335.37,14.46L336.79,15.05L339.63,16.19L341.05,15.35L342.47,14.49L343.89,15.75L345.32,16.21L346.74,14.84L351,14.55L352.42,13.79L353.84,16.04L355.26,70.02L356.68,88.94L358.11,88.76L360.95,87.51L362.37,87.71L363.79,87.54L365.21,86.53L368.05,86.11L369.47,86.86L372.32,86.03L373.74,85.89L378,85.73L379.42,85.92L382.26,84.81L383.68,85.34L387.95,85.56L389.37,85.06L395.05,85.67L396.47,84.53L397.89,69.51L399.32,30.28L400.74,23.79L402.16,21.05L403.58,19.07L405,18.94L407.84,17.94L409.26,15.79L410.68,15.38L412.11,15.99L413.53,15.9L414.95,17.03L416.37,16.42L417.79,16.88L420.63,15.37L422.05,15.6L427.74,16.47L429.16,15.07L432,15.62L433.42,15.34L434.84,31.68L436.26,80.22L437.68,81.88L439.11,81.23L443.37,81.12L444.79,80.72L447.63,80.88L449.05,80.86L451.89,81.31L453.32,80.41L456.16,80.68L457.58,80.81L473.21,80.22L474.63,58.52L476.05,26.48L477.47,20.22L478.89,17.73L480.32,17.58L481.74,16.48L483.16,16.72L486,15.65L487.42,15.36L490.26,14.37L491.68,14.83L495.95,14.23L497.37,14.3L500.21,12.88L501.63,13.28L503.05,15.08L504.47,14.02L505.89,13.6L507.32,14.17L510.16,13.97L511.58,14.21L513,14.47L514.42,20.17L515.84,21.88L517.26,21.19L522.95,20.42L524.37,21.59L527.21,21.6L528.63,22.05L534.32,21.56L535.74,22.35L540,22.57L541.42,22.6L548.53,22.32L549.95,22.8L554.21,22.15L555.63,16.69L558.47,15.34L559.89,15.53L564.16,14.53L565.58,14.18L567,13.24" style="vector-effect: none; fill: none; stroke: rgb(255, 151, 255); stroke-opacity: 1; stroke-width: 2px; opacity: 1;"/></g><g class="points"/><g class="text"/></g><g class="trace scatter trace981089" style="stroke-miterlimit: 2; opacity: 1;"><g class="fills"/><g class="errorbars"/><g class="lines"><path class="js-line" d="M0,20.35L1.42,21.38L2.84,20.22L4.26,20.3L5.68,19.5L9.95,19.52L11.37,18.92L12.79,19.99L14.21,18.76L15.63,19.92L17.05,19.84L18.47,19.18L19.89,19.5L24.16,19.68L25.58,19.08L27,19.73L28.42,19.12L31.26,20.02L32.68,19.05L34.11,33.5L35.53,107.5L36.95,109.35L38.37,108.01L41.21,106.06L42.63,104.8L49.74,102.19L51.16,102.31L52.58,101.57L54,101.81L56.84,101.64L58.26,101.07L59.68,100.49L61.11,100.96L65.37,100.51L66.79,100.59L69.63,101.17L71.05,100.32L73.89,100.4L75.32,96.63L76.74,41.67L78.16,23.2L79.58,19.89L81,18.49L85.26,15.52L86.68,15.61L90.95,14.81L92.37,15.01L95.21,14.3L96.63,14.03L98.05,13.59L99.47,13.95L100.89,14.34L102.32,13.87L103.74,14.66L105.16,13.18L108,14.14L109.42,14.15L112.26,13.73L113.68,14.84L115.11,72.62L116.53,99.18L117.95,99.74L119.37,98.83L122.21,98.46L123.63,98.72L126.47,97.79L127.89,97.77L129.32,97.29L130.74,97.99L132.16,96.47L133.58,96.36L135,97.33L136.42,96.32L139.26,96.35L140.68,96.74L142.11,96.07L143.53,96.56L149.21,95.86L150.63,96.17L152.05,96.16L153.47,92.22L154.89,42.93L156.32,23.01L157.74,19.66L159.16,18.84L160.58,16.7L162,15.92L163.42,15.29L164.84,15.55L170.53,13.92L171.95,15.28L180.47,14.36L181.89,13.66L183.32,12.36L184.74,13.1L189,14.18L190.42,13.46L193.26,13.45L194.68,31.62L196.11,99.15L197.53,101.92L203.21,99.33L204.63,99.43L213.16,99L214.58,98.42L216,98.96L217.42,98.42L221.68,97.36L223.11,98.29L225.95,98.5L227.37,97.16L231.63,97.71L233.05,96.84L235.89,27.6L237.32,20.22L241.58,15.56L243,14.86L244.42,13.54L245.84,13.6L247.26,12.54L248.68,13.02L251.53,11.96L252.95,12.72L258.63,12.07L260.05,11.39L261.47,10.53L262.89,12.29L265.74,10.75L267.16,11.36L271.42,11.3L272.84,10.5L274.26,24.38L275.68,89.7L277.11,93.46L278.53,92.52L281.37,92.56L282.79,92.79L288.47,92.18L289.89,92.07L291.32,91.51L292.74,92.4L297,90.82L298.42,91.23L301.26,91.98L302.68,91.73L311.21,92.49L312.63,91.48L314.05,85.99L315.47,35.27L316.89,23.05L318.32,20.72L321.16,18.38L322.58,16.11L324,16.76L325.42,16.06L326.84,14.57L328.26,14.18L329.68,14.76L331.11,14.02L333.95,13.09L335.37,12.03L338.21,16.14L339.63,14.73L343.89,15.02L345.32,14.52L349.58,12.6L351,11.59L353.84,13.11L355.26,68.13L356.68,88.96L358.11,88.95L363.79,86.57L365.21,86.75L369.47,85.93L370.89,85.86L375.16,86.5L376.58,86.19L382.26,85.36L383.68,85.53L387.95,85.56L389.37,84.69L392.21,84.96L393.63,84.96L396.47,85.04L397.89,69.8L399.32,29.16L400.74,23.61L402.16,20.22L403.58,19.38L405,18.25L406.42,18.82L409.26,14.95L410.68,14.4L413.53,15.59L414.95,16.57L416.37,16.02L417.79,16.34L419.21,14.59L420.63,14.06L422.05,13.73L423.47,14.62L427.74,14.19L429.16,13.57L432,13.31L433.42,13.31L434.84,28.42L436.26,81.04L437.68,82.49L439.11,81.48L441.95,81.38L443.37,80.76L444.79,81.38L446.21,80.49L453.32,80.54L454.74,80.65L461.84,80.46L463.26,80.71L468.95,80.24L470.37,80.43L473.21,80.03L474.63,56.39L476.05,25.8L477.47,20.2L481.74,14.21L483.16,14.11L493.11,12.29L494.53,13.09L495.95,11.78L497.37,11.79L501.63,11.07L503.05,12.19L504.47,12.12L505.89,10.97L507.32,10.8L508.74,11.67L511.58,13.59L513,12.11L515.84,20.52L517.26,20.69L518.68,20.31L520.11,21L522.95,21L524.37,21.49L527.21,20.95L528.63,21.14L531.47,21.83L532.89,21.61L548.53,22.35L549.95,23.04L552.79,22.39L554.21,22.16L555.63,16.43L557.05,15.09L562.74,12.01L564.16,12.32L567,12.09" style="vector-effect: none; fill: none; stroke: rgb(254, 203, 82); stroke-opacity: 1; stroke-width: 2px; opacity: 1;"/></g><g class="points"/><g class="text"/></g></g></g></g><path class="xlines-above crisp" d="M0,0" style="fill: none;"/><path class="ylines-above crisp" d="M0,0" style="fill: none;"/><g class="overlines-above"/><g class="xaxislayer-above"><g class="xtick"><text text-anchor="middle" x="0" y="273" transform="translate(69.71000000000001,0)" style="font-family: 'Times New Roman'; font-size: 12px; fill: rgb(0, 0, 0); fill-opacity: 1; white-space: pre; opacity: 1;">6e+7</text></g><g class="xtick"><text text-anchor="middle" x="0" y="273" style="font-family: 'Times New Roman'; font-size: 12px; fill: rgb(0, 0, 0); fill-opacity: 1; white-space: pre; opacity: 1;" transform="translate(180.9,0)">7e+7</text></g><g class="xtick"><text text-anchor="middle" x="0" y="273" style="font-family: 'Times New Roman'; font-size: 12px; fill: rgb(0, 0, 0); fill-opacity: 1; white-space: pre; opacity: 1;" transform="translate(292.09000000000003,0)">7e+7</text></g><g class="xtick"><text text-anchor="middle" x="0" y="273" style="font-family: 'Times New Roman'; font-size: 12px; fill: rgb(0, 0, 0); fill-opacity: 1; white-space: pre; opacity: 1;" transform="translate(403.28,0)">8e+7</text></g><g class="xtick"><text text-anchor="middle" x="0" y="273" style="font-family: 'Times New Roman'; font-size: 12px; fill: rgb(0, 0, 0); fill-opacity: 1; white-space: pre; opacity: 1;" transform="translate(514.47,0)">8e+7</text></g></g><g class="yaxislayer-above"><g class="ytick"><text text-anchor="end" x="47" y="4.199999999999999" transform="translate(0,253.39)" style="font-family: 'Times New Roman'; font-size: 12px; fill: rgb(0, 0, 0); fill-opacity: 1; white-space: pre; opacity: 1;">−2</text></g><g class="ytick"><text text-anchor="end" x="47" y="4.199999999999999" style="font-family: 'Times New Roman'; font-size: 12px; fill: rgb(0, 0, 0); fill-opacity: 1; white-space: pre; opacity: 1;" transform="translate(0,207.21)">−1.5</text></g><g class="ytick"><text text-anchor="end" x="47" y="4.199999999999999" style="font-family: 'Times New Roman'; font-size: 12px; fill: rgb(0, 0, 0); fill-opacity: 1; white-space: pre; opacity: 1;" transform="translate(0,161.01999999999998)">−1</text></g><g class="ytick"><text text-anchor="end" x="47" y="4.199999999999999" style="font-family: 'Times New Roman'; font-size: 12px; fill: rgb(0, 0, 0); fill-opacity: 1; white-space: pre; opacity: 1;" transform="translate(0,114.83)">−0.5</text></g><g class="ytick"><text text-anchor="end" x="47" y="4.199999999999999" style="font-family: 'Times New Roman'; font-size: 12px; fill: rgb(0, 0, 0); fill-opacity: 1; white-space: pre; opacity: 1;" transform="translate(0,68.65)">0</text></g></g><g class="overaxes-above"/></g></g><g class="polarlayer"/><g class="smithlayer"/><g class="ternarylayer"/><g class="geolayer"/><g class="funnelarealayer"/><g class="pielayer"/><g class="iciclelayer"/><g class="treemaplayer"/><g class="sunburstlayer"/><g class="glimages"/><defs id="topdefs-ff3255"><g class="clips"/></defs><g class="layer-above"><g class="imagelayer"/><g class="shapelayer"><g class="shape-group" data-index="0" clip-path="url(#clipff3255x)"><path data-index="0" fill-rule="evenodd" d="M88.02000000000001,260H118.7V50H88.02000000000001Z" style="opacity: 0.4; stroke: rgb(0, 0, 0); stroke-opacity: 0; fill: rgb(50, 125, 23); fill-opacity: 1; stroke-width: 0px;"/></g><g class="shape-group" data-index="1" clip-path="url(#clipff3255x)"><path data-index="1" fill-rule="evenodd" d="M168.06,260H198.74V50H168.06Z" style="opacity: 0.4; stroke: rgb(0, 0, 0); stroke-opacity: 0; fill: rgb(80, 143, 33); fill-opacity: 1; stroke-width: 0px;"/></g><g class="shape-group" data-index="2" clip-path="url(#clipff3255x)"><path data-index="2" fill-rule="evenodd" d="M248.11,260H278.78999999999996V50H248.11Z" style="opacity: 0.4; stroke: rgb(0, 0, 0); stroke-opacity: 0; fill: rgb(108, 160, 44); fill-opacity: 1; stroke-width: 0px;"/></g><g class="shape-group" data-index="3" clip-path="url(#clipff3255x)"><path data-index="3" fill-rule="evenodd" d="M328.15,260H358.84V50H328.15Z" style="opacity: 0.4; stroke: rgb(0, 0, 0); stroke-opacity: 0; fill: rgb(136, 178, 55); fill-opacity: 1; stroke-width: 0px;"/></g><g class="shape-group" data-index="4" clip-path="url(#clipff3255x)"><path data-index="4" fill-rule="evenodd" d="M408.21,260H438.89V50H408.21Z" style="opacity: 0.4; stroke: rgb(0, 0, 0); stroke-opacity: 0; fill: rgb(164, 196, 68); fill-opacity: 1; stroke-width: 0px;"/></g><g class="shape-group" data-index="5" clip-path="url(#clipff3255x)"><path data-index="5" fill-rule="evenodd" d="M488.25,260H518.9300000000001V50H488.25Z" style="opacity: 0.4; stroke: rgb(0, 0, 0); stroke-opacity: 0; fill: rgb(194, 213, 81); fill-opacity: 1; stroke-width: 0px;"/></g><g class="shape-group" data-index="6" clip-path="url(#clipff3255x)"><path data-index="6" fill-rule="evenodd" d="M568.3,260H598.98V50H568.3Z" style="opacity: 0.4; stroke: rgb(0, 0, 0); stroke-opacity: 0; fill: rgb(224, 231, 95); fill-opacity: 1; stroke-width: 0px;"/></g></g></g><g class="infolayer"><g class="g-gtitle"><text class="gtitle" x="312.5" y="25" text-anchor="middle" dy="0em" style="opacity: 1; font-family: 'Times New Roman'; font-size: 17px; fill: rgb(0, 0, 0); fill-opacity: 1; white-space: pre;">Sensor 7 Net</text></g><g class="g-xtitle" transform="translate(0,-2.8000000000000114)"><text class="xtitle" x="331.5" y="299.8" text-anchor="middle" style="opacity: 1; font-family: 'Times New Roman'; font-size: 14px; fill: rgb(0, 0, 0); fill-opacity: 1; white-space: pre;">Time since power on (ms)</text></g><g class="g-ytitle" transform="translate(6.681640625,0)"><text class="ytitle" transform="rotate(-90,5.818750000000001,155)" x="5.818750000000001" y="155" text-anchor="middle" style="opacity: 1; font-family: 'Times New Roman'; font-size: 14px; fill: rgb(0, 0, 0); fill-opacity: 1; white-space: pre;">Resistance (Ohms)</text></g><g class="annotation" data-index="0" style="opacity: 1;"><g class="annotation-text-g" transform="rotate(0,105.02000000000001,58.5)"><g class="cursor-pointer" transform="translate(88,50)"><rect class="bg" x="0.5" y="0.5" width="33" height="16" style="stroke-width: 1px; stroke: rgb(0, 0, 0); stroke-opacity: 0; fill: rgb(0, 0, 0); fill-opacity: 0;"/><text class="annotation-text" text-anchor="middle" x="16.84375" y="12.5" style="font-family: 'Times New Roman'; font-size: 12px; fill: rgb(0, 0, 0); fill-opacity: 1; white-space: pre;">O 100</text></g></g></g><g class="annotation" data-index="1" style="opacity: 1;"><g class="annotation-text-g" transform="rotate(0,182.06,58.5)"><g class="cursor-pointer" transform="translate(168,50)"><rect class="bg" x="0.5" y="0.5" width="27" height="16" style="stroke-width: 1px; stroke: rgb(0, 0, 0); stroke-opacity: 0; fill: rgb(0, 0, 0); fill-opacity: 0;"/><text class="annotation-text" text-anchor="middle" x="13.84375" y="12.5" style="font-family: 'Times New Roman'; font-size: 12px; fill: rgb(0, 0, 0); fill-opacity: 1; white-space: pre;">O 95</text></g></g></g><g class="annotation" data-index="2" style="opacity: 1;"><g class="annotation-text-g" transform="rotate(0,262.11,58.5)"><g class="cursor-pointer" transform="translate(248,50)"><rect class="bg" x="0.5" y="0.5" width="27" height="16" style="stroke-width: 1px; stroke: rgb(0, 0, 0); stroke-opacity: 0; fill: rgb(0, 0, 0); fill-opacity: 0;"/><text class="annotation-text" text-anchor="middle" x="13.84375" y="12.5" style="font-family: 'Times New Roman'; font-size: 12px; fill: rgb(0, 0, 0); fill-opacity: 1; white-space: pre;">O 90</text></g></g></g><g class="annotation" data-index="3" style="opacity: 1;"><g class="annotation-text-g" transform="rotate(0,342.15,58.5)"><g class="cursor-pointer" transform="translate(328,50)"><rect class="bg" x="0.5" y="0.5" width="27" height="16" style="stroke-width: 1px; stroke: rgb(0, 0, 0); stroke-opacity: 0; fill: rgb(0, 0, 0); fill-opacity: 0;"/><text class="annotation-text" text-anchor="middle" x="13.84375" y="12.5" style="font-family: 'Times New Roman'; font-size: 12px; fill: rgb(0, 0, 0); fill-opacity: 1; white-space: pre;">O 80</text></g></g></g><g class="annotation" data-index="4" style="opacity: 1;"><g class="annotation-text-g" transform="rotate(0,422.21,58.5)"><g class="cursor-pointer" transform="translate(408,50)"><rect class="bg" x="0.5" y="0.5" width="27" height="16" style="stroke-width: 1px; stroke: rgb(0, 0, 0); stroke-opacity: 0; fill: rgb(0, 0, 0); fill-opacity: 0;"/><text class="annotation-text" text-anchor="middle" x="13.84375" y="12.5" style="font-family: 'Times New Roman'; font-size: 12px; fill: rgb(0, 0, 0); fill-opacity: 1; white-space: pre;">O 70</text></g></g></g><g class="annotation" data-index="5" style="opacity: 1;"><g class="annotation-text-g" transform="rotate(0,502.25,58.5)"><g class="cursor-pointer" transform="translate(488,50)"><rect class="bg" x="0.5" y="0.5" width="27" height="16" style="stroke-width: 1px; stroke: rgb(0, 0, 0); stroke-opacity: 0; fill: rgb(0, 0, 0); fill-opacity: 0;"/><text class="annotation-text" text-anchor="middle" x="13.84375" y="12.5" style="font-family: 'Times New Roman'; font-size: 12px; fill: rgb(0, 0, 0); fill-opacity: 1; white-space: pre;">O 50</text></g></g></g><g class="annotation" data-index="6" style="opacity: 1;"><g class="annotation-text-g" transform="rotate(0,579.3,58.5)"><g class="cursor-pointer" transform="translate(568,50)"><rect class="bg" x="0.5" y="0.5" width="21" height="16" style="stroke-width: 1px; stroke: rgb(0, 0, 0); stroke-opacity: 0; fill: rgb(0, 0, 0); fill-opacity: 0;"/><text class="annotation-text" text-anchor="middle" x="10.84375" y="12.5" style="font-family: 'Times New Roman'; font-size: 12px; fill: rgb(0, 0, 0); fill-opacity: 1; white-space: pre;">O 0</text></g></g></g></g></svg>