<svg class="main-svg" xmlns="http://www.w3.org/2000/svg" xmlns:xlink="http://www.w3.org/1999/xlink" width="625" height="400" style="" viewBox="0 0 625 400"><rect x="0" y="0" width="625" height="400" style="fill: rgb(255, 255, 255); fill-opacity: 1;"/><defs id="defs-bf1c87"><g class="clips"><clipPath id="clipbf1c87xyplot" class="plotclip"><rect width="269.6375" height="154.79999999999998"/></clipPath><clipPath id="clipbf1c87x2y2plot" class="plotclip"><rect width="269.6375" height="154.79999999999998"/></clipPath><clipPath id="clipbf1c87x3y3plot" class="plotclip"><rect width="269.6375" height="154.8"/></clipPath><clipPath id="clipbf1c87x4y4plot" class="plotclip"><rect width="269.6375" height="154.8"/></clipPath><clipPath class="axesclip" id="clipbf1c87x"><rect x="32" y="0" width="269.6375" height="400"/></clipPath><clipPath class="axesclip" id="clipbf1c87y"><rect x="0" y="40" width="625" height="154.79999999999998"/></clipPath><clipPath class="axesclip" id="clipbf1c87xy"><rect x="32" y="40" width="269.6375" height="154.79999999999998"/></clipPath><clipPath class="axesclip" id="clipbf1c87y2"><rect x="0" y="40" width="625" height="154.79999999999998"/></clipPath><clipPath class="axesclip" id="clipbf1c87xy2"><rect x="32" y="40" width="269.6375" height="154.79999999999998"/></clipPath><clipPath class="axesclip" id="clipbf1c87y3"><rect x="0" y="229.20000000000002" width="625" height="154.8"/></clipPath><clipPath class="axesclip" id="clipbf1c87xy3"><rect x="32" y="229.20000000000002" width="269.6375" height="154.8"/></clipPath><clipPath class="axesclip" id="clipbf1c87y4"><rect x="0" y="229.20000000000002" width="625" height="154.8"/></clipPath><clipPath class="axesclip" id="clipbf1c87xy4"><rect x="32" y="229.20000000000002" width="269.6375" height="154.8"/></clipPath><clipPath class="axesclip" id="clipbf1c87x2"><rect x="345.3625" y="0" width="269.6375" height="400"/></clipPath><clipPath class="axesclip" id="clipbf1c87x2y"><rect x="345.3625" y="40" width="269.6375" height="154.79999999999998"/></clipPath><clipPath class="axesclip" id="clipbf1c87x2y2"><rect x="345.3625" y="40" width="269.6375" height="154.79999999999998"/></clipPath><clipPath class="axesclip" id="clipbf1c87x2y3"><rect x="345.3625" y="229.20000000000002" width="269.6375" height="154.8"/></clipPath><clipPath class="axesclip" id="clipbf1c87x2y4"><rect x="345.3625" y="229.20000000000002" width="269.6375" height="154.8"/></clipPath><clipPath class="axesclip" id="clipbf1c87x3"><rect x="32" y="0" width="269.6375" height="400"/></clipPath><clipPath class="axesclip" id="clipbf1c87x3y"><rect x="32" y="40" width="269.6375" height="154.79999999999998"/></clipPath><clipPath class="axesclip" id="clipbf1c87x3y2"><rect x="32" y="40" width="269.6375" height="154.79999999999998"/></clipPath><clipPath class="axesclip" id="clipbf1c87x3y3"><rect x="32" y="229.20000000000002" width="269.6375" height="154.8"/></clipPath><clipPath class="axesclip" id="clipbf1c87x3y4"><rect x="32" y="229.20000000000002" width="269.6375" height="154.8"/></clipPath><clipPath class="axesclip" id="clipbf1c87x4"><rect x="345.3625" y="0" width="269.6375" height="400"/></clipPath><clipPath class="axesclip" id="clipbf1c87x4y"><rect x="345.3625" y="40" width="269.6375" height="154.79999999999998"/></clipPath><clipPath class="axesclip" id="clipbf1c87x4y2"><rect x="345.3625" y="40" width="269.6375" height="154.79999999999998"/></clipPath><clipPath class="axesclip" id="clipbf1c87x4y3"><rect x="345.3625" y="229.20000000000002" width="269.6375" height="154.8"/></clipPath><clipPath class="axesclip" id="clipbf1c87x4y4"><rect x="345.3625" y="229.20000000000002" width="269.6375" height="154.8"/></clipPath></g><g class="gradients"/><g class="patterns"/></defs><g class="bglayer"><rect class="bg" x="32" y="40" width="269.6375" height="154.79999999999998" style="fill: rgb(229, 236, 246); fill-opacity: 1; stroke-width: 0;"/><rect class="bg" x="345.3625" y="40" width="269.6375" height="154.79999999999998" style="fill: rgb(229, 236, 246); fill-opacity: 1; stroke-width: 0;"/><rect class="bg" x="32" y="229.20000000000002" width="269.6375" height="154.8" style="fill: rgb(229, 236, 246); fill-opacity: 1; stroke-width: 0;"/><rect class="bg" x="345.3625" y="229.20000000000002" width="269.6375" height="154.8" style="fill: rgb(229, 236, 246); fill-opacity: 1; stroke-width: 0;"/></g><g class="layer-below"><g class="imagelayer"/><g class="shapelayer"/></g><g class="cartesianlayer"><g class="subplot xy"><g class="layer-subplot"><g class="shapelayer"/><g class="imagelayer"/></g><g class="minor-gridlayer"><g class="x"/><g class="y"/></g><g class="gridlayer"><g class="x"><path class="xgrid crisp" transform="translate(149.55,0)" d="M0,40v154.79999999999998" style="stroke: rgb(255, 255, 255); stroke-opacity: 1; stroke-width: 1px;"/><path class="xgrid crisp" transform="translate(266.21000000000004,0)" d="M0,40v154.79999999999998" style="stroke: rgb(255, 255, 255); stroke-opacity: 1; stroke-width: 1px;"/></g><g class="y"><path class="ygrid crisp" transform="translate(0,151.8)" d="M32,0h269.6375" style="stroke: rgb(255, 255, 255); stroke-opacity: 1; stroke-width: 1px;"/><path class="ygrid crisp" transform="translate(0,108.8)" d="M32,0h269.6375" style="stroke: rgb(255, 255, 255); stroke-opacity: 1; stroke-width: 1px;"/><path class="ygrid crisp" transform="translate(0,65.8)" d="M32,0h269.6375" style="stroke: rgb(255, 255, 255); stroke-opacity: 1; stroke-width: 1px;"/></g></g><g class="zerolinelayer"><path class="xzl zl crisp" transform="translate(32.9,0)" d="M0,40v154.79999999999998" style="stroke: rgb(255, 255, 255); stroke-opacity: 1; stroke-width: 2px;"/><path class="yzl zl crisp" transform="translate(0,194.8)" d="M32,0h269.6375" style="stroke: rgb(255, 255, 255); stroke-opacity: 1; stroke-width: 2px;"/></g><g class="layer-between"><g class="shapelayer"/><g class="imagelayer"/></g><path class="xlines-below"/><path class="ylines-below"/><g class="overlines-below"/><g class="xaxislayer-below"/><g class="yaxislayer-below"/><g class="overaxes-below"/><g class="overplot"><g class="xy" transform="translate(32,40)" clip-path="url(#clipbf1c87xyplot)"><g class="scatterlayer mlayer"><g class="trace scatter tracef99e0a" style="stroke-miterlimit: 2; opacity: 1;"><g class="fills"/><g class="errorbars"/><g class="lines"/><g class="points"><path class="point" transform="translate(17.23,17.2)" d="M3,0A3,3 0 1,1 0,-3A3,3 0 0,1 3,0Z" style="opacity: 1; stroke-width: 0px; fill: rgb(158, 6, 44); fill-opacity: 1;"/><path class="point" transform="translate(23.76,111.8)" d="M3,0A3,3 0 1,1 0,-3A3,3 0 0,1 3,0Z" style="opacity: 1; stroke-width: 0px; fill: rgb(158, 6, 44); fill-opacity: 1;"/><path class="point" transform="translate(56.43,111.8)" d="M3,0A3,3 0 1,1 0,-3A3,3 0 0,1 3,0Z" style="opacity: 1; stroke-width: 0px; fill: rgb(158, 6, 44); fill-opacity: 1;"/><path class="point" transform="translate(154.42,111.8)" d="M3,0A3,3 0 1,1 0,-3A3,3 0 0,1 3,0Z" style="opacity: 1; stroke-width: 0px; fill: rgb(158, 6, 44); fill-opacity: 1;"/><path class="point" transform="translate(170.75,68.8)" d="M3,0A3,3 0 1,1 0,-3A3,3 0 0,1 3,0Z" style="opacity: 1; stroke-width: 0px; fill: rgb(158, 6, 44); fill-opacity: 1;"/><path class="point" transform="translate(187.08,68.8)" d="M3,0A3,3 0 1,1 0,-3A3,3 0 0,1 3,0Z" style="opacity: 1; stroke-width: 0px; fill: rgb(158, 6, 44); fill-opacity: 1;"/><path class="point" transform="translate(203.41,68.8)" d="M3,0A3,3 0 1,1 0,-3A3,3 0 0,1 3,0Z" style="opacity: 1; stroke-width: 0px; fill: rgb(158, 6, 44); fill-opacity: 1;"/><path class="point" transform="translate(219.74,17.2)" d="M3,0A3,3 0 1,1 0,-3A3,3 0 0,1 3,0Z" style="opacity: 1; stroke-width: 0px; fill: rgb(158, 6, 44); fill-opacity: 1;"/><path class="point" transform="translate(236.07,17.2)" d="M3,0A3,3 0 1,1 0,-3A3,3 0 0,1 3,0Z" style="opacity: 1; stroke-width: 0px; fill: rgb(158, 6, 44); fill-opacity: 1;"/><path class="point" transform="translate(252.41,17.2)" d="M3,0A3,3 0 1,1 0,-3A3,3 0 0,1 3,0Z" style="opacity: 1; stroke-width: 0px; fill: rgb(158, 6, 44); fill-opacity: 1;"/></g><g class="text"/></g><g class="trace scatter tracee849e1" style="stroke-miterlimit: 2; opacity: 0.5;"><g class="fills"><g><path class="js-fill" d="M0.9,154.8L0.9,17.2L0.9,17.2L17.23,17.2L17.23,111.8L17.23,111.8L154.42,111.8L154.42,68.8L154.42,68.8L203.41,68.8L203.41,17.2L203.41,17.2L252.41,17.2L252.41,154.8Z" style="fill: rgb(158, 6, 44); fill-opacity: 1; stroke-width: 0;"/></g></g><g class="errorbars"/><g class="lines"><path class="js-line" d="M0.9,154.8L0.9,17.2L0.9,17.2L17.23,17.2L17.23,111.8L17.23,111.8L154.42,111.8L154.42,68.8L154.42,68.8L203.41,68.8L203.41,17.2L203.41,17.2L252.41,17.2L252.41,154.8" style="vector-effect: none; fill: none; stroke: rgb(158, 6, 44); stroke-opacity: 1; stroke-width: 0px; opacity: 1;"/></g><g class="points"/><g class="text"/></g></g></g></g><path class="xlines-above crisp" d="M0,0" style="fill: none;"/><path class="ylines-above crisp" d="M0,0" style="fill: none;"/><g class="overlines-above"/><g class="xaxislayer-above"><g class="xtick"><text text-anchor="middle" x="0" y="207.79999999999998" transform="translate(32.9,0)" style="font-family: 'Times New Roman'; font-size: 12px; fill: rgb(0, 0, 0); fill-opacity: 1; white-space: pre; opacity: 1;">0s</text></g><g class="xtick"><text text-anchor="middle" x="0" y="207.79999999999998" style="font-family: 'Times New Roman'; font-size: 12px; fill: rgb(0, 0, 0); fill-opacity: 1; white-space: pre; opacity: 1;" transform="translate(149.55,0)">5s</text></g><g class="xtick"><text text-anchor="middle" x="0" y="207.79999999999998" style="font-family: 'Times New Roman'; font-size: 12px; fill: rgb(0, 0, 0); fill-opacity: 1; white-space: pre; opacity: 1;" transform="translate(266.21000000000004,0)">10s</text></g></g><g class="yaxislayer-above"><g class="ytick"><text text-anchor="end" x="31" y="4.199999999999999" transform="translate(0,194.8)" style="font-family: 'Times New Roman'; font-size: 12px; fill: rgb(0, 0, 0); fill-opacity: 1; white-space: pre; opacity: 1;">0°C</text></g><g class="ytick"><text text-anchor="end" x="31" y="4.199999999999999" style="font-family: 'Times New Roman'; font-size: 12px; fill: rgb(0, 0, 0); fill-opacity: 1; white-space: pre; opacity: 1;" transform="translate(0,151.8)">100°C</text></g><g class="ytick"><text text-anchor="end" x="31" y="4.199999999999999" style="font-family: 'Times New Roman'; font-size: 12px; fill: rgb(0, 0, 0); fill-opacity: 1; white-space: pre; opacity: 1;" transform="translate(0,108.8)">200°C</text></g><g class="ytick"><text text-anchor="end" x="31" y="4.199999999999999" style="font-family: 'Times New Roman'; font-size: 12px; fill: rgb(0, 0, 0); fill-opacity: 1; white-space: pre; opacity: 1;" transform="translate(0,65.8)">300°C</text></g></g><g class="overaxes-above"/></g><g class="subplot x2y2"><g class="layer-subplot"><g class="shapelayer"/><g class="imagelayer"/></g><g class="minor-gridlayer"><g class="x2"/><g class="y2"/></g><g class="gridlayer"><g class="x2"><path class="x2grid crisp" transform="translate(412.1325,0)" d="M0,40v154.79999999999998" style="stroke: rgb(255, 255, 255); stroke-opacity: 1; stroke-width: 1px;"/><path class="x2grid crisp" transform="translate(478.9125,0)" d="M0,40v154.79999999999998" style="stroke: rgb(255, 255, 255); stroke-opacity: 1; stroke-width: 1px;"/><path class="x2grid crisp" transform="translate(545.6825,0)" d="M0,40v154.79999999999998" style="stroke: rgb(255, 255, 255); stroke-opacity: 1; stroke-width: 1px;"/><path class="x2grid crisp" transform="translate(612.4625000000001,0)" d="M0,40v154.79999999999998" style="stroke: rgb(255, 255, 255); stroke-opacity: 1; stroke-width: 1px;"/></g><g class="y2"><path class="y2grid crisp" transform="translate(0,151.8)" d="M345.3625,0h269.6375" style="stroke: rgb(255, 255, 255); stroke-opacity: 1; stroke-width: 1px;"/><path class="y2grid crisp" transform="translate(0,108.8)" d="M345.3625,0h269.6375" style="stroke: rgb(255, 255, 255); stroke-opacity: 1; stroke-width: 1px;"/><path class="y2grid crisp" transform="translate(0,65.8)" d="M345.3625,0h269.6375" style="stroke: rgb(255, 255, 255); stroke-opacity: 1; stroke-width: 1px;"/></g></g><g class="zerolinelayer"><path class="x2zl zl crisp" transform="translate(345.3625,0)" d="M0,40v154.79999999999998" style="stroke: rgb(255, 255, 255); stroke-opacity: 1; stroke-width: 2px;"/><path class="y2zl zl crisp" transform="translate(0,194.8)" d="M345.3625,0h269.6375" style="stroke: rgb(255, 255, 255); stroke-opacity: 1; stroke-width: 2px;"/></g><g class="layer-between"><g class="shapelayer"/><g class="imagelayer"/></g><path class="xlines-below"/><path class="ylines-below"/><g class="overlines-below"/><g class="xaxislayer-below"/><g class="yaxislayer-below"/><g class="overaxes-below"/><g class="overplot"><g class="x2y2" transform="translate(345.3625,40)" clip-path="url(#clipbf1c87x2y2plot)"><g class="scatterlayer mlayer"><g class="trace scatter trace351465" style="stroke-miterlimit: 2; opacity: 1;"><g class="fills"/><g class="errorbars"/><g class="lines"/><g class="points"><path class="point" transform="translate(80.4,124.7)" d="M3,0A3,3 0 1,1 0,-3A3,3 0 0,1 3,0Z" style="opacity: 1; stroke-width: 0px; fill: rgb(120, 158, 6); fill-opacity: 1;"/><path class="point" transform="translate(84.14,4.3)" d="M3,0A3,3 0 1,1 0,-3A3,3 0 0,1 3,0Z" style="opacity: 1; stroke-width: 0px; fill: rgb(120, 158, 6); fill-opacity: 1;"/><path class="point" transform="translate(87.87,4.3)" d="M3,0A3,3 0 1,1 0,-3A3,3 0 0,1 3,0Z" style="opacity: 1; stroke-width: 0px; fill: rgb(120, 158, 6); fill-opacity: 1;"/><path class="point" transform="translate(91.61,64.5)" d="M3,0A3,3 0 1,1 0,-3A3,3 0 0,1 3,0Z" style="opacity: 1; stroke-width: 0px; fill: rgb(120, 158, 6); fill-opacity: 1;"/><path class="point" transform="translate(130.88,64.5)" d="M3,0A3,3 0 1,1 0,-3A3,3 0 0,1 3,0Z" style="opacity: 1; stroke-width: 0px; fill: rgb(120, 158, 6); fill-opacity: 1;"/><path class="point" transform="translate(170.14,64.5)" d="M3,0A3,3 0 1,1 0,-3A3,3 0 0,1 3,0Z" style="opacity: 1; stroke-width: 0px; fill: rgb(120, 158, 6); fill-opacity: 1;"/><path class="point" transform="translate(173.88,4.3)" d="M3,0A3,3 0 1,1 0,-3A3,3 0 0,1 3,0Z" style="opacity: 1; stroke-width: 0px; fill: rgb(120, 158, 6); fill-opacity: 1;"/><path class="point" transform="translate(200.05,4.3)" d="M3,0A3,3 0 1,1 0,-3A3,3 0 0,1 3,0Z" style="opacity: 1; stroke-width: 0px; fill: rgb(120, 158, 6); fill-opacity: 1;"/><path class="point" transform="translate(226.23,4.3)" d="M3,0A3,3 0 1,1 0,-3A3,3 0 0,1 3,0Z" style="opacity: 1; stroke-width: 0px; fill: rgb(120, 158, 6); fill-opacity: 1;"/><path class="point" transform="translate(252.41,4.3)" d="M3,0A3,3 0 1,1 0,-3A3,3 0 0,1 3,0Z" style="opacity: 1; stroke-width: 0px; fill: rgb(120, 158, 6); fill-opacity: 1;"/></g><g class="text"/></g><g class="trace scatter trace5dbfdb" style="stroke-miterlimit: 2; opacity: 0.5;"><g class="fills"><g><path class="js-fill" d="M0,154.8L0,124.7L0,124.7L80.4,124.7L80.4,4.3L80.4,4.3L87.87,4.3L87.87,64.5L87.87,64.5L170.14,64.5L170.14,4.3L170.14,4.3L252.41,4.3L252.41,154.8Z" style="fill: rgb(120, 158, 6); fill-opacity: 1; stroke-width: 0;"/></g></g><g class="errorbars"/><g class="lines"><path class="js-line" d="M0,154.8L0,124.7L0,124.7L80.4,124.7L80.4,4.3L80.4,4.3L87.87,4.3L87.87,64.5L87.87,64.5L170.14,64.5L170.14,4.3L170.14,4.3L252.41,4.3L252.41,154.8" style="vector-effect: none; fill: none; stroke: rgb(120, 158, 6); stroke-opacity: 1; stroke-width: 0px; opacity: 1;"/></g><g class="points"/><g class="text"/></g></g></g></g><path class="xlines-above crisp" d="M0,0" style="fill: none;"/><path class="ylines-above crisp" d="M0,0" style="fill: none;"/><g class="overlines-above"/><g class="xaxislayer-above"><g class="x2tick"><text text-anchor="middle" x="0" y="207.79999999999998" transform="translate(345.3625,0)" style="font-family: 'Times New Roman'; font-size: 12px; fill: rgb(0, 0, 0); fill-opacity: 1; white-space: pre; opacity: 1;">0s</text></g><g class="x2tick"><text text-anchor="middle" x="0" y="207.79999999999998" style="font-family: 'Times New Roman'; font-size: 12px; fill: rgb(0, 0, 0); fill-opacity: 1; white-space: pre; opacity: 1;" transform="translate(412.1325,0)">5s</text></g><g class="x2tick"><text text-anchor="middle" x="0" y="207.79999999999998" style="font-family: 'Times New Roman'; font-size: 12px; fill: rgb(0, 0, 0); fill-opacity: 1; white-space: pre; opacity: 1;" transform="translate(478.9125,0)">10s</text></g><g class="x2tick"><text text-anchor="middle" x="0" y="207.79999999999998" style="font-family: 'Times New Roman'; font-size: 12px; fill: rgb(0, 0, 0); fill-opacity: 1; white-space: pre; opacity: 1;" transform="translate(545.6825,0)">15s</text></g><g class="x2tick"><text text-anchor="middle" x="0" y="207.79999999999998" style="font-family: 'Times New Roman'; font-size: 12px; fill: rgb(0, 0, 0); fill-opacity: 1; white-space: pre; opacity: 1;" transform="translate(612.4625000000001,0)">20s</text></g></g><g class="yaxislayer-above"><g class="y2tick"><text text-anchor="end" x="344.3625" y="4.199999999999999" transform="translate(0,194.8)" style="font-family: 'Times New Roman'; font-size: 12px; fill: rgb(0, 0, 0); fill-opacity: 1; white-space: pre; opacity: 1;">0°C</text></g><g class="y2tick"><text text-anchor="end" x="344.3625" y="4.199999999999999" style="font-family: 'Times New Roman'; font-size: 12px; fill: rgb(0, 0, 0); fill-opacity: 1; white-space: pre; opacity: 1;" transform="translate(0,151.8)">100°C</text></g><g class="y2tick"><text text-anchor="end" x="344.3625" y="4.199999999999999" style="font-family: 'Times New Roman'; font-size: 12px; fill: rgb(0, 0, 0); fill-opacity: 1; white-space: pre; opacity: 1;" transform="translate(0,108.8)">200°C</text></g><g class="y2tick"><text text-anchor="end" x="344.3625" y="4.199999999999999" style="font-family: 'Times New Roman'; font-size: 12px; fill: rgb(0, 0, 0); fill-opacity: 1; white-space: pre; opacity: 1;" transform="translate(0,65.8)">300°C</text></g></g><g class="overaxes-above"/></g><g class="subplot x3y3"><g class="layer-subplot"><g class="shapelayer"/><g class="imagelayer"/></g><g class="minor-gridlayer"><g class="x3"/><g class="y3"/></g><g class="gridlayer"><g class="x3"><path class="x3grid crisp" transform="translate(134.44,0)" d="M0,229.20000000000002v154.8" style="stroke: rgb(255, 255, 255); stroke-opacity: 1; stroke-width: 1px;"/><path class="x3grid crisp" transform="translate(236.87,0)" d="M0,229.20000000000002v154.8" style="stroke: rgb(255, 255, 255); stroke-opacity: 1; stroke-width: 1px;"/></g><g class="y3"><path class="y3grid crisp" transform="translate(0,341)" d="M32,0h269.6375" style="stroke: rgb(255, 255, 255); stroke-opacity: 1; stroke-width: 1px;"/><path class="y3grid crisp" transform="translate(0,298)" d="M32,0h269.6375" style="stroke: rgb(255, 255, 255); stroke-opacity: 1; stroke-width: 1px;"/><path class="y3grid crisp" transform="translate(0,255.00000000000003)" d="M32,0h269.6375" style="stroke: rgb(255, 255, 255); stroke-opacity: 1; stroke-width: 1px;"/></g></g><g class="zerolinelayer"><path class="x3zl zl crisp" transform="translate(32,0)" d="M0,229.20000000000002v154.8" style="stroke: rgb(255, 255, 255); stroke-opacity: 1; stroke-width: 2px;"/><path class="y3zl zl crisp" transform="translate(0,384)" d="M32,0h269.6375" style="stroke: rgb(255, 255, 255); stroke-opacity: 1; stroke-width: 2px;"/></g><g class="layer-between"><g class="shapelayer"/><g class="imagelayer"/></g><path class="xlines-below"/><path class="ylines-below"/><g class="overlines-below"/><g class="xaxislayer-below"/><g class="yaxislayer-below"/><g class="overaxes-below"/><g class="overplot"><g class="x3y3" transform="translate(32,229.20000000000002)" clip-path="url(#clipbf1c87x3y3plot)"><g class="scatterlayer mlayer"><g class="trace scatter trace6c1d76" style="stroke-miterlimit: 2; opacity: 1;"><g class="fills"/><g class="errorbars"/><g class="lines"/><g class="points"><path class="point" transform="translate(61.67,111.8)" d="M3,0A3,3 0 1,1 0,-3A3,3 0 0,1 3,0Z" style="opacity: 1; stroke-width: 0px; fill: rgb(6, 158, 120); fill-opacity: 1;"/><path class="point" transform="translate(64.54,17.2)" d="M3,0A3,3 0 1,1 0,-3A3,3 0 0,1 3,0Z" style="opacity: 1; stroke-width: 0px; fill: rgb(6, 158, 120); fill-opacity: 1;"/><path class="point" transform="translate(126.2,81.7)" d="M3,0A3,3 0 1,1 0,-3A3,3 0 0,1 3,0Z" style="opacity: 1; stroke-width: 0px; fill: rgb(6, 158, 120); fill-opacity: 1;"/><path class="point" transform="translate(129.07,17.2)" d="M3,0A3,3 0 1,1 0,-3A3,3 0 0,1 3,0Z" style="opacity: 1; stroke-width: 0px; fill: rgb(6, 158, 120); fill-opacity: 1;"/><path class="point" transform="translate(131.94,51.6)" d="M3,0A3,3 0 1,1 0,-3A3,3 0 0,1 3,0Z" style="opacity: 1; stroke-width: 0px; fill: rgb(6, 158, 120); fill-opacity: 1;"/><path class="point" transform="translate(160.62,51.6)" d="M3,0A3,3 0 1,1 0,-3A3,3 0 0,1 3,0Z" style="opacity: 1; stroke-width: 0px; fill: rgb(6, 158, 120); fill-opacity: 1;"/><path class="point" transform="translate(190.74,51.6)" d="M3,0A3,3 0 1,1 0,-3A3,3 0 0,1 3,0Z" style="opacity: 1; stroke-width: 0px; fill: rgb(6, 158, 120); fill-opacity: 1;"/><path class="point" transform="translate(193.61,17.2)" d="M3,0A3,3 0 1,1 0,-3A3,3 0 0,1 3,0Z" style="opacity: 1; stroke-width: 0px; fill: rgb(6, 158, 120); fill-opacity: 1;"/><path class="point" transform="translate(222.29,17.2)" d="M3,0A3,3 0 1,1 0,-3A3,3 0 0,1 3,0Z" style="opacity: 1; stroke-width: 0px; fill: rgb(6, 158, 120); fill-opacity: 1;"/><path class="point" transform="translate(252.41,17.2)" d="M3,0A3,3 0 1,1 0,-3A3,3 0 0,1 3,0Z" style="opacity: 1; stroke-width: 0px; fill: rgb(6, 158, 120); fill-opacity: 1;"/></g><g class="text"/></g><g class="trace scatter trace11bd00" style="stroke-miterlimit: 2; opacity: 0.5;"><g class="fills"><g><path class="js-fill" d="M0,154.8L0,111.8L0,111.8L61.67,111.8L61.67,17.2L61.67,17.2L64.54,17.2L64.54,81.7L64.54,81.7L126.2,81.7L126.2,17.2L126.2,17.2L129.07,17.2L129.07,51.6L129.07,51.6L190.74,51.6L190.74,17.2L190.74,17.2L252.41,17.2L252.41,154.8Z" style="fill: rgb(6, 158, 120); fill-opacity: 1; stroke-width: 0;"/></g></g><g class="errorbars"/><g class="lines"><path class="js-line" d="M0,154.8L0,111.8L0,111.8L61.67,111.8L61.67,17.2L61.67,17.2L64.54,17.2L64.54,81.7L64.54,81.7L126.2,81.7L126.2,17.2L126.2,17.2L129.07,17.2L129.07,51.6L129.07,51.6L190.74,51.6L190.74,17.2L190.74,17.2L252.41,17.2L252.41,154.8" style="vector-effect: none; fill: none; stroke: rgb(6, 158, 120); stroke-opacity: 1; stroke-width: 0px; opacity: 1;"/></g><g class="points"/><g class="text"/></g></g></g></g><path class="xlines-above crisp" d="M0,0" style="fill: none;"/><path class="ylines-above crisp" d="M0,0" style="fill: none;"/><g class="overlines-above"/><g class="xaxislayer-above"><g class="x3tick"><text text-anchor="middle" x="0" y="397" transform="translate(32,0)" style="font-family: 'Times New Roman'; font-size: 12px; fill: rgb(0, 0, 0); fill-opacity: 1; white-space: pre; opacity: 1;">0s</text></g><g class="x3tick"><text text-anchor="middle" x="0" y="397" style="font-family: 'Times New Roman'; font-size: 12px; fill: rgb(0, 0, 0); fill-opacity: 1; white-space: pre; opacity: 1;" transform="translate(134.44,0)">10s</text></g><g class="x3tick"><text text-anchor="middle" x="0" y="397" style="font-family: 'Times New Roman'; font-size: 12px; fill: rgb(0, 0, 0); fill-opacity: 1; white-space: pre; opacity: 1;" transform="translate(236.87,0)">20s</text></g></g><g class="yaxislayer-above"><g class="y3tick"><text text-anchor="end" x="31" y="4.199999999999999" transform="translate(0,384)" style="font-family: 'Times New Roman'; font-size: 12px; fill: rgb(0, 0, 0); fill-opacity: 1; white-space: pre; opacity: 1;">0°C</text></g><g class="y3tick"><text text-anchor="end" x="31" y="4.199999999999999" style="font-family: 'Times New Roman'; font-size: 12px; fill: rgb(0, 0, 0); fill-opacity: 1; white-space: pre; opacity: 1;" transform="translate(0,341)">100°C</text></g><g class="y3tick"><text text-anchor="end" x="31" y="4.199999999999999" style="font-family: 'Times New Roman'; font-size: 12px; fill: rgb(0, 0, 0); fill-opacity: 1; white-space: pre; opacity: 1;" transform="translate(0,298)">200°C</text></g><g class="y3tick"><text text-anchor="end" x="31" y="4.199999999999999" style="font-family: 'Times New Roman'; font-size: 12px; fill: rgb(0, 0, 0); fill-opacity: 1; white-space: pre; opacity: 1;" transform="translate(0,255.00000000000003)">300°C</text></g></g><g class="overaxes-above"/></g><g class="subplot x4y4"><g class="layer-subplot"><g class="shapelayer"/><g class="imagelayer"/></g><g class="minor-gridlayer"><g class="x4"/><g class="y4"/></g><g class="gridlayer"><g class="x4"><path class="x4grid crisp" transform="translate(439.26250000000005,0)" d="M0,229.20000000000002v154.8" style="stroke: rgb(255, 255, 255); stroke-opacity: 1; stroke-width: 1px;"/><path class="x4grid crisp" transform="translate(533.1625,0)" d="M0,229.20000000000002v154.8" style="stroke: rgb(255, 255, 255); stroke-opacity: 1; stroke-width: 1px;"/></g><g class="y4"><path class="y4grid crisp" transform="translate(0,341)" d="M345.3625,0h269.6375" style="stroke: rgb(255, 255, 255); stroke-opacity: 1; stroke-width: 1px;"/><path class="y4grid crisp" transform="translate(0,298)" d="M345.3625,0h269.6375" style="stroke: rgb(255, 255, 255); stroke-opacity: 1; stroke-width: 1px;"/><path class="y4grid crisp" transform="translate(0,255.00000000000003)" d="M345.3625,0h269.6375" style="stroke: rgb(255, 255, 255); stroke-opacity: 1; stroke-width: 1px;"/></g></g><g class="zerolinelayer"><path class="x4zl zl crisp" transform="translate(345.3625,0)" d="M0,229.20000000000002v154.8" style="stroke: rgb(255, 255, 255); stroke-opacity: 1; stroke-width: 2px;"/><path class="y4zl zl crisp" transform="translate(0,384)" d="M345.3625,0h269.6375" style="stroke: rgb(255, 255, 255); stroke-opacity: 1; stroke-width: 2px;"/></g><g class="layer-between"><g class="shapelayer"/><g class="imagelayer"/></g><path class="xlines-below"/><path class="ylines-below"/><g class="overlines-below"/><g class="xaxislayer-below"/><g class="yaxislayer-below"/><g class="overaxes-below"/><g class="overplot"><g class="x4y4" transform="translate(345.3625,229.20000000000002)" clip-path="url(#clipbf1c87x4y4plot)"><g class="scatterlayer mlayer"><g class="trace scatter tracee4963e" style="stroke-miterlimit: 2; opacity: 1;"><g class="fills"/><g class="errorbars"/><g class="lines"/><g class="points"><path class="point" transform="translate(31.55,64.5)" d="M3,0A3,3 0 1,1 0,-3A3,3 0 0,1 3,0Z" style="opacity: 1; stroke-width: 0px; fill: rgb(44, 6, 158); fill-opacity: 1;"/><path class="point" transform="translate(34.18,34.4)" d="M3,0A3,3 0 1,1 0,-3A3,3 0 0,1 3,0Z" style="opacity: 1; stroke-width: 0px; fill: rgb(44, 6, 158); fill-opacity: 1;"/><path class="point" transform="translate(63.1,34.4)" d="M3,0A3,3 0 1,1 0,-3A3,3 0 0,1 3,0Z" style="opacity: 1; stroke-width: 0px; fill: rgb(44, 6, 158); fill-opacity: 1;"/><path class="point" transform="translate(65.73,4.3)" d="M3,0A3,3 0 1,1 0,-3A3,3 0 0,1 3,0Z" style="opacity: 1; stroke-width: 0px; fill: rgb(44, 6, 158); fill-opacity: 1;"/><path class="point" transform="translate(94.65,4.3)" d="M3,0A3,3 0 1,1 0,-3A3,3 0 0,1 3,0Z" style="opacity: 1; stroke-width: 0px; fill: rgb(44, 6, 158); fill-opacity: 1;"/><path class="point" transform="translate(126.2,34.4)" d="M3,0A3,3 0 1,1 0,-3A3,3 0 0,1 3,0Z" style="opacity: 1; stroke-width: 0px; fill: rgb(44, 6, 158); fill-opacity: 1;"/><path class="point" transform="translate(157.75,64.5)" d="M3,0A3,3 0 1,1 0,-3A3,3 0 0,1 3,0Z" style="opacity: 1; stroke-width: 0px; fill: rgb(44, 6, 158); fill-opacity: 1;"/><path class="point" transform="translate(189.3,94.6)" d="M3,0A3,3 0 1,1 0,-3A3,3 0 0,1 3,0Z" style="opacity: 1; stroke-width: 0px; fill: rgb(44, 6, 158); fill-opacity: 1;"/><path class="point" transform="translate(220.85,124.7)" d="M3,0A3,3 0 1,1 0,-3A3,3 0 0,1 3,0Z" style="opacity: 1; stroke-width: 0px; fill: rgb(44, 6, 158); fill-opacity: 1;"/><path class="point" transform="translate(252.41,94.6)" d="M3,0A3,3 0 1,1 0,-3A3,3 0 0,1 3,0Z" style="opacity: 1; stroke-width: 0px; fill: rgb(44, 6, 158); fill-opacity: 1;"/></g><g class="text"/></g><g class="trace scatter trace484ca0" style="stroke-miterlimit: 2; opacity: 0.5;"><g class="fills"><g><path class="js-fill" d="M0,154.8L0,64.5L0,64.5L31.55,64.5L31.55,34.4L31.55,34.4L63.1,34.4L63.1,4.3L63.1,4.3L94.65,4.3L94.65,34.4L94.65,34.4L126.2,34.4L126.2,64.5L126.2,64.5L157.75,64.5L157.75,94.6L157.75,94.6L189.3,94.6L189.3,124.7L189.3,124.7L220.85,124.7L220.85,94.6L220.85,94.6L252.41,94.6L252.41,154.8Z" style="fill: rgb(44, 6, 158); fill-opacity: 1; stroke-width: 0;"/></g></g><g class="errorbars"/><g class="lines"><path class="js-line" d="M0,154.8L0,64.5L0,64.5L31.55,64.5L31.55,34.4L31.55,34.4L63.1,34.4L63.1,4.3L63.1,4.3L94.65,4.3L94.65,34.4L94.65,34.4L126.2,34.4L126.2,64.5L126.2,64.5L157.75,64.5L157.75,94.6L157.75,94.6L189.3,94.6L189.3,124.7L189.3,124.7L220.85,124.7L220.85,94.6L220.85,94.6L252.41,94.6L252.41,154.8" style="vector-effect: none; fill: none; stroke: rgb(44, 6, 158); stroke-opacity: 1; stroke-width: 0px; opacity: 1;"/></g><g class="points"/><g class="text"/></g></g></g></g><path class="xlines-above crisp" d="M0,0" style="fill: none;"/><path class="ylines-above crisp" d="M0,0" style="fill: none;"/><g class="overlines-above"/><g class="xaxislayer-above"><g class="x4tick"><text text-anchor="middle" x="0" y="397" transform="translate(345.3625,0)" style="font-family: 'Times New Roman'; font-size: 12px; fill: rgb(0, 0, 0); fill-opacity: 1; white-space: pre; opacity: 1;">0s</text></g><g class="x4tick"><text text-anchor="middle" x="0" y="397" style="font-family: 'Times New Roman'; font-size: 12px; fill: rgb(0, 0, 0); fill-opacity: 1; white-space: pre; opacity: 1;" transform="translate(439.26250000000005,0)">10s</text></g><g class="x4tick"><text text-anchor="middle" x="0" y="397" style="font-family: 'Times New Roman'; font-size: 12px; fill: rgb(0, 0, 0); fill-opacity: 1; white-space: pre; opacity: 1;" transform="translate(533.1625,0)">20s</text></g></g><g class="yaxislayer-above"><g class="y4tick"><text text-anchor="end" x="344.3625" y="4.199999999999999" transform="translate(0,384)" style="font-family: 'Times New Roman'; font-size: 12px; fill: rgb(0, 0, 0); fill-opacity: 1; white-space: pre; opacity: 1;">0°C</text></g><g class="y4tick"><text text-anchor="end" x="344.3625" y="4.199999999999999" style="font-family: 'Times New Roman'; font-size: 12px; fill: rgb(0, 0, 0); fill-opacity: 1; white-space: pre; opacity: 1;" transform="translate(0,341)">100°C</text></g><g class="y4tick"><text text-anchor="end" x="344.3625" y="4.199999999999999" style="font-family: 'Times New Roman'; font-size: 12px; fill: rgb(0, 0, 0); fill-opacity: 1; white-space: pre; opacity: 1;" transform="translate(0,298)">200°C</text></g><g class="y4tick"><text text-anchor="end" x="344.3625" y="4.199999999999999" style="font-family: 'Times New Roman'; font-size: 12px; fill: rgb(0, 0, 0); fill-opacity: 1; white-space: pre; opacity: 1;" transform="translate(0,255.00000000000003)">300°C</text></g></g><g class="overaxes-above"/></g></g><g class="polarlayer"/><g class="smithlayer"/><g class="ternarylayer"/><g class="geolayer"/><g class="funnelarealayer"/><g class="pielayer"/><g class="iciclelayer"/><g class="treemaplayer"/><g class="sunburstlayer"/><g class="glimages"/><defs id="topdefs-bf1c87"><g class="clips"/></defs><g class="layer-above"><g class="imagelayer"/><g class="shapelayer"/></g><g class="infolayer"><g class="g-gtitle"><text class="gtitle" x="312.5" y="20" text-anchor="middle" dy="0em" style="opacity: 1; font-family: 'Times New Roman'; font-size: 16px; fill: rgb(0, 0, 0); fill-opacity: 1; white-space: pre;">Matrix 0 Heater Profiles</text></g><g class="g-xtitle"/><g class="g-x2title"/><g class="g-x3title"/><g class="g-x4title"/><g class="g-ytitle"/><g class="g-y2title"/><g class="g-y3title"/><g class="g-y4title"/><g class="annotation" data-index="0" style="opacity: 1;"><g class="annotation-text-g" transform="rotate(0,166.81875,30)"><g class="cursor-pointer" transform="translate(143,20)"><rect class="bg" x="0.5" y="0.5" width="47" height="19" style="stroke-width: 1px; stroke: rgb(0, 0, 0); stroke-opacity: 0; fill: rgb(0, 0, 0); fill-opacity: 0;"/><text class="annotation-text" text-anchor="middle" x="23.78125" y="14.5" style="font-family: 'Times New Roman'; font-size: 14px; fill: rgb(0, 0, 0); fill-opacity: 1; white-space: pre;">HP-354</text></g></g></g><g class="annotation" data-index="1" style="opacity: 1;"><g class="annotation-text-g" transform="rotate(0,480.18125000000003,30)"><g class="cursor-pointer" transform="translate(456,20)"><rect class="bg" x="0.5" y="0.5" width="47" height="19" style="stroke-width: 1px; stroke: rgb(0, 0, 0); stroke-opacity: 0; fill: rgb(0, 0, 0); fill-opacity: 0;"/><text class="annotation-text" text-anchor="middle" x="23.78125" y="14.5" style="font-family: 'Times New Roman'; font-size: 14px; fill: rgb(0, 0, 0); fill-opacity: 1; white-space: pre;">HP-323</text></g></g></g><g class="annotation" data-index="2" style="opacity: 1;"><g class="annotation-text-g" transform="rotate(0,166.81875,219.20000000000002)"><g class="cursor-pointer" transform="translate(143,209)"><rect class="bg" x="0.5" y="0.5" width="47" height="19" style="stroke-width: 1px; stroke: rgb(0, 0, 0); stroke-opacity: 0; fill: rgb(0, 0, 0); fill-opacity: 0;"/><text class="annotation-text" text-anchor="middle" x="23.78125" y="14.5" style="font-family: 'Times New Roman'; font-size: 14px; fill: rgb(0, 0, 0); fill-opacity: 1; white-space: pre;">HP-411</text></g></g></g><g class="annotation" data-index="3" style="opacity: 1;"><g class="annotation-text-g" transform="rotate(0,480.18125000000003,219.20000000000002)"><g class="cursor-pointer" transform="translate(456,209)"><rect class="bg" x="0.5" y="0.5" width="47" height="19" style="stroke-width: 1px; stroke: rgb(0, 0, 0); stroke-opacity: 0; fill: rgb(0, 0, 0); fill-opacity: 0;"/><text class="annotation-text" text-anchor="middle" x="23.78125" y="14.5" style="font-family: 'Times New Roman'; font-size: 14px; fill: rgb(0, 0, 0); fill-opacity: 1; white-space: pre;">HP-503</text></g></g></g></g></svg>